<?xml version="1.0" encoding="utf-8"?>
<!-- Generator: Adobe Illustrator 27.5.0, SVG Export Plug-In . SVG Version: 6.00 Build 0)  -->
<svg version="1.1" xmlns="http://www.w3.org/2000/svg" xmlns:xlink="http://www.w3.org/1999/xlink" x="0px" y="0px"
	 viewBox="0 0 3710 3710" style="enable-background:new 0 0 3710 3710;" xml:space="preserve">
<g id="Background">
	<g>
		<g>
			<rect style="fill:#FFFFFF;" width="3710" height="3710"/>
		</g>
	</g>
</g>
<g id="Illustration">
	<g>
		<linearGradient id="SVGID_1_" gradientUnits="userSpaceOnUse" x1="3585.5264" y1="4041.854" x2="1129.9946" y2="992.2379">
			<stop  offset="0" style="stop-color:#B37CFF"/>
			<stop  offset="1" style="stop-color:#F895E7"/>
		</linearGradient>
		<path style="opacity:0.3;fill:url(#SVGID_1_);" d="M2909.994,2839.196c-56.403,59.378-109.77,97.67-151.935,127.924
			c-495.638,355.626-1082.109,251.963-1206.751,226.647c-184.057-37.383-539.834-109.643-797.055-412.13
			C365.1,2324.001,425.697,1603.008,727.551,1127.07c55.214-87.057,346.869-570.244,939.657-647.732
			c358.749-46.895,776.935,47.687,1079.773,301.405C3382.667,1313.321,3337.412,2389.223,2909.994,2839.196z"/>
		<g>
			
				<linearGradient id="SVGID_00000096744915371914693370000002457604951637386665_" gradientUnits="userSpaceOnUse" x1="1691.6173" y1="2495.7234" x2="286.2192" y2="364.3171">
				<stop  offset="0" style="stop-color:#CB236D"/>
				<stop  offset="1" style="stop-color:#4C246D"/>
			</linearGradient>
			<path style="fill:url(#SVGID_00000096744915371914693370000002457604951637386665_);" d="M913.289,500.769
				c5.05-18.24,31.253-17.587,35.305,0.901c39.175,178.736,156.58,644.193,363.888,899.575
				c337.546,415.822,540.288,1071.071,290.233,1389.92C1602.715,2791.165,363.148,2488.19,913.289,500.769z"/>
			<path style="opacity:0.43;fill:#FFFFFF;" d="M938.329,754.076c0.239,4.674,0.863,9.833,1.35,14.809l1.74,15.037l3.817,30.05
				c2.659,20.022,5.531,40.016,8.456,60.002c5.97,39.957,12.433,79.837,19.263,119.654c13.585,79.644,28.714,159.022,45.364,238.073
				c33.547,158.035,72.261,315.017,118.812,469.692c5.578,19.406,11.894,38.585,17.855,57.873l9.015,28.909
				c2.995,9.639,6.277,19.186,9.401,28.783c6.371,19.154,12.536,38.38,19.078,57.477l20.037,57.146l5.039,14.276l5.296,14.182
				l10.591,28.364l10.591,28.365c3.602,9.427,7.435,18.764,11.139,28.151c7.537,18.722,14.793,37.562,22.559,56.189l23.664,55.73
				c1.984,4.639,3.885,9.315,5.937,13.924l6.248,13.785l12.495,27.572l12.495,27.575c4.28,9.138,8.801,18.159,13.188,27.245
				l13.26,27.214c4.496,9.033,8.656,18.24,13.482,27.103l28.158,53.596c38.5,70.942,80.138,140.217,126.131,206.639l0.011,0.016
				c0.524,0.756,0.335,1.793-0.421,2.316c-0.75,0.519-1.774,0.337-2.303-0.401c-47.041-65.86-89.933-134.62-129.466-205.267
				l-28.693-53.51c-4.916-8.852-9.163-18.042-13.749-27.063l-13.526-27.178c-4.478-9.074-9.09-18.087-13.458-27.213l-12.764-27.542
				l-12.765-27.545l-6.381-13.773c-2.096-4.605-4.043-9.276-6.072-13.91c-65.019-148.298-119.376-301.095-165.715-456.143
				l-17.076-58.238l-16.198-58.486c-5.534-19.459-10.38-39.101-15.585-58.648l-7.68-29.353l-7.295-29.451
				c-19.577-78.501-37.557-157.401-53.529-236.707c-16.035-79.288-30.805-158.835-43.548-238.714
				c-6.322-39.947-12.277-79.949-17.736-120.022c-2.669-20.045-5.285-40.096-7.688-60.176l-3.433-30.145l-1.55-15.099
				c-0.416-5.087-1-9.968-1.164-15.397c-0.028-0.913,0.69-1.674,1.603-1.702c0.899-0.027,1.654,0.671,1.699,1.566L938.329,754.076z"
				/>
		</g>
		<g>
			
				<linearGradient id="SVGID_00000055699274655913074860000017343123449111460758_" gradientUnits="userSpaceOnUse" x1="4675.4199" y1="7521.8516" x2="5208.7412" y2="7521.8516" gradientTransform="matrix(-0.7646 0.6445 0.6445 0.7646 -89.5566 -6894.2651)">
				<stop  offset="0" style="stop-color:#A737D5"/>
				<stop  offset="1" style="stop-color:#EF497A"/>
			</linearGradient>
			<path style="fill:url(#SVGID_00000055699274655913074860000017343123449111460758_);" d="M1621.708,2859.949
				c0,0,18.859-261.632-219.442-550.44c-221.101-267.964-767.885-891.166-876.817-1218.177
				c-4.825-14.486-25.865-12.297-27.436,2.891c-16.857,162.917-27.006,574.266,216.923,1006.859
				C1029.495,2658.936,1621.708,2859.949,1621.708,2859.949z"/>
			<path style="opacity:0.45;fill:#FFFFFF;" d="M593.839,1392.113c1.176,18.025,3.964,35.911,7.087,53.681
				c3.148,17.777,7.015,35.418,11.328,52.937c4.23,17.543,9.271,34.877,14.417,52.158c5.376,17.22,11.061,34.333,17.115,51.316
				c24.252,67.922,54.518,133.63,89.662,196.541c8.605,15.829,17.842,31.304,26.89,46.881c9.519,15.298,18.691,30.808,28.685,45.805
				c19.416,30.356,40.328,59.724,61.528,88.851l16.3,21.558l8.165,10.766l8.414,10.576l16.826,21.151
				c5.656,7.012,11.528,13.849,17.281,20.782c11.467,13.877,23.28,27.547,35.107,41.208l35.404,41.031
				c47.691,54.283,95.797,108.211,144.986,161.168c24.418,26.636,49.28,52.874,73.983,79.256l74.354,78.965
				c24.794,26.326,49.706,52.545,74.323,79.075l18.497,19.861l18.304,20.056c6.082,6.705,12.246,13.327,18.26,20.098l17.891,20.448
				c12.071,13.497,23.485,27.597,35.12,41.484c5.9,6.874,11.341,14.144,16.935,21.276c5.524,7.192,11.237,14.229,16.599,21.544
				c21.491,29.232,41.21,59.843,57.5,92.315c0.413,0.823,0.081,1.824-0.741,2.237c-0.797,0.399-1.758,0.102-2.195-0.662
				l-0.044-0.079l-13.362-23.485l-3.335-5.866c-1.125-1.948-2.457-3.775-3.675-5.668l-7.466-11.262
				c-9.567-15.262-20.754-29.443-31.37-43.987c-5.465-7.162-11.292-14.059-16.917-21.099c-5.701-6.984-11.235-14.094-17.248-20.832
				c-11.854-13.605-23.467-27.4-35.767-40.629c-48.451-53.53-98.775-105.446-148.985-157.495l-75.262-78.167
				c-24.81-26.336-49.753-52.543-74.279-79.154c-49.391-52.902-97.719-106.801-145.635-161.057l-35.573-41.013l-17.787-20.507
				c-5.935-6.83-11.62-13.924-17.444-20.872c-5.761-7.006-11.641-13.915-17.307-21l-16.85-21.371l-8.425-10.685l-8.176-10.878
				l-16.32-21.781c-21.284-29.387-42.084-59.153-61.314-89.941c-9.914-15.2-19.008-30.917-28.439-46.414
				c-8.931-15.798-18.185-31.41-26.548-47.522c-34.287-63.96-63.598-130.618-86.8-199.342c-11.594-34.364-21.25-69.37-29-104.771
				c-7.654-35.391-13.749-71.262-15.107-107.473c-0.003-0.114,0.085-0.209,0.198-0.213
				C593.736,1391.905,593.83,1392.002,593.839,1392.113z"/>
		</g>
		<g>
			
				<linearGradient id="SVGID_00000078013108866191834430000007866636980784738742_" gradientUnits="userSpaceOnUse" x1="1075.916" y1="1787.0256" x2="2842.4229" y2="1787.0256">
				<stop  offset="0" style="stop-color:#2B3582"/>
				<stop  offset="1" style="stop-color:#150E42"/>
			</linearGradient>
			<path style="fill:url(#SVGID_00000078013108866191834430000007866636980784738742_);" d="M1108.286,602.554
				c-10.419,420.282-44.21,1869.994-28.079,2383.728c1.709,54.425,45.339,98.109,99.762,99.89
				c269.179,8.809,1043.529,31.135,1483.815,12.663c91.705-3.847,164.63-78.128,166.534-169.894
				c9.149-441.14,29.335-1681.9-18.644-2250.292c-5.749-68.102-59.201-122.334-127.206-129.138
				c-293.148-29.326-1071.742-101.01-1452.122-76.325C1163.745,477.637,1109.99,533.829,1108.286,602.554z"/>
			
				<linearGradient id="SVGID_00000176006822337492820010000008775338525360510907_" gradientUnits="userSpaceOnUse" x1="2404.7195" y1="1117.088" x2="-1156.3086" y2="5672.521">
				<stop  offset="0" style="stop-color:#FDF53F"/>
				<stop  offset="0.6645" style="stop-color:#E57A58"/>
				<stop  offset="1" style="stop-color:#D93C65"/>
			</linearGradient>
			<path style="fill:url(#SVGID_00000176006822337492820010000008775338525360510907_);" d="M1217.662,733.144
				c-14.703,344.208-61.074,1489.307-46.356,1912.741c2.151,61.891,50.931,111.934,112.753,115.552
				c254.542,14.896,907.417,47.74,1280.766,17.843c67.227-5.383,119.982-59.752,123.611-127.097
				c18.92-351.165,73.244-1417.413,59.135-1836.101c-2.251-66.792-53.99-121.341-120.553-127.317
				c-275.373-24.723-982.625-83.552-1299.886-66.242C1267.576,625.773,1220.207,673.554,1217.662,733.144z"/>
			<path style="opacity:0.5;fill:#3F67F9;" d="M1773.532,546.623L1773.532,546.623c0,12.896,10.05,23.532,22.928,24.206
				c63.579,3.329,242.68,12.751,322.722,17.395c15.782,0.916,28.169-13.27,25.175-28.793l-0.511-2.648
				c-2.043-10.592-10.827-18.564-21.569-19.548c-54.105-4.957-217.363-18.704-325.532-14.843
				C1783.753,522.855,1773.532,533.622,1773.532,546.623z"/>
		</g>
		<g>
			
				<linearGradient id="SVGID_00000174559847127234226080000001039670396062145169_" gradientUnits="userSpaceOnUse" x1="2906.4651" y1="1866.686" x2="3480.5115" y2="1190.8777">
				<stop  offset="0" style="stop-color:#53D8FF"/>
				<stop  offset="1" style="stop-color:#3840F7"/>
			</linearGradient>
			<path style="fill:url(#SVGID_00000174559847127234226080000001039670396062145169_);" d="M3161.135,1874.314l-227.259,12.9
				c-19.025,1.08-35.393-13.311-36.76-32.316l-18.956-263.636c-1.452-20.193,14.538-37.375,34.783-37.375h246.216
				c19.26,0,34.873,15.613,34.873,34.873v250.737C3194.032,1857.989,3179.598,1873.266,3161.135,1874.314z"/>
			<g>
				<path style="fill:#FFFFFF;" d="M2981.062,1809.475c-16.212-0.819-28.737-14.678-27.918-30.89
					c0.819-16.212,14.678-28.737,30.89-27.918c16.212,0.819,28.737,14.678,27.918,30.89
					C3011.132,1797.769,2997.274,1810.295,2981.062,1809.475z M2983.444,1762.338c-9.779-0.494-18.135,7.059-18.63,16.837
					c-0.494,9.779,7.059,18.136,16.837,18.63c9.779,0.494,18.136-7.059,18.63-16.837
					C3000.776,1771.189,2993.223,1762.832,2983.444,1762.338z"/>
				<g>
					<path style="fill:#FFFFFF;" d="M2985.718,1717.343c34.59,1.748,61.306,31.309,59.558,65.899
						c-0.109,2.144-0.332,4.253-0.656,6.329c-0.437,2.792,1.805,5.264,4.618,4.988l9.198-0.902c2.009-0.197,3.584-1.774,3.836-3.776
						c0.238-1.897,0.411-3.814,0.509-5.754c2.236-44.24-31.939-82.053-76.179-84.289c-3.352-0.169-6.663-0.119-9.926,0.126
						c-2.443,0.183-4.253,2.349-3.965,4.781l1.061,8.95c0.268,2.263,2.263,3.91,4.536,3.743
						C2980.746,1717.259,2983.216,1717.217,2985.718,1717.343z"/>
					<path style="fill:#FFFFFF;" d="M2988.004,1672.12c59.526,3.008,105.504,53.881,102.495,113.407
						c-0.001,0.017-0.002,0.034-0.003,0.051c-0.134,2.604,2.037,4.735,4.632,4.48l9.023-0.885c1.48-1.547,2.433-2.543,3.914-4.09
						c2.75-68.603-50.444-126.995-119.177-130.469c-6-0.303-11.917-0.154-17.732,0.382c-2.365,0.218-4.06,2.392-3.78,4.75
						l1.058,8.927c0.27,2.273,2.284,3.957,4.563,3.752C2977.921,1671.983,2982.928,1671.864,2988.004,1672.12z"/>
					<path style="fill:#FFFFFF;" d="M2990.29,1626.897c82.262,4.158,146.261,72.754,145.59,154.358
						c-0.021,2.562,2.131,4.598,4.681,4.349l8.954-0.878c2.173-0.213,3.869-2.035,3.876-4.219
						c0.278-90.542-70.85-166.498-162.217-171.116c-8.583-0.434-17.041-0.186-25.345,0.637c-2.367,0.234-4.063,2.407-3.783,4.769
						l1.058,8.916c0.275,2.324,2.365,3.958,4.695,3.73C2975.17,1626.725,2982.675,1626.512,2990.29,1626.897z"/>
				</g>
			</g>
		</g>
		<g>
			
				<linearGradient id="SVGID_00000162328717025875009320000010182165551108353696_" gradientUnits="userSpaceOnUse" x1="664.089" y1="2212.3235" x2="1265.4058" y2="1504.4104">
				<stop  offset="0" style="stop-color:#53D8FF"/>
				<stop  offset="1" style="stop-color:#3840F7"/>
			</linearGradient>
			<path style="fill:url(#SVGID_00000162328717025875009320000010182165551108353696_);" d="M930.858,2220.313l-238.056,13.512
				c-19.928,1.131-37.075-13.942-38.506-33.851l-19.857-276.161c-1.521-21.152,15.229-39.15,36.436-39.15h257.913
				c20.175,0,36.53,16.355,36.53,36.53v262.649C965.318,2203.213,950.198,2219.216,930.858,2220.313z"/>
			<path style="fill:#FFFFFF;" d="M798.177,2199.683c-2.307,0-4.639-0.488-6.862-1.483c-5.999-2.688-9.771-8.441-9.848-15.014
				l-1.155-101.725l-72.49,43.397c-5.524,3.304-12.682,1.509-15.988-4.013c-3.307-5.524-1.511-12.682,4.013-15.988l80.43-48.151
				l-82.055-52.097c-5.435-3.449-7.043-10.653-3.592-16.087c3.449-5.435,10.654-7.046,16.087-3.592l73.023,46.361l-1.096-96.449
				c-0.075-6.506,3.514-12.318,9.368-15.167c5.851-2.849,12.643-2.088,17.72,1.987l84.507,67.823
				c4.251,3.412,6.566,8.695,6.192,14.134c-0.372,5.438-3.389,10.355-8.066,13.154l-67.678,40.515l66.218,42.042
				c4.412,2.799,7.285,7.584,7.682,12.799c0.397,5.215-1.719,10.381-5.661,13.82l-79.856,69.605
				C805.953,2198.273,802.099,2199.683,798.177,2199.683z M803.542,2074.013l1.073,94.501l62.275-54.282L803.542,2074.013z
				 M874.415,2119.011h0.033H874.415z M802.117,1948.649l1.044,91.961l65.031-38.931L802.117,1948.649z"/>
		</g>
		<g>
			
				<linearGradient id="SVGID_00000170977814734911358820000004428954773895347617_" gradientUnits="userSpaceOnUse" x1="3314.3337" y1="308.7423" x2="2488.4119" y2="1261.218">
				<stop  offset="0" style="stop-color:#A737D5"/>
				<stop  offset="1" style="stop-color:#EF497A"/>
			</linearGradient>
			<path style="fill:url(#SVGID_00000170977814734911358820000004428954773895347617_);" d="M2553.883,1297.721
				c42.567-13.406,112.407-44.057,145.549-106.843c7.269-13.77-0.604-30.672-15.706-34.459
				c-74.778-18.752-275.678-89.048-257.191-300.266c22.671-259.018,313.294-276.282,498.707-224.778
				c185.413,51.504,279.438,178.661,236.595,373.512c-40.395,183.715-393.405,321.431-606.291,306.327
				C2547.9,1310.671,2546.573,1300.023,2553.883,1297.721z"/>
			<path style="fill:#FFFFFF;" d="M2809.759,1166.242c-7.004,0-11.076-0.219-11.425-0.239c-3.672-0.208-6.48-3.351-6.275-7.023
				c0.205-3.67,3.299-6.465,7.021-6.278c0.176,0.01,17.948,0.955,44.34-1.262c3.695-0.275,6.888,2.415,7.196,6.08
				s-2.415,6.887-6.08,7.196C2829.848,1165.948,2817.848,1166.242,2809.759,1166.242z"/>
			<path style="fill:#FFFFFF;" d="M2929.926,1148.538c-2.849,0-5.487-1.842-6.366-4.708c-1.078-3.517,0.897-7.243,4.413-8.323
				c80.83-24.808,133.15-72.122,155.509-140.628c22.779-69.792,20.568-134.961-6.396-188.463
				c-20.408-40.497-48.039-60.496-48.316-60.692c-2.992-2.133-3.696-6.288-1.568-9.284c2.127-2.999,6.277-3.704,9.274-1.582
				c1.223,0.867,30.219,21.717,52.171,64.902c20.151,39.64,37.809,106.385,7.498,199.252
				c-23.447,71.839-80.25,123.443-164.264,149.23C2931.232,1148.444,2930.573,1148.538,2929.926,1148.538z"/>
			<g style="opacity:0.82;">
				<path style="opacity:0.6;fill:#FFFFFF;" d="M2945.313,793.603h-431.616c-9.224,0-16.702-7.477-16.702-16.701l0,0
					c0-9.224,7.478-16.702,16.702-16.702h431.616c9.224,0,16.701,7.477,16.701,16.702l0,0
					C2962.015,786.126,2954.537,793.603,2945.313,793.603z"/>
				<path style="opacity:0.53;fill:#FFFFFF;" d="M2997.174,859.025h-431.616c-9.224,0-16.702-7.477-16.702-16.701l0,0
					c0-9.224,7.478-16.701,16.702-16.701h431.616c9.224,0,16.701,7.478,16.701,16.701l0,0
					C3013.876,851.548,3006.398,859.025,2997.174,859.025z"/>
				<path style="opacity:0.53;fill:#FFFFFF;" d="M2874.437,989.87h-308.879c-9.224,0-16.702-7.478-16.702-16.702l0,0
					c0-9.224,7.478-16.701,16.702-16.701h308.879c9.224,0,16.701,7.477,16.701,16.701l0,0
					C2891.138,982.393,2883.66,989.87,2874.437,989.87z"/>
				<path style="opacity:0.6;fill:#FFFFFF;" d="M3045.578,924.448h-431.616c-9.224,0-16.701-7.477-16.701-16.701l0,0
					c0-9.224,7.477-16.701,16.701-16.701h431.616c9.224,0,16.701,7.478,16.701,16.701l0,0
					C3062.279,916.97,3054.802,924.448,3045.578,924.448z"/>
			</g>
		</g>
		<g>
			
				<linearGradient id="SVGID_00000000196070910708080810000000666427453639838122_" gradientUnits="userSpaceOnUse" x1="3877.4841" y1="2622.699" x2="3623.928" y2="3025.7886" gradientTransform="matrix(1 0 0 1 -2801.3279 0)">
				<stop  offset="0" style="stop-color:#CB236D"/>
				<stop  offset="1" style="stop-color:#4C246D"/>
			</linearGradient>
			<path style="fill:url(#SVGID_00000000196070910708080810000000666427453639838122_);" d="M593.261,2462.026
				c0,0-95.726,53.029-103.646,142.776c-7.92,89.748-0.659,462.254,191.296,553.938c191.955,91.684,446.039,70.554,543.297,60.531
				c97.258-10.023,151.184-76.121,163.229-121.631s31.503-215.041-70.81-269.726c-102.313-54.685-209.773-138.464-317.15-220.043
				C892.099,2526.29,708.078,2393.122,593.261,2462.026z"/>
			
				<linearGradient id="SVGID_00000150784481944473096580000009609379172626110092_" gradientUnits="userSpaceOnUse" x1="4113.8906" y1="2909.3745" x2="4207.5522" y2="3007.1992" gradientTransform="matrix(1 0 0 1 -2801.3279 0)">
				<stop  offset="0" style="stop-color:#2B3582"/>
				<stop  offset="1" style="stop-color:#150E42"/>
			</linearGradient>
			<path style="fill:url(#SVGID_00000150784481944473096580000009609379172626110092_);" d="M1286.456,2858.852
				c0,0-25.836,1.366-29.004,54.521c0,0,59.909,53.705,140.835,66.489c6.075,0.959-8.493-41.473-10.684-47.22
				C1377.183,2905.292,1344.363,2887.679,1286.456,2858.852z"/>
			
				<linearGradient id="SVGID_00000152966653455742498380000004767895308715173269_" gradientUnits="userSpaceOnUse" x1="3969.3274" y1="2812.3379" x2="4066.8491" y2="2445.0068" gradientTransform="matrix(1 0 0 1 -2801.3279 0)">
				<stop  offset="0" style="stop-color:#53D8FF"/>
				<stop  offset="1" style="stop-color:#3840F7"/>
			</linearGradient>
			<path style="fill:url(#SVGID_00000152966653455742498380000004767895308715173269_);" d="M995.487,2796.353h54.521
				c0,0,167.339-184.809,277.091-203.455c0,0,76.398,97.522-4.069,279.738c-6.473,14.659-24.577,21.17-38.082,12.545
				c-4.039-2.58-6.94-6.036-8.701-10.372l6.471-155.583c0,0-142.74,124.842-167.551,148.934
				C1090.356,2892.252,964.241,2877.568,995.487,2796.353z"/>
			
				<linearGradient id="SVGID_00000130629832773509384560000008614260641457593255_" gradientUnits="userSpaceOnUse" x1="4238.1382" y1="3154.9143" x2="4415.3032" y2="3284.9436" gradientTransform="matrix(1 0 0 1 -2801.3279 0)">
				<stop  offset="0" style="stop-color:#2B3582"/>
				<stop  offset="1" style="stop-color:#150E42"/>
			</linearGradient>
			<path style="fill:url(#SVGID_00000130629832773509384560000008614260641457593255_);" d="M1522.586,3184.371
				c-22.847-20.021-59.25-42.485-111.802-48.926l-17.773,10.871c0,0,11.333,16.717,32.037,34.374
				c19.028,11.052,48.41,26.021,72.769,29.266C1521.5,3213.109,1524.993,3198.798,1522.586,3184.371z"/>
			
				<linearGradient id="SVGID_00000181809916393171521310000002980074000168553882_" gradientUnits="userSpaceOnUse" x1="4322.7944" y1="3085.7593" x2="3950.0439" y2="2781.2744" gradientTransform="matrix(1 0 0 1 -2801.3279 0)">
				<stop  offset="0" style="stop-color:#FDF53F"/>
				<stop  offset="0.6645" style="stop-color:#E57A58"/>
				<stop  offset="1" style="stop-color:#D93C65"/>
			</linearGradient>
			<path style="fill:url(#SVGID_00000181809916393171521310000002980074000168553882_);" d="M1387.604,2932.641
				c-14.075,4.555-20.265,24.497-55.981,11.31c-34.555-12.758-60.241-29.211-73.457-38.699c-0.295,2.571-0.544,5.257-0.714,8.121
				c0,0,63.169,60.084,144.094,72.866c6.076,0.96,10.891-5.105,8.7-10.853C1406.317,2965.073,1399.231,2949.431,1387.604,2932.641z"
				/>
			
				<linearGradient id="SVGID_00000031209642873753770680000009749207313171926691_" gradientUnits="userSpaceOnUse" x1="4423.9072" y1="3304.0774" x2="4051.1577" y2="2999.5933" gradientTransform="matrix(1 0 0 1 -2801.3279 0)">
				<stop  offset="0" style="stop-color:#FDF53F"/>
				<stop  offset="0.6645" style="stop-color:#E57A58"/>
				<stop  offset="1" style="stop-color:#D93C65"/>
			</linearGradient>
			<path style="fill:url(#SVGID_00000031209642873753770680000009749207313171926691_);" d="M1539.798,3201.466
				c-4.504-5.119-10.253-10.999-17.212-17.095c2.407,14.427-1.086,28.738-24.769,25.584c-24.359-3.245-53.741-18.214-72.769-29.266
				c23.849,20.34,60.135,41.928,105.934,40.661C1541.155,3221.067,1546.52,3209.106,1539.798,3201.466z"/>
			
				<linearGradient id="SVGID_00000129170018888686963180000003597363141437444252_" gradientUnits="userSpaceOnUse" x1="4240.6831" y1="2908.2878" x2="3870.1008" y2="3048.0688" gradientTransform="matrix(1 0 0 1 -2801.3279 0)">
				<stop  offset="0" style="stop-color:#53D8FF"/>
				<stop  offset="1" style="stop-color:#3840F7"/>
			</linearGradient>
			<path style="fill:url(#SVGID_00000129170018888686963180000003597363141437444252_);" d="M997.482,2835.801l255.316,2.765
				c0,0,145.804,120.632,172.251,304.576c0,0,4.389,13.529-21.966,15.843c0,0-88.152-57.574-145.631-159.365
				c-70.477-124.811-210.103-68.628-210.103-68.628c-45.878-33.076-110.704-39.811-159.542-50.831L997.482,2835.801z"/>
			
				<linearGradient id="SVGID_00000081606827053814839090000003729199269504286858_" gradientUnits="userSpaceOnUse" x1="3951.9089" y1="2674.354" x2="3831.6318" y2="2817.386" gradientTransform="matrix(1 0 0 1 -2801.3279 0)">
				<stop  offset="0" style="stop-color:#F9B776"/>
				<stop  offset="1" style="stop-color:#F47960"/>
			</linearGradient>
			<path style="fill:url(#SVGID_00000081606827053814839090000003729199269504286858_);" d="M1003.511,2630.132
				c0,0,27.486,137.744,162.155,192.237l47.903-5.646l11.304,18.023l-112.367,3.581c0,0-96.05-38.043-146.939-141.706
				C963.886,2693.195,935.862,2635.333,1003.511,2630.132z"/>
			
				<linearGradient id="SVGID_00000101794324530814769080000001873235029948564130_" gradientUnits="userSpaceOnUse" x1="3613.6584" y1="2409.3135" x2="3806.366" y2="3085.3982" gradientTransform="matrix(1 0 0 1 -2801.3279 0)">
				<stop  offset="0" style="stop-color:#FDF53F"/>
				<stop  offset="0.6645" style="stop-color:#E57A58"/>
				<stop  offset="1" style="stop-color:#D93C65"/>
			</linearGradient>
			<path style="fill:url(#SVGID_00000101794324530814769080000001873235029948564130_);" d="M1018.24,2833.55
				c0,0-31.255-84.961-37.972-167.515c0,0,22.865-19.651,37.158-28.13c4.628-2.746,6.376-8.553,4.036-13.399
				c-10.508-21.767-74.052-107.238-78.812-108.426c-25.873-6.457-131.98-56.908-206.711,45.312
				c-32.072,43.87,6.365,178.916,151.869,318.769l30.017,5.742L1018.24,2833.55z"/>
			
				<linearGradient id="SVGID_00000070100553562593802180000011520686610533951904_" gradientUnits="userSpaceOnUse" x1="3811.6609" y1="2804.4961" x2="4052.075" y2="2475.5967" gradientTransform="matrix(1 0 0 1 -2801.3279 0)">
				<stop  offset="0" style="stop-color:#F9B776"/>
				<stop  offset="1" style="stop-color:#F47960"/>
			</linearGradient>
			<path style="fill:url(#SVGID_00000070100553562593802180000011520686610533951904_);" d="M897.804,2684.653
				c0,0,86.837,102.82,197.86,117.851c0,0,28.692-26.159,50.028-16.819c21.336,9.339,50.591,50.562,50.591,50.562H1053.73
				c0,0-134.789-4.749-202.142-86.485C857.008,2721.161,873.238,2704.076,897.804,2684.653z"/>
			
				<linearGradient id="SVGID_00000127015757284472417310000018338437290552820132_" gradientUnits="userSpaceOnUse" x1="3664.5928" y1="2531.9375" x2="3673.4482" y2="2452.2373" gradientTransform="matrix(1 0 0 1 -2801.3279 0)">
				<stop  offset="0" style="stop-color:#F9B776"/>
				<stop  offset="1" style="stop-color:#F47960"/>
			</linearGradient>
			<path style="fill:url(#SVGID_00000127015757284472417310000018338437290552820132_);" d="M847.146,2443.963l-19,63.371
				c-0.871,2.903,0.205,6.048,2.706,7.76c9.148,6.265,33.056,18.725,65.854,6.616c3.751-1.385,6.321-4.888,6.646-8.873l4.504-55.206
				L847.146,2443.963z"/>
			<g>
				
					<linearGradient id="SVGID_00000055670927682387222670000009057952497442052992_" gradientUnits="userSpaceOnUse" x1="3711.8254" y1="2462.4155" x2="3672.793" y2="2333.6775" gradientTransform="matrix(1 0 0 1 -2801.3279 0)">
					<stop  offset="0" style="stop-color:#F9B776"/>
					<stop  offset="1" style="stop-color:#F47960"/>
				</linearGradient>
				<path style="fill:url(#SVGID_00000055670927682387222670000009057952497442052992_);" d="M958.403,2392.643
					c0,0-9.341,65.69-34.576,85.892c-25.234,20.202-74.399,4.99-91.004-44.532l33.087-84.675L958.403,2392.643z"/>
				
					<linearGradient id="SVGID_00000022543713326241868920000008727165686335859880_" gradientUnits="userSpaceOnUse" x1="3676.6028" y1="2226.0317" x2="3712.8923" y2="2433.0166" gradientTransform="matrix(1 0 0 1 -2801.3279 0)">
					<stop  offset="0" style="stop-color:#2B3582"/>
					<stop  offset="1" style="stop-color:#150E42"/>
				</linearGradient>
				<path style="fill:url(#SVGID_00000022543713326241868920000008727165686335859880_);" d="M862.182,2404.121
					c1.919,0.619,3.929-0.611,4.229-2.605c0.911-6.064,3.185-18.065,7.788-26.239c0,0-2.408-8.619,21.781,4.401
					c24.189,13.02,60.521,32.145,81.91,20.756c20.854-11.103,41.979-66.984-13.137-56.631c-2.097,0.394-4.025-1.276-3.868-3.405
					c0.677-9.184-0.234-30.313-21.631-37.095c-20.023-6.347-30.984,2.692-35.501,8.148c-1.329,1.605-3.795,1.573-5.062-0.081
					c-5.998-7.831-22.288-24.498-46.267-13.93c-19.752,8.704-22.823,20.87-22.497,28.451c0.105,2.457-2.388,4.121-4.621,3.093
					c-6.049-2.786-15.779-4.234-25.099,7.445c-12.885,16.145,5.528,30.145,11.052,33.815c0.905,0.601,1.467,1.598,1.474,2.685
					c0.052,8.396,1.359,45.02,19.715,65.679c1.59,1.789,4.527,1.264,5.453-0.942l14.133-33.674c0.656-1.564,2.4-2.365,4.014-1.845
					L862.182,2404.121z"/>
				
					<linearGradient id="SVGID_00000093863079666423846780000002529131544765009042_" gradientUnits="userSpaceOnUse" x1="3671.396" y1="2474.6736" x2="3632.3638" y2="2345.9358" gradientTransform="matrix(1 0 0 1 -2801.3279 0)">
					<stop  offset="0" style="stop-color:#F9B776"/>
					<stop  offset="1" style="stop-color:#F47960"/>
				</linearGradient>
				<path style="fill:url(#SVGID_00000093863079666423846780000002529131544765009042_);" d="M862.481,2410.958
					c0,0-8.63-35.152-21.74-23.739c-13.111,11.413,3.418,36.532,18.436,41.321L862.481,2410.958z"/>
			</g>
			
				<linearGradient id="SVGID_00000180331262965502750560000006092300907006314897_" gradientUnits="userSpaceOnUse" x1="3990.4336" y1="2730.0828" x2="4173.377" y2="2730.0828" gradientTransform="matrix(1 0 0 1 -2801.3279 0)">
				<stop  offset="0" style="stop-color:#2B3582"/>
				<stop  offset="1" style="stop-color:#150E42"/>
			</linearGradient>
			<path style="fill:url(#SVGID_00000180331262965502750560000006092300907006314897_);" d="M1189.106,2844.225l64.005-213.452
				c2.612-8.708,10.347-14.886,19.417-15.506l86.416-5.913c8.784-0.601,15.317,7.98,12.401,16.287l-71.552,203.844
				c-2.306,6.567-8.201,11.208-15.126,11.908l-85.097,9.449L1189.106,2844.225z"/>
			
				<linearGradient id="SVGID_00000155122699476936599580000005144562172794524347_" gradientUnits="userSpaceOnUse" x1="4143.8125" y1="2652.499" x2="4032.4756" y2="2765.4614" gradientTransform="matrix(1 0 0 1 -2801.3279 0)">
				<stop  offset="0" style="stop-color:#FDF53F"/>
				<stop  offset="1" style="stop-color:#D93C65"/>
			</linearGradient>
			<path style="fill:url(#SVGID_00000155122699476936599580000005144562172794524347_);" d="M1307.149,2703.117
				c-4.779,9.646-13.03,15.296-18.432,12.62c-5.402-2.676-5.906-12.664-1.128-22.31c4.779-9.646,13.031-15.296,18.432-12.62
				C1311.423,2683.483,1311.928,2693.471,1307.149,2703.117z"/>
			
				<linearGradient id="SVGID_00000160155303717246429380000009703868807888311181_" gradientUnits="userSpaceOnUse" x1="4012.6379" y1="2810.0525" x2="3866.3555" y2="2850.1448" gradientTransform="matrix(1 0 0 1 -2801.3279 0)">
				<stop  offset="0" style="stop-color:#2B3582"/>
				<stop  offset="1" style="stop-color:#150E42"/>
			</linearGradient>
			<path style="fill:url(#SVGID_00000160155303717246429380000009703868807888311181_);" d="M1199.57,2850.842
				c-0.139,0-0.278-0.003-0.418-0.01l-181.323-9.165c-4.482-0.226-7.933-4.043-7.706-8.525c0.226-4.484,4.06-8.008,8.526-7.706
				l181.323,9.165c4.482,0.225,7.932,4.043,7.706,8.525C1207.46,2847.468,1203.87,2850.842,1199.57,2850.842z"/>
			<path style="fill:#E78456;" d="M980.267,2667.558c-0.769,0.057-1.525-0.685-1.522-1.527c0.127-37.869-14.49-88.146-14.638-88.65
				c-0.237-0.807,0.224-1.652,1.031-1.888c0.807-0.239,1.654,0.226,1.89,1.031c0.15,0.509,14.891,51.202,14.762,89.517
				C981.786,2666.879,981.106,2667.558,980.267,2667.558z"/>
			<path style="fill:#E78456;" d="M897.806,2686.175c-0.451,0-0.896-0.198-1.197-0.579c-0.398-0.506-40.06-50.927-53.702-85.489
				c-0.309-0.782,0.075-1.667,0.857-1.976c0.776-0.306,1.665,0.073,1.976,0.857c13.476,34.146,52.862,84.219,53.259,84.722
				c0.52,0.66,0.408,1.616-0.252,2.138C898.467,2686.068,898.136,2686.175,897.806,2686.175z"/>
			<path style="fill:#E78456;" d="M842.028,2763.274l-1.13-0.483c-57.404-24.577-92.856-93.103-93.207-93.792
				c-0.382-0.748-0.085-1.665,0.665-2.047c0.75-0.379,1.668-0.084,2.047,0.665c0.345,0.675,34.846,67.34,90.564,91.885l5.87-8.298
				c0.485-0.683,1.431-0.847,2.122-0.363c0.686,0.485,0.849,1.436,0.363,2.122L842.028,2763.274z"/>
		</g>
		<g>
			<g>
				
					<linearGradient id="SVGID_00000054260507590250604370000005143693124585568402_" gradientUnits="userSpaceOnUse" x1="1577.5497" y1="641.0019" x2="2106.9578" y2="1650.3857" gradientTransform="matrix(0.9977 0.0674 -0.0674 0.9977 -42.2522 -184.4606)">
					<stop  offset="0" style="stop-color:#2B3582"/>
					<stop  offset="1" style="stop-color:#150E42"/>
				</linearGradient>
				<path style="fill:url(#SVGID_00000054260507590250604370000005143693124585568402_);" d="M2236.281,1622.393l-629.847-42.528
					c-28.037-1.893-49.428-26.382-47.535-54.419l0,0c1.893-28.037,26.382-49.428,54.419-47.535l629.847,42.528
					c28.038,1.893,49.428,26.382,47.535,54.419l0,0C2288.807,1602.896,2264.319,1624.286,2236.281,1622.393z"/>
				
					<linearGradient id="SVGID_00000150092318005138184900000015748217628610152347_" gradientUnits="userSpaceOnUse" x1="1784.4165" y1="910.98" x2="2525.574" y2="1978.5979" gradientTransform="matrix(0.9977 0.0674 -0.0674 0.9977 -42.2522 -184.4606)">
					<stop  offset="0" style="stop-color:#53D8FF"/>
					<stop  offset="1" style="stop-color:#3840F7"/>
				</linearGradient>
				<path style="fill:url(#SVGID_00000150092318005138184900000015748217628610152347_);" d="M2367.611,1562.982l-876.531-59.185
					c-14.405-0.973-25.395-13.554-24.422-27.959l28.359-419.994c1.772-26.249,24.699-46.275,50.947-44.502l833.462,56.277
					c26.249,1.772,46.275,24.699,44.502,50.947l-28.359,419.994C2394.597,1552.964,2382.015,1563.954,2367.611,1562.982z"/>
				
					<linearGradient id="SVGID_00000165194322658700140920000010260259781970041516_" gradientUnits="userSpaceOnUse" x1="1655.207" y1="1355.5201" x2="2574.9043" y2="2509.1155" gradientTransform="matrix(0.9977 0.0674 -0.0674 0.9977 -42.2522 -184.4606)">
					<stop  offset="0" style="stop-color:#53D8FF"/>
					<stop  offset="1" style="stop-color:#3840F7"/>
				</linearGradient>
				<path style="fill:url(#SVGID_00000165194322658700140920000010260259781970041516_);" d="M1577.342,1536.933l700.336,47.287
					c62.858,4.245,110.815,59.147,106.571,122.005l-6.204,91.885c-17.248,255.451-255.969,681.438-511.419,664.19h-0.001
					c-255.45-17.248-434.739-471.461-417.49-726.911l6.204-91.885C1459.582,1580.646,1514.484,1532.689,1577.342,1536.933z"/>
				<g>
					
						<linearGradient id="SVGID_00000089554402381375218640000013906227459532498348_" gradientUnits="userSpaceOnUse" x1="1719.8157" y1="1349.7625" x2="2419.5186" y2="1349.7625" gradientTransform="matrix(0.9977 0.0674 -0.0674 0.9977 -42.2522 -184.4606)">
						<stop  offset="0" style="stop-color:#2B3582"/>
						<stop  offset="1" style="stop-color:#150E42"/>
					</linearGradient>
					<path style="fill:url(#SVGID_00000089554402381375218640000013906227459532498348_);" d="M2279.414,1344.717
						c-2.327,34.47-30.452,61.634-64.988,62.547c-186.934,4.945-379.662-7.54-576.811-39.126
						c-34.209-5.481-58.614-36.202-56.28-70.769l2.447-36.238c2.32-34.362,30.305-61.447,64.728-62.536
						c194.064-6.138,387.146,3.529,578.679,38.14c33.518,6.057,57.052,36.518,54.758,70.502L2279.414,1344.717z"/>
					<g>
						
							<linearGradient id="SVGID_00000003084757234111176490000011516814931651311266_" gradientUnits="userSpaceOnUse" x1="1822.7407" y1="1025.6014" x2="2001.3826" y2="2026.2958" gradientTransform="matrix(0.9977 0.0674 -0.0674 0.9977 -42.2522 -184.4606)">
							<stop  offset="0" style="stop-color:#53D8FF"/>
							<stop  offset="1" style="stop-color:#3840F7"/>
						</linearGradient>
						<path style="fill:url(#SVGID_00000003084757234111176490000011516814931651311266_);" d="M1785.61,1293.166
							c-1.581,23.419-21.848,41.122-45.268,39.541c-23.419-1.581-41.122-21.848-39.541-45.267s21.848-41.122,45.267-39.541
							C1769.488,1249.48,1787.192,1269.747,1785.61,1293.166z"/>
						
							<linearGradient id="SVGID_00000012457919427191366340000013354614710758259123_" gradientUnits="userSpaceOnUse" x1="2188.7158" y1="960.2556" x2="2367.3579" y2="1960.9514" gradientTransform="matrix(0.9977 0.0674 -0.0674 0.9977 -42.2522 -184.4606)">
							<stop  offset="0" style="stop-color:#53D8FF"/>
							<stop  offset="1" style="stop-color:#3840F7"/>
						</linearGradient>
						
							<circle style="fill:url(#SVGID_00000012457919427191366340000013354614710758259123_);" cx="2119.976" cy="1315.743" r="42.501"/>
					</g>
					
						<linearGradient id="SVGID_00000119104409310987530810000010041519178055971470_" gradientUnits="userSpaceOnUse" x1="1790.7" y1="1230.2235" x2="1924.6807" y2="1410.3783" gradientTransform="matrix(0.9977 0.0674 -0.0674 0.9977 -42.2522 -184.4606)">
						<stop  offset="0" style="stop-color:#53D8FF"/>
						<stop  offset="1" style="stop-color:#3840F7"/>
					</linearGradient>
					<path style="fill:url(#SVGID_00000119104409310987530810000010041519178055971470_);" d="M1740.501,1349.36
						c0.004-1.411,1.125-2.518,2.493-2.516l0,0c1.411,0.004,2.518,1.126,2.514,2.537l0,0c-0.001,1.364-1.123,2.473-2.534,2.469l0,0
						c-0.044-0.003-0.091-0.006-0.135-0.009l0,0C1741.524,1351.752,1740.459,1350.678,1740.501,1349.36z M1727.673,1349.906
						c-1.34-0.364-2.112-1.736-1.795-3.08l0,0c0.364-1.343,1.739-2.159,3.08-1.795l0,0c1.342,0.364,2.117,1.69,1.797,3.08l0,0
						c-0.307,1.162-1.408,1.952-2.585,1.872l0,0C1727.988,1349.971,1727.854,1349.918,1727.673,1349.906z M1755.239,1348.171
						c-0.321-1.342,0.456-2.701,1.842-3.016l0,0c1.345-0.365,2.701,0.456,3.019,1.797l0,0c0.365,1.345-0.456,2.701-1.8,3.064l0,0
						l0,0l0,0c-0.278,0.072-0.548,0.054-0.776,0.039l0,0C1756.437,1349.98,1755.529,1349.284,1755.239,1348.171z M1713.358,1344.161
						c-1.228-0.677-1.625-2.204-0.954-3.388l0,0c0.63-1.233,2.16-1.677,3.39-1l0,0c1.228,0.674,1.627,2.204,0.954,3.387l0,0
						c-0.472,0.924-1.412,1.361-2.364,1.296l0,0C1714.068,1344.435,1713.709,1344.366,1713.358,1344.161z M1769.263,1343.383
						c-0.69-1.231-0.223-2.747,1.005-3.437l0,0c1.182-0.649,2.7-0.182,3.393,1.003l0,0c0.646,1.226,0.224,2.746-1.005,3.437l0,0l0,0
						l0,0c-0.428,0.244-0.932,0.302-1.385,0.271l0,0C1770.457,1344.601,1769.667,1344.137,1769.263,1343.383z M1700.912,1335.034
						c-0.986-0.932-1.058-2.53-0.08-3.555l0,0c0.931-0.984,2.526-1.014,3.557-0.08l0,0c0.984,0.933,1.012,2.526,0.078,3.557l0,0
						c-0.537,0.555-1.284,0.822-2.01,0.773l0,0C1701.914,1335.693,1701.336,1335.474,1700.912,1335.034z M1781.603,1335.248
						c-0.934-1.019-0.871-2.608,0.151-3.586l0,0c1.019-0.932,2.606-0.871,3.54,0.148l0,0c0.934,1.019,0.87,2.608-0.148,3.542l0,0
						l0,0l0,0c-0.535,0.509-1.185,0.693-1.864,0.648l0,0C1782.646,1335.957,1782.073,1335.689,1781.603,1335.248z M1691.109,1323.13
						c-0.74-1.188-0.364-2.712,0.777-3.453l0,0c1.188-0.74,2.76-0.407,3.499,0.781l0,0c0.74,1.188,0.364,2.712-0.824,3.449l0,0
						c-0.431,0.291-0.985,0.436-1.485,0.402l0,0C1692.307,1324.258,1691.561,1323.843,1691.109,1323.13z M1791.584,1324.269
						c-1.178-0.762-1.484-2.285-0.768-3.466l0,0c0.764-1.178,2.332-1.481,3.466-0.766l0,0c1.177,0.762,1.527,2.332,0.768,3.466l0,0
						l0,0l0,0c-0.512,0.83-1.403,1.225-2.31,1.164l0,0C1792.379,1324.642,1791.931,1324.521,1791.584,1324.269z M1684.586,1309.169
						L1684.586,1309.169L1684.586,1309.169c-0.412-1.301,0.322-2.755,1.625-3.166l0,0c1.302-0.415,2.71,0.318,3.167,1.623l0,0
						c0.414,1.303-0.322,2.756-1.623,3.169l0,0c-0.325,0.069-0.647,0.139-0.966,0.117l0,0
						C1685.838,1310.847,1684.926,1310.195,1684.586,1309.169z M1798.523,1311.173c-1.339-0.408-2.062-1.824-1.607-3.158l0,0
						c0.449-1.29,1.865-2.015,3.158-1.607l0,0c1.334,0.455,2.059,1.868,1.607,3.158l0,0c0,0,0,0-0.003,0.044l0,0
						c-0.346,1.07-1.44,1.77-2.572,1.693l0,0C1798.924,1311.291,1798.701,1311.231,1798.523,1311.173z M1681.741,1294.001
						c-0.09-1.371,0.994-2.574,2.364-2.663l0,0c1.373-0.087,2.574,0.994,2.663,2.365l0,0c0.089,1.373-0.994,2.573-2.365,2.663l0,0
						c-0.09-0.006-0.226-0.015-0.316-0.021l0,0C1682.864,1296.262,1681.836,1295.283,1681.741,1294.001z M1799.627,1294.133
						c0.003-0.047,0.003-0.047,0.006-0.091l0,0c0.003-0.046,0.006-0.091,0.012-0.181l0,0c0.092-1.361,1.257-2.42,2.662-2.325l0,0
						c1.359,0.092,2.415,1.301,2.323,2.662l0,0c-0.003,0.044-0.006,0.09-0.009,0.135l0,0c-0.003,0.046-0.006,0.091-0.009,0.137l0,0
						c-0.092,1.358-1.255,2.418-2.66,2.323l0,0C1800.591,1296.701,1799.535,1295.491,1799.627,1294.133z M1799.645,1293.861
						L1799.645,1293.861L1799.645,1293.861l-0.003,0.044l0,0C1799.645,1293.861,1799.642,1293.905,1799.645,1293.861z
						 M1684.766,1281.552c-1.392-0.276-2.261-1.564-2.032-2.915l0,0c0.276-1.391,1.608-2.256,2.955-1.985l0,0
						c1.351,0.229,2.261,1.564,1.988,2.912l0,0c-0.22,1.259-1.371,2.137-2.641,2.051l0,0
						C1684.945,1281.609,1684.857,1281.558,1684.766,1281.552z M1798.778,1279.735c-0.274-1.337,0.637-2.686,1.973-2.916l0,0
						c1.383-0.271,2.689,0.637,2.963,1.976l0,0c0.224,1.38-0.637,2.688-2.022,2.959l0,0c-0.229,0.029-0.41,0.017-0.636,0.001l0,0
						C1799.967,1281.683,1798.974,1280.886,1798.778,1279.735z M1688.734,1267.3c-1.236-0.586-1.771-2.078-1.185-3.359l0,0
						c0.583-1.234,2.078-1.771,3.359-1.185l0,0c1.234,0.584,1.771,2.078,1.182,3.358l0,0c-0.471,0.924-1.465,1.495-2.464,1.427l0,0
						C1689.356,1267.524,1689.044,1267.412,1688.734,1267.3z M1794.406,1266.287L1794.406,1266.287
						c-0.597-1.269-0.039-2.781,1.183-3.334l0,0c1.269-0.596,2.735-0.089,3.334,1.181l0,0l0,0l0,0
						c0.597,1.269,0.086,2.737-1.183,3.334l0,0c-0.422,0.198-0.836,0.261-1.243,0.234l0,0
						C1795.634,1267.643,1794.804,1267.131,1794.406,1266.287z M1696.196,1254.51c-1.074-0.937-1.24-2.495-0.35-3.573l0,0
						c0.89-1.031,2.495-1.196,3.526-0.308l0,0c1.078,0.893,1.246,2.451,0.353,3.529l0,0c-0.544,0.645-1.338,0.957-2.108,0.905l0,0
						C1697.119,1255.028,1696.584,1254.856,1696.196,1254.51z M1786.795,1254.302L1786.795,1254.302
						c-0.884-1.062-0.733-2.646,0.33-3.53l0,0c1.106-0.881,2.687-0.728,3.574,0.332l0,0c0.884,1.062,0.73,2.646-0.33,3.53l0,0
						c-0.53,0.42-1.178,0.603-1.769,0.563l0,0C1787.921,1255.151,1787.257,1254.88,1786.795,1254.302z M1706.562,1243.921
						c-0.79-1.1-0.546-2.675,0.557-3.512l0,0c1.145-0.787,2.676-0.548,3.512,0.555l0,0c0.787,1.147,0.545,2.724-0.555,3.514l0,0
						c-0.528,0.373-1.082,0.518-1.673,0.478l0,0C1707.724,1244.911,1707.022,1244.546,1706.562,1243.921z M1776.48,1244.592
						L1776.48,1244.592c-1.128-0.805-1.339-2.413-0.537-3.497l0,0c0.805-1.128,2.414-1.384,3.498-0.582l0,0l0,0l0,0
						c1.127,0.85,1.386,2.414,0.581,3.545l0,0c-0.547,0.69-1.391,1.044-2.207,0.989l0,0
						C1777.363,1245.017,1776.916,1244.895,1776.48,1244.592z M1719.232,1236.266c-0.503-1.31,0.142-2.769,1.406-3.275l0,0
						c1.307-0.503,2.766,0.142,3.269,1.45l0,0c0.508,1.263-0.137,2.722-1.447,3.225l0,0c-0.328,0.16-0.698,0.226-1.06,0.202l0,0
						C1720.448,1237.804,1719.58,1237.199,1719.232,1236.266z M1764.107,1237.747L1764.107,1237.747
						c-1.284-0.54-1.915-1.994-1.419-3.281l0,0c0.498-1.286,1.952-1.917,3.28-1.372l0,0c0,0,0,0-0.047-0.003l0,0
						c1.334,0.499,1.964,1.953,1.422,3.237l0,0c-0.392,1.067-1.434,1.679-2.476,1.609l0,0
						C1764.595,1237.918,1764.326,1237.853,1764.107,1237.747z M1733.406,1231.987c-0.18-1.377,0.815-2.63,2.189-2.764l0,0
						c1.377-0.18,2.633,0.769,2.813,2.146l0,0c0.136,1.376-0.816,2.632-2.193,2.813l0,0c-0.184,0.032-0.319,0.023-0.5,0.01l0,0
						C1734.582,1234.115,1733.549,1233.225,1733.406,1231.987z M1750.369,1234.226L1750.369,1234.226
						c-1.353-0.183-2.361-1.433-2.176-2.832l0,0c0.183-1.354,1.432-2.317,2.834-2.175l0,0l0,0l0,0
						c1.353,0.182,2.315,1.43,2.176,2.832l0,0c-0.179,1.308-1.383,2.273-2.652,2.188l0,0
						C1750.459,1234.232,1750.415,1234.229,1750.369,1234.226z"/>
					
						<linearGradient id="SVGID_00000148653064348814597510000001794887188419304379_" gradientUnits="userSpaceOnUse" x1="2168.1316" y1="1230.2108" x2="2302.1123" y2="1410.3656" gradientTransform="matrix(0.9977 0.0674 -0.0674 0.9977 -42.2522 -184.4606)">
						<stop  offset="0" style="stop-color:#53D8FF"/>
						<stop  offset="1" style="stop-color:#3840F7"/>
					</linearGradient>
					<path style="fill:url(#SVGID_00000148653064348814597510000001794887188419304379_);" d="M2117.065,1374.786
						c0.004-1.411,1.126-2.517,2.492-2.517l0,0c1.411,0.004,2.518,1.126,2.514,2.537l0,0c-0.001,1.365-1.123,2.473-2.534,2.469l0,0
						c-0.044-0.003-0.091-0.006-0.135-0.009l0,0C2118.088,1377.178,2117.023,1376.104,2117.065,1374.786z M2104.237,1375.332
						c-1.34-0.364-2.112-1.736-1.794-3.08l0,0c0.364-1.342,1.74-2.159,3.079-1.794l0,0c1.343,0.364,2.118,1.69,1.797,3.08l0,0
						c-0.307,1.161-1.407,1.952-2.585,1.872l0,0C2104.553,1375.397,2104.419,1375.344,2104.237,1375.332z M2131.804,1373.597
						c-0.321-1.342,0.456-2.701,1.842-3.016l0,0c1.345-0.365,2.7,0.456,3.019,1.797l0,0c0.365,1.345-0.456,2.701-1.8,3.064l0,0l0,0
						l0,0c-0.279,0.072-0.548,0.054-0.776,0.039l0,0C2133.002,1375.407,2132.093,1374.71,2131.804,1373.597z M2089.923,1369.587
						c-1.228-0.677-1.625-2.203-0.954-3.388l0,0c0.63-1.233,2.16-1.676,3.39-1l0,0c1.228,0.675,1.627,2.204,0.954,3.387l0,0
						c-0.471,0.924-1.412,1.361-2.364,1.297l0,0C2090.633,1369.861,2090.273,1369.792,2089.923,1369.587z M2145.827,1368.809
						c-0.69-1.231-0.223-2.746,1.006-3.437l0,0c1.182-0.649,2.699-0.182,3.393,1.003l0,0c0.646,1.226,0.224,2.747-1.005,3.437l0,0
						l0,0l0,0c-0.428,0.244-0.931,0.302-1.385,0.271l0,0C2147.021,1370.028,2146.232,1369.563,2145.827,1368.809z M2077.476,1360.46
						c-0.986-0.931-1.058-2.53-0.08-3.555l0,0c0.931-0.984,2.527-1.014,3.557-0.08l0,0c0.984,0.933,1.011,2.526,0.078,3.557l0,0
						c-0.538,0.555-1.285,0.823-2.011,0.774l0,0C2078.479,1361.119,2077.9,1360.9,2077.476,1360.46z M2158.168,1360.674
						c-0.934-1.019-0.871-2.608,0.151-3.586l0,0c1.018-0.932,2.605-0.871,3.539,0.148l0,0c0.934,1.019,0.871,2.608-0.148,3.542l0,0
						l0,0l0,0c-0.534,0.509-1.185,0.693-1.864,0.648l0,0C2159.211,1361.383,2158.638,1361.115,2158.168,1360.674z
						 M2067.674,1348.556c-0.74-1.188-0.363-2.712,0.778-3.453l0,0c1.188-0.74,2.759-0.407,3.499,0.781l0,0
						c0.74,1.188,0.364,2.712-0.824,3.449l0,0c-0.431,0.291-0.985,0.436-1.485,0.402l0,0
						C2068.871,1349.684,2068.125,1349.269,2067.674,1348.556z M2168.148,1349.695c-1.177-0.762-1.484-2.285-0.768-3.466l0,0
						c0.764-1.178,2.331-1.481,3.466-0.766l0,0c1.177,0.762,1.527,2.332,0.768,3.466l0,0l0,0l0,0
						c-0.511,0.83-1.403,1.226-2.31,1.164l0,0C2168.943,1350.069,2168.496,1349.947,2168.148,1349.695z M2061.151,1334.595
						L2061.151,1334.595L2061.151,1334.595c-0.412-1.301,0.322-2.755,1.625-3.167l0,0c1.301-0.414,2.71,0.319,3.166,1.623l0,0
						c0.414,1.303-0.322,2.756-1.623,3.169l0,0c-0.325,0.069-0.647,0.139-0.966,0.117l0,0
						C2062.402,1336.274,2061.49,1335.621,2061.151,1334.595z M2175.087,1336.599c-1.34-0.408-2.062-1.824-1.607-3.158l0,0
						c0.449-1.29,1.865-2.015,3.158-1.607l0,0c1.334,0.455,2.059,1.868,1.607,3.158l0,0c0,0,0,0-0.003,0.044l0,0
						c-0.346,1.07-1.44,1.77-2.573,1.693l0,0C2175.488,1336.717,2175.265,1336.657,2175.087,1336.599z M2058.305,1319.427
						c-0.09-1.371,0.994-2.573,2.365-2.663l0,0c1.372-0.087,2.573,0.994,2.663,2.365l0,0c0.09,1.373-0.994,2.573-2.364,2.663l0,0
						c-0.091-0.006-0.226-0.015-0.317-0.022l0,0C2059.428,1321.688,2058.401,1320.709,2058.305,1319.427z M2176.191,1319.559
						c0.003-0.046,0.003-0.046,0.006-0.091l0,0c0.003-0.046,0.006-0.091,0.012-0.181l0,0c0.092-1.361,1.257-2.42,2.662-2.325l0,0
						c1.358,0.092,2.415,1.301,2.323,2.662l0,0c-0.003,0.044-0.006,0.091-0.009,0.135l0,0c-0.003,0.046-0.006,0.091-0.01,0.137l0,0
						c-0.092,1.358-1.254,2.418-2.66,2.323l0,0C2177.156,1322.127,2176.099,1320.917,2176.191,1319.559z M2176.209,1319.287
						L2176.209,1319.287L2176.209,1319.287l-0.003,0.044l0,0C2176.209,1319.287,2176.206,1319.331,2176.209,1319.287z
						 M2061.331,1306.978c-1.393-0.276-2.262-1.564-2.033-2.915l0,0c0.276-1.391,1.608-2.256,2.955-1.986l0,0
						c1.352,0.229,2.261,1.564,1.989,2.913l0,0c-0.221,1.259-1.371,2.137-2.641,2.051l0,0
						C2061.509,1307.035,2061.421,1306.984,2061.331,1306.978z M2175.343,1305.161c-0.274-1.337,0.637-2.686,1.972-2.916l0,0
						c1.383-0.271,2.688,0.637,2.963,1.976l0,0c0.225,1.38-0.637,2.689-2.022,2.959l0,0c-0.229,0.029-0.41,0.017-0.636,0.002l0,0
						C2176.531,1307.109,2175.538,1306.313,2175.343,1305.161z M2065.298,1292.726c-1.236-0.586-1.771-2.078-1.184-3.358l0,0
						c0.583-1.234,2.078-1.771,3.358-1.185l0,0c1.235,0.584,1.771,2.078,1.183,3.359l0,0c-0.471,0.924-1.466,1.495-2.463,1.427l0,0
						C2065.921,1292.95,2065.608,1292.838,2065.298,1292.726z M2170.97,1291.713L2170.97,1291.713
						c-0.597-1.269-0.039-2.781,1.183-3.334l0,0c1.269-0.597,2.735-0.089,3.334,1.181l0,0l0,0l0,0
						c0.596,1.269,0.086,2.737-1.183,3.334l0,0c-0.422,0.198-0.835,0.261-1.243,0.234l0,0
						C2172.198,1293.069,2171.369,1292.557,2170.97,1291.713z M2072.761,1279.936c-1.075-0.937-1.241-2.495-0.35-3.573l0,0
						c0.89-1.031,2.495-1.196,3.526-0.309l0,0c1.078,0.893,1.246,2.451,0.353,3.529l0,0c-0.544,0.646-1.338,0.956-2.108,0.905l0,0
						C2073.684,1280.454,2073.148,1280.282,2072.761,1279.936z M2163.36,1279.728L2163.36,1279.728
						c-0.885-1.062-0.733-2.646,0.329-3.53l0,0c1.106-0.881,2.687-0.728,3.574,0.332l0,0c0.884,1.062,0.73,2.646-0.329,3.53l0,0
						c-0.531,0.42-1.179,0.603-1.77,0.563l0,0C2164.485,1280.577,2163.821,1280.306,2163.36,1279.728z M2083.126,1269.347
						c-0.79-1.1-0.546-2.675,0.557-3.512l0,0c1.145-0.787,2.676-0.548,3.512,0.555l0,0c0.787,1.147,0.545,2.724-0.555,3.514l0,0
						c-0.527,0.373-1.082,0.518-1.673,0.478l0,0C2084.289,1270.337,2083.586,1269.972,2083.126,1269.347z M2153.045,1270.019
						L2153.045,1270.019c-1.128-0.805-1.34-2.413-0.538-3.497l0,0c0.805-1.128,2.414-1.384,3.498-0.582l0,0l0,0l0,0
						c1.127,0.849,1.386,2.414,0.581,3.544l0,0c-0.547,0.69-1.391,1.044-2.207,0.989l0,0
						C2153.927,1270.443,2153.48,1270.321,2153.045,1270.019z M2095.796,1261.692c-0.503-1.31,0.143-2.768,1.406-3.275l0,0
						c1.308-0.503,2.766,0.142,3.27,1.45l0,0c0.508,1.264-0.137,2.722-1.447,3.225l0,0c-0.329,0.16-0.698,0.227-1.06,0.202l0,0
						C2097.013,1263.23,2096.144,1262.625,2095.796,1261.692z M2140.671,1263.173L2140.671,1263.173
						c-1.284-0.54-1.915-1.994-1.419-3.28l0,0c0.498-1.287,1.952-1.917,3.28-1.372l0,0c0,0,0,0-0.046-0.003l0,0
						c1.333,0.499,1.964,1.953,1.422,3.237l0,0c-0.392,1.067-1.433,1.679-2.476,1.609l0,0
						C2141.16,1263.344,2140.89,1263.279,2140.671,1263.173z M2109.97,1257.413c-0.18-1.377,0.816-2.63,2.189-2.764l0,0
						c1.377-0.18,2.633,0.769,2.814,2.146l0,0c0.136,1.376-0.816,2.632-2.192,2.813l0,0c-0.184,0.032-0.32,0.023-0.501,0.011l0,0
						C2111.147,1259.542,2110.113,1258.652,2109.97,1257.413z M2126.933,1259.652L2126.933,1259.652
						c-1.352-0.182-2.362-1.433-2.176-2.832l0,0c0.183-1.354,1.432-2.317,2.834-2.175l0,0l0,0l0,0
						c1.352,0.182,2.315,1.43,2.176,2.832l0,0c-0.179,1.308-1.383,2.274-2.653,2.188l0,0
						C2127.024,1259.658,2126.979,1259.655,2126.933,1259.652z"/>
				</g>
				
					<linearGradient id="SVGID_00000182523246890933828370000004971196563402598818_" gradientUnits="userSpaceOnUse" x1="1911.8191" y1="1037.0284" x2="3157.6172" y2="2163.6099" gradientTransform="matrix(0.9977 0.0674 -0.0674 0.9977 -42.2522 -184.4606)">
					<stop  offset="0" style="stop-color:#53D8FF"/>
					<stop  offset="1" style="stop-color:#3840F7"/>
				</linearGradient>
				<path style="fill:url(#SVGID_00000182523246890933828370000004971196563402598818_);" d="M1691.546,1141.886
					c-12.769-0.862-22.986-11.356-23.262-24.395c-0.291-13.793,10.655-25.209,24.446-25.501
					c182.233-3.847,347.825,6.81,506.23,32.579c13.617,2.213,22.859,15.048,20.644,28.663
					c-2.216,13.617-15.005,22.871-28.663,20.644c-155.371-25.271-317.991-35.72-497.156-31.94
					C1693.031,1141.953,1692.285,1141.936,1691.546,1141.886z"/>
				
					<linearGradient id="SVGID_00000026869853792773075380000001737776608211980725_" gradientUnits="userSpaceOnUse" x1="1531.429" y1="943.0147" x2="2416.1689" y2="1612.7721" gradientTransform="matrix(0.9977 0.0674 -0.0674 0.9977 -42.2522 -184.4606)">
					<stop  offset="0" style="stop-color:#53D8FF"/>
					<stop  offset="1" style="stop-color:#3840F7"/>
				</linearGradient>
				<path style="fill:url(#SVGID_00000026869853792773075380000001737776608211980725_);" d="M1927.668,1414.975
					c-100.71-6.8-201.886-18.644-302.867-35.49c-37.023-6.176-62.905-41.014-60.203-81.035l2.726-40.383
					c2.681-39.711,32.755-70.739,69.954-72.175c219.4-8.461,416.582,4.513,602.822,39.668c36.038,6.803,61.22,41.512,58.571,80.738
					l-2.82,41.766c-2.695,39.921-32.891,70.957-70.239,72.189C2127.251,1423.503,2027.69,1421.729,1927.668,1414.975z
					 M1955.303,1194.356c-101.21-6.834-206.667-8.058-317.843-3.767c-34.79,1.341-62.925,30.486-65.444,67.794l-2.727,40.383
					c-2.539,37.598,21.657,70.306,56.287,76.084c200.964,33.522,402.794,47.217,599.882,40.705
					c34.924-1.154,63.17-30.306,65.703-67.81l2.82-41.766c2.488-36.854-21.049-69.442-54.753-75.803
					C2147.69,1212.896,2053.495,1200.986,1955.303,1194.356z"/>
				
					<linearGradient id="SVGID_00000018943328263551617230000014040775108430978235_" gradientUnits="userSpaceOnUse" x1="1534.2039" y1="1342.0641" x2="2472.1113" y2="2105.0125" gradientTransform="matrix(0.9977 0.0674 -0.0674 0.9977 -42.2522 -184.4606)">
					<stop  offset="0" style="stop-color:#53D8FF"/>
					<stop  offset="1" style="stop-color:#3840F7"/>
				</linearGradient>
				<path style="fill:url(#SVGID_00000018943328263551617230000014040775108430978235_);" d="M2069.401,1852.378l-326.252-22.029
					c-31.232-2.109-54.925-29.233-52.816-60.465l6.272-92.891c2.109-31.232,29.233-54.925,60.465-52.816l326.252,22.029
					c31.232,2.109,54.926,29.233,52.816,60.465l-6.272,92.891C2127.757,1830.793,2100.633,1854.486,2069.401,1852.378z
					 M1756.764,1628.707c-28.734-1.94-53.688,19.857-55.628,48.591l-6.272,92.891c-1.94,28.734,19.857,53.688,48.591,55.629
					l326.252,22.029c28.734,1.94,53.688-19.857,55.629-48.591l6.272-92.891c1.94-28.734-19.857-53.688-48.591-55.628
					L1756.764,1628.707z"/>
				<g>
					
						<linearGradient id="SVGID_00000130645755917814510400000009785879061588617860_" gradientUnits="userSpaceOnUse" x1="1604.6616" y1="1393.6669" x2="2413.0825" y2="2187.3264" gradientTransform="matrix(0.9977 0.0674 -0.0674 0.9977 -42.2522 -184.4606)">
						<stop  offset="0" style="stop-color:#53D8FF"/>
						<stop  offset="1" style="stop-color:#3840F7"/>
					</linearGradient>
					<path style="fill:url(#SVGID_00000130645755917814510400000009785879061588617860_);" d="M1784.193,1682.906
						c-0.589-0.04-1.174-0.126-1.754-0.301c-0.582-0.13-1.115-0.348-1.644-0.611c-0.529-0.265-1.052-0.574-1.528-0.97
						c-0.477-0.35-0.906-0.743-1.282-1.224c-1.564-1.788-2.401-4.212-2.242-6.568c0.163-2.403,1.314-4.646,3.107-6.254
						c3.578-3.128,9.652-2.718,12.824,0.866c0.377,0.479,0.709,0.957,1.038,1.479c0.283,0.521,0.521,1.038,0.71,1.597
						c0.188,0.604,0.333,1.16,0.384,1.755c0.095,0.598,0.099,1.191,0.06,1.78c-0.04,0.589-0.124,1.174-0.299,1.754
						c-0.13,0.585-0.348,1.115-0.613,1.644c-0.265,0.573-0.571,1.055-0.921,1.531c-0.396,0.473-0.79,0.902-1.224,1.282
						c-0.44,0.426-0.962,0.755-1.481,1.038c-0.525,0.329-1.04,0.568-1.6,0.759c-0.557,0.189-1.16,0.331-1.755,0.381
						C1785.419,1682.942,1784.783,1682.946,1784.193,1682.906z"/>
					
						<linearGradient id="SVGID_00000160150223128649985530000003278850909599220385_" gradientUnits="userSpaceOnUse" x1="1667.8179" y1="1329.3529" x2="2476.2185" y2="2122.9924" gradientTransform="matrix(0.9977 0.0674 -0.0674 0.9977 -42.2522 -184.4606)">
						<stop  offset="0" style="stop-color:#53D8FF"/>
						<stop  offset="1" style="stop-color:#3840F7"/>
					</linearGradient>
					<path style="fill:url(#SVGID_00000160150223128649985530000003278850909599220385_);" d="M1989.756,1687.682
						c0.337-4.985,4.643-8.79,9.628-8.454l0,0c5.029,0.339,8.833,4.693,8.497,9.677l0,0c-0.337,4.985-4.692,8.787-9.721,8.448l0,0
						C1993.175,1697.017,1989.419,1692.667,1989.756,1687.682z M1946.934,1684.791c0.337-4.985,4.69-8.787,9.675-8.451l0,0
						c5.029,0.34,8.787,4.69,8.451,9.674l0,0c-0.336,4.985-4.645,8.79-9.674,8.451l0,0
						C1950.4,1694.129,1946.598,1689.776,1946.934,1684.791z M1904.16,1681.903c0.337-4.985,4.645-8.79,9.674-8.451l0,0
						c4.985,0.337,8.787,4.69,8.451,9.675l0,0c-0.337,4.985-4.69,8.787-9.674,8.451l0,0
						C1907.581,1691.238,1903.823,1686.888,1904.16,1681.903z M1861.338,1679.011c0.337-4.985,4.69-8.787,9.674-8.451l0,0
						c5.029,0.34,8.787,4.69,8.451,9.675l0,0c-0.337,4.985-4.646,8.79-9.674,8.45l0,0
						C1864.804,1688.349,1861.002,1683.996,1861.338,1679.011z M1818.563,1676.123c0.337-4.985,4.645-8.79,9.674-8.45l0,0
						c4.985,0.337,8.787,4.69,8.451,9.674l0,0c-0.337,4.985-4.69,8.787-9.675,8.451l0,0
						C1821.985,1685.458,1818.227,1681.108,1818.563,1676.123z"/>
					
						<linearGradient id="SVGID_00000083779619053357119810000013431614549337170309_" gradientUnits="userSpaceOnUse" x1="1730.9657" y1="1264.9949" x2="2539.3965" y2="2058.6641" gradientTransform="matrix(0.9977 0.0674 -0.0674 0.9977 -42.2522 -184.4606)">
						<stop  offset="0" style="stop-color:#53D8FF"/>
						<stop  offset="1" style="stop-color:#3840F7"/>
					</linearGradient>
					<path style="fill:url(#SVGID_00000083779619053357119810000013431614549337170309_);" d="M2040.981,1700.245
						c-2.402-0.162-4.648-1.269-6.209-3.106c-0.427-0.438-0.758-0.916-1.041-1.435c-0.282-0.52-0.568-1.041-0.757-1.598
						c-0.188-0.606-0.331-1.16-0.381-1.757c-0.097-0.598-0.102-1.189-0.062-1.778c0.162-2.403,1.27-4.648,3.104-6.209
						c0.438-0.426,0.916-0.758,1.435-1.041c0.525-0.329,1.041-0.568,1.645-0.753c0.559-0.189,1.116-0.334,1.711-0.385
						c2.985-0.392,6.047,0.772,8.033,3.045c1.564,1.79,2.359,4.164,2.197,6.567c-0.04,0.589-0.126,1.174-0.301,1.753
						c-0.13,0.585-0.348,1.115-0.616,1.689c-0.262,0.527-0.568,1.009-0.965,1.482c-0.35,0.476-0.744,0.906-1.178,1.285
						c-0.484,0.423-0.962,0.755-1.481,1.038c-0.522,0.329-1.041,0.568-1.598,0.759c-0.606,0.186-1.16,0.331-1.757,0.382
						C2042.162,1700.278,2041.57,1700.285,2040.981,1700.245z"/>
				</g>
			</g>
			<g>
				<g>
					
						<linearGradient id="SVGID_00000057858294283025594070000007480314360216198072_" gradientUnits="userSpaceOnUse" x1="2964.8523" y1="671.8365" x2="3374.0767" y2="671.8365" gradientTransform="matrix(0.9824 0.1867 -0.1867 0.9824 -744.0321 99.8153)">
						<stop  offset="0" style="stop-color:#444B8C"/>
						<stop  offset="0.9964" style="stop-color:#26264F"/>
					</linearGradient>
					<path style="fill:url(#SVGID_00000057858294283025594070000007480314360216198072_);" d="M2008.218,1497.479l4.425-23.289
						c197.832,37.592,388.876-79.749,444.385-272.943l22.784,6.546c-28.148,97.968-91.598,181.59-178.661,235.463
						C2213.539,1497.469,2109.506,1516.726,2008.218,1497.479z"/>
				</g>
				<g>
					
						<linearGradient id="SVGID_00000153686749816584684770000013938360959483864199_" gradientUnits="userSpaceOnUse" x1="1686.3654" y1="1694.9087" x2="2675.8303" y2="1694.9087" gradientTransform="matrix(0.9994 -0.0333 0.0269 0.8068 -303.9445 -231.0638)">
						<stop  offset="0" style="stop-color:#444B8C"/>
						<stop  offset="0.9964" style="stop-color:#26264F"/>
					</linearGradient>
					<path style="fill:url(#SVGID_00000153686749816584684770000013938360959483864199_);" d="M1471.464,1261.312l-36.332,1.145
						c-1.778-12.486-2.886-24.96-3.291-37.075l7.896-0.263c16.312-85.91,66.9-165.734,145.04-227.701
						c89.124-70.676,206.499-111.878,330.505-116.015c124.066-4.139,243.971,29.147,337.625,93.725
						c82.107,56.617,137.909,132.893,159.91,217.529l7.895-0.263c0.404,12.115,0.13,24.635-0.813,37.212l-36.327,1.278
						c-28.22-190.395-229.119-327.98-467.307-320.035C1678.163,918.792,1486.94,1069.458,1471.464,1261.312z"/>
				</g>
				<g>
					
						<linearGradient id="SVGID_00000033333912388451969470000005499497593904040097_" gradientUnits="userSpaceOnUse" x1="2946.8123" y1="834.2418" x2="3132.5012" y2="834.2418" gradientTransform="matrix(0.9824 0.1867 -0.1867 0.9824 -744.0321 99.8153)">
						<stop  offset="0" style="stop-color:#444B8C"/>
						<stop  offset="0.9964" style="stop-color:#26264F"/>
					</linearGradient>
					<path style="fill:url(#SVGID_00000033333912388451969470000005499497593904040097_);" d="M1995.605,1510.369l2.232-54.344
						c0.213-5.183,4.587-9.212,9.77-9l160.536,6.592c5.183,0.213,9.212,4.587,9,9.77l-2.231,54.344
						c-0.213,5.183-4.587,9.212-9.771,9l-160.536-6.592C1999.421,1519.926,1995.392,1515.552,1995.605,1510.369z"/>
				</g>
				<g>
					
						<linearGradient id="SVGID_00000160186882070194985470000002016351127599058830_" gradientUnits="userSpaceOnUse" x1="2767.9397" y1="1075.6224" x2="2907.2791" y2="1075.6224" gradientTransform="matrix(0.9999 0.0144 -0.0144 0.9999 -391.0423 173.3951)">
						<stop  offset="0" style="stop-color:#444B8C"/>
						<stop  offset="0.9964" style="stop-color:#26264F"/>
					</linearGradient>
					<path style="fill:url(#SVGID_00000160186882070194985470000002016351127599058830_);" d="M2481.512,1461.365l-106.346-1.528
						c-9.105-0.131-16.379-7.618-16.249-16.723l4.437-308.687c0.131-9.105,7.618-16.38,16.722-16.249l106.346,1.529
						c9.105,0.131,16.379,7.618,16.249,16.723l-4.437,308.687C2498.104,1454.221,2490.616,1461.496,2481.512,1461.365z"/>
				</g>
				<g>
					
						<linearGradient id="SVGID_00000016073703041576204840000013350294480202405813_" gradientUnits="userSpaceOnUse" x1="1872.2936" y1="979.4266" x2="2011.6204" y2="979.4266" gradientTransform="matrix(0.9989 0.0477 -0.0477 0.9989 -461.3055 172.2956)">
						<stop  offset="0" style="stop-color:#444B8C"/>
						<stop  offset="0.9964" style="stop-color:#26264F"/>
					</linearGradient>
					<path style="fill:url(#SVGID_00000016073703041576204840000013350294480202405813_);" d="M1476.765,1416.465l-106.235-5.073
						c-9.095-0.434-16.117-8.16-15.682-17.255l14.726-308.368c0.434-9.095,8.16-16.116,17.255-15.682l106.235,5.073
						c9.095,0.434,16.117,8.16,15.682,17.255l-14.726,308.368C1493.585,1409.879,1485.86,1416.9,1476.765,1416.465z"/>
				</g>
			</g>
		</g>
		<g>
			
				<linearGradient id="SVGID_00000171687069202618154260000009905086784553226680_" gradientUnits="userSpaceOnUse" x1="-2717.2456" y1="3118.8745" x2="-3161.4302" y2="3602.0232" gradientTransform="matrix(-1 0 0 1 66.9433 0)">
				<stop  offset="0" style="stop-color:#2B3582"/>
				<stop  offset="1" style="stop-color:#150E42"/>
			</linearGradient>
			<path style="fill:url(#SVGID_00000171687069202618154260000009905086784553226680_);" d="M2924.596,3154.866
				c0,0,4.6,26.042,6.856,51.821c0.882,10.074-6.886,18.822-16.99,19.243c-34.33,1.43-107.762,4.209-134.111,3.034
				c-3.961-0.176-6.551-4.232-5.085-7.916l0,0c1.229-3.088,3.598-5.583,6.617-6.97l121.297-55.748L2924.596,3154.866z"/>
			
				<linearGradient id="SVGID_00000133530672580843252220000005775915453632337055_" gradientUnits="userSpaceOnUse" x1="-2861.4214" y1="3154.759" x2="-2821.967" y2="3154.759" gradientTransform="matrix(-1 0 0 1 66.9433 0)">
				<stop  offset="0" style="stop-color:#F9B776"/>
				<stop  offset="1" style="stop-color:#F47960"/>
			</linearGradient>
			<path style="fill:url(#SVGID_00000133530672580843252220000005775915453632337055_);" d="M2928.365,3139.565l-3.696,31.149
				c0,0-21.248,9.892-35.759-1.246l8.799-34.713L2928.365,3139.565z"/>
			
				<linearGradient id="SVGID_00000034080735778519091100000012896606325274700160_" gradientUnits="userSpaceOnUse" x1="-3036.052" y1="3034.0454" x2="-2398.7363" y2="2246.467" gradientTransform="matrix(-1 0 0 1 66.9433 0)">
				<stop  offset="0" style="stop-color:#CB236D"/>
				<stop  offset="1" style="stop-color:#4C246D"/>
			</linearGradient>
			<path style="fill:url(#SVGID_00000034080735778519091100000012896606325274700160_);" d="M2925.587,2553.946
				c1.596,8.134,8.569,405.93-33.952,584.197c-0.694,2.909,0.781,5.907,3.549,7.037c6.522,2.665,19.308,6.524,34.63,7.039
				c4.745,0.159,9-2.925,10.339-7.48c12.154-41.36,70.397-248.588,77.995-446.546c8.49-221.199,0-7.531,0-7.531l-4.98-136.732
				L2925.587,2553.946z"/>
			
				<linearGradient id="SVGID_00000109724685219404229870000015481312244642782095_" gradientUnits="userSpaceOnUse" x1="-2816.8928" y1="3027.2668" x2="-3261.0737" y2="3510.4114" gradientTransform="matrix(-1 0 0 1 66.9433 0)">
				<stop  offset="0" style="stop-color:#2B3582"/>
				<stop  offset="1" style="stop-color:#150E42"/>
			</linearGradient>
			<path style="fill:url(#SVGID_00000109724685219404229870000015481312244642782095_);" d="M3064.128,3168.452
				c0,0,7.322,13.147,14.411,48.081c1.28,6.31-3.128,12.348-9.534,12.977c-11.335,1.115-28.787,2.548-42.765,2.452
				c-6.444-0.044-11.473-5.656-10.696-12.052c1.548-12.752,6.372-33.672,21.274-49.978L3064.128,3168.452z"/>
			
				<linearGradient id="SVGID_00000072981192770836800660000005986643508985435799_" gradientUnits="userSpaceOnUse" x1="-3003.6157" y1="3152.7361" x2="-2969.5503" y2="3152.7361" gradientTransform="matrix(-1 0 0 1 66.9433 0)">
				<stop  offset="0" style="stop-color:#F9B776"/>
				<stop  offset="1" style="stop-color:#F47960"/>
			</linearGradient>
			<path style="fill:url(#SVGID_00000072981192770836800660000005986643508985435799_);" d="M3070.559,3128.386l-8.636,47.107
				c0,0-8.539,6.352-25.43,1.747l4.122-50.683L3070.559,3128.386z"/>
			
				<linearGradient id="SVGID_00000098185167969369980050000006435095106992549512_" gradientUnits="userSpaceOnUse" x1="-3098.543" y1="2983.4768" x2="-2461.2297" y2="2195.9014" gradientTransform="matrix(-1 0 0 1 66.9433 0)">
				<stop  offset="0" style="stop-color:#CB236D"/>
				<stop  offset="1" style="stop-color:#4C246D"/>
			</linearGradient>
			<path style="fill:url(#SVGID_00000098185167969369980050000006435095106992549512_);" d="M3093.888,2566.152
				c34.777,209.881-7.544,518.737-21.817,579.188c-0.874,3.701-3.861,6.536-7.612,7.158c-6.371,1.057-16.86,1.918-27.201-1.085
				c-3.563-1.034-6.066-4.248-6.211-7.956c-1.915-48.873,1.532-348.903-30.872-467.476c-1.642-6.009-5.312-11.25-10.389-14.859
				l-62.894-44.712l-4.822-72.274L3093.888,2566.152z"/>
			<g>
				
					<linearGradient id="SVGID_00000024703486166158219020000004446710787142678953_" gradientUnits="userSpaceOnUse" x1="-3092.9985" y1="2493.6204" x2="-2472.1782" y2="2046.8367" gradientTransform="matrix(-1 0 0 1 66.9433 0)">
					<stop  offset="0" style="stop-color:#A737D5"/>
					<stop  offset="1" style="stop-color:#EF497A"/>
				</linearGradient>
				<path style="fill:url(#SVGID_00000024703486166158219020000004446710787142678953_);" d="M2872.289,2168.469
					c104.22-1.722,219.214,27.365,219.214,27.365c31.066,181.267,5.433,390.347,5.433,390.347
					c-80.685,21.159-171.7-12.937-171.7-12.937c-13.41-75.765-75.979-288.994-75.979-288.994
					c-50.921-6.32-92.87-21.011-127.414-40.435c26.35-30.543,38.772-69.408,44.167-92.383
					C2802.857,2162.883,2840.144,2169,2872.289,2168.469z"/>
				
					<linearGradient id="SVGID_00000145041098294379430850000016639576595205546632_" gradientUnits="userSpaceOnUse" x1="-2699.0662" y1="2125.4377" x2="-2497.4998" y2="2125.4377" gradientTransform="matrix(-1 0 0 1 66.9433 0)">
					<stop  offset="0" style="stop-color:#F9B776"/>
					<stop  offset="1" style="stop-color:#F47960"/>
				</linearGradient>
				<path style="fill:url(#SVGID_00000145041098294379430850000016639576595205546632_);" d="M2564.443,2014.96
					c10.238-12.366,23.196-6.516,23.196-6.516c15.337,64.784,95.754,117.313,178.371,142.989
					c-5.395,22.974-17.817,61.839-44.167,92.383C2584.731,2166.723,2564.443,2014.96,2564.443,2014.96z"/>
			</g>
			<g>
				
					<linearGradient id="SVGID_00000075872166594556556480000013794663793572714902_" gradientUnits="userSpaceOnUse" x1="12990.1807" y1="2091.6504" x2="13125.4365" y2="2399.3887" gradientTransform="matrix(1 0 0 1 -10380.835 0)">
					<stop  offset="0" style="stop-color:#F9B776"/>
					<stop  offset="1" style="stop-color:#F47960"/>
				</linearGradient>
				<path style="fill:url(#SVGID_00000075872166594556556480000013794663793572714902_);" d="M2566.928,2018.104
					c-1.071,3.406,11.334,8.591,18.638-5.338c0.256-6.675,4.315-35.274,0.327-40.712c-21.245-28.963-62.433-65.271-62.433-65.271
					c-6.962,6.869-1.226,13.616-1.226,13.616l19.981,20.815c-4.18,7.553-9.278,13.928-11.667,23.063
					c-1.81,6.918-0.703,14.311,2.791,20.608c3.508,6.319,8.292,14.533,12.817,20.96
					C2554.718,2018.012,2566.928,2018.104,2566.928,2018.104z"/>
				
					<linearGradient id="SVGID_00000181773140510182723310000008549158642440586641_" gradientUnits="userSpaceOnUse" x1="-2498.4675" y1="1989.1625" x2="-2442.031" y2="1902.3912" gradientTransform="matrix(-1 0 0 1 66.9433 0)">
					<stop  offset="0" style="stop-color:#F9B776"/>
					<stop  offset="1" style="stop-color:#F47960"/>
				</linearGradient>
				<path style="fill:url(#SVGID_00000181773140510182723310000008549158642440586641_);" d="M2550.954,1954.72l18.208,15.436
					l5.716,15.368l-16.234,18.01c0,0-5.459-30.493-9.516-37.093C2545.072,1959.841,2547.176,1956.65,2550.954,1954.72z"/>
			</g>
			
				<linearGradient id="SVGID_00000069386931426566695430000003912993866905404576_" gradientUnits="userSpaceOnUse" x1="-3174.8059" y1="2379.9468" x2="-2553.9851" y2="1933.1628" gradientTransform="matrix(-1 0 0 1 66.9433 0)">
				<stop  offset="0" style="stop-color:#A737D5"/>
				<stop  offset="1" style="stop-color:#EF497A"/>
			</linearGradient>
			<path style="fill:url(#SVGID_00000069386931426566695430000003912993866905404576_);" d="M3051.529,2296.749l39.974-100.916
				c0,0,97.347,66.144,113.356,150.005c-18.394,1.355-51.864,6.139-84.626,22.681
				C3113.035,2328.922,3051.529,2296.749,3051.529,2296.749z"/>
			
				<linearGradient id="SVGID_00000056402311746583201530000006978775905275610510_" gradientUnits="userSpaceOnUse" x1="-3140.1353" y1="2410.9512" x2="-2885.0508" y2="2410.9512" gradientTransform="matrix(-1 0 0 1 66.9433 0)">
				<stop  offset="0" style="stop-color:#F9B776"/>
				<stop  offset="1" style="stop-color:#F47960"/>
			</linearGradient>
			<path style="fill:url(#SVGID_00000056402311746583201530000006978775905275610510_);" d="M2966.459,2391.707
				c0,0,109.296,61.769,146.174,9.026c7.657-10.952,9.487-21.836,7.601-32.213c32.762-16.542,66.232-21.326,84.626-22.681
				c4.827,25.282,2.275,52.171-12.581,79.347c-64.598,118.168-240.285-6.531-240.285-6.531L2966.459,2391.707z"/>
			<g>
				
					<linearGradient id="SVGID_00000030469072651204446090000017858517831227678114_" gradientUnits="userSpaceOnUse" x1="3581.3701" y1="1407.5797" x2="2901.917" y2="2286.8733">
					<stop  offset="0" style="stop-color:#53D8FF"/>
					<stop  offset="1" style="stop-color:#3840F7"/>
				</linearGradient>
				<path style="fill:url(#SVGID_00000030469072651204446090000017858517831227678114_);" d="M2975.561,2455.779l-55.621-194.238
					c-0.677-2.365-2.694-4.089-5.137-4.374c-10.807-1.26-42.123-4.801-78.281-7.858c-35.865-3.034-76.492-5.594-106.595-4.985
					c-12.689,0.257-20.806,13.581-15.132,24.934c23.979,47.975,79.939,157.683,112.13,202.448c3.281,4.564,8.594,7.206,14.215,7.154
					l118.009-1.098C2970.539,2477.654,2978.696,2466.728,2975.561,2455.779z"/>
				
					<linearGradient id="SVGID_00000114049472170476729290000000280194295344330914_" gradientUnits="userSpaceOnUse" x1="-2903.99" y1="2384.2056" x2="-2824.5215" y2="2384.2056" gradientTransform="matrix(-1 0 0 1 66.9433 0)">
					<stop  offset="0" style="stop-color:#F9B776"/>
					<stop  offset="1" style="stop-color:#F47960"/>
				</linearGradient>
				<path style="fill:url(#SVGID_00000114049472170476729290000000280194295344330914_);" d="M2965.18,2419.523
					c0,0,8.309-34.168,4.957-46.29c-3.352-12.122-9.845-27.707-31.492-24.244c-21.646,3.464-47.18,12.583-47.18,12.583
					s1.29,15.789,17.741,10.695l-10.201,7.894c0,0,1.458,12.643,15.354,5.888l-9.489,10.469c0,0,5.969,10.383,16.192,3.723
					C2931.285,2393.582,2936.186,2423.638,2965.18,2419.523z"/>
			</g>
			
				<linearGradient id="SVGID_00000047054118506375268520000005809458463073884326_" gradientUnits="userSpaceOnUse" x1="-2944.2664" y1="2138.251" x2="-2843.4148" y2="2138.251" gradientTransform="matrix(-1 0 0 1 66.9433 0)">
				<stop  offset="0" style="stop-color:#F9B776"/>
				<stop  offset="1" style="stop-color:#F47960"/>
			</linearGradient>
			<path style="fill:url(#SVGID_00000047054118506375268520000005809458463073884326_);" d="M2977.855,2083.859l33.162,95.899
				c0.549,1.588-0.104,3.347-1.575,4.16c-9.04,4.999-41.606,19.445-80.853-5.438c-4.089-2.592-6.872-6.819-7.493-11.621l-10.738-83
				H2977.855z"/>
			<g>
				
					<linearGradient id="SVGID_00000087396237875305053050000000026978873109662103_" gradientUnits="userSpaceOnUse" x1="-7843.9888" y1="-3144.8381" x2="-7881.6763" y2="-3269.1394" gradientTransform="matrix(-0.746 -0.6659 -0.6659 0.746 -5059.3921 -803.1727)">
					<stop  offset="0" style="stop-color:#F9B776"/>
					<stop  offset="1" style="stop-color:#F47960"/>
				</linearGradient>
				<path style="fill:url(#SVGID_00000087396237875305053050000000026978873109662103_);" d="M2905.701,1995.053
					c0,0-36.414,68.546-31.746,96.235c4.668,27.689,49.798,25.701,89.207,3.213l27.538-74.015L2905.701,1995.053z"/>
				
					<linearGradient id="SVGID_00000175298418646351263870000011541729958925415090_" gradientUnits="userSpaceOnUse" x1="-7877.9902" y1="-3361.4146" x2="-7846.4648" y2="-3181.605" gradientTransform="matrix(-0.746 -0.6659 -0.6659 0.746 -5059.3921 -803.1727)">
					<stop  offset="0" style="stop-color:#2B3582"/>
					<stop  offset="1" style="stop-color:#150E42"/>
				</linearGradient>
				<path style="fill:url(#SVGID_00000175298418646351263870000011541729958925415090_);" d="M2961.42,2058.153
					c-1.602-0.71-2.193-2.669-1.233-4.135c2.917-4.456,8.386-13.549,10.131-21.51c0,0,6.546-4.192-16.661-9.746
					c-23.208-5.556-57.816-14.177-65.09-33.932c-7.093-19.259,11.542-67.693,41.272-29.102c1.131,1.468,3.347,1.5,4.476,0.031
					c4.874-6.343,17.688-19.51,35.477-11.528c16.647,7.469,18.522,19.668,18.294,25.817c-0.067,1.809,1.55,3.214,3.328,2.875
					c8.417-1.605,28.614-2.984,38.042,17.736c7.766,17.067,2.718,26.728-1.878,31.453c-1.49,1.531-0.837,4.051,1.206,4.677
					c5.531,1.693,12.675,6.384,11.959,19.344c-0.988,17.917-21.02,16.338-26.723,15.521c-0.935-0.133-1.876,0.188-2.509,0.887
					c-4.89,5.412-26.923,28.391-50.769,31.16c-2.065,0.24-3.665-1.799-2.989-3.765l10.32-29.999
					c0.479-1.393-0.187-2.921-1.534-3.518L2961.42,2058.153z"/>
				
					<linearGradient id="SVGID_00000054246242528471414280000017317960837177449132_" gradientUnits="userSpaceOnUse" x1="-7882.5142" y1="-3145.4165" x2="-7916.4219" y2="-3257.2529" gradientTransform="matrix(-0.746 -0.6659 -0.6659 0.746 -5059.3921 -803.1727)">
					<stop  offset="0" style="stop-color:#F9B776"/>
					<stop  offset="1" style="stop-color:#F47960"/>
				</linearGradient>
				<path style="fill:url(#SVGID_00000054246242528471414280000017317960837177449132_);" d="M2957.271,2062.411
					c0,0,25.927-17.789,27.822-2.809c1.894,14.98-23.348,21.699-35.85,16.114L2957.271,2062.411z"/>
			</g>
		</g>
	</g>
</g>
</svg>
