<?xml version="1.0" encoding="utf-8"?>
<!-- Generator: Adobe Illustrator 27.5.0, SVG Export Plug-In . SVG Version: 6.00 Build 0)  -->
<svg version="1.1" xmlns="http://www.w3.org/2000/svg" xmlns:xlink="http://www.w3.org/1999/xlink" x="0px" y="0px"
	 viewBox="0 0 500 500" style="enable-background:new 0 0 500 500;" xml:space="preserve">
<g id="BACKGROUND">
	<g>
		<g>
			<path style="fill:#E6E6E6;" d="M380.676,140.418l-0.982-3.664c2.251-1.271,4.373-2.858,6.291-4.775
				c1.811-1.811,3.331-3.802,4.565-5.914l3.766,1.009c0.661,0.177,1.34-0.215,1.517-0.876l3.223-12.029
				c0.177-0.661-0.215-1.34-0.876-1.517l-3.668-0.983c0.051-5.092-1.226-10.191-3.828-14.742l2.76-2.76
				c0.484-0.484,0.484-1.268,0-1.752l-8.806-8.806c-0.484-0.484-1.268-0.484-1.752,0l-2.677,2.677
				c-4.517-2.674-9.6-4.02-14.689-4.044l-1.011-3.773c-0.177-0.661-0.856-1.053-1.517-0.876l-12.029,3.223
				c-0.661,0.177-1.053,0.856-0.876,1.517l0.982,3.664c-2.252,1.271-4.373,2.858-6.291,4.775c-1.811,1.811-3.331,3.802-4.565,5.914
				l-3.766-1.009c-0.661-0.177-1.34,0.215-1.517,0.876l-3.223,12.029c-0.177,0.661,0.215,1.34,0.876,1.517l3.668,0.983
				c-0.051,5.092,1.226,10.191,3.828,14.742l-2.76,2.76c-0.484,0.484-0.484,1.268,0,1.752l8.806,8.806
				c0.484,0.484,1.268,0.484,1.752,0l2.677-2.677c4.517,2.674,9.6,4.02,14.689,4.044l1.011,3.773
				c0.177,0.661,0.856,1.053,1.517,0.876l12.029-3.223C380.461,141.758,380.853,141.079,380.676,140.418z M352.295,124.463
				c-7.228-7.228-7.228-18.946,0-26.174c7.228-7.228,18.946-7.228,26.174,0c7.228,7.228,7.228,18.946,0,26.174
				C371.241,131.691,359.523,131.691,352.295,124.463z"/>
			<path style="fill:#E6E6E6;" d="M338.51,72.49l-0.465-1.734c1.066-0.602,2.07-1.353,2.978-2.26
				c0.857-0.857,1.577-1.799,2.161-2.799l1.783,0.478c0.313,0.084,0.634-0.102,0.718-0.415l1.526-5.694
				c0.084-0.313-0.102-0.634-0.415-0.718l-1.736-0.465c0.024-2.41-0.58-4.824-1.812-6.978l1.306-1.306
				c0.229-0.229,0.229-0.6,0-0.829l-4.168-4.168c-0.229-0.229-0.6-0.229-0.829,0l-1.267,1.267c-2.138-1.266-4.544-1.903-6.953-1.914
				l-0.479-1.786c-0.084-0.313-0.405-0.498-0.718-0.415l-5.694,1.526c-0.313,0.084-0.498,0.405-0.415,0.718l0.465,1.734
				c-1.066,0.602-2.07,1.353-2.978,2.26c-0.857,0.857-1.577,1.799-2.161,2.799l-1.783-0.478c-0.313-0.084-0.634,0.102-0.718,0.415
				l-1.526,5.694c-0.084,0.313,0.102,0.634,0.415,0.718l1.736,0.465c-0.024,2.41,0.58,4.824,1.812,6.978l-1.306,1.306
				c-0.229,0.229-0.229,0.6,0,0.829l4.168,4.168c0.229,0.229,0.6,0.229,0.829,0l1.267-1.267c2.138,1.265,4.544,1.903,6.952,1.914
				l0.479,1.786c0.084,0.313,0.405,0.498,0.718,0.415l5.694-1.526C338.409,73.124,338.594,72.803,338.51,72.49z M325.077,64.938
				c-3.421-3.421-3.421-8.968,0-12.389c3.421-3.421,8.968-3.421,12.389,0c3.421,3.421,3.421,8.968,0,12.389
				C334.045,68.359,328.498,68.359,325.077,64.938z"/>
		</g>
		<g>
			<path style="fill:#E6E6E6;" d="M93.912,289.801l11.29,3.025c0.62,0.166,1.258-0.202,1.424-0.822l0.949-3.541
				c4.776-0.022,9.546-1.286,13.785-3.796l2.512,2.512c0.454,0.454,1.19,0.454,1.644,0l8.265-8.264c0.454-0.454,0.454-1.19,0-1.644
				l-2.59-2.59c2.442-4.271,3.64-9.057,3.592-13.835l3.443-0.922c0.62-0.166,0.988-0.804,0.822-1.424l-3.025-11.29
				c-0.166-0.62-0.804-0.988-1.424-0.822l-3.534,0.947c-1.159-1.982-2.585-3.851-4.284-5.55c-1.8-1.8-3.791-3.289-5.904-4.482
				l0.922-3.439c0.166-0.62-0.202-1.258-0.822-1.424l-11.289-3.025c-0.62-0.166-1.258,0.202-1.424,0.822l-0.949,3.541
				c-4.776,0.023-9.546,1.286-13.785,3.796l-2.512-2.512c-0.454-0.454-1.19-0.454-1.644,0l-8.265,8.265
				c-0.454,0.454-0.454,1.19,0,1.644l2.59,2.59c-2.442,4.271-3.64,9.057-3.592,13.835l-3.443,0.923
				c-0.62,0.166-0.988,0.804-0.822,1.424l3.025,11.29c0.166,0.62,0.804,0.988,1.424,0.822l3.534-0.947
				c1.159,1.982,2.585,3.851,4.284,5.55c1.8,1.8,3.791,3.289,5.904,4.482l-0.921,3.439
				C92.924,288.997,93.292,289.635,93.912,289.801z M95.162,273.403c-6.783-6.783-6.783-17.781,0-24.565
				c6.783-6.783,17.781-6.783,24.564,0c6.783,6.783,6.783,17.781,0,24.565C112.943,280.186,101.945,280.186,95.162,273.403z"/>
			<path style="fill:#E6E6E6;" d="M91.015,147.301l5.344,1.432c0.294,0.079,0.595-0.095,0.674-0.389l0.449-1.676
				c2.26-0.011,4.518-0.609,6.525-1.796l1.189,1.189c0.215,0.215,0.563,0.215,0.778,0l3.912-3.912c0.215-0.215,0.215-0.563,0-0.778
				l-1.226-1.226c1.156-2.021,1.723-4.287,1.7-6.549l1.63-0.437c0.294-0.079,0.468-0.38,0.389-0.674l-1.432-5.344
				c-0.079-0.294-0.38-0.468-0.674-0.389l-1.673,0.448c-0.548-0.938-1.223-1.823-2.028-2.627c-0.852-0.852-1.794-1.557-2.795-2.121
				l0.436-1.628c0.079-0.294-0.096-0.595-0.389-0.674l-5.344-1.432c-0.294-0.079-0.595,0.095-0.674,0.389l-0.449,1.676
				c-2.26,0.011-4.519,0.609-6.525,1.797l-1.189-1.189c-0.215-0.215-0.563-0.215-0.778,0l-3.912,3.912
				c-0.215,0.215-0.215,0.563,0,0.778l1.226,1.226c-1.156,2.021-1.723,4.287-1.7,6.549l-1.63,0.437
				c-0.294,0.079-0.468,0.38-0.389,0.674l1.432,5.344c0.079,0.294,0.38,0.468,0.674,0.389l1.673-0.448
				c0.548,0.938,1.224,1.823,2.028,2.627c0.852,0.852,1.794,1.557,2.795,2.121l-0.436,1.628
				C90.548,146.921,90.722,147.223,91.015,147.301z M91.607,139.54c-3.211-3.211-3.211-8.416,0-11.627
				c3.211-3.211,8.416-3.211,11.627,0s3.211,8.416,0,11.627C100.023,142.75,94.817,142.75,91.607,139.54z"/>
		</g>
	</g>
	<path style="fill:#E6B230;" d="M114.231,174.399c-3.012,0-4.466-2.399-5.873-4.719c-1.304-2.151-2.536-4.184-4.921-4.184
		s-3.618,2.032-4.922,4.184c-1.407,2.32-2.862,4.719-5.873,4.719c-3.01,0-4.464-2.399-5.87-4.719
		c-1.303-2.151-2.534-4.184-4.917-4.184c-2.384,0-3.616,2.032-4.92,4.184c-1.406,2.32-2.86,4.719-5.871,4.719
		c-3.01,0-4.464-2.399-5.869-4.719c-1.304-2.151-2.534-4.184-4.918-4.184c-2.383,0-3.613,2.032-4.916,4.183
		c-1.405,2.321-2.859,4.72-5.868,4.72c-3.01,0-4.463-2.4-5.868-4.72c-1.303-2.151-2.534-4.183-4.916-4.183v-1.113
		c3.009,0,4.463,2.399,5.868,4.719c1.303,2.151,2.534,4.184,4.917,4.184c2.383,0,3.613-2.032,4.916-4.183
		c1.405-2.321,2.859-4.72,5.868-4.72c3.01,0,4.464,2.399,5.87,4.72c1.303,2.151,2.534,4.183,4.918,4.183
		c2.384,0,3.616-2.032,4.919-4.183c1.406-2.321,2.86-4.72,5.872-4.72c3.01,0,4.464,2.399,5.869,4.719
		c1.303,2.151,2.534,4.184,4.918,4.184c2.385,0,3.617-2.032,4.921-4.184c1.407-2.32,2.861-4.719,5.874-4.719
		c3.012,0,4.466,2.399,5.873,4.719c1.304,2.151,2.536,4.184,4.921,4.184V174.399z"/>
	<path style="fill:#E6B230;" d="M467.843,111.224c-3.011,0-4.467-2.399-5.873-4.719c-1.304-2.151-2.536-4.184-4.922-4.184
		c-2.385,0-3.617,2.032-4.921,4.183c-1.407,2.32-2.861,4.72-5.874,4.72c-3.01,0-4.463-2.399-5.87-4.719
		c-1.303-2.151-2.534-4.184-4.918-4.184c-2.384,0-3.616,2.032-4.92,4.184c-1.406,2.32-2.86,4.719-5.872,4.719
		c-3.01,0-4.463-2.399-5.87-4.719c-1.303-2.151-2.534-4.184-4.917-4.184c-2.383,0-3.614,2.032-4.917,4.184
		c-1.405,2.32-2.858,4.719-5.867,4.719c-3.009,0-4.463-2.399-5.868-4.719c-1.303-2.152-2.533-4.184-4.917-4.184v-1.113
		c3.009,0,4.463,2.399,5.868,4.719c1.303,2.152,2.533,4.184,4.917,4.184c2.382,0,3.612-2.032,4.915-4.183
		c1.405-2.32,2.858-4.72,5.868-4.72c3.01,0,4.463,2.399,5.869,4.719c1.303,2.151,2.534,4.184,4.918,4.184
		c2.384,0,3.616-2.032,4.92-4.184c1.406-2.32,2.86-4.719,5.872-4.719c3.01,0,4.463,2.399,5.87,4.719
		c1.303,2.151,2.534,4.184,4.918,4.184c2.385,0,3.618-2.032,4.922-4.184c1.406-2.32,2.861-4.719,5.873-4.719
		c3.012,0,4.467,2.4,5.874,4.72c1.304,2.151,2.535,4.183,4.921,4.183V111.224z"/>
	<g>
		
			<rect x="97.737" y="111.561" transform="matrix(0.7071 -0.7072 0.7072 0.7071 -48.2081 107.8604)" style="fill:#E6B230;" width="16.692" height="1.113"/>
		
			<rect x="105.527" y="103.771" transform="matrix(0.7071 -0.7071 0.7071 0.7071 -48.2079 107.8515)" style="fill:#E6B230;" width="1.113" height="16.692"/>
	</g>
	<g>
		
			<rect x="436.94" y="296.476" transform="matrix(0.7071 -0.7071 0.7071 0.7071 -79.6126 401.8636)" style="fill:#E6B230;" width="16.692" height="1.113"/>
		
			<rect x="444.73" y="288.687" transform="matrix(0.7071 -0.7071 0.7071 0.7071 -79.6122 401.8658)" style="fill:#E6B230;" width="1.113" height="16.692"/>
	</g>
	<g>
		
			<rect x="54.326" y="310.216" transform="matrix(0.7071 -0.7071 0.7071 0.7071 -201.3925 135.3394)" style="fill:#E6B230;" width="16.694" height="1.113"/>
		
			<rect x="62.117" y="302.425" transform="matrix(0.7071 -0.7071 0.7071 0.7071 -201.3881 135.3327)" style="fill:#E6B230;" width="1.113" height="16.694"/>
	</g>
</g>
<g id="OBJECTS">
	<g>
		<g>
			
				<rect x="168.592" y="96.763" transform="matrix(1 -0.0011 0.0011 1 -0.2804 0.2926)" style="fill:#FFFFFF;" width="172.859" height="295.857"/>
		</g>
		<g>
			<g>
				<path style="fill:#7A7371;" d="M334.123,75.951l-158.565,0.182c-7.452,0.009-13.486,6.058-13.477,13.51l0.334,312.447
					c0.009,7.452,6.058,13.486,13.511,13.477l158.565-0.182c7.452-0.009,13.486-6.058,13.477-13.51l-0.333-312.447
					C347.625,81.975,341.576,75.942,334.123,75.951z M341.59,392.521l-172.859,0.198l-0.278-295.856l172.859-0.199L341.59,392.521z"
					/>
			</g>
			<path style="fill:#99908E;" d="M274.401,407.499l-37.51,0.047c-1.394,0.002-2.525-1.126-2.527-2.52l-0.002-1.446
				c-0.002-1.394,1.126-2.526,2.52-2.527l37.51-0.047c1.394-0.002,2.525,1.126,2.527,2.52l0.002,1.446
				C276.923,406.365,275.795,407.497,274.401,407.499z"/>
			<path style="fill:#99908E;" d="M260.31,86.872c0.004,2.73-2.206,4.945-4.936,4.949c-2.73,0.003-4.946-2.207-4.949-4.937
				c-0.004-2.73,2.206-4.945,4.936-4.949C258.091,81.932,260.307,84.143,260.31,86.872z"/>
			<rect x="168.453" y="96.664" style="fill:#474342;" width="172.859" height="9.551"/>
		</g>
		<path style="fill:#E6B230;" d="M286.219,303.863h-31.638c-5.092,0-9.22-4.128-9.22-9.22v-31.638c0-5.092,4.128-9.22,9.22-9.22
			h31.638c5.092,0,9.22,4.128,9.22,9.22v31.638C295.439,299.735,291.31,303.863,286.219,303.863z"/>
		<circle style="fill:#FF7EE3;" cx="316.026" cy="129.793" r="8.346"/>
		<text transform="matrix(1 0 0 1 184.9564 133.2377)" style="fill:#474342; font-family:'Poppins-Bold'; font-size:14.4669px;">Discover</text>
		
			<text transform="matrix(1 0 0 1 184.9564 243.9428)" style="fill:#474342; font-family:'Poppins-SemiBold'; font-size:10.0155px;">Trending</text>
		<path style="fill:#E6B230;" d="M341.509,253.785h-25.995c-4.941,0-8.947,4.006-8.947,8.947v32.183
			c0,4.941,4.006,8.947,8.947,8.947h25.995V253.785z"/>
		<path style="fill:#26367A;" d="M341.516,336.135h-59.066c-3.958,0-7.167,3.209-7.167,7.167v30.18c0,3.958,3.209,7.167,7.167,7.167
			h59.066V336.135z"/>
		
			<text transform="matrix(1 0 0 1 184.9564 326.2934)" style="fill:#474342; font-family:'Poppins-SemiBold'; font-size:10.0155px;">Recommended</text>
		<path style="fill:#26367A;" d="M261.089,380.648h-69.381c-3.557,0-6.44-2.883-6.44-6.44v-31.634c0-3.557,2.883-6.44,6.44-6.44
			h69.381c3.557,0,6.44,2.883,6.44,6.44v31.634C267.529,377.765,264.645,380.648,261.089,380.648z"/>
		<circle style="fill:#FF7EE3;" cx="204.119" cy="358.948" r="11.062"/>
		<circle style="fill:#26367A;" cx="270.4" cy="278.824" r="11.062"/>
		<path style="fill:#FF7EE3;" d="M256.845,351.754h-31.503c-1.229,0-2.226-0.996-2.226-2.226c0-1.229,0.997-2.226,2.226-2.226
			h31.503c1.229,0,2.226,0.996,2.226,2.226C259.071,350.757,258.074,351.754,256.845,351.754z"/>
		<path style="fill:#FF7EE3;" d="M239.817,358.573h-15.326c-0.615,0-1.113-0.498-1.113-1.113c0-0.615,0.498-1.113,1.113-1.113
			h15.326c0.615,0,1.113,0.498,1.113,1.113C240.929,358.075,240.431,358.573,239.817,358.573z"/>
		<path style="fill:#E6B230;" d="M237.46,372.334h-10.613c-2.254,0-4.081-1.827-4.081-4.081v-0.921c0-2.254,1.827-4.081,4.081-4.081
			h10.613c2.254,0,4.081,1.827,4.081,4.081v0.921C241.541,370.507,239.714,372.334,237.46,372.334z"/>
		<circle style="fill:#FF7EE3;" cx="294.134" cy="358.948" r="11.062"/>
		<path style="fill:#FF7EE3;" d="M329.832,358.573h-15.327c-0.615,0-1.113-0.498-1.113-1.113c0-0.615,0.498-1.113,1.113-1.113
			h15.327c0.615,0,1.113,0.498,1.113,1.113C330.945,358.075,330.447,358.573,329.832,358.573z"/>
		<path style="fill:#E6B230;" d="M327.475,372.334h-10.613c-2.254,0-4.081-1.827-4.081-4.081v-0.921
			c0-2.254,1.827-4.081,4.081-4.081h10.613c2.254,0,4.081,1.827,4.081,4.081v0.921C331.556,370.507,329.729,372.334,327.475,372.334
			z"/>
		<path style="fill:#FF7EE3;" d="M341.516,347.302h-26.158c-1.229,0-2.226,0.996-2.226,2.226c0,1.229,0.997,2.226,2.226,2.226
			h26.158V347.302z"/>
		<path style="fill:#E6E6E6;" d="M316.125,167.799H192.958c-4.247,0-7.691-3.443-7.691-7.691v-1.736
			c0-4.247,3.443-7.691,7.691-7.691h123.166c4.248,0,7.691,3.443,7.691,7.691v1.736
			C323.816,164.356,320.372,167.799,316.125,167.799z"/>
		<text transform="matrix(1 0 0 1 193.5033 161.2592)" style="fill:#808080; font-family:'Poppins-Regular'; font-size:6.677px;">Search</text>
		<path style="fill:#26367A;" d="M341.509,273.919c-1.809-3.645-5.558-6.157-9.904-6.157c-6.109,0-11.062,4.952-11.062,11.062
			c0,6.109,4.952,11.062,11.062,11.062c4.345,0,8.095-2.512,9.904-6.157V273.919z"/>
	</g>
	<g>
		<path style="fill:#303030;" d="M125.986,218.034c-12.583-0.216-24.872,13.091-21.834,25.646
			c3.063,12.659,20.683,20.307,32.25,14.655c9.954-4.864,12.622-18.207,8.012-27.661
			C141.487,224.67,134.623,218.182,125.986,218.034z"/>
		<g>
			<path style="fill:#FFAF82;" d="M101.276,393.428c-7.168-0.34-16.752,2.992-19.305,2.488c-14.226-2.804-21.625,6.955-12.524,9.245
				c4.922,1.239,25.724,5.554,29.338,5.986c6.101,0.73,13.434,1.419,20.861,1.875l-0.021-20.66
				C112.445,393.049,105.024,393.606,101.276,393.428z"/>
			<g>
				<path style="fill:#E6B230;" d="M69.447,405.162l-27.033,7.92c-2.888,0.846-4.976-2.744-2.812-4.836l28.611-27.949
					c2.245-2.038,13.759,15.62,13.759,15.62l-2.346-0.182C74.132,395.307,69.441,399.652,69.447,405.162L69.447,405.162z"/>
				<path style="fill:#26367A;" d="M39.138,413.787l-2.513-2.561c-0.434-0.443-0.428-1.154,0.015-1.588l31.495-30.905
					c0.443-0.434,1.154-0.428,1.588,0.015l2.513,2.561c0.434,0.443,0.428,1.154-0.015,1.588l-31.495,30.905
					C40.284,414.237,39.573,414.23,39.138,413.787z"/>
				<path style="fill:#26367A;" d="M64.385,400.873c0.176-0.175,0.406-0.3,0.669-0.344c0.676-0.114,1.317,0.341,1.431,1.017
					l0.776,4.596c0.115,0.676-0.34,1.318-1.018,1.431c-0.676,0.114-1.317-0.341-1.431-1.017l-0.775-4.596
					C63.966,401.547,64.109,401.148,64.385,400.873z"/>
				<path style="fill:#26367A;" d="M59.78,402.056c0.176-0.175,0.406-0.3,0.669-0.344c0.676-0.114,1.317,0.341,1.431,1.017
					l0.775,4.596c0.114,0.675-0.34,1.318-1.018,1.431c-0.676,0.114-1.317-0.341-1.431-1.017l-0.776-4.596
					C59.361,402.73,59.504,402.331,59.78,402.056z"/>
				<path style="fill:#26367A;" d="M54.91,403.418c0.176-0.175,0.406-0.3,0.67-0.344c0.675-0.115,1.317,0.341,1.431,1.017
					l0.776,4.597c0.114,0.676-0.34,1.318-1.018,1.431c-0.676,0.115-1.317-0.341-1.431-1.017l-0.776-4.597
					C54.492,404.092,54.635,403.693,54.91,403.418z"/>
			</g>
		</g>
		<g>
			<path style="fill:#FFAF82;" d="M91.093,394.085c-7.175-0.087-16.636,3.579-19.205,3.166c-14.316-2.302-21.367,7.711-12.191,9.68
				c4.962,1.065,25.904,4.646,29.531,4.951c6.122,0.515,13.476,0.945,20.914,1.14l-0.748-20.646
				C102.242,393.313,94.845,394.131,91.093,394.085z"/>
			<g>
				<path style="fill:#E6B230;" d="M59.697,406.931l-26.738,8.867c-2.856,0.947-5.069-2.568-2.981-4.734l27.61-28.939
					c2.172-2.116,14.3,15.126,14.3,15.126l-2.351-0.1C64.033,396.918,59.497,401.426,59.697,406.931L59.697,406.931z"/>
				<path style="fill:#26367A;" d="M29.71,416.618l-2.601-2.471c-0.45-0.427-0.468-1.138-0.041-1.587l30.388-31.994
					c0.427-0.45,1.138-0.468,1.588-0.041l2.601,2.471c0.45,0.427,0.468,1.138,0.041,1.587l-30.388,31.994
					C30.871,417.026,30.16,417.045,29.71,416.618z"/>
				<path style="fill:#26367A;" d="M54.487,402.824c0.169-0.181,0.395-0.314,0.657-0.367c0.672-0.138,1.328,0.295,1.465,0.966
					l0.937,4.566c0.139,0.672-0.293,1.329-0.967,1.466c-0.672,0.138-1.328-0.295-1.465-0.966l-0.937-4.566
					C54.092,403.512,54.221,403.108,54.487,402.824z"/>
				<path style="fill:#26367A;" d="M49.926,404.168c0.169-0.181,0.395-0.314,0.657-0.367c0.672-0.138,1.328,0.295,1.466,0.966
					l0.937,4.566c0.138,0.671-0.293,1.329-0.967,1.466c-0.672,0.138-1.328-0.295-1.466-0.966l-0.937-4.566
					C49.532,404.856,49.66,404.452,49.926,404.168z"/>
				<path style="fill:#26367A;" d="M45.108,405.7c0.169-0.181,0.395-0.314,0.657-0.367c0.671-0.139,1.328,0.295,1.465,0.966
					l0.937,4.567c0.138,0.671-0.294,1.329-0.967,1.466c-0.671,0.139-1.328-0.295-1.465-0.966l-0.937-4.567
					C44.713,406.389,44.842,405.984,45.108,405.7z"/>
			</g>
		</g>
		<path style="fill:#FF7EE3;" d="M125.093,318.094c0,0-8.614,28.707,3.445,38.917c7.46,6.317,8.424,26.736,8.424,26.736
			s-29.332,5.434-43.78,9.326l3.926,23.738c2.992-4.538,56.119,5.095,63.48-13.672c6.902-17.594,3.73-81.401,3.73-81.401
			L125.093,318.094z"/>
		<polygon style="fill:#D469BC;" points="160.509,337.461 155.338,377.523 155.338,340.465 		"/>
		<polygon style="fill:#D469BC;" points="123.454,386.938 109.394,392.376 126.459,392.719 		"/>
		<g>
			<g>
				<polygon style="fill:#FFAF82;" points="216.941,291.533 213.754,281.212 181.237,281.264 162.264,261.024 143.748,267.543 
					176.976,301.321 				"/>
			</g>
			<polygon style="fill:#26367A;" points="152.05,281.075 170.41,267.762 156.583,250.517 139.538,266.976 			"/>
		</g>
		<path style="fill:#FF7EE3;" d="M119.215,323.695c0,0-13.183,26.917-2.952,38.957c6.329,7.45,3.948,27.753,3.948,27.753
			s-29.825,0.575-44.715,2.057v24.061c3.692-3.989,69.007,10.079,75.116-16.105c4.294-18.405,8.235-74.26,8.235-74.26
			L119.215,323.695z"/>
		<path style="fill:#D469BC;" d="M75.525,398.347l-0.058-1.111l45.112-2.357c3.046-0.159,5.614-2.454,6.106-5.459
			c1.375-8.382,0.852-16.097-1.555-22.931c-0.902-2.559-1.833-4.368-2.734-6.115c-1.098-2.132-2.136-4.146-2.89-7.155
			c-2.093-8.352-0.322-17.653,5.262-27.648l0.972,0.543c-5.441,9.738-7.176,18.767-5.155,26.835c0.723,2.883,1.732,4.841,2.8,6.915
			c0.918,1.781,1.867,3.623,2.794,6.255c2.469,7.012,3.009,14.911,1.604,23.48c-0.577,3.517-3.583,6.204-7.147,6.389L75.525,398.347
			z"/>
		<path style="fill:#26367A;" d="M144.149,243.951l-23.663,6.133c-12.497,4.225-15.685,13.816-13.977,20.796l11.375,39.325
			l-2.298,23.318l50.417-5.538l-3.954-32.917c6.923-13.565,1.237-32.043-4.432-42.895
			C152.599,242.567,144.149,243.951,144.149,243.951z"/>
		<path style="fill:#FFAF82;" d="M125.942,228.699l-0.457,19.574c0.208,2.109,5.646,7.173,11.318,8.097
			c3.328,0.542,6.185-2.404,5.608-5.726l-2.589-14.904L125.942,228.699z"/>
		<path style="fill:#ED864C;" d="M141.807,247.196l-1.175-6.715l-12.173-5.228l0.498,2.693
			C128.957,237.945,130.762,242.393,141.807,247.196z"/>
		<path style="fill:#FFAF82;" d="M126.308,238.813l13.418,4.257c2.636,0.927,5.435,0.367,7.481-1.24
			c1.601-1.258,2.511-3.205,2.758-5.227l3.328-16.364l-23.35-6.187L126.308,238.813z"/>
		<path style="fill:#303030;" d="M153.577,215.954c0.337,1.118-19.126,13.409-23.025,10.36c-7.646-5.978-4.763,8.938-4.763,8.938
			s-19.228-22.429,5.633-29.578C141.003,202.919,150.767,206.622,153.577,215.954z"/>
		<path style="fill:#303030;" d="M147.922,227.049c-0.135,0.385,0.067,0.806,0.451,0.941c0.385,0.135,0.806-0.067,0.941-0.451
			c0.135-0.385-0.067-0.806-0.451-0.941C148.478,226.463,148.057,226.665,147.922,227.049z"/>
		<path style="fill:#303030;" d="M145.8,234.792c-0.721-0.502-1.441-1.285-2.04-2.496c-0.041-0.084-0.007-0.186,0.078-0.228
			c0.083-0.042,0.186-0.008,0.228,0.078c1.927,3.895,5.052,3.12,5.185,3.087c0.09-0.023,0.185,0.03,0.208,0.12
			c0.024,0.091-0.029,0.184-0.12,0.208C149.313,235.568,147.554,236.013,145.8,234.792z"/>
		<path style="fill:#FFAF82;" d="M152.129,225.395l1.284,4.928c0.166,0.638-0.163,1.301-0.772,1.553l-1.998,0.828L152.129,225.395z"
			/>
		<path style="fill:#303030;" d="M132.278,226.797c0,0,23.286-0.232,24.266-10.805C157.522,205.42,139.941,206.102,132.278,226.797z
			"/>
		<path style="fill:#FFAF82;" d="M123.196,225.831c-0.86,2.445,0.425,5.124,2.871,5.984c2.445,0.86,5.124-0.426,5.984-2.871
			c0.86-2.445-0.425-5.124-2.871-5.984C126.735,222.101,124.056,223.386,123.196,225.831z"/>
		<g>
			<polygon style="fill:#303030;" points="128.178,228.938 126.762,225.985 127.069,225.837 128.485,228.791 			"/>
			
				<rect x="125.986" y="227.217" transform="matrix(0.9011 -0.4335 0.4335 0.9011 -85.9647 77.8116)" style="fill:#303030;" width="3.276" height="0.341"/>
		</g>
		<g>
			<path style="fill:#E6B230;" d="M221.78,308.567l-31.356,4.213c-5.047,0.678-9.688-2.863-10.366-7.91l-4.213-31.356
				c-0.678-5.047,2.864-9.688,7.91-10.366l31.356-4.213c5.047-0.678,9.688,2.864,10.365,7.91l4.213,31.356
				C230.369,303.248,226.827,307.889,221.78,308.567z"/>
			<path style="fill:#26367A;" d="M213.646,284.497c0.813,6.055-3.436,11.623-9.49,12.436c-6.055,0.814-11.622-3.435-12.436-9.49
				c-0.813-6.055,3.436-11.623,9.49-12.436C207.264,274.193,212.832,278.442,213.646,284.497z"/>
		</g>
		<g>
			<g>
				<path style="fill:#FFAF82;" d="M228.39,268.021l-5.701-0.164c-0.439,0.02-0.885-0.078-1.297-0.292
					c-1.227-0.638-3.683-2.071-2.72-2.858c1.265-1.034,8.106-1.241,8.106-1.241"/>
				<path style="fill:#FFAF82;" d="M230.283,271.422l-5.701-0.164c-0.439,0.02-0.885-0.078-1.297-0.292
					c-1.227-0.638-3.683-2.071-2.72-2.858c1.265-1.034,8.105-1.242,8.105-1.242"/>
				<path style="fill:#FFAF82;" d="M232.176,274.823l-5.701-0.164c-0.439,0.02-0.885-0.078-1.296-0.292
					c-1.227-0.638-3.683-2.071-2.72-2.858c1.265-1.033,8.106-1.241,8.106-1.241"/>
				<path style="fill:#FFAF82;" d="M231.606,273.99c0,0-5.99-0.113-7.255,0.921c-0.963,0.787,1.494,2.219,2.72,2.858
					c0.411,0.214,0.857,0.312,1.297,0.292l3.19,0.092c1.518,0.044,2.734-1.072,2.784-2.613c0.084-2.585-2.654-6.719-4.922-10.348
					c-3.7-5.921-9.372-4.899-9.372-4.899l2.995,3.562L231.606,273.99z"/>
			</g>
		</g>
		<g>
			<g>
				<polygon style="fill:#FFAF82;" points="181.207,311.539 180.04,300.802 141.82,294.679 131.687,273.359 114.231,284.287 
					125.375,312.66 				"/>
			</g>
			<g>
				<g>
					<path style="fill:#FFAF82;" d="M188.757,310.855l9.337-0.752c0.281-0.023,0.561,0.029,0.814,0.152
						c0.755,0.37,2.259,1.207,1.61,1.72c-0.852,0.673-10.932,1.682-10.932,1.682"/>
					<path style="fill:#FFAF82;" d="M183.815,301.116l2.547,1.445c0.451,0.256,0.944,0.43,1.456,0.513l8.345,0.834
						c0,0,2.313,1.037,1.544,1.955c-0.769,0.918-9.685,1.712-9.685,1.712l10.786-0.868c0.226-0.018,0.452,0.022,0.657,0.12
						c0.797,0.38,2.753,1.41,1.972,2.027c-0.972,0.767-12.469,1.918-12.469,1.918"/>
					<path style="fill:#FFAF82;" d="M198.433,313.458c-0.352-0.311-1.055-0.558-1.882-0.724l-6.205,0.923l-2.03-6.549l-4.502-5.993
						l-5.125,0.054c0,0-4.598,5.84,3.4,12.955c0.552,0.491,1.237,0.811,1.966,0.931l6.217,1.019
						c0.126,0.002,0.249-0.009,0.371-0.035c1.223-0.255,7.722-1.062,8.111-1.368C198.977,314.496,198.756,313.743,198.433,313.458z"
						/>
				</g>
				<path style="fill:#FFAF82;" d="M186.151,303.159l-1.171-1.925c-0.493-0.896,0.227-1.556,0.746-2.438l1.986-2.525
					c0.254-0.323,0.098-0.806-0.301-0.907c-0.768-0.194-2.295-0.61-3.739,0.834l-5.61,5.213L186.151,303.159z"/>
			</g>
		</g>
	</g>
	<g>
		<g>
			<g>
				<polygon style="fill:#C2794C;" points="302.251,202.651 309.646,194.778 343.854,212.89 367.016,204.309 382.478,220.011 
					346.166,237.147 				"/>
				<polygon style="fill:#E6B230;" points="356.913,208.052 374.443,200.363 382.478,220.011 361.561,229.882 				"/>
			</g>
			<g>
				<g>
					<path style="fill:#C2794C;" d="M296.718,196.451l-7.004-6.22c-0.211-0.187-0.466-0.315-0.742-0.368
						c-0.825-0.159-2.531-0.395-2.321,0.404c0.276,1.05,7.719,7.923,7.719,7.923"/>
					<path style="fill:#C2794C;" d="M306.526,191.648l-2.904-0.378c-0.514-0.067-1.013-0.225-1.471-0.467l-7.166-4.356
						c0,0-2.471-0.563-2.41,0.632c0.061,1.196,6.704,7.196,6.704,7.196l-8.092-7.185c-0.17-0.151-0.374-0.255-0.597-0.3
						c-0.865-0.176-3.047-0.531-2.794,0.432c0.314,1.197,8.803,9.036,8.803,9.036"/>
					<path style="fill:#C2794C;" d="M287.424,192.707c0.469-0.037,1.179,0.189,1.938,0.554l4.4,4.472l5.563-4.008l7.202-2.077
						l4.06,3.127c0,0,0.157,7.431-10.512,8.3c-0.736,0.06-1.476-0.097-2.13-0.44l-5.579-2.928c-0.101-0.074-0.193-0.157-0.276-0.251
						c-0.823-0.94-5.528-5.496-5.654-5.974C286.365,193.208,286.995,192.74,287.424,192.707z"/>
				</g>
				<path style="fill:#C2794C;" d="M303.431,191.873l2.094-0.833c0.933-0.419,0.755-1.379,0.871-2.396l-0.066-3.212
					c-0.008-0.411,0.407-0.703,0.786-0.543c0.73,0.307,2.201,0.894,2.484,2.916l1.343,7.54L303.431,191.873z"/>
			</g>
		</g>
		<path style="fill:#FF7EE3;" d="M316.012,224.284H193.628c-4.617,0-8.36-3.743-8.36-8.36V188.13c0-4.617,3.743-8.36,8.36-8.36
			h122.385c4.617,0,8.36,3.743,8.36,8.36v27.794C324.372,220.541,320.629,224.284,316.012,224.284z"/>
		<g>
			<g>
				<path style="fill:#C2794C;" d="M421.178,363.798c4.398,5.481,12.453,17.261,13.804,19.422
					c1.068,1.708-10.927,9.789-11.526,9.131c-3.349-3.673-12.454-13.759-14.878-16.372c-4.092-4.411-8.863-9.823-13.502-15.442
					l16.375-11.885C415.044,354.733,418.878,360.931,421.178,363.798z"/>
				<polygon style="fill:#E6E6E6;" points="413.057,380.886 426.217,370.52 435.469,383.666 422.901,391.741 				"/>
				<g>
					<defs>
						<polygon id="SVGID_1_" points="413.057,380.886 426.217,370.52 435.469,383.666 422.901,391.741 						"/>
					</defs>
					<clipPath id="SVGID_00000027566936247260373700000005767790329352035246_">
						<use xlink:href="#SVGID_1_"  style="overflow:visible;"/>
					</clipPath>
					
						<rect x="419.21" y="376.447" transform="matrix(0.7717 -0.636 0.636 0.7717 -148.7899 354.5976)" style="clip-path:url(#SVGID_00000027566936247260373700000005767790329352035246_);fill:#99908E;" width="0.557" height="16.173"/>
					
						<rect x="421.69" y="375.017" transform="matrix(0.7739 -0.6333 0.6333 0.7739 -147.1419 353.8152)" style="clip-path:url(#SVGID_00000027566936247260373700000005767790329352035246_);fill:#99908E;" width="0.556" height="15.942"/>
					
						<rect x="424.007" y="373.213" transform="matrix(0.7739 -0.6333 0.6333 0.7739 -145.5433 354.9101)" style="clip-path:url(#SVGID_00000027566936247260373700000005767790329352035246_);fill:#99908E;" width="0.556" height="16.154"/>
					
						<rect x="426.297" y="371.334" transform="matrix(0.7739 -0.6333 0.6333 0.7739 -143.9298 355.9789)" style="clip-path:url(#SVGID_00000027566936247260373700000005767790329352035246_);fill:#99908E;" width="0.556" height="16.451"/>
					
						<rect x="428.641" y="369.605" transform="matrix(0.7739 -0.6333 0.6333 0.7739 -142.3445 357.0726)" style="clip-path:url(#SVGID_00000027566936247260373700000005767790329352035246_);fill:#99908E;" width="0.556" height="16.578"/>
				</g>
				<g>
					<path style="fill:#FF7EE3;" d="M421.016,389.772l-10.72,25.421c-1.145,2.715,2.116,5.147,4.392,3.275l30.384-24.723
						c2.234-1.957-13.664-15.129-13.664-15.129l-0.084,2.303C431.127,386.311,426.376,390.392,421.016,389.772L421.016,389.772z"/>
					<path style="fill:#26367A;" d="M409.259,418.318l2.182,2.694c0.39,0.482,1.098,0.556,1.579,0.166l33.546-27.17
						c0.482-0.39,0.556-1.097,0.166-1.579l-2.182-2.694c-0.39-0.482-1.097-0.556-1.579-0.166l-33.546,27.17
						C408.943,417.129,408.869,417.836,409.259,418.318z"/>
					<path style="fill:#26367A;" d="M423.953,395.438c0.493-0.036,0.935-0.372,1.08-0.875c0.187-0.646-0.185-1.32-0.831-1.507
						l-4.386-1.268c-0.644-0.183-1.32,0.186-1.506,0.83c-0.187,0.646,0.185,1.32,0.831,1.507l4.386,1.268
						C423.67,395.434,423.813,395.448,423.953,395.438z"/>
					<path style="fill:#26367A;" d="M422.289,399.786c0.493-0.036,0.935-0.372,1.081-0.876c0.186-0.645-0.186-1.319-0.831-1.506
						l-4.386-1.267c-0.645-0.184-1.32,0.186-1.506,0.832c-0.187,0.645,0.185,1.319,0.83,1.506l4.386,1.267
						C422.006,399.783,422.149,399.796,422.289,399.786z"/>
					<path style="fill:#26367A;" d="M420.42,404.372c0.493-0.036,0.935-0.372,1.08-0.876c0.187-0.645-0.185-1.319-0.83-1.506
						l-4.386-1.267c-0.646-0.186-1.32,0.186-1.506,0.832c-0.186,0.645,0.186,1.319,0.831,1.506l4.386,1.267
						C420.137,404.369,420.28,404.382,420.42,404.372z"/>
				</g>
				<path style="fill:#26367A;" d="M359.654,290.769l27.055-24.176c0,0,17.773,23.145,13.068,42.909
					c-3.186,13.384,11.101,35.047,21.978,43.521l-28.991,21.163c-6.298-7.628-11.025-17.102-13.41-23.444
					C372.396,332.233,359.654,290.769,359.654,290.769z"/>
				<path style="fill:#C2794C;" d="M359.321,379.45c0.023,7.176-1.043,21.708-1.34,24.293c-0.234,2.044-14.954,0.861-15.015-0.046
					c-0.336-5.064-1.186-18.911-1.458-22.541c-0.46-6.127-0.824-13.483-0.952-20.923l20.639,0.933
					C360.194,368.308,359.309,375.697,359.321,379.45z"/>
				<polygon style="fill:#E6E6E6;" points="341.842,386.988 359.208,387.127 358.174,403.548 342.789,403.696 				"/>
				<g>
					<defs>
						<polygon id="SVGID_00000013161005242739464100000006364605760230100401_" points="341.842,386.988 359.208,387.127 
							358.174,403.548 342.824,402.801 						"/>
					</defs>
					<clipPath id="SVGID_00000166649427807127541300000008259277085861596336_">
						<use xlink:href="#SVGID_00000013161005242739464100000006364605760230100401_"  style="overflow:visible;"/>
					</clipPath>
					<polygon style="clip-path:url(#SVGID_00000166649427807127541300000008259277085861596336_);fill:#99908E;" points="
						344.52,402.295 344.287,385.744 344.843,385.735 345.077,402.287 					"/>
					<polygon style="clip-path:url(#SVGID_00000166649427807127541300000008259277085861596336_);fill:#99908E;" points="
						347.497,403.699 347.324,386.214 347.881,386.207 348.053,403.693 					"/>
					<polygon style="clip-path:url(#SVGID_00000166649427807127541300000008259277085861596336_);fill:#99908E;" points="
						350.474,402.765 350.298,386.231 350.854,386.224 351.03,402.758 					"/>
					<polygon style="clip-path:url(#SVGID_00000166649427807127541300000008259277085861596336_);fill:#99908E;" points="
						353.45,403 353.271,386.162 353.827,386.156 354.007,402.993 					"/>
					<polygon style="clip-path:url(#SVGID_00000166649427807127541300000008259277085861596336_);fill:#99908E;" points="
						356.427,403.234 356.246,386.267 356.803,386.26 356.983,403.228 					"/>
				</g>
				<g>
					<path style="fill:#FF7EE3;" d="M342.66,400.085l-24.739,13.473c-2.643,1.439-1.587,5.456,1.422,5.41l39.995-0.4
						c3.029-0.141-1.281-20.776-1.281-20.776l-1.533,1.785C352.935,403.757,346.545,403.991,342.66,400.085L342.66,400.085z"/>
					<path style="fill:#26367A;" d="M315.104,415.37l0.028,3.587c0.005,0.62,0.512,1.119,1.132,1.114l44.124-0.342
						c0.62-0.005,1.119-0.512,1.114-1.132l-0.028-3.588c-0.005-0.62-0.512-1.119-1.132-1.114l-44.125,0.342
						C315.598,414.244,315.099,414.75,315.104,415.37z"/>
					<path style="fill:#26367A;" d="M342.102,406.695c0.248,0,0.499-0.074,0.717-0.229c0.56-0.396,0.692-1.171,0.295-1.73
						l-2.695-3.803c-0.395-0.56-1.171-0.694-1.731-0.295c-0.56,0.396-0.692,1.171-0.295,1.73l2.695,3.803
						C341.33,406.513,341.713,406.695,342.102,406.695z"/>
					<path style="fill:#26367A;" d="M338.005,409.108c0.248,0,0.499-0.074,0.717-0.229c0.56-0.397,0.692-1.171,0.295-1.73
						l-2.695-3.803c-0.396-0.559-1.171-0.694-1.731-0.295c-0.56,0.397-0.692,1.171-0.295,1.73l2.695,3.803
						C337.233,408.927,337.616,409.108,338.005,409.108z"/>
					<path style="fill:#26367A;" d="M333.595,411.581c0.248,0,0.499-0.074,0.717-0.229c0.56-0.395,0.692-1.171,0.295-1.73
						l-2.696-3.804c-0.396-0.559-1.171-0.694-1.731-0.295c-0.56,0.395-0.692,1.171-0.295,1.73l2.696,3.804
						C332.822,411.399,333.206,411.581,333.595,411.581z"/>
				</g>
				<path style="fill:#26367A;" d="M351.468,282.399l35.172-5.696c0,0,9.124,31.748-6.875,44.27
					c-10.834,8.48-15.856,41.231-12.632,54.637l-35.861-1.523c-0.17-9.891,5.038-32.479,7.127-38.925
					C344.495,316.352,351.468,282.399,351.468,282.399z"/>
				<path style="fill:#192452;" d="M370.03,338.886c-0.535-3.365-0.757-21.276-0.377-19.744c0.989,3.99,2.001,8.497,2.993,12.338
					C371.727,334.24,370.657,336.079,370.03,338.886z"/>
				<path style="fill:#192452;" d="M414.33,358.538c-0.999-1.033-24.424-25.481-22.564-42.524
					c1.83-16.756,1.917-30.028,1.918-30.161l1.113,0.007c-0.001,0.133-0.089,13.463-1.925,30.276
					c-1.804,16.527,22.017,41.379,22.258,41.628L414.33,358.538z"/>
			</g>
			<path style="fill:#E6B230;" d="M377.323,200.663l27.276,9.654c11.551,5.056,13.049,13.322,10.845,19.828l-10.669,30.834
				l-5.294,33.936l-58.293-15.478l16.75-56.099c1.028-8.283,5.556-15.471,11.747-21.07c1.114-1.008,2.231-1.565,3.423-1.86
				C374.501,200.066,375.97,200.184,377.323,200.663z"/>
			<path style="fill:#C2794C;" d="M398.549,191.856l-2.861,14.912c-0.373,1.991-5.969,6.364-11.446,6.775
				c-3.214,0.241-5.691-2.801-4.867-5.916l3.697-13.978L398.549,191.856z"/>
			<path style="fill:#755237;" d="M381.48,199.671l1.674-6.297l12.023-3.972l-0.697,2.523
				C394.48,191.925,392.394,196.011,381.48,199.671z"/>
			<path style="fill:#C2794C;" d="M397.664,196.468l-18.295-1.721c-2.661-0.231-4.878-1.821-6.027-4.026
				c-0.899-1.727-0.924-3.78-0.343-5.638l6.154-15.691l23.976,2.081L397.664,196.468z"/>
			<path style="fill:#303030;" d="M377.447,164.723c-1.591,11.785,18.531,7.265,17.269,12.216
				c-3.229,12.664,4.575,12.088,4.575,12.088s14.902-15.626,4.005-19.476C392.399,165.7,379.798,147.303,377.447,164.723z"/>
			<path style="fill:#C2794C;" d="M403.964,185.796c-0.233,2.68-2.594,4.664-5.274,4.432c-2.68-0.233-4.664-2.594-4.432-5.274
				c0.232-2.68,2.594-4.664,5.274-4.432C402.213,180.755,404.197,183.116,403.964,185.796z"/>
			<path style="fill:#C2794C;" d="M378.702,172.904l-5.531,4.967c-0.824,0.74-0.367,1.945,0.853,2.248l2.506,0.622L378.702,172.904z
				"/>
			<g>
				<polygon style="fill:#303030;" points="397.916,186.593 397.705,186.344 400.308,184.156 400.519,184.406 				"/>
				<polygon style="fill:#303030;" points="400.08,186.781 397.893,184.178 398.143,183.968 400.331,186.572 				"/>
			</g>
			<path style="fill:#303030;" d="M381.15,177.437c-0.034,0.388-0.376,0.675-0.764,0.642c-0.388-0.034-0.676-0.376-0.642-0.764
				c0.034-0.388,0.376-0.675,0.764-0.642C380.896,176.708,381.183,177.049,381.15,177.437z"/>
			<path style="fill:#303030;" d="M383.662,176.931c-0.096-0.008-0.19-0.044-0.27-0.111l-2.304-1.909
				c-0.207-0.172-0.235-0.479-0.064-0.687c0.173-0.21,0.481-0.236,0.688-0.064l2.304,1.909c0.207,0.172,0.235,0.479,0.064,0.687
				C383.974,176.884,383.816,176.944,383.662,176.931z"/>
			<g>
				<g>
					<polygon style="fill:#C2794C;" points="313.647,226.423 320.872,218.393 356.913,239.182 386.291,225.515 394.542,243.392 
						358.291,259.97 					"/>
				</g>
				<g>
					<g>
						<path style="fill:#C2794C;" d="M307.922,221.454l-7.136-6.068c-0.215-0.183-0.472-0.305-0.75-0.352
							c-0.828-0.141-2.538-0.341-2.312,0.454c0.298,1.044,7.887,7.755,7.887,7.755"/>
						<path style="fill:#C2794C;" d="M317.625,216.442l-2.911-0.316c-0.516-0.056-1.017-0.203-1.481-0.435l-7.258-4.201
							c0,0-2.483-0.51-2.396,0.684c0.087,1.194,6.857,7.051,6.857,7.051l-8.244-7.01c-0.173-0.147-0.38-0.246-0.603-0.287
							c-0.869-0.157-3.057-0.465-2.784,0.492c0.34,1.19,8.995,8.846,8.995,8.846"/>
						<path style="fill:#C2794C;" d="M298.55,217.91c0.468-0.047,1.182,0.164,1.95,0.513l4.495,4.376l5.475-4.127l7.156-2.23
							l4.126,3.039c0,0,0.316,7.426-10.332,8.523c-0.734,0.076-1.478-0.065-2.139-0.394l-5.64-2.807
							c-0.103-0.072-0.196-0.153-0.281-0.246c-0.843-0.922-5.645-5.376-5.781-5.852C297.501,218.434,298.121,217.952,298.55,217.91z
							"/>
					</g>
					<path style="fill:#C2794C;" d="M314.535,216.734l2.075-0.877c0.924-0.439,0.725-1.395,0.819-2.414l-0.135-3.21
						c-0.017-0.411,0.392-0.711,0.775-0.56c0.736,0.291,2.219,0.846,2.546,2.862l1.504,7.509L314.535,216.734z"/>
				</g>
			</g>
			<path style="fill:#303030;" d="M378.712,183.979c0.873-0.097,1.879-0.442,2.984-1.22c0.076-0.054,0.095-0.16,0.04-0.237
				c-0.053-0.077-0.159-0.096-0.237-0.041c-3.552,2.503-5.929,0.331-6.029,0.238c-0.069-0.063-0.177-0.062-0.24,0.007
				c-0.065,0.068-0.062,0.176,0.006,0.24C375.254,182.985,376.588,184.215,378.712,183.979z"/>
		</g>
		
			<rect x="387.343" y="359.013" transform="matrix(0.866 -0.5 0.5 0.866 -127.6658 252.4517)" style="fill:#192452;" width="39.812" height="10.882"/>
		
			<rect x="329.46" y="366.893" transform="matrix(0.9951 0.0988 -0.0988 0.9951 38.5044 -32.7022)" style="fill:#192452;" width="39.812" height="10.882"/>
		<g>
			<path style="fill:#26367A;" d="M305.071,194.641h-53.868c-1.229,0-2.226-0.997-2.226-2.226c0-1.229,0.997-2.226,2.226-2.226
				h53.868c1.229,0,2.226,0.997,2.226,2.226C307.296,193.645,306.3,194.641,305.071,194.641z"/>
			<path style="fill:#26367A;" d="M288.042,201.46h-37.691c-0.615,0-1.113-0.498-1.113-1.113c0-0.615,0.498-1.113,1.113-1.113
				h37.691c0.615,0,1.113,0.498,1.113,1.113C289.155,200.963,288.657,201.46,288.042,201.46z"/>
			<path style="fill:#FFFFFF;" d="M285.686,215.221h-32.978c-2.254,0-4.081-1.827-4.081-4.081v-0.921
				c0-2.254,1.827-4.081,4.081-4.081h32.978c2.254,0,4.081,1.827,4.081,4.081v0.921C289.767,213.394,287.94,215.221,285.686,215.221
				z"/>
		</g>
		<path style="fill:#26367A;" d="M234.695,179.77h-40.124c-5.138,0-9.303,4.165-9.303,9.303v25.907c0,5.138,4.165,9.303,9.303,9.303
			h40.124V179.77z"/>
		<circle style="fill:#FF7EE3;" cx="209.981" cy="201.46" r="11.062"/>
	</g>
</g>
<g id="DESIGNED_BY_FREEPIK">
	<g>
		<g id="XMLID_1_">
			<g id="XMLID_20_">
				<path id="XMLID_28_" style="fill:#999999;" d="M261.418,465.465c-0.432,0.443-0.803,0.931-1.108,1.453l-0.465-0.241
					c-0.067-0.298-0.349-0.503-0.659-0.466c-0.331,0.039-0.568,0.339-0.529,0.67c0.039,0.331,0.339,0.568,0.67,0.529
					c0.065-0.008,0.127-0.026,0.184-0.052l0.452,0.234c-0.251,0.554-0.433,1.139-0.539,1.744l0.747,0.132
					c0.23-1.306,0.85-2.507,1.792-3.473L261.418,465.465z"/>
				<path id="XMLID_27_" style="fill:#999999;" d="M266.905,463.163c-0.171,0-0.341,0.006-0.51,0.017l-0.074-0.626
					c0.188-0.149,0.296-0.389,0.266-0.645c-0.046-0.393-0.402-0.674-0.795-0.628c-0.393,0.046-0.674,0.402-0.628,0.795
					c0.03,0.254,0.189,0.461,0.405,0.564l0.073,0.624c-0.714,0.116-1.403,0.332-2.06,0.646l0.327,0.684
					c0.934-0.447,1.942-0.673,2.995-0.673c0.496,0,0.993,0.053,1.475,0.158l0.161-0.741
					C268.006,463.222,267.456,463.163,266.905,463.163z"/>
				<path id="XMLID_26_" style="fill:#999999;" d="M273.508,465.711c0.331-0.04,0.566-0.341,0.526-0.672
					c-0.04-0.331-0.341-0.566-0.672-0.526c-0.309,0.038-0.535,0.304-0.53,0.609l-0.416,0.363c-0.418-0.43-0.89-0.813-1.408-1.139
					l-0.404,0.641c1.134,0.715,2.021,1.726,2.563,2.925l0.691-0.313c-0.251-0.554-0.568-1.072-0.942-1.545l0.402-0.351
					C273.378,465.716,273.442,465.719,273.508,465.711z"/>
				<path id="XMLID_25_" style="fill:#999999;" d="M266.358,473.372c-0.386,0.023-0.775,0.035-1.157,0.035
					c-0.88,0-1.733-0.061-2.478-0.179c-0.39-0.062-0.846-0.155-1.27-0.292c1.046,1.861,3.069,3.125,5.388,3.125
					c2.855,0,5.262-1.916,5.95-4.504c-0.682,0.449-1.506,0.825-2.459,1.123C269.152,473.047,267.777,473.286,266.358,473.372z"/>
				<path id="XMLID_21_" style="fill:#999999;" d="M266.905,464.68c-3.352,0-6.08,2.666-6.08,5.943c0,0.426,0.046,0.849,0.137,1.261
					c0.673,0.483,2.706,0.89,5.348,0.731c2.879-0.173,5.297-0.957,6.672-2.159c-0.005-0.195-0.021-0.39-0.045-0.582
					C272.557,466.913,269.964,464.68,266.905,464.68z M264.746,471.194c-1.02,0-1.85-0.83-1.85-1.85c0-1.02,0.83-1.85,1.85-1.85
					c1.02,0,1.85,0.83,1.85,1.85C266.596,470.365,265.766,471.194,264.746,471.194z M269.483,470.286c-0.75,0-1.36-0.61-1.36-1.36
					s0.61-1.361,1.36-1.361c0.75,0,1.361,0.61,1.361,1.361S270.233,470.286,269.483,470.286z"/>
			</g>
			<path id="XMLID_18_" style="fill:#999999;" d="M282.909,466.547c-0.295-0.116-0.805-0.309-1.382-0.237
				c-0.551,0.069-0.844,0.341-0.844,1.007v0.866h2.228v1.717h-2.228v5.455h-1.932v-5.455h-1.34v-1.717h1.34v-0.888
				c0-1.68,0.896-2.783,2.568-2.783c0.643,0,1.157,0.122,1.59,0.308L282.909,466.547z"/>
			<path id="XMLID_16_" style="fill:#999999;" d="M287.611,469.879c-0.177-0.03-0.358-0.046-0.526-0.046
				c-0.896,0-1.51,0.548-1.51,1.614v3.908h-1.932v-7.172h1.873v0.785c0.451-0.673,1.14-0.977,2.021-0.977
				c0.414,0,0.848,0.128,1.094,0.337L287.611,469.879z"/>
			<path id="XMLID_13_" style="fill:#999999;" d="M295.279,471.757c0,0.222-0.015,0.489-0.037,0.651h-5.085
				c0.207,1.036,0.933,1.488,1.843,1.488c0.622,0,1.295-0.252,1.813-0.688l1.133,1.243c-0.814,0.748-1.85,1.088-3.057,1.088
				c-2.198,0-3.723-1.495-3.723-3.753c0-2.258,1.48-3.797,3.626-3.797C293.858,467.99,295.271,469.522,295.279,471.757z
				 M290.164,471.091h3.175c-0.177-0.918-0.733-1.436-1.562-1.436C290.867,469.655,290.335,470.203,290.164,471.091z"/>
			<path id="XMLID_10_" style="fill:#999999;" d="M302.932,471.757c0,0.222-0.015,0.489-0.037,0.651h-5.085
				c0.207,1.036,0.933,1.488,1.843,1.488c0.622,0,1.295-0.252,1.813-0.688l1.132,1.243c-0.814,0.748-1.85,1.088-3.057,1.088
				c-2.198,0-3.723-1.495-3.723-3.753c0-2.258,1.48-3.797,3.627-3.797C301.511,467.99,302.924,469.522,302.932,471.757z
				 M297.818,471.091h3.175c-0.178-0.918-0.733-1.436-1.562-1.436C298.521,469.655,297.988,470.203,297.818,471.091z"/>
			<path id="XMLID_7_" style="fill:#999999;" d="M311.278,471.764c0,2.154-1.495,3.775-3.471,3.775
				c-0.962,0-1.643-0.378-2.109-0.933v3.708h-1.924v-10.133h1.887v0.792c0.466-0.585,1.155-0.984,2.139-0.984
				C309.783,467.99,311.278,469.61,311.278,471.764z M305.601,471.764c0,1.132,0.748,1.976,1.843,1.976
				c1.14,0,1.85-0.881,1.85-1.976c0-1.095-0.71-1.976-1.85-1.976C306.348,469.788,305.601,470.632,305.601,471.764z"/>
			<path id="XMLID_4_" style="fill:#999999;" d="M314.381,465.836c0,0.696-0.54,1.229-1.236,1.229c-0.696,0-1.229-0.533-1.229-1.229
				c0-0.696,0.533-1.243,1.229-1.243C313.841,464.592,314.381,465.14,314.381,465.836z M314.122,475.354h-1.932v-7.172h1.932
				V475.354z"/>
			<path id="XMLID_2_" style="fill:#999999;" d="M317.346,470.736l2.701-2.554h2.368l-3.479,3.375l3.501,3.797h-2.376l-2.716-2.901
				v2.901h-1.932v-10.658h1.932V470.736z"/>
		</g>
		<g>
			<path style="fill:#999999;" d="M185.726,475.289v-1.055c-0.527,0.718-1.391,1.23-2.387,1.23c-1.846,0-3.149-1.406-3.149-3.706
				c0-2.256,1.289-3.721,3.149-3.721c0.952,0,1.816,0.469,2.387,1.245v-3.765h1.099v9.77H185.726z M185.726,473.37v-3.208
				c-0.395-0.615-1.245-1.143-2.124-1.143c-1.421,0-2.27,1.172-2.27,2.739c0,1.567,0.85,2.724,2.27,2.724
				C184.481,474.483,185.33,473.986,185.726,473.37z"/>
			<path style="fill:#999999;" d="M188.245,471.744c0-2.051,1.465-3.706,3.486-3.706c2.139,0,3.398,1.67,3.398,3.794v0.279h-5.727
				c0.088,1.333,1.025,2.446,2.549,2.446c0.805,0,1.626-0.322,2.182-0.894l0.527,0.718c-0.703,0.703-1.655,1.084-2.812,1.084
				C189.754,475.465,188.245,473.956,188.245,471.744z M191.717,468.947c-1.509,0-2.256,1.274-2.314,2.358h4.644
				C194.031,470.25,193.328,468.947,191.717,468.947z"/>
			<path style="fill:#999999;" d="M195.921,474.351l0.571-0.791c0.469,0.542,1.362,1.011,2.329,1.011c1.084,0,1.67-0.513,1.67-1.216
				c0-1.714-4.38-0.659-4.38-3.281c0-1.098,0.952-2.036,2.636-2.036c1.201,0,2.051,0.454,2.622,1.026l-0.513,0.762
				c-0.424-0.513-1.201-0.894-2.109-0.894c-0.967,0-1.567,0.483-1.567,1.113c0,1.552,4.38,0.527,4.38,3.281
				c0,1.187-0.952,2.138-2.783,2.138C197.62,475.465,196.638,475.113,195.921,474.351z"/>
			<path style="fill:#999999;" d="M202.79,466.471c0-0.41,0.337-0.747,0.732-0.747c0.41,0,0.747,0.337,0.747,0.747
				c0,0.41-0.337,0.732-0.747,0.732C203.127,467.203,202.79,466.881,202.79,466.471z M202.981,475.289v-7.075h1.099v7.075H202.981z"
				/>
			<path style="fill:#999999;" d="M205.896,477.105l0.556-0.82c0.586,0.703,1.289,0.967,2.3,0.967c1.172,0,2.27-0.571,2.27-2.124
				v-1.011c-0.513,0.718-1.377,1.26-2.373,1.26c-1.845,0-3.149-1.377-3.149-3.662c0-2.27,1.289-3.677,3.149-3.677
				c0.952,0,1.802,0.469,2.373,1.245v-1.069h1.098v6.87c0,2.344-1.641,3.076-3.369,3.076
				C207.551,478.16,206.73,477.926,205.896,477.105z M211.022,473.253v-3.091c-0.381-0.615-1.23-1.143-2.109-1.143
				c-1.421,0-2.27,1.128-2.27,2.695c0,1.553,0.849,2.695,2.27,2.695C209.792,474.41,210.641,473.868,211.022,473.253z"/>
			<path style="fill:#999999;" d="M218.727,475.289v-4.629c0-1.245-0.63-1.641-1.582-1.641c-0.865,0-1.685,0.527-2.095,1.099v5.17
				h-1.099v-7.075h1.099v1.025c0.498-0.586,1.465-1.201,2.519-1.201c1.48,0,2.256,0.747,2.256,2.285v4.966H218.727z"/>
			<path style="fill:#999999;" d="M221.246,471.744c0-2.051,1.465-3.706,3.486-3.706c2.138,0,3.398,1.67,3.398,3.794v0.279h-5.727
				c0.088,1.333,1.025,2.446,2.549,2.446c0.806,0,1.626-0.322,2.183-0.894l0.527,0.718c-0.703,0.703-1.655,1.084-2.812,1.084
				C222.755,475.465,221.246,473.956,221.246,471.744z M224.718,468.947c-1.509,0-2.256,1.274-2.314,2.358h4.643
				C227.032,470.25,226.329,468.947,224.718,468.947z"/>
			<path style="fill:#999999;" d="M234.663,475.289v-1.055c-0.527,0.718-1.391,1.23-2.388,1.23c-1.845,0-3.149-1.406-3.149-3.706
				c0-2.256,1.289-3.721,3.149-3.721c0.952,0,1.817,0.469,2.388,1.245v-3.765h1.098v9.77H234.663z M234.663,473.37v-3.208
				c-0.396-0.615-1.245-1.143-2.124-1.143c-1.421,0-2.27,1.172-2.27,2.739c0,1.567,0.849,2.724,2.27,2.724
				C233.418,474.483,234.268,473.986,234.663,473.37z"/>
			<path style="fill:#999999;" d="M241.005,475.289v-9.77h1.099v3.765c0.572-0.776,1.421-1.245,2.388-1.245
				c1.845,0,3.149,1.465,3.149,3.721c0,2.299-1.304,3.706-3.149,3.706c-0.996,0-1.86-0.513-2.388-1.23v1.055H241.005z
				 M244.213,474.483c1.436,0,2.286-1.157,2.286-2.724c0-1.568-0.85-2.739-2.286-2.739c-0.864,0-1.728,0.527-2.109,1.143v3.208
				C242.485,473.986,243.349,474.483,244.213,474.483z"/>
			<path style="fill:#999999;" d="M248.842,477.061c0.161,0.073,0.425,0.117,0.601,0.117c0.483,0,0.806-0.161,1.055-0.747
				l0.469-1.069l-2.959-7.148h1.187l2.358,5.8l2.344-5.8h1.201l-3.545,8.51c-0.425,1.025-1.143,1.421-2.08,1.435
				c-0.234,0-0.601-0.044-0.805-0.103L248.842,477.061z"/>
		</g>
	</g>
</g>
</svg>
