<?xml version="1.0" encoding="utf-8"?>
<!-- Generator: Adobe Illustrator 27.5.0, SVG Export Plug-In . SVG Version: 6.00 Build 0)  -->
<svg version="1.1" xmlns="http://www.w3.org/2000/svg" xmlns:xlink="http://www.w3.org/1999/xlink" x="0px" y="0px"
	 viewBox="0 0 500 500" style="enable-background:new 0 0 500 500;" xml:space="preserve">
<g id="BACKGROUND">
	<rect style="fill:#FFFFFF;" width="500" height="500"/>
</g>
<g id="OBJETS">
	<g>
		<path style="fill:none;stroke:#C6C6C6;stroke-width:6;stroke-miterlimit:10;" d="M274.969,130.998
			c-12.938-12.937-33.912-12.937-46.849,0"/>
		<path style="fill:none;stroke:#C6C6C6;stroke-width:6;stroke-miterlimit:10;" d="M290.16,115.806
			c-21.327-21.327-55.905-21.327-77.232,0"/>
		<path style="fill:none;stroke:#C6C6C6;stroke-width:6;stroke-miterlimit:10;" d="M309.067,96.899
			c-31.77-31.77-83.278-31.77-115.046,0"/>
		<path style="fill:none;stroke:#C6C6C6;stroke-width:6;stroke-miterlimit:10;" d="M326.793,79.173
			c-41.56-41.559-108.939-41.559-150.498,0"/>
	</g>
	<g>
		<path style="fill:#878787;" d="M409.149,204.92c2.098,0,3.798-1.933,3.798-4.317v-49.475c0-2.385-1.7-4.318-3.798-4.318h-29.511
			c-2.097,0-3.797,1.933-3.797,4.318v49.475c0,2.384,1.7,4.317,3.797,4.317H409.149z"/>
		<rect x="379.435" y="150.813" style="fill:#FFFFFF;" width="29.779" height="49.901"/>
		<path style="fill:#FFFFFF;" d="M394.351,204.088c0.642,0,1.161-0.52,1.161-1.162c0-0.641-0.52-1.161-1.161-1.161
			c-0.641,0-1.161,0.52-1.161,1.161C393.189,203.568,393.71,204.088,394.351,204.088z"/>
		<path style="fill:#E94E1B;" d="M400.736,156.269c0,1.65,1.337,2.986,2.986,2.986c1.65,0,2.987-1.337,2.987-2.986
			c0-1.649-1.337-2.986-2.987-2.986C402.073,153.283,400.736,154.62,400.736,156.269z"/>
		<rect x="384.543" y="154.568" style="fill:#06E89F;" width="14.291" height="1.701"/>
		<rect x="401.362" y="164.206" style="fill:#06E89F;" width="4.722" height="3.534"/>
		<rect x="401.362" y="170.149" style="fill:#DADADA;" width="4.722" height="3.534"/>
		<rect x="401.362" y="175.932" style="fill:#06E89F;" width="4.722" height="3.534"/>
		<rect x="401.362" y="181.716" style="fill:#06E89F;" width="4.722" height="3.534"/>
		<rect x="401.362" y="187.499" style="fill:#DADADA;" width="4.722" height="3.534"/>
		<rect x="401.362" y="194.246" style="fill:#DADADA;" width="4.722" height="3.534"/>
		<rect x="383.258" y="161.314" style="fill:#0798FF;" width="15.576" height="15.261"/>
		<rect x="383.258" y="180.591" style="fill:#0798FF;" width="15.576" height="15.577"/>
	</g>
	<g>
		<rect x="53.829" y="233.03" style="fill:#DADADA;" width="39.417" height="53.862"/>
		<rect x="68.844" y="244.281" style="fill:#575756;" width="18.727" height="1.232"/>
		<rect x="60.467" y="262.639" style="fill:#575756;" width="24.147" height="1.231"/>
		<rect x="59.974" y="247.977" style="fill:#575756;" width="25.626" height="1.725"/>
		<rect x="59.974" y="252.659" style="fill:#575756;" width="25.626" height="1.725"/>
		<rect x="60.713" y="257.587" style="fill:#575756;" width="19.219" height="1.725"/>
		<path style="fill:#0798FF;" d="M69.091,272.617c0,2.722-2.206,4.928-4.928,4.928c-2.721,0-4.928-2.206-4.928-4.928
			c0-2.722,2.206-4.928,4.928-4.928c1.233,0,0.37,4.682,0.37,4.682S69.091,271.129,69.091,272.617z"/>
		<path style="fill:#0798FF;" d="M79.906,277.545c-2.721,0-4.928-2.206-4.928-4.928c0-2.722,2.207-4.928,4.928-4.928
			c2.722,0,4.928,2.206,4.928,4.928c0,1.233-4.682,0.369-4.682,0.369S81.395,277.545,79.906,277.545z"/>
		<polygon style="fill:#E94E1B;" points="80.629,273.522 82.598,274.049 84.566,274.576 83.126,276.018 81.685,277.458 
			81.157,275.49 		"/>
		<polygon style="fill:#E94E1B;" points="64.89,271.988 65.411,270.019 65.933,268.049 67.378,269.486 68.824,270.922 
			66.856,271.455 		"/>
	</g>
	<g>
		<path style="fill:#FFFFFF;" d="M446.749,276.159c-7.055,10.491-21.278,13.277-31.77,6.223
			c-10.49-7.054-13.276-21.277-6.223-31.769c7.055-10.491,21.278-13.277,31.769-6.223
			C451.017,251.444,453.803,265.668,446.749,276.159z"/>
		<g>
			<polygon style="fill:#E94E1B;" points="438.951,262.476 430.67,267.258 422.389,272.039 422.389,262.476 422.389,252.913 
				430.67,257.694 			"/>
			<path style="fill:#E94E1B;" d="M427.694,238.37c-13.803,0-24.993,11.19-24.993,24.993c0,13.804,11.19,24.993,24.993,24.993
				c13.803,0,24.993-11.189,24.993-24.993C452.688,249.561,441.497,238.37,427.694,238.37z M427.694,282.406
				c-10.517,0-19.043-8.525-19.043-19.043c0-10.517,8.526-19.043,19.043-19.043c10.517,0,19.042,8.526,19.042,19.043
				C446.736,273.881,438.211,282.406,427.694,282.406z"/>
		</g>
	</g>
	<g>
		<path style="fill:#FFFFFF;" d="M119.712,182.8c0-10.523-8.531-19.053-19.054-19.053c-10.523,0-19.054,8.53-19.054,19.053
			c0,10.523,8.531,19.054,19.054,19.054C111.181,201.855,119.712,193.324,119.712,182.8z"/>
		<path style="fill:#0798FF;" d="M99.596,161.593c-12.947,0-23.443,10.496-23.443,23.443c0,12.947,10.496,23.443,23.443,23.443
			s23.443-10.496,23.443-23.443C123.039,172.089,112.543,161.593,99.596,161.593z M107.208,183.527c0.883,0,1.635,0.752,1.635,1.634
			v5.524c0,0.883-0.752,1.635-1.635,1.635h-4.805v3.922c0,1.046-0.458,1.634-1.634,1.634c-1.177,0-1.634-0.588-1.634-1.634v-3.922
			H94.33c-0.85,0-1.635-0.458-1.635-1.635c0-1.177,0.785-1.634,1.635-1.634h11.245v-2.255H94.33c-0.882,0-1.635-0.752-1.635-1.635
			v-5.524c0-0.882,0.753-1.634,1.635-1.634h4.805v-3.922c0-1.046,0.457-1.634,1.634-1.634c1.177,0,1.634,0.588,1.634,1.634v3.922
			h4.805c0.851,0,1.635,0.458,1.635,1.634c0,1.177-0.784,1.634-1.635,1.634H95.964v2.255H107.208z"/>
	</g>
	<g>
		
			<rect x="74.907" y="316.947" transform="matrix(0.2179 -0.976 0.976 0.2179 -261.1242 357.2945)" style="fill:#FFA336;" width="34.913" height="49.246"/>
		<polygon style="fill:#FFC436;" points="72.454,319.428 91.982,344.121 120.118,330.255 		"/>
		<polygon style="fill:#FFC436;" points="72.096,319.346 90.743,347.986 120.118,330.255 112.592,363.972 64.27,353.56 		"/>
	</g>
	<g>
		<path style="fill:#FFA336;" d="M439.323,345.929c1.609,3.758-0.147,8.116-3.923,9.732l-33.758,14.451
			c-3.775,1.617-8.142-0.119-9.75-3.878l-13.349-31.182c-1.61-3.758-0.493-4.667,3.282-6.283l14.256-6.104l7.6,4.156l19.95-8.541
			c3.775-1.617,3.797-0.137,5.406,3.621L439.323,345.929z"/>
		
			<rect x="388.271" y="328.606" transform="matrix(0.9193 -0.3936 0.3936 0.9193 -102.5382 189.4418)" style="fill:#FFFFFF;" width="44.752" height="32.267"/>
		<path style="fill:#FFC436;" d="M391.701,366.139c1.61,3.759,5.976,5.495,9.752,3.879l33.757-14.451
			c3.775-1.617,5.532-5.975,3.924-9.732l-7.989-18.66c-1.608-3.759-3.036-3.578-6.813-1.961l-14.256,6.103l-2.237,8.367
			l-19.95,8.541c-3.775,1.616-2.721,2.652-1.112,6.412L391.701,366.139z"/>
	</g>
	<g>
		
			<rect x="156.297" y="373.938" transform="matrix(0.9625 -0.2713 0.2713 0.9625 -100.8355 62.7627)" style="fill:#DADADA;" width="40.625" height="44.379"/>
		
			<rect x="158.281" y="378.819" transform="matrix(0.9625 -0.2713 0.2713 0.9625 -99.7011 62.2478)" style="fill:#0798FF;" width="34.055" height="25.877"/>
		<polygon style="fill:#06E89F;" points="161.613,405.439 169.938,384.565 181.014,392.727 185.321,383.294 191.604,387.792 
			195.207,399.592 162.43,408.83 		"/>
		<path style="fill:#FFFFFF;" d="M165.124,386.758c0.321,1.141-0.343,2.325-1.483,2.646c-1.14,0.322-2.325-0.342-2.646-1.482
			c-0.321-1.142,0.342-2.326,1.483-2.647C163.617,384.953,164.802,385.617,165.124,386.758z"/>
	</g>
	<g>
		<path style="fill:#36A9E1;" d="M323.007,359.632c-10.593,0-19.179,8.587-19.179,19.18c0,10.591,19.179,32.559,19.179,32.559
			s19.177-21.968,19.177-32.559C342.184,368.219,333.598,359.632,323.007,359.632z M323.007,388.559
			c-0.058,0.001-0.111,0.008-0.169,0.008c-4.617,0-8.362-3.742-8.362-8.362c0-4.617,3.745-8.362,8.362-8.362
			c0.058,0,0.111,0.008,0.169,0.009c4.54,0.09,8.194,3.792,8.194,8.354C331.201,384.767,327.547,388.469,323.007,388.559z"/>
		<path style="fill:#0798FF;" d="M323.007,359.632c10.591,0,19.177,8.587,19.177,19.18c0,10.591-19.177,32.559-19.177,32.559
			V359.632z"/>
		<path style="fill:#076CFF;" d="M323.007,393.528c7.39,0,13.38-5.99,13.38-13.38c0-7.39-5.99-13.381-13.38-13.381v5.018
			c4.617,0,8.362,3.744,8.362,8.362c0,4.618-3.745,8.362-8.362,8.362V393.528z"/>
		<path style="fill:#076CFF;" d="M323.007,359.632c-10.593,0-19.179,8.587-19.179,19.18c0,10.591,19.179,32.559,19.179,32.559
			V359.632z"/>
		<path style="fill:#0798FF;" d="M323.007,393.528c-7.39,0-13.381-5.99-13.381-13.38c0-7.39,5.991-13.381,13.381-13.381v5.018
			c-4.619,0-8.363,3.744-8.363,8.362c0,4.618,3.744,8.362,8.363,8.362V393.528z"/>
		<circle style="fill:#FFFFFF;" cx="323.174" cy="380.037" r="8.362"/>
	</g>
	<g>
		<path style="fill:#06E89F;" d="M129.884,218.403l3.003-5.202l7.176,6.602c-1.57,3.718-0.846,8.175,2.184,11.205
			c2.988,2.988,7.365,3.738,11.051,2.253l24.049,24.049h-39.632c-1.583-3.596-5.172-6.11-9.354-6.11
			c-4.071,0-7.577,2.388-9.22,5.833l-10.148,0.449l-0.282-7.624l-21.215-11.223l-20.326,12.762l7.917,4.186l12.74-7.999
			l13.299,7.037l0.557,15.034l7.917,4.185l-0.307-8.272l9.56-0.42c1.491,3.8,5.182,6.494,9.509,6.494
			c4.225,0,7.851-2.566,9.407-6.222h34.011l-28.024,28.024c-3.662-1.424-7.978-0.663-10.935,2.293
			c-3.202,3.203-3.829,7.999-1.893,11.832l-7.439,8.143l-5.82-6.115l-23.33,5.635l-6.782,23.023l8.705-2.104l4.251-14.431
			l14.625-3.532l10.371,10.898l8.705-2.105l-5.142-5.403l8.104-8.805c3.467,1.013,7.365,0.153,10.1-2.581
			c2.988-2.988,3.738-7.365,2.253-11.052l24.05-24.05v39.633c-3.596,1.583-6.11,5.173-6.11,9.353c0,4.276,2.628,7.934,6.355,9.459
			l-0.474,12.321l-8.093,0.051l-11.871,20.859l12.132,20.709l4.429-7.784l-7.604-12.98l7.442-13.076l15.044-0.094l4.428-7.784
			l-7.796,0.049l0.478-12.44c3.521-1.614,5.973-5.161,5.973-9.289c0-4.225-2.564-7.85-6.222-9.407v-31.543
			c2.087,1.194,4.457,1.952,6.99,2.122v22.655c0,9.423,18.425,26.395,27.997,26.395h63.988c9.571,0,27.997-18.306,27.997-27.728
			l0.125-21.283c2.869-0.061,5.551-0.869,7.874-2.225v31.606c-3.656,1.558-6.222,5.183-6.222,9.407c0,4.343,2.713,8.043,6.532,9.523
			l0.453,12.202l-7.123-0.045l4.428,7.784l15.044,0.094l7.442,13.076l-7.604,12.98l4.429,7.784l12.132-20.709l-11.871-20.859
			l-8.736-0.055l-0.487-12.569c3.43-1.649,5.805-5.146,5.805-9.207c0-4.181-2.515-7.771-6.111-9.353v-39.633l24.05,24.05
			c-1.485,3.686-0.734,8.064,2.253,11.052c2.846,2.845,6.948,3.65,10.518,2.439l8.551,9.307l-4.8,5.043l8.705,2.105l10.371-10.898
			l14.625,3.532l4.251,14.431l8.705,2.104l-6.782-23.023l-23.33-5.635l-6.145,6.457l-8.141-8.873
			c1.706-3.765,1.022-8.348-2.073-11.443c-2.957-2.956-7.272-3.717-10.934-2.293l-28.024-28.024h34.011
			c1.557,3.656,5.183,6.222,9.408,6.222c4.33,0,8.023-2.699,9.513-6.502l10.76,0.498l-0.304,8.202l7.917-4.185l0.557-15.034
			l13.299-7.037l12.74,7.999l7.917-4.186l-20.326-12.762l-21.215,11.223l-0.272,7.349l-11.37-0.184
			c-1.645-3.439-5.147-5.823-9.215-5.823c-4.183,0-7.772,2.515-9.355,6.11h-39.632l24.049-24.049
			c3.686,1.485,8.064,0.735,11.051-2.253c2.925-2.924,3.697-7.177,2.337-10.814l7.877-7.606l3.357,5.814l4.478-7.755l-7.522-13.029
			l7.522-13.03h15.044l4.478-7.755h-24l-12,20.785l4.516,7.821l-9.374,8.912c-3.711-1.548-8.147-0.817-11.166,2.202
			c-2.957,2.957-3.718,7.273-2.294,10.935l-25.952,25.952c-1.403-0.445-2.884-0.719-4.423-0.77l0.129-22.135
			c0-23.122-13.039-43.188-32.158-53.277l5.589-17.486c1.83-0.158,3.475-1.387,4.069-3.246c0.789-2.469-0.572-5.11-3.041-5.899
			c-2.469-0.789-5.11,0.573-5.898,3.042c-0.675,2.112,0.231,4.341,2.052,5.438l-5.387,16.851
			c-7.727-3.608-16.339-5.635-25.429-5.636c-0.003,0-0.006-0.001-0.01-0.001c-0.003,0-0.006,0.001-0.01,0.001
			c-8.548,0.001-16.674,1.794-24.039,5.007l-5.185-16.222c1.82-1.097,2.727-3.326,2.052-5.438c-0.789-2.469-3.43-3.831-5.898-3.042
			c-2.469,0.789-3.83,3.43-3.041,5.899c0.594,1.859,2.239,3.088,4.069,3.246l5.365,16.785c-19.863,9.84-33.526,30.309-33.526,53.978
			v20.774v1.39c-1.3,0.088-2.552,0.344-3.751,0.718l-25.93-25.93c1.423-3.663,0.663-7.978-2.293-10.935
			c-2.912-2.912-7.141-3.689-10.766-2.352l-8.864-8.247l4.813-8.336l-12-20.785h-24l4.478,7.755h15.044l7.522,13.03l-7.522,13.029
			L129.884,218.403z"/>
		<g>
			<g>
				<path style="fill:#FFFFFF;" d="M153.169,224.265c0,2.28-1.849,4.129-4.129,4.129c-2.281,0-4.129-1.849-4.129-4.129
					c0-2.281,1.849-4.129,4.129-4.129C151.32,220.135,153.169,221.984,153.169,224.265z"/>
				<path style="fill:#FFFFFF;" d="M132.305,261.863c0,2.28-1.849,4.129-4.129,4.129c-2.281,0-4.129-1.849-4.129-4.129
					c0-2.281,1.849-4.13,4.129-4.13C130.456,257.733,132.305,259.582,132.305,261.863z"/>
				<path style="fill:#FFFFFF;" d="M144.693,303.156c0,2.28-1.849,4.129-4.129,4.129c-2.281,0-4.129-1.849-4.129-4.129
					c0-2.281,1.849-4.129,4.129-4.129C142.844,299.027,144.693,300.875,144.693,303.156z"/>
				<path style="fill:#FFFFFF;" d="M181.422,324.455c0,2.279-1.849,4.129-4.129,4.129c-2.281,0-4.129-1.85-4.129-4.129
					c0-2.281,1.849-4.13,4.129-4.13C179.574,320.325,181.422,322.174,181.422,324.455z"/>
			</g>
			<g>
				<path style="fill:#FFFFFF;" d="M324.861,324.889c0,2.281-1.849,4.13-4.129,4.13c-2.281,0-4.13-1.849-4.13-4.13
					c0-2.279,1.849-4.129,4.13-4.129C323.013,320.76,324.861,322.609,324.861,324.889z"/>
				<path style="fill:#FFFFFF;" d="M362.677,303.156c0,2.28-1.849,4.129-4.129,4.129c-2.28,0-4.13-1.849-4.13-4.129
					c0-2.281,1.85-4.129,4.13-4.129C360.828,299.027,362.677,300.875,362.677,303.156z"/>
				<path style="fill:#FFFFFF;" d="M374.195,261.646c0,2.28-1.849,4.13-4.129,4.13c-2.28,0-4.13-1.85-4.13-4.13s1.85-4.13,4.13-4.13
					C372.347,257.516,374.195,259.365,374.195,261.646z"/>
				<path style="fill:#FFFFFF;" d="M353.114,223.178c0,2.281-1.849,4.129-4.129,4.129c-2.28,0-4.13-1.849-4.13-4.129
					c0-2.281,1.85-4.129,4.13-4.129C351.266,219.048,353.114,220.897,353.114,223.178z"/>
			</g>
		</g>
		<path style="fill:#FFFFFF;" d="M221.762,183.953c0.579,0.661,0.59,1.597,0.025,2.091c0,0-7.231,5.39-9.28,7.197
			c-1.941,1.713-6.395,6.527-6.395,6.527c-0.565,0.494-1.492,0.359-2.07-0.302l0,0c-0.579-0.661-0.591-1.597-0.026-2.091
			c0,0,4.879-5.224,6.983-7.042c1.922-1.661,8.692-6.681,8.692-6.681C220.257,183.158,221.183,183.292,221.762,183.953
			L221.762,183.953z"/>
		<g>
			<ellipse style="fill:#06C39F;" cx="249.112" cy="217.317" rx="44.327" ry="29.33"/>
			<path style="fill:#06C39F;" d="M218.006,339.632c0,17.67,14.324,31.995,31.995,31.995s31.995-14.325,31.995-31.995H218.006z"/>
			<g>
				<g>
					<polygon style="fill:#06C39F;" points="342.32,231.197 317.775,255.744 321.094,257.281 345.245,233.222 					"/>
					<polygon style="fill:#06C39F;" points="392.625,204.875 389.199,210.679 374.155,210.679 370.359,204.109 364.578,209.609 
						364.587,209.625 356.354,217.313 358.434,220.195 366.293,212.578 369.677,218.434 393.677,218.434 401.563,204.813 					"/>
				</g>
				<polygon style="fill:#06C39F;" points="359.865,261.945 325.152,261.946 326.412,265.38 360.502,265.445 				"/>
				<polygon style="fill:#06C39F;" points="350.945,296.338 326.399,271.793 324.862,275.112 348.921,299.264 				"/>
				<polygon style="fill:#06C39F;" points="320.161,314.047 320.16,281.728 316.727,282.901 316.661,314.641 				"/>
				<path style="fill:#06C39F;" d="M414.337,284.455l-4.059,2.146l-20.326-12.761l0.304-8.202l-10.76-0.498l0.441-3.141h18.188
					l-0.256,7.655l7.282,4.571c0,0,1.755,3.336,3.63,5.461C411.058,282.268,414.337,284.455,414.337,284.455z"/>
				<polygon style="fill:#06C39F;" points="382.594,344.531 385.281,350.797 385.391,351.297 386.281,353.438 372.122,350.004 
					365.338,326.982 370.138,321.94 361.587,312.633 364.751,310.415 378.584,324.248 374.043,329.087 378.296,343.517 				"/>
				<path style="fill:#06C39F;" d="M316.968,333.602l0.453,12.202l-7.123-0.045l-12.13,20.709l5.771,10.221
					c0,0,0.438-3.167,1.458-5.438c1.065-2.371,2.27-3.835,2.27-3.835l-0.543-0.892l7.603-12.981l5.587,0.02L320.125,334
					L316.968,333.602z"/>
				<polygon style="fill:#06C39F;" points="156.174,231.197 180.719,255.744 177.401,257.281 153.249,233.222 				"/>
				<polygon style="fill:#06C39F;" points="138.629,261.945 173.342,261.946 172.082,265.38 137.993,265.445 				"/>
				<polygon style="fill:#06C39F;" points="147.549,296.338 172.095,271.793 173.632,275.112 149.574,299.264 				"/>
				<polygon style="fill:#06C39F;" points="178.333,314.047 178.334,281.728 181.768,282.901 181.833,314.641 				"/>
				<path style="fill:#06C39F;" d="M100.208,208.5c0,0,2.198-0.094,4.104-0.5c2.53-0.539,3.854-1.125,3.854-1.125l2.194,3.773
					h15.044l4.095-7.229l13.25,13.75l-2.687,2.634l-7.176-6.602l-3.003,5.202h-24L100.208,208.5z"/>
				<polygon style="fill:#06C39F;" points="93.25,284.125 109.599,273.841 109.292,265.568 118.852,265.148 118.833,261.836 
					101.333,262.17 101.682,269.655 93.25,275.063 				"/>
				<polygon style="fill:#06C39F;" points="137.175,312.774 129.071,321.579 134.213,326.982 127.429,350.004 115.063,353.063 
					117,344.438 121.255,343.517 125.508,329.087 120.083,323.336 133.667,310.336 				"/>
				<polygon style="fill:#06C39F;" points="178.166,334.003 181.935,333.367 181.457,345.808 189.253,345.759 201.383,366.468 
					193.416,380.667 190.416,370.167 192.428,366.524 184.825,353.543 177.916,353.42 				"/>
				<path style="fill:#06C39F;" d="M308.334,279c3.866,0,7-3.134,7-7s-3.134-7-7-7V279z"/>
				<path style="fill:#06C39F;" d="M189.833,265c-3.866,0-7,3.134-7,7s3.134,7,7,7V265z"/>
				<path style="fill:#06C39F;" d="M282.048,334.366c0.21-0.029,0.419-0.058,0.635-0.102c0.128-0.025,0.261-0.063,0.391-0.094
					c0.199-0.048,0.397-0.092,0.6-0.149c0.143-0.041,0.288-0.092,0.433-0.138c0.197-0.063,0.392-0.123,0.593-0.195
					c0.152-0.055,0.308-0.119,0.462-0.179c0.197-0.077,0.395-0.152,0.595-0.238c0.16-0.068,0.323-0.146,0.485-0.219
					c0.198-0.091,0.396-0.18,0.598-0.278c0.167-0.081,0.336-0.17,0.504-0.256c0.199-0.103,0.397-0.204,0.598-0.313
					c0.175-0.096,0.351-0.196,0.526-0.297c0.197-0.112,0.394-0.225,0.593-0.343c0.18-0.108,0.361-0.221,0.542-0.334
					c0.195-0.121,0.39-0.243,0.586-0.37c0.188-0.121,0.375-0.247,0.564-0.373c0.189-0.128,0.379-0.256,0.568-0.388
					c0.195-0.136,0.391-0.275,0.586-0.416c0.183-0.132,0.364-0.265,0.547-0.399c0.202-0.15,0.403-0.303,0.604-0.457
					c0.175-0.134,0.35-0.27,0.523-0.406c0.209-0.165,0.418-0.332,0.626-0.502c0.164-0.133,0.327-0.268,0.49-0.403
					c0.218-0.182,0.436-0.364,0.652-0.551c0.149-0.128,0.298-0.259,0.447-0.389c0.227-0.199,0.453-0.4,0.678-0.604
					c0.135-0.121,0.268-0.244,0.4-0.367c0.237-0.219,0.474-0.439,0.707-0.662c0.115-0.109,0.23-0.221,0.344-0.331
					c0.248-0.241,0.495-0.483,0.74-0.729c0.092-0.093,0.184-0.186,0.275-0.28c0.261-0.266,0.521-0.532,0.776-0.802
					c0.068-0.072,0.135-0.145,0.202-0.217c0.275-0.294,0.549-0.59,0.817-0.888c0.036-0.041,0.072-0.083,0.109-0.124
					c4.168-4.664,7.324-9.739,7.882-13.648c-16.36,13.725-37.452,21.993-60.478,21.993c-22.505,0-43.162-7.898-59.36-21.069
					c0,0.001,0,0.002,0,0.002c0.027,0.28,0.072,0.566,0.128,0.856c0.004,0.022,0.006,0.044,0.011,0.066
					c0.056,0.28,0.128,0.566,0.208,0.855c0.009,0.033,0.017,0.066,0.026,0.101c0.08,0.279,0.175,0.564,0.278,0.852
					c0.017,0.046,0.03,0.091,0.047,0.137c0.103,0.28,0.219,0.564,0.341,0.849c0.024,0.056,0.045,0.11,0.069,0.165
					c0.123,0.279,0.258,0.562,0.399,0.846c0.032,0.065,0.061,0.128,0.094,0.191c0.141,0.277,0.292,0.558,0.449,0.838
					c0.041,0.073,0.079,0.146,0.121,0.218c0.157,0.274,0.322,0.551,0.493,0.828c0.05,0.08,0.098,0.161,0.149,0.242
					c0.17,0.271,0.348,0.542,0.531,0.814c0.06,0.09,0.118,0.178,0.179,0.268c0.182,0.265,0.371,0.531,0.563,0.797
					c0.069,0.096,0.138,0.192,0.21,0.288c0.191,0.26,0.389,0.52,0.59,0.778c0.08,0.104,0.16,0.206,0.241,0.31
					c0.2,0.252,0.404,0.504,0.612,0.756c0.091,0.11,0.182,0.22,0.274,0.329c0.205,0.244,0.415,0.487,0.627,0.729
					c0.102,0.117,0.206,0.233,0.31,0.351c0.209,0.233,0.422,0.467,0.637,0.699c0.114,0.122,0.229,0.245,0.344,0.367
					c0.212,0.224,0.426,0.447,0.643,0.669c0.125,0.128,0.251,0.256,0.378,0.383c0.212,0.213,0.427,0.425,0.644,0.635
					c0.136,0.133,0.274,0.265,0.412,0.396c0.212,0.202,0.427,0.403,0.643,0.603c0.146,0.135,0.294,0.268,0.442,0.402
					c0.212,0.191,0.424,0.381,0.638,0.568c0.157,0.137,0.315,0.272,0.474,0.408c0.209,0.179,0.418,0.356,0.628,0.531
					c0.167,0.138,0.334,0.273,0.502,0.409c0.207,0.168,0.414,0.335,0.622,0.498c0.174,0.137,0.348,0.271,0.523,0.403
					c0.203,0.156,0.406,0.311,0.61,0.462c0.182,0.135,0.364,0.267,0.545,0.397c0.199,0.144,0.398,0.287,0.598,0.427
					c0.188,0.132,0.376,0.259,0.565,0.386c0.193,0.131,0.386,0.262,0.579,0.388c0.194,0.127,0.388,0.249,0.583,0.371
					c0.188,0.119,0.376,0.238,0.563,0.353c0.197,0.12,0.394,0.233,0.59,0.349c0.183,0.106,0.366,0.215,0.548,0.316
					c0.199,0.112,0.396,0.216,0.595,0.322c0.178,0.095,0.357,0.192,0.533,0.282c0.201,0.103,0.399,0.196,0.598,0.292
					c0.171,0.083,0.343,0.168,0.512,0.246c0.202,0.092,0.399,0.174,0.599,0.259c0.164,0.07,0.33,0.143,0.492,0.209
					c0.202,0.08,0.399,0.149,0.598,0.222c0.156,0.057,0.313,0.118,0.466,0.17c0.202,0.068,0.399,0.124,0.598,0.183
					c0.145,0.044,0.292,0.093,0.435,0.131c0.204,0.055,0.402,0.095,0.602,0.14c0.132,0.028,0.266,0.064,0.395,0.089
					c0.217,0.041,0.426,0.067,0.637,0.095c0.105,0.014,0.215,0.036,0.319,0.046c0.312,0.032,0.615,0.049,0.911,0.049h63.988
					c0.293,0,0.596-0.019,0.904-0.052C281.835,334.404,281.943,334.381,282.048,334.366z"/>
			</g>
		</g>
		<g>
			<path style="fill:#FFFFFF;" d="M308.334,276c3.866,0,7-3.134,7-7s-3.134-7-7-7V276z"/>
			<path style="fill:#FFFFFF;" d="M189.833,262c-3.866,0-7,3.134-7,7s3.134,7,7,7V262z"/>
		</g>
		<g>
			<ellipse style="fill:#FFFFFF;" cx="249.112" cy="221.317" rx="44.327" ry="29.33"/>
			<g>
				<g>
					<path style="fill:#1D1D1B;" d="M227.782,223.316c0-3.497-2.835-6.333-6.333-6.333c-3.497,0-6.332,2.835-6.332,6.333
						c0,3.498,2.835,6.332,6.332,6.332C224.946,229.648,227.782,226.814,227.782,223.316z"/>
					<circle style="fill:#FFFFFF;" cx="218.833" cy="220.833" r="0.833"/>
				</g>
				<g>
					<path style="fill:#1D1D1B;" d="M282.439,223.316c0-3.497-2.834-6.333-6.332-6.333c-3.497,0-6.332,2.835-6.332,6.333
						c0,3.498,2.835,6.332,6.332,6.332C279.605,229.648,282.439,226.814,282.439,223.316z"/>
					<path style="fill:#FFFFFF;" d="M274,220.833c0,0.46-0.373,0.834-0.834,0.834c-0.46,0-0.833-0.373-0.833-0.834
						c0-0.46,0.373-0.833,0.833-0.833C273.627,220,274,220.373,274,220.833z"/>
				</g>
			</g>
		</g>
		<g>
			<g>
				<path style="fill:#FFFFFF;" d="M137.586,195.501c-0.28,0.158-0.637,0.059-0.795-0.221l-8.932-15.82
					c-0.159-0.28-0.06-0.636,0.221-0.795l0,0c0.281-0.158,0.637-0.059,0.795,0.221l8.932,15.82
					C137.966,194.987,137.867,195.343,137.586,195.501L137.586,195.501z"/>
				<path style="fill:#FFFFFF;" d="M105.754,251.357c-0.142,0.289-0.492,0.408-0.781,0.266l-16.294-8.033
					c-0.289-0.142-0.408-0.492-0.266-0.781l0,0c0.143-0.289,0.493-0.408,0.782-0.266l16.294,8.034
					C105.777,250.719,105.897,251.068,105.754,251.357L105.754,251.357z"/>
				<path style="fill:#FFFFFF;" d="M116.784,312.549c0.068,0.314-0.132,0.625-0.447,0.692l-17.76,3.824
					c-0.315,0.067-0.625-0.133-0.693-0.447l0,0c-0.068-0.314,0.133-0.626,0.448-0.693l17.76-3.823
					C116.405,312.033,116.716,312.232,116.784,312.549L116.784,312.549z"/>
				<path style="fill:#FFFFFF;" d="M166.804,348.012c0.284,0.148,0.396,0.501,0.247,0.786l-8.399,16.109
					c-0.15,0.285-0.502,0.396-0.787,0.248l0,0c-0.285-0.149-0.396-0.503-0.247-0.788l8.4-16.108
					C166.165,347.975,166.517,347.862,166.804,348.012L166.804,348.012z"/>
			</g>
			<g>
				<path style="fill:#FFFFFF;" d="M361.385,195.501c0.279,0.158,0.637,0.059,0.795-0.221l8.932-15.82
					c0.158-0.28,0.059-0.636-0.221-0.795l0,0c-0.281-0.158-0.637-0.059-0.796,0.221l-8.932,15.82
					C361.005,194.987,361.103,195.343,361.385,195.501L361.385,195.501z"/>
				<path style="fill:#FFFFFF;" d="M393.217,251.357c0.143,0.289,0.492,0.408,0.781,0.266l16.294-8.033
					c0.289-0.142,0.407-0.492,0.266-0.781l0,0c-0.143-0.289-0.493-0.408-0.782-0.266l-16.294,8.034
					C393.193,250.719,393.074,251.068,393.217,251.357L393.217,251.357z"/>
				<path style="fill:#FFFFFF;" d="M382.186,312.549c-0.067,0.314,0.132,0.625,0.447,0.692l17.76,3.824
					c0.315,0.067,0.625-0.133,0.693-0.447l0,0c0.067-0.314-0.134-0.626-0.448-0.693l-17.76-3.823
					C382.565,312.033,382.254,312.232,382.186,312.549L382.186,312.549z"/>
				<path style="fill:#FFFFFF;" d="M332.166,348.012c-0.283,0.148-0.396,0.501-0.246,0.786l8.398,16.109
					c0.15,0.285,0.502,0.396,0.787,0.248l0,0c0.285-0.149,0.397-0.503,0.248-0.788l-8.4-16.108
					C332.806,347.975,332.453,347.862,332.166,348.012L332.166,348.012z"/>
			</g>
		</g>
	</g>
	<g>
		<g id="XMLID_29_">
			<g id="XMLID_48_">
				<path id="XMLID_56_" style="fill:#1D262D;" d="M260.104,464.59c-0.432,0.443-0.803,0.931-1.108,1.453l-0.465-0.241
					c-0.067-0.298-0.349-0.503-0.659-0.466c-0.331,0.039-0.568,0.339-0.529,0.67c0.039,0.331,0.339,0.568,0.67,0.529
					c0.066-0.008,0.127-0.026,0.184-0.052l0.451,0.234c-0.251,0.554-0.433,1.139-0.539,1.744l0.747,0.132
					c0.23-1.306,0.85-2.507,1.792-3.473L260.104,464.59z"/>
				<path id="XMLID_55_" style="fill:#1D262D;" d="M265.592,462.288c-0.171,0-0.341,0.006-0.51,0.017l-0.074-0.626
					c0.188-0.149,0.296-0.389,0.266-0.645c-0.046-0.393-0.402-0.674-0.795-0.628c-0.393,0.046-0.674,0.402-0.628,0.795
					c0.03,0.254,0.189,0.461,0.404,0.564l0.074,0.624c-0.714,0.116-1.403,0.332-2.06,0.646l0.327,0.684
					c0.934-0.447,1.942-0.673,2.995-0.673c0.496,0,0.993,0.053,1.475,0.158l0.161-0.741
					C266.692,462.347,266.142,462.288,265.592,462.288z"/>
				<path id="XMLID_54_" style="fill:#1D262D;" d="M272.194,464.836c0.331-0.04,0.566-0.341,0.526-0.672
					c-0.04-0.331-0.341-0.566-0.672-0.526c-0.309,0.038-0.535,0.304-0.53,0.609l-0.416,0.363c-0.418-0.43-0.889-0.813-1.408-1.139
					l-0.404,0.641c1.134,0.715,2.021,1.726,2.563,2.925l0.69-0.313c-0.251-0.554-0.567-1.072-0.942-1.545l0.402-0.351
					C272.065,464.841,272.129,464.844,272.194,464.836z"/>
				<path id="XMLID_53_" style="fill:#1D262D;" d="M265.044,472.497c-0.386,0.023-0.775,0.035-1.157,0.035
					c-0.88,0-1.733-0.061-2.478-0.179c-0.39-0.062-0.846-0.155-1.27-0.292c1.046,1.861,3.069,3.125,5.388,3.125
					c2.855,0,5.262-1.916,5.95-4.504c-0.682,0.449-1.505,0.825-2.459,1.123C267.839,472.172,266.463,472.411,265.044,472.497z"/>
				<path id="XMLID_49_" style="fill:#1D262D;" d="M265.592,463.805c-3.352,0-6.08,2.666-6.08,5.943
					c0,0.426,0.046,0.849,0.137,1.261c0.673,0.483,2.706,0.89,5.348,0.731c2.879-0.173,5.297-0.957,6.672-2.159
					c-0.006-0.195-0.021-0.39-0.045-0.582C271.244,466.038,268.65,463.805,265.592,463.805z M263.432,470.319
					c-1.02,0-1.85-0.83-1.85-1.85c0-1.02,0.83-1.85,1.85-1.85c1.02,0,1.85,0.83,1.85,1.85
					C265.282,469.49,264.452,470.319,263.432,470.319z M268.17,469.411c-0.75,0-1.36-0.61-1.36-1.36s0.61-1.361,1.36-1.361
					c0.75,0,1.361,0.61,1.361,1.361S268.92,469.411,268.17,469.411z"/>
			</g>
			<path id="XMLID_46_" style="fill:#1D262D;" d="M281.595,465.672c-0.295-0.116-0.805-0.309-1.382-0.237
				c-0.551,0.069-0.844,0.341-0.844,1.007v0.866h2.228v1.717h-2.228v5.455h-1.932v-5.455h-1.34v-1.717h1.34v-0.888
				c0-1.68,0.896-2.783,2.568-2.783c0.643,0,1.157,0.122,1.59,0.308L281.595,465.672z"/>
			<path id="XMLID_44_" style="fill:#1D262D;" d="M286.298,469.004c-0.177-0.03-0.358-0.046-0.526-0.046
				c-0.896,0-1.51,0.548-1.51,1.614v3.908h-1.932v-7.172h1.873v0.785c0.451-0.673,1.14-0.977,2.021-0.977
				c0.414,0,0.848,0.128,1.094,0.337L286.298,469.004z"/>
			<path id="XMLID_41_" style="fill:#1D262D;" d="M293.965,470.882c0,0.222-0.015,0.489-0.037,0.651h-5.085
				c0.207,1.036,0.933,1.488,1.843,1.488c0.622,0,1.295-0.252,1.813-0.688l1.133,1.243c-0.814,0.748-1.85,1.088-3.057,1.088
				c-2.198,0-3.723-1.495-3.723-3.753c0-2.258,1.48-3.797,3.627-3.797C292.544,467.115,293.958,468.647,293.965,470.882z
				 M288.851,470.216h3.175c-0.177-0.918-0.733-1.436-1.562-1.436C289.554,468.78,289.021,469.328,288.851,470.216z"/>
			<path id="XMLID_38_" style="fill:#1D262D;" d="M301.618,470.882c0,0.222-0.015,0.489-0.037,0.651h-5.085
				c0.207,1.036,0.933,1.488,1.843,1.488c0.622,0,1.295-0.252,1.814-0.688l1.132,1.243c-0.814,0.748-1.85,1.088-3.057,1.088
				c-2.198,0-3.723-1.495-3.723-3.753c0-2.258,1.48-3.797,3.627-3.797C300.197,467.115,301.611,468.647,301.618,470.882z
				 M296.504,470.216h3.175c-0.178-0.918-0.733-1.436-1.562-1.436C297.207,468.78,296.674,469.328,296.504,470.216z"/>
			<path id="XMLID_35_" style="fill:#1D262D;" d="M309.964,470.889c0,2.154-1.495,3.775-3.471,3.775
				c-0.962,0-1.643-0.378-2.109-0.933v3.708h-1.924v-10.133h1.887v0.792c0.466-0.585,1.155-0.984,2.139-0.984
				C308.469,467.115,309.964,468.735,309.964,470.889z M304.287,470.889c0,1.132,0.748,1.976,1.843,1.976
				c1.14,0,1.85-0.881,1.85-1.976c0-1.095-0.71-1.976-1.85-1.976C305.035,468.913,304.287,469.757,304.287,470.889z"/>
			<path id="XMLID_32_" style="fill:#1D262D;" d="M313.068,464.961c0,0.696-0.54,1.229-1.236,1.229
				c-0.696,0-1.229-0.533-1.229-1.229c0-0.696,0.533-1.243,1.229-1.243C312.527,463.717,313.068,464.265,313.068,464.961z
				 M312.809,474.479h-1.932v-7.172h1.932V474.479z"/>
			<path id="XMLID_30_" style="fill:#1D262D;" d="M316.032,469.861l2.701-2.554h2.368l-3.479,3.375l3.501,3.797h-2.376l-2.716-2.901
				v2.901H314.1v-10.658h1.932V469.861z"/>
		</g>
		<g>
			<path style="fill:#1D262D;" d="M184.412,474.414v-1.055c-0.527,0.718-1.391,1.23-2.387,1.23c-1.846,0-3.149-1.406-3.149-3.706
				c0-2.256,1.289-3.721,3.149-3.721c0.952,0,1.816,0.469,2.387,1.245v-3.765h1.099v9.77H184.412z M184.412,472.495v-3.208
				c-0.395-0.615-1.245-1.143-2.124-1.143c-1.421,0-2.27,1.172-2.27,2.739c0,1.567,0.85,2.724,2.27,2.724
				C183.168,473.608,184.017,473.111,184.412,472.495z"/>
			<path style="fill:#1D262D;" d="M186.932,470.869c0-2.051,1.465-3.706,3.486-3.706c2.139,0,3.398,1.67,3.398,3.794v0.279h-5.727
				c0.088,1.333,1.025,2.446,2.549,2.446c0.805,0,1.626-0.322,2.182-0.894l0.527,0.718c-0.703,0.703-1.655,1.084-2.812,1.084
				C188.44,474.59,186.932,473.081,186.932,470.869z M190.403,468.072c-1.509,0-2.256,1.274-2.314,2.358h4.643
				C192.718,469.375,192.015,468.072,190.403,468.072z"/>
			<path style="fill:#1D262D;" d="M194.607,473.476l0.571-0.791c0.469,0.542,1.362,1.011,2.329,1.011c1.084,0,1.67-0.513,1.67-1.216
				c0-1.714-4.38-0.659-4.38-3.281c0-1.098,0.952-2.036,2.636-2.036c1.201,0,2.051,0.454,2.622,1.026l-0.513,0.762
				c-0.424-0.513-1.201-0.894-2.109-0.894c-0.967,0-1.567,0.483-1.567,1.113c0,1.552,4.38,0.527,4.38,3.281
				c0,1.187-0.952,2.138-2.783,2.138C196.306,474.59,195.325,474.238,194.607,473.476z"/>
			<path style="fill:#1D262D;" d="M201.477,465.596c0-0.41,0.337-0.747,0.732-0.747c0.41,0,0.747,0.337,0.747,0.747
				c0,0.41-0.337,0.732-0.747,0.732C201.814,466.328,201.477,466.006,201.477,465.596z M201.667,474.414v-7.075h1.099v7.075H201.667
				z"/>
			<path style="fill:#1D262D;" d="M204.582,476.23l0.556-0.82c0.586,0.703,1.289,0.967,2.3,0.967c1.172,0,2.27-0.571,2.27-2.124
				v-1.011c-0.513,0.718-1.377,1.26-2.373,1.26c-1.845,0-3.149-1.377-3.149-3.662c0-2.27,1.289-3.677,3.149-3.677
				c0.952,0,1.802,0.469,2.373,1.245v-1.069h1.098v6.87c0,2.344-1.641,3.076-3.369,3.076
				C206.237,477.285,205.417,477.051,204.582,476.23z M209.709,472.378v-3.091c-0.381-0.615-1.23-1.143-2.109-1.143
				c-1.421,0-2.27,1.128-2.27,2.695c0,1.553,0.849,2.695,2.27,2.695C208.478,473.535,209.328,472.993,209.709,472.378z"/>
			<path style="fill:#1D262D;" d="M217.413,474.414v-4.629c0-1.245-0.63-1.641-1.582-1.641c-0.865,0-1.685,0.527-2.095,1.099v5.17
				h-1.099v-7.075h1.099v1.025c0.498-0.586,1.464-1.201,2.519-1.201c1.48,0,2.256,0.747,2.256,2.285v4.966H217.413z"/>
			<path style="fill:#1D262D;" d="M219.932,470.869c0-2.051,1.465-3.706,3.486-3.706c2.139,0,3.398,1.67,3.398,3.794v0.279h-5.727
				c0.088,1.333,1.025,2.446,2.549,2.446c0.806,0,1.626-0.322,2.183-0.894l0.527,0.718c-0.703,0.703-1.655,1.084-2.812,1.084
				C221.441,474.59,219.932,473.081,219.932,470.869z M223.404,468.072c-1.509,0-2.256,1.274-2.314,2.358h4.643
				C225.718,469.375,225.015,468.072,223.404,468.072z"/>
			<path style="fill:#1D262D;" d="M233.35,474.414v-1.055c-0.527,0.718-1.392,1.23-2.388,1.23c-1.846,0-3.149-1.406-3.149-3.706
				c0-2.256,1.289-3.721,3.149-3.721c0.952,0,1.817,0.469,2.388,1.245v-3.765h1.098v9.77H233.35z M233.35,472.495v-3.208
				c-0.396-0.615-1.245-1.143-2.124-1.143c-1.421,0-2.27,1.172-2.27,2.739c0,1.567,0.849,2.724,2.27,2.724
				C232.105,473.608,232.954,473.111,233.35,472.495z"/>
			<path style="fill:#1D262D;" d="M239.692,474.414v-9.77h1.098v3.765c0.572-0.776,1.421-1.245,2.388-1.245
				c1.845,0,3.149,1.465,3.149,3.721c0,2.299-1.304,3.706-3.149,3.706c-0.996,0-1.86-0.513-2.388-1.23v1.055H239.692z
				 M242.9,473.608c1.436,0,2.285-1.157,2.285-2.724c0-1.568-0.85-2.739-2.285-2.739c-0.864,0-1.728,0.527-2.109,1.143v3.208
				C241.171,473.111,242.036,473.608,242.9,473.608z"/>
			<path style="fill:#1D262D;" d="M247.528,476.186c0.161,0.073,0.425,0.117,0.601,0.117c0.483,0,0.805-0.161,1.055-0.747
				l0.469-1.069l-2.959-7.148h1.187l2.358,5.8l2.344-5.8h1.201l-3.545,8.51c-0.425,1.025-1.143,1.421-2.08,1.435
				c-0.234,0-0.601-0.044-0.805-0.103L247.528,476.186z"/>
		</g>
	</g>
</g>
<g id="DESIGNED_BY_FREEPIK">
</g>
</svg>
