<?xml version="1.0" encoding="utf-8"?>
<!-- Generator: Adobe Illustrator 27.5.0, SVG Export Plug-In . SVG Version: 6.00 Build 0)  -->
<svg version="1.1" id="Ñëîé_1" xmlns="http://www.w3.org/2000/svg" xmlns:xlink="http://www.w3.org/1999/xlink" x="0px" y="0px"
	 viewBox="0 0 2239.99 2200" style="enable-background:new 0 0 2239.99 2200;" xml:space="preserve">
<rect x="0" style="fill:#FFFFFF;" width="2239.99" height="2200"/>
<g>
	<path style="fill:#322A28;" d="M748.711,327.434c0-7.628,1.279-14.54,3.837-20.733c2.558-6.193,6.125-11.464,10.703-15.818
		c4.577-4.352,10.006-7.694,16.289-10.03c6.281-2.333,13.147-3.5,20.597-3.5c7.448,0,14.315,1.167,20.597,3.5
		c6.281,2.336,11.712,5.679,16.289,10.03c4.578,4.354,8.145,9.625,10.703,15.818c2.558,6.193,3.837,13.104,3.837,20.733
		c0,7.628-1.279,14.538-3.837,20.731c-2.558,6.193-6.125,11.466-10.703,15.82c-4.577,4.354-10.008,7.696-16.289,10.029
		c-6.283,2.333-13.149,3.5-20.597,3.5c-7.45,0-14.316-1.167-20.597-3.5c-6.283-2.333-11.712-5.675-16.289-10.029
		c-4.578-4.354-8.145-9.627-10.703-15.82C749.99,341.971,748.711,335.062,748.711,327.434z M770.52,327.434
		c0,4.489,0.694,8.595,2.087,12.318c1.391,3.725,3.387,6.957,5.991,9.693c2.602,2.738,5.722,4.87,9.356,6.394
		c3.635,1.528,7.695,2.289,12.184,2.289c4.487,0,8.549-0.762,12.184-2.289c3.634-1.524,6.752-3.656,9.356-6.394
		c2.602-2.736,4.599-5.967,5.991-9.693c1.391-3.723,2.087-7.829,2.087-12.318c0-4.397-0.696-8.482-2.087-12.25
		c-1.392-3.77-3.389-7.022-5.991-9.76c-2.604-2.738-5.722-4.868-9.356-6.395c-3.635-1.526-7.697-2.289-12.184-2.289
		c-4.489,0-8.549,0.764-12.184,2.289c-3.634,1.528-6.754,3.658-9.356,6.395c-2.604,2.738-4.6,5.99-5.991,9.76
		C771.215,318.951,770.52,323.037,770.52,327.434z"/>
	<path style="fill:#322A28;" d="M863.273,309.662h19.386v8.886h0.269c0.627-1.256,1.525-2.511,2.692-3.77
		c1.165-1.255,2.558-2.376,4.173-3.365c1.616-0.987,3.454-1.794,5.52-2.423c2.063-0.627,4.308-0.944,6.73-0.944
		c5.116,0,9.243,0.788,12.385,2.357c3.141,1.571,5.587,3.747,7.338,6.529c1.75,2.783,2.938,6.058,3.567,9.828
		c0.627,3.77,0.942,7.855,0.942,12.25v36.079h-20.193v-32.041c0-1.884-0.068-3.836-0.203-5.855
		c-0.134-2.019-0.539-3.881-1.211-5.587c-0.673-1.704-1.706-3.096-3.096-4.174c-1.392-1.077-3.388-1.616-5.991-1.616
		c-2.604,0-4.711,0.471-6.327,1.413c-1.616,0.942-2.851,2.201-3.702,3.77c-0.855,1.571-1.414,3.344-1.683,5.316
		c-0.269,1.976-0.403,4.04-0.403,6.193v32.579h-20.194V309.662z"/>
	<path style="fill:#322A28;" d="M940.815,273.315h20.194V375.09h-20.194V273.315z"/>
	<path style="fill:#322A28;" d="M974.201,289.065c0-3.23,1.145-5.99,3.433-8.278c2.289-2.289,5.048-3.434,8.28-3.434
		c3.231,0,5.991,1.145,8.279,3.434c2.289,2.288,3.432,5.048,3.432,8.278c0,3.232-1.144,5.992-3.432,8.28
		c-2.289,2.289-5.049,3.434-8.279,3.434c-3.232,0-5.991-1.145-8.28-3.434C975.345,295.057,974.201,292.296,974.201,289.065z
		 M975.816,309.662h20.194v65.427h-20.194V309.662z"/>
	<path style="fill:#322A28;" d="M1010.548,309.662h19.386v8.886h0.269c0.627-1.256,1.525-2.511,2.692-3.77
		c1.165-1.255,2.558-2.376,4.174-3.365c1.616-0.987,3.454-1.794,5.52-2.423c2.063-0.627,4.308-0.944,6.73-0.944
		c5.116,0,9.243,0.788,12.385,2.357c3.141,1.571,5.587,3.747,7.338,6.529c1.75,2.783,2.938,6.058,3.567,9.828
		c0.627,3.77,0.942,7.855,0.942,12.25v36.079h-20.193v-32.041c0-1.884-0.068-3.836-0.203-5.855
		c-0.134-2.019-0.539-3.881-1.211-5.587c-0.673-1.704-1.706-3.096-3.096-4.174c-1.392-1.077-3.388-1.616-5.991-1.616
		c-2.604,0-4.711,0.471-6.327,1.413c-1.616,0.942-2.851,2.201-3.702,3.77c-0.855,1.571-1.414,3.344-1.683,5.316
		c-0.269,1.976-0.404,4.04-0.404,6.193v32.579h-20.194V309.662z"/>
	<path style="fill:#322A28;" d="M1149.746,363.781c-3.23,4.129-7.316,7.317-12.25,9.557c-4.938,2.243-10.053,3.367-15.347,3.367
		c-5.027,0-9.76-0.809-14.203-2.423c-4.443-1.616-8.303-3.926-11.578-6.934c-3.277-3.006-5.856-6.617-7.741-10.837
		c-1.885-4.217-2.827-8.929-2.827-14.134c0-5.204,0.942-9.916,2.827-14.136c1.885-4.217,4.464-7.829,7.741-10.837
		c3.275-3.006,7.135-5.316,11.578-6.932c4.443-1.616,9.176-2.424,14.203-2.424c4.665,0,8.905,0.809,12.721,2.424
		c3.814,1.616,7.045,3.926,9.693,6.932c2.647,3.008,4.689,6.621,6.126,10.837c1.434,4.22,2.153,8.932,2.153,14.136v6.326h-46.849
		c0.808,3.86,2.559,6.934,5.251,9.221c2.693,2.29,6.012,3.434,9.962,3.434c3.32,0,6.125-0.741,8.415-2.222
		c2.288-1.481,4.284-3.387,5.99-5.722L1149.746,363.781z M1132.65,334.972c0.088-3.41-1.033-6.328-3.366-8.751
		c-2.335-2.423-5.341-3.635-9.02-3.635c-2.244,0-4.219,0.36-5.924,1.077c-1.706,0.719-3.164,1.638-4.375,2.76
		c-1.211,1.122-2.154,2.423-2.827,3.903c-0.673,1.481-1.056,3.029-1.145,4.645H1132.65z"/>
	<path style="fill:#322A28;" d="M1269.828,304.547c-2.066-2.511-4.6-4.442-7.607-5.787c-3.008-1.347-6.485-2.021-10.433-2.021
		c-3.95,0-7.607,0.764-10.971,2.289c-3.366,1.528-6.284,3.658-8.75,6.395c-2.47,2.738-4.399,5.99-5.789,9.76
		c-1.392,3.768-2.087,7.854-2.087,12.25c0,4.489,0.694,8.595,2.087,12.318c1.391,3.725,3.298,6.957,5.722,9.693
		c2.423,2.738,5.271,4.87,8.549,6.394c3.275,1.528,6.798,2.289,10.568,2.289c4.308,0,8.121-0.895,11.443-2.693
		c3.32-1.794,6.058-4.307,8.212-7.538l17.501,13.059c-4.038,5.654-9.154,9.826-15.347,12.519
		c-6.193,2.693-12.567,4.038-19.117,4.038c-7.45,0-14.317-1.167-20.598-3.5c-6.283-2.333-11.712-5.675-16.289-10.029
		c-4.578-4.354-8.145-9.627-10.703-15.82c-2.558-6.193-3.837-13.102-3.837-20.731c0-7.628,1.279-14.54,3.837-20.733
		c2.558-6.193,6.125-11.464,10.703-15.818c4.577-4.352,10.006-7.694,16.289-10.03c6.281-2.333,13.147-3.5,20.598-3.5
		c2.693,0,5.496,0.248,8.414,0.741c2.915,0.494,5.789,1.278,8.616,2.355c2.827,1.077,5.541,2.515,8.144,4.309
		c2.602,1.796,4.935,3.993,7.001,6.596L1269.828,304.547z"/>
	<path style="fill:#322A28;" d="M1317.349,273.315v45.233h0.269c0.448-1.256,1.211-2.511,2.289-3.77
		c1.076-1.255,2.377-2.376,3.903-3.365c1.526-0.987,3.32-1.794,5.386-2.423c2.063-0.627,4.308-0.944,6.73-0.944
		c5.116,0,9.243,0.788,12.385,2.357c3.14,1.571,5.587,3.747,7.337,6.529c1.75,2.783,2.938,6.058,3.567,9.828
		c0.627,3.77,0.942,7.855,0.942,12.25v36.079h-20.193v-32.041c0-1.884-0.068-3.836-0.203-5.855
		c-0.134-2.019-0.539-3.881-1.211-5.587c-0.673-1.704-1.706-3.096-3.096-4.174c-1.393-1.077-3.388-1.616-5.991-1.616
		c-2.604,0-4.711,0.471-6.327,1.413c-1.616,0.942-2.851,2.201-3.702,3.77c-0.855,1.571-1.414,3.344-1.683,5.316
		c-0.269,1.976-0.403,4.04-0.403,6.193v32.579h-20.194V273.315H1317.349z"/>
	<path style="fill:#322A28;" d="M1415.487,366.878h-0.269c-2.244,3.5-5.229,6.014-8.952,7.538
		c-3.725,1.526-7.652,2.289-11.779,2.289c-3.052,0-5.991-0.428-8.818-1.28c-2.827-0.852-5.317-2.13-7.471-3.836
		c-2.154-1.704-3.86-3.813-5.116-6.328c-1.257-2.511-1.884-5.429-1.884-8.751c0-3.77,0.694-6.955,2.087-9.557
		c1.391-2.603,3.275-4.757,5.654-6.463c2.377-1.704,5.092-3.029,8.144-3.971c3.05-0.942,6.213-1.636,9.491-2.087
		c3.276-0.448,6.55-0.717,9.828-0.807c3.275-0.088,6.304-0.135,9.086-0.135c0-3.588-1.279-6.439-3.837-8.548
		c-2.558-2.109-5.587-3.164-9.086-3.164c-3.322,0-6.35,0.696-9.087,2.087c-2.739,1.393-5.183,3.297-7.336,5.722l-10.77-11.04
		c3.769-3.5,8.165-6.125,13.193-7.876c5.026-1.749,10.231-2.625,15.616-2.625c5.923,0,10.791,0.741,14.607,2.222
		c3.813,1.481,6.865,3.657,9.154,6.529c2.289,2.875,3.881,6.395,4.779,10.569c0.896,4.173,1.346,8.998,1.346,14.472v33.251h-18.578
		V366.878z M1410.507,346.415c-1.527,0-3.433,0.068-5.722,0.201c-2.288,0.135-4.489,0.518-6.596,1.145
		c-2.11,0.629-3.904,1.571-5.385,2.828c-1.482,1.257-2.222,3.008-2.222,5.249c0,2.424,1.031,4.22,3.096,5.386
		c2.064,1.167,4.218,1.751,6.462,1.751c1.973,0,3.881-0.27,5.722-0.809c1.838-0.539,3.477-1.3,4.914-2.288
		c1.435-0.987,2.578-2.243,3.432-3.77c0.852-1.526,1.279-3.32,1.279-5.386v-4.307H1410.507z"/>
	<path style="fill:#322A28;" d="M1491.279,325.818h-17.77v21.808c0,1.798,0.088,3.434,0.269,4.915
		c0.178,1.481,0.583,2.76,1.211,3.836c0.627,1.077,1.592,1.908,2.895,2.492c1.3,0.584,3.029,0.875,5.183,0.875
		c1.077,0,2.49-0.113,4.24-0.336c1.75-0.223,3.074-0.741,3.972-1.548v16.827c-2.244,0.807-4.577,1.346-7.001,1.616
		c-2.424,0.268-4.802,0.403-7.135,0.403c-3.412,0-6.552-0.36-9.424-1.077c-2.873-0.717-5.385-1.862-7.538-3.432
		c-2.154-1.571-3.837-3.612-5.049-6.125c-1.211-2.513-1.817-5.564-1.817-9.156v-31.097h-12.924v-16.156h12.924v-19.385h20.193
		v19.385h17.77V325.818z"/>
</g>
<g>
	<g>
		<path style="fill:#40A87B;" d="M427.283,1987.558c0,0-30.22-120.546-105.551-157.748s-155.731,13.73-135.315,67.288
			c17.604,46.182,89.993-10.603,146.316,11.728s65.201,78.733,65.201,78.733H427.283z"/>
		<path style="fill:none;stroke:#6ADB6A;stroke-width:3.3944;stroke-miterlimit:10;" d="M200.979,1864.98
			c0,0,80.849-46.075,140.834-3.477c59.985,42.598,78.968,126.055,78.968,126.055"/>
		
			<line style="fill:none;stroke:#6ADB6A;stroke-width:3.3944;stroke-miterlimit:10;" x1="214.019" y1="1843.431" x2="232.829" y2="1851.632"/>
		
			<line style="fill:none;stroke:#6ADB6A;stroke-width:3.3944;stroke-miterlimit:10;" x1="241.186" y1="1825.859" x2="278.652" y2="1843.431"/>
		
			<line style="fill:none;stroke:#6ADB6A;stroke-width:3.3944;stroke-miterlimit:10;" x1="297.476" y1="1825.859" x2="316.968" y2="1848.885"/>
		
			<line style="fill:none;stroke:#6ADB6A;stroke-width:3.3944;stroke-miterlimit:10;" x1="334.423" y1="1841.29" x2="343.185" y2="1862.495"/>
		
			<line style="fill:none;stroke:#6ADB6A;stroke-width:3.3944;stroke-miterlimit:10;" x1="223.424" y1="1894.32" x2="252.301" y2="1846.548"/>
		
			<line style="fill:none;stroke:#6ADB6A;stroke-width:3.3944;stroke-miterlimit:10;" x1="274.438" y1="1887.474" x2="300.923" y2="1844.94"/>
		
			<line style="fill:none;stroke:#6ADB6A;stroke-width:3.3944;stroke-miterlimit:10;" x1="319.427" y1="1880.954" x2="359.243" y2="1876.006"/>
		
			<line style="fill:none;stroke:#6ADB6A;stroke-width:3.3944;stroke-miterlimit:10;" x1="365.78" y1="1905.078" x2="388.603" y2="1912.572"/>
	</g>
	<g>
		<path style="fill:#6ADB6A;" d="M468.785,1988.827c0,0,21.324-404.064-171.671-351.994s150.547,269.841,150.255,351.994H468.785z"
			/>
		<path style="fill:none;stroke:#40A87B;stroke-width:3.3944;stroke-miterlimit:10;" d="M460.986,1988.827
			c0,0-6.739-211.11-144.311-315.497"/>
		
			<line style="fill:none;stroke:#40A87B;stroke-width:3.3944;stroke-miterlimit:10;" x1="377.013" y1="1734.544" x2="373.576" y2="1661.746"/>
		
			<line style="fill:none;stroke:#40A87B;stroke-width:3.3944;stroke-miterlimit:10;" x1="269.078" y1="1704.38" x2="362.065" y2="1716.5"/>
		
			<line style="fill:none;stroke:#40A87B;stroke-width:3.3944;stroke-miterlimit:10;" x1="305.24" y1="1766.51" x2="403.557" y2="1777.965"/>
		
			<line style="fill:none;stroke:#40A87B;stroke-width:3.3944;stroke-miterlimit:10;" x1="354.399" y1="1828.081" x2="430.337" y2="1838.812"/>
		
			<line style="fill:none;stroke:#40A87B;stroke-width:3.3944;stroke-miterlimit:10;" x1="437.622" y1="1770.551" x2="420.217" y2="1812.839"/>
		
			<line style="fill:none;stroke:#40A87B;stroke-width:3.3944;stroke-miterlimit:10;" x1="409.021" y1="1701.918" x2="394.182" y2="1761.455"/>
		
			<line style="fill:none;stroke:#40A87B;stroke-width:3.3944;stroke-miterlimit:10;" x1="453.871" y1="1841.147" x2="440.004" y2="1868.786"/>
		
			<line style="fill:none;stroke:#40A87B;stroke-width:3.3944;stroke-miterlimit:10;" x1="394.182" y1="1885.158" x2="448.598" y2="1902.314"/>
	</g>
	<path style="fill:#E5F0F8;" d="M1808.115,1996.173c0,0,527.162-1529.878-440.238-1426.321
		c-414.344,44.354-336.994,313.439-519.991,565.209c-118.617,163.195-346.752,29.691-432.244,172.297s14.975,549.225,50.217,688.816
		H1808.115z"/>
	<path style="fill:#E5F0F8;" d="M666.599,650.958c-4.882-4.123-20.389-12.418-28.438-9.615c-6.996,2.436-9.135,15.082-16.309,16.968
		c-4.765,1.253-15.715-1.125-24.981-8.985c0,0-19.051-13.205-19.793-21.472c-0.742-8.267,12.189-12.454,10.223-23.488
		c-1.052-5.902-13.323-19.269-21.709-22.753c-3.084-1.281-6.648-0.489-8.88,1.996c-5.643,6.283-16.699,21.726-10.685,41.174
		c7.91,25.577,35.548,41.824,35.548,41.824s28.251,20.564,49.343,20.166c23.011-0.435,33.319-12.27,37.819-21.191
		C673.237,656.661,671.481,655.081,666.599,650.958z"/>
	<g>
		<g>
			<g>
				<path style="fill:#E5F0F8;" d="M821.534,681.361l18.372-18.243c0.647-0.604,1.272-1.262,1.876-1.973
					c0.604-0.712,1.143-1.456,1.617-2.232c0.474-0.777,0.852-1.595,1.132-2.458c0.28-0.862,0.42-1.768,0.42-2.717
					c0-1.121-0.205-2.135-0.614-3.041c-0.411-0.905-0.97-1.671-1.682-2.296c-0.711-0.625-1.553-1.11-2.523-1.456
					c-0.97-0.345-1.995-0.518-3.073-0.518c-2.242,0-4.098,0.626-5.563,1.876c-1.466,1.251-2.394,2.976-2.781,5.175l-6.728-0.582
					c0.301-2.026,0.895-3.784,1.779-5.272c0.883-1.488,1.983-2.727,3.3-3.72c1.315-0.991,2.824-1.725,4.528-2.2
					c1.703-0.474,3.547-0.712,5.531-0.712c1.983,0,3.849,0.27,5.595,0.808c1.747,0.54,3.277,1.337,4.594,2.394
					c1.315,1.058,2.35,2.372,3.105,3.946c0.754,1.575,1.132,3.418,1.132,5.531c0,1.51-0.227,2.922-0.679,4.237
					c-0.453,1.316-1.046,2.556-1.779,3.72c-0.734,1.164-1.575,2.264-2.523,3.299c-0.95,1.035-1.941,2.049-2.976,3.04l-15.074,14.556
					h23.031v5.434h-30.017V681.361z"/>
			</g>
			<g>
				<path style="fill:#E5F0F8;" d="M876.264,677.867h-19.537v-6.339l18.243-29.37h7.505v30.276h6.469v5.434h-6.469v10.092h-6.211
					V677.867z M876.264,649.533h-0.129l-13.974,22.901h14.103V649.533z"/>
			</g>
			<g>
				<path style="fill:#E5F0F8;" d="M895.024,690.806l-4.528-1.682l20.701-49.813l4.464,1.682L895.024,690.806z"/>
			</g>
			<g>
				<path style="fill:#E5F0F8;" d="M940.567,647.592h-22.189v-5.434h28.789v5.305l-18.243,40.497h-6.987L940.567,647.592z"/>
			</g>
		</g>
		<g>
			<path style="fill:#E5F0F8;" d="M847.461,740.603c-29.091-14.232-47.163-43.178-47.163-75.544
				c0-46.346,37.706-84.051,84.052-84.051s84.052,37.705,84.052,84.051c0,27.229-13.285,52.89-35.538,68.645l-2.768-3.911
				c20.986-14.858,33.515-39.058,33.515-64.734c0-43.704-35.556-79.26-79.26-79.26s-79.26,35.556-79.26,79.26
				c0,30.521,17.043,57.819,44.477,71.24L847.461,740.603z"/>
		</g>
		<g>
			<polygon style="fill:#E5F0F8;" points="923.357,737.233 946.504,734.942 932.946,716.041 			"/>
		</g>
	</g>
	<g>
		<path style="fill:#FFFFFF;" d="M948.855,1876c-10.432-2.753-20.631-5.846-29.57-8.939c-1.605-0.574-3.21-1.148-4.693-1.148
			c-18.335-0.686-34.039-14.211-34.039-39.078c0-24.75,15.125-40.678,35.98-40.678c20.976,0,34.608,16.273,34.608,39.073
			c0,19.828-9.163,32.546-22.002,37.016v0.457c7.679,1.95,16.049,3.784,22.581,4.931L948.855,1876z M940.597,1825.693
			c0-15.471-8.015-31.399-24.4-31.399c-16.852,0-25.1,15.583-24.988,32.313c-0.112,16.39,8.939,31.17,24.522,31.17
			C931.667,1857.777,940.597,1843.338,940.597,1825.693z"/>
	</g>
	<g>
		<rect x="320.095" y="578.13" style="fill:#E5F0F8;" width="78.296" height="78.296"/>
		<rect x="320.095" y="672.085" style="fill:#E5F0F8;" width="78.296" height="78.296"/>
		<rect x="320.095" y="766.04" style="fill:#E5F0F8;" width="78.296" height="78.296"/>
		<polyline style="fill:none;stroke:#FFFFFF;stroke-width:4.9685;stroke-miterlimit:10;" points="324.641,621.572 350.403,644.303 
			391.319,592.779 		"/>
		<polyline style="fill:none;stroke:#FFFFFF;stroke-width:4.9685;stroke-miterlimit:10;" points="324.641,715.021 350.403,737.753 
			391.319,686.229 		"/>
		
			<line style="fill:none;stroke:#FFFFFF;stroke-width:4.9685;stroke-miterlimit:10;" x1="326.662" y1="773.617" x2="388.288" y2="835.243"/>
		
			<line style="fill:none;stroke:#FFFFFF;stroke-width:4.9685;stroke-miterlimit:10;" x1="388.288" y1="773.617" x2="326.662" y2="835.243"/>
	</g>
	<path style="fill:#E5F0F8;" d="M2056.355,696.292l-5.037-2.349l-0.021,0.047l-0.02-0.041c2.614-7.601,4.03-15.759,4.03-24.245
		c0-41.212-33.408-74.615-74.615-74.615c-41.212,0-74.615,33.403-74.615,74.615c0,8.507,1.421,16.681,4.045,24.297v0.005
		l-4.909,2.285c-0.38,0.177-0.542,0.63-0.365,1.01l10.147,21.767c0.177,0.38,0.63,0.547,1.01,0.37l5.034-2.353l0.047,0.099
		l2.515,0.557l9.756,2.171l0.521,0.115c0,0,2.197,1.453,3.691,0.755l6.664-3.108c1.515-0.703,2.171-2.504,1.463-4.019
		l-16.899-36.251c-0.708-1.515-2.509-2.171-4.024-1.463l-6.664,3.108c-1.515,0.708-1.796,3.316-1.796,3.316l-2.431,4.68
		c-1.432-5.539-2.197-11.349-2.197-17.342c0-38.109,30.899-69.008,69.008-69.008c38.109,0,69.003,30.899,69.003,69.008
		c0,5.904-0.739,11.631-2.135,17.097l-2.306-4.436c0,0-0.286-2.614-1.791-3.316l-6.664-3.108c-1.515-0.708-3.316-0.052-4.024,1.463
		l-16.904,36.251c-0.703,1.515-0.047,3.316,1.468,4.019l6.664,3.108c1.515,0.708,3.691-0.755,3.691-0.755l0.276-0.063
		c-10.506,9.887-24.11,16.514-39.198,18.274c-0.76-1.525-2.291-2.598-4.097-2.713l-15.426-0.953
		c-1.869-0.115-3.545,0.823-4.472,2.291c-0.479,0.76-0.755,1.656-0.755,2.624v4.675c0,2.837,2.395,5.086,5.227,4.909l15.426-0.953
		c2.385-0.146,4.285-1.973,4.576-4.285c19.398-2.218,36.537-11.87,48.49-26.042l2.744-0.609l0.045-0.096l5.034,2.347
		c0.38,0.177,0.832,0.013,1.01-0.367l10.15-21.767C2056.9,696.921,2056.735,696.469,2056.355,696.292z M2051.257,694.073
		l-0.075,0.161v-0.004L2051.257,694.073z M2051.174,694.252l-0.002,0.005v0C2051.172,694.255,2051.173,694.253,2051.174,694.252z"/>
	<g>
		<rect x="1049.636" y="1612.707" style="fill:#93ACBF;" width="246.873" height="333.71"/>
		<path style="fill:#93ACBF;" d="M1802.903,1754.172H543.243c-75.061,0-135.911-60.849-135.911-135.911V893.064
			c0-75.061,60.849-135.911,135.911-135.911h1259.66c75.061,0,135.911,60.849,135.911,135.911v725.197
			C1938.814,1693.323,1877.964,1754.172,1802.903,1754.172z"/>
		<path style="fill:#93ACBF;" d="M881.567,1917.775h583.013c5.227,0,9.464,4.237,9.464,9.463v46.542
			c0,5.226-4.237,9.463-9.464,9.463H881.567c-5.227,0-9.463-4.237-9.463-9.463v-46.542
			C872.103,1922.012,876.34,1917.775,881.567,1917.775z"/>
		<rect x="1091.607" y="1612.707" style="fill:#BBDBF3;" width="246.873" height="333.71"/>
		<path style="fill:#BBDBF3;" d="M1844.873,1754.172H585.213c-75.061,0-135.911-60.849-135.911-135.911V893.064
			c0-75.061,60.849-135.911,135.911-135.911h1259.66c75.061,0,135.911,60.849,135.911,135.911v725.197
			C1980.784,1693.323,1919.935,1754.172,1844.873,1754.172z"/>
		<path style="fill:#E5F0F8;" d="M585.215,1703.214c-46.844,0-84.954-38.11-84.954-84.954V893.065
			c0-46.844,38.11-84.954,84.954-84.954h1259.658c46.844,0,84.954,38.11,84.954,84.954v725.195c0,46.844-38.11,84.954-84.954,84.954
			H585.215z"/>
		<path style="fill:#FFFFFF;" d="M1897.955,893.077v725.221c0,24.35-16.53,44.91-39.001,51.057
			c-4.474,1.264-9.188,1.912-14.071,1.912H585.249c-29.269,0-53.073-23.77-53.073-52.97V893.077
			c0-29.268,23.804-53.038,53.073-53.038h1259.634C1874.151,840.039,1897.955,863.809,1897.955,893.077z"/>
		<path style="fill:#BBDBF3;" d="M923.537,1917.775h583.013c5.226,0,9.463,4.237,9.463,9.463v46.542
			c0,5.226-4.237,9.463-9.463,9.463H923.537c-5.227,0-9.463-4.237-9.463-9.463v-46.542
			C914.073,1922.012,918.31,1917.775,923.537,1917.775z"/>
		<path style="fill:#BBDBF3;" d="M1897.948,893.09v20.478H532.174V893.09c0-29.268,23.79-53.058,53.058-53.058H1844.89
			C1874.158,840.032,1897.948,863.822,1897.948,893.09z"/>
		<path style="fill:#E5F0F8;" d="M861.107,1064.279H562.795c-6.275,0-11.361-5.086-11.361-11.361V941.166
			c0-6.275,5.086-11.361,11.361-11.361h298.313c6.275,0,11.361,5.086,11.361,11.361v111.752
			C872.469,1059.193,867.382,1064.279,861.107,1064.279z"/>
		<path style="fill:#E5F0F8;" d="M849.061,1653.165H574.842c-12.928,0-23.408-10.48-23.408-23.408v-524.035
			c0-12.928,10.48-23.408,23.408-23.408h274.219c12.928,0,23.408,10.48,23.408,23.408v524.035
			C872.469,1642.684,861.989,1653.165,849.061,1653.165z"/>
		<rect x="577.506" y="949.155" style="fill:#FFFFFF;" width="163.029" height="13.356"/>
		<rect x="577.506" y="975.778" style="fill:#FFFFFF;" width="211.571" height="13.356"/>
		<rect x="577.506" y="1002.401" style="fill:#FFFFFF;" width="101.302" height="13.356"/>
		<rect x="577.506" y="1029.024" style="fill:#FFFFFF;" width="38.609" height="13.356"/>
		<rect x="811.101" y="1029.024" style="fill:#FFFFFF;" width="38.609" height="13.356"/>
		<g>
			<rect x="584.143" y="1107.606" style="fill:#FFFFFF;" width="90.933" height="17.83"/>
			<rect x="610.294" y="1152.776" style="fill:#FFFFFF;" width="230.399" height="12.184"/>
			<rect x="584.143" y="1152.776" style="fill:#FFFFFF;" width="15.378" height="15.378"/>
			<rect x="610.294" y="1179.818" style="fill:#FFFFFF;" width="230.399" height="12.184"/>
			<rect x="584.143" y="1179.818" style="fill:#FFFFFF;" width="15.378" height="15.378"/>
			<rect x="610.294" y="1206.86" style="fill:#FFFFFF;" width="230.399" height="12.184"/>
			<rect x="584.143" y="1206.86" style="fill:#FFFFFF;" width="15.378" height="15.378"/>
			<rect x="610.294" y="1233.902" style="fill:#FFFFFF;" width="230.399" height="12.184"/>
			<rect x="584.143" y="1233.902" style="fill:#FFFFFF;" width="15.378" height="15.378"/>
			<rect x="610.294" y="1260.945" style="fill:#FFFFFF;" width="230.399" height="12.184"/>
			<rect x="584.143" y="1260.945" style="fill:#FFFFFF;" width="15.378" height="15.378"/>
			<rect x="610.294" y="1287.987" style="fill:#FFFFFF;" width="230.399" height="12.184"/>
			<rect x="584.143" y="1287.987" style="fill:#FFFFFF;" width="15.378" height="15.378"/>
			<rect x="610.294" y="1315.029" style="fill:#FFFFFF;" width="230.399" height="12.184"/>
			<rect x="584.143" y="1315.029" style="fill:#FFFFFF;" width="15.378" height="15.378"/>
			<rect x="610.294" y="1342.071" style="fill:#FFFFFF;" width="230.399" height="12.184"/>
			<rect x="584.143" y="1342.071" style="fill:#FFFFFF;" width="15.378" height="15.378"/>
			<rect x="610.294" y="1369.114" style="fill:#FFFFFF;" width="230.399" height="12.184"/>
			<rect x="584.143" y="1369.114" style="fill:#FFFFFF;" width="15.378" height="15.378"/>
			<rect x="610.294" y="1396.156" style="fill:#FFFFFF;" width="230.399" height="12.184"/>
			<rect x="584.143" y="1396.156" style="fill:#FFFFFF;" width="15.378" height="15.378"/>
			<rect x="610.294" y="1423.198" style="fill:#FFFFFF;" width="230.399" height="12.184"/>
			<rect x="584.143" y="1423.198" style="fill:#FFFFFF;" width="15.378" height="15.378"/>
			<rect x="610.294" y="1450.24" style="fill:#FFFFFF;" width="230.399" height="12.184"/>
			<rect x="584.143" y="1450.24" style="fill:#FFFFFF;" width="15.378" height="15.378"/>
			<rect x="610.294" y="1477.283" style="fill:#FFFFFF;" width="230.399" height="12.184"/>
			<rect x="584.143" y="1477.283" style="fill:#FFFFFF;" width="15.378" height="15.378"/>
			<rect x="610.294" y="1504.325" style="fill:#FFFFFF;" width="230.399" height="12.184"/>
			<rect x="584.143" y="1504.325" style="fill:#FFFFFF;" width="15.378" height="15.378"/>
			<rect x="610.294" y="1531.367" style="fill:#FFFFFF;" width="230.399" height="12.184"/>
			<rect x="584.143" y="1531.367" style="fill:#FFFFFF;" width="15.378" height="15.378"/>
			<rect x="610.294" y="1558.409" style="fill:#FFFFFF;" width="230.399" height="12.184"/>
			<rect x="584.143" y="1558.409" style="fill:#FFFFFF;" width="15.378" height="15.378"/>
			<rect x="610.294" y="1585.452" style="fill:#FFFFFF;" width="230.399" height="12.184"/>
			<rect x="584.143" y="1585.452" style="fill:#FFFFFF;" width="15.378" height="15.378"/>
			<rect x="610.294" y="1612.494" style="fill:#FFFFFF;" width="230.399" height="12.184"/>
			<rect x="584.143" y="1612.494" style="fill:#FFFFFF;" width="15.378" height="15.378"/>
		</g>
		<rect x="914.569" y="929.805" style="fill:#E5F0F8;" width="195.631" height="195.631"/>
		<rect x="1164.148" y="929.805" style="fill:#E5F0F8;" width="195.631" height="195.631"/>
		<rect x="1413.728" y="929.805" style="fill:#E5F0F8;" width="195.631" height="195.631"/>
		<rect x="1663.307" y="929.805" style="fill:#E5F0F8;" width="195.631" height="195.631"/>
		<rect x="914.569" y="1163.129" style="fill:#E5F0F8;" width="195.631" height="195.631"/>
		<rect x="1164.148" y="1163.129" style="fill:#E5F0F8;" width="195.631" height="195.631"/>
		<rect x="1413.728" y="1163.129" style="fill:#E5F0F8;" width="195.631" height="195.631"/>
		<rect x="1663.307" y="1163.129" style="fill:#E5F0F8;" width="195.631" height="195.631"/>
		<rect x="914.569" y="1396.453" style="fill:#E5F0F8;" width="195.631" height="195.631"/>
		<rect x="1164.148" y="1396.453" style="fill:#E5F0F8;" width="195.631" height="195.631"/>
		<rect x="1413.728" y="1396.453" style="fill:#E5F0F8;" width="195.631" height="195.631"/>
		<rect x="1663.307" y="1396.453" style="fill:#E5F0F8;" width="195.631" height="195.631"/>
		<rect x="914.578" y="1629.774" style="fill:#E5F0F8;" width="195.624" height="41.495"/>
		<rect x="1164.161" y="1629.774" style="fill:#E5F0F8;" width="195.624" height="41.495"/>
		<rect x="1413.711" y="1629.774" style="fill:#E5F0F8;" width="195.658" height="41.495"/>
		<path style="fill:#E5F0F8;" d="M1858.953,1629.774v39.582c-4.474,1.264-9.188,1.912-14.071,1.912h-181.587v-41.495H1858.953z"/>
		<path style="fill:#2EC6FC;" d="M1864.91,1635.243h-677.5c-7.918,0-14.337-6.419-14.337-14.337V580.993
			c0-7.918,6.419-14.337,14.337-14.337h677.5c7.918,0,14.337,6.419,14.337,14.337v1039.913
			C1879.247,1628.824,1872.828,1635.243,1864.91,1635.243z"/>
		<path style="fill:#FFFFFF;" d="M1869.023,581.012v1039.917c0,2.25-1.825,4.105-4.105,4.105h-677.506
			c-2.281,0-4.105-1.855-4.105-4.105V581.012c0-2.281,1.824-4.166,4.105-4.166h677.506
			C1867.198,576.846,1869.023,578.731,1869.023,581.012z"/>
		<path style="fill:#2EC6FC;" d="M1869.03,581.003v128.768H1183.3V581.003c0-2.271,1.839-4.146,4.11-4.146h677.511
			C1867.191,576.857,1869.03,578.731,1869.03,581.003z"/>
		<g>
			<path style="fill:#FFFFFF;" d="M1317.564,643.314c0,30.704-24.896,55.6-55.6,55.6c-16.748,0-31.762-7.406-41.936-19.134
				c-8.531-9.747-13.664-22.51-13.664-36.467c0-30.704,24.896-55.6,55.6-55.6C1292.668,587.713,1317.564,612.61,1317.564,643.314z"
				/>
			<path style="fill:#2EC6FC;" d="M1261.964,641.22c-23.951-1.351-36.039,20.304-41.936,38.56
				c10.174,11.728,25.189,19.134,41.936,19.134c16.747,0,31.762-7.406,41.936-19.134
				C1298.003,661.524,1285.915,639.87,1261.964,641.22z"/>
			<path style="fill:#2EC6FC;stroke:#FFFFFF;stroke-width:1.8025;stroke-miterlimit:10;" d="M1282.204,623.634
				c0,16.454-9.06,33.681-20.237,33.681s-20.237-17.227-20.237-33.681c0-16.454,9.06-25.904,20.237-25.904
				S1282.204,607.18,1282.204,623.634z"/>
		</g>
		<rect x="1340.422" y="587.713" style="fill:#FFFFFF;" width="185.743" height="14.149"/>
		<rect x="1340.422" y="613.373" style="fill:#FFFFFF;" width="232.943" height="14.149"/>
		<g>
			<rect x="1822.464" y="601.941" style="fill:#FFFFFF;" width="18.841" height="18.841"/>
			<rect x="1822.464" y="633.893" style="fill:#FFFFFF;" width="18.841" height="18.841"/>
			<rect x="1822.464" y="665.845" style="fill:#FFFFFF;" width="18.841" height="18.841"/>
		</g>
		<path style="fill:#2EC6FC;" d="M1837.065,800.174h-205.872c-2.342,0-4.24-1.898-4.24-4.24v-52.763c0-2.342,1.898-4.24,4.24-4.24
			h205.872c2.342,0,4.24,1.898,4.24,4.24v52.763C1841.305,798.276,1839.407,800.174,1837.065,800.174z"/>
		<polygon style="fill:#2EC6FC;" points="1841.305,787.051 1841.305,819.617 1819.189,800.174 		"/>
		<rect x="1666.689" y="765.36" style="fill:#FFFFFF;" width="134.881" height="8.384"/>
		<g>
			<path style="fill:#2EC6FC;" d="M1835.51,908.438h-344.934c-3.2,0-5.795-2.594-5.795-5.795v-57.188c0-3.2,2.594-5.795,5.795-5.795
				h344.934c3.2,0,5.795,2.594,5.795,5.795v57.188C1841.305,905.843,1838.711,908.438,1835.51,908.438z"/>
			<polygon style="fill:#2EC6FC;" points="1841.305,893.188 1841.305,925.754 1819.189,906.311 			"/>
			<g>
				<rect x="1512.487" y="857.402" style="fill:#FFFFFF;" width="301.113" height="10.45"/>
				<rect x="1512.487" y="880.246" style="fill:#FFFFFF;" width="301.113" height="10.45"/>
			</g>
		</g>
		<g>
			<path style="fill:#2EC6FC;" d="M1837.549,1423.316h-231.826c-2.074,0-3.756-1.682-3.756-3.756v-35.534
				c0-2.074,1.682-3.756,3.756-3.756h231.826c2.074,0,3.756,1.682,3.756,3.756v35.534
				C1841.305,1421.635,1839.623,1423.316,1837.549,1423.316z"/>
			<polygon style="fill:#2EC6FC;" points="1841.305,1408.813 1841.305,1441.379 1819.189,1421.937 			"/>
			<g>
				<rect x="1625.66" y="1396.568" style="fill:#FFFFFF;" width="191.953" height="10.45"/>
			</g>
		</g>
		<g>
			<path style="fill:#6ADB6A;" d="M1216.819,1341.058h344.934c3.2,0,5.795-2.594,5.795-5.795v-57.188c0-3.2-2.594-5.795-5.795-5.795
				h-344.934c-3.2,0-5.795,2.594-5.795,5.795v57.188C1211.025,1338.464,1213.619,1341.058,1216.819,1341.058z"/>
			<polygon style="fill:#6ADB6A;" points="1211.025,1325.808 1211.025,1358.374 1233.14,1338.932 			"/>
			<g>
				
					<rect x="1238.73" y="1290.022" transform="matrix(-1 -1.224647e-16 1.224647e-16 -1 2778.5732 2590.4951)" style="fill:#FFFFFF;" width="301.113" height="10.45"/>
				
					<rect x="1238.73" y="1312.867" transform="matrix(-1 -1.224647e-16 1.224647e-16 -1 2778.5732 2636.1846)" style="fill:#FFFFFF;" width="301.113" height="10.45"/>
			</g>
		</g>
		<g>
			<path style="fill:#6ADB6A;" d="M1214.251,1531.58h104.047c1.782,0,3.226-1.444,3.226-3.226v-62.325
				c0-1.782-1.444-3.226-3.226-3.226h-104.047c-1.782,0-3.226,1.444-3.226,3.226v62.325
				C1211.025,1530.135,1212.469,1531.58,1214.251,1531.58z"/>
			<polygon style="fill:#6ADB6A;" points="1211.025,1516.33 1211.025,1548.896 1233.14,1529.453 			"/>
			<g>
				<path style="fill:#FFFFFF;" d="M1288.285,1502.489c1.043,0,1.986,0.425,2.676,1.111c0.686,0.686,1.111,1.637,1.111,2.676
					c0,2.083-1.704,3.787-3.787,3.787c2.083,0,3.787,1.704,3.787,3.786c0,2.083-1.704,3.787-3.787,3.787h-34.139v-30.293h4.035
					c1.738-1.279,4.426-3.357,6.82-5.608c3.917-3.686,1.818-9.875,4.153-10.161c2.339-0.286,5.327,2.697,5.932,6.833
					c0.522,3.568-3.034,7.83-4.026,8.936h17.225c2.083,0,3.787,1.704,3.787,3.787c0,2.083-1.704,3.787-3.787,3.787
					c2.083,0,3.787,1.704,3.787,3.787S1290.368,1502.489,1288.285,1502.489z"/>
				<path style="fill:#FFFFFF;" d="M1254.146,1485.551v33.794c0,1.918-1.569,3.484-3.484,3.484h-6.702
					c-1.919,0-3.484-1.565-3.484-3.484v-33.794c0-1.914,1.565-3.484,3.484-3.484h6.702
					C1252.577,1482.067,1254.146,1483.636,1254.146,1485.551z"/>
				<line style="fill:#FFFFFF;" x1="1254.146" y1="1487.343" x2="1254.146" y2="1501.351"/>
				<line style="fill:#FFFFFF;" x1="1288.285" y1="1494.916" x2="1277.517" y2="1494.938"/>
				<line style="fill:#FFFFFF;" x1="1288.285" y1="1502.489" x2="1278.139" y2="1502.496"/>
				<line style="fill:#FFFFFF;" x1="1288.285" y1="1510.063" x2="1277.821" y2="1509.888"/>
			</g>
		</g>
		<g>
			<path style="fill:#2EC6FC;" d="M1832.371,1232.795h-377.681c-4.934,0-8.935-4-8.935-8.934v-129.499c0-4.934,4-8.934,8.935-8.934
				h377.681c4.934,0,8.934,4,8.934,8.934v129.499C1841.305,1228.795,1837.305,1232.795,1832.371,1232.795z"/>
			<polygon style="fill:#2EC6FC;" points="1841.305,1216.512 1841.305,1249.078 1819.189,1229.636 			"/>
			<g>
				<rect x="1463.691" y="1105.181" style="fill:#FFFFFF;" width="359.679" height="10.45"/>
				<rect x="1463.691" y="1129.371" style="fill:#FFFFFF;" width="359.679" height="10.45"/>
				<rect x="1463.691" y="1152.57" style="fill:#FFFFFF;" width="359.679" height="10.45"/>
				<rect x="1463.691" y="1177.58" style="fill:#FFFFFF;" width="359.679" height="10.45"/>
				<rect x="1463.691" y="1202.591" style="fill:#FFFFFF;" width="216.895" height="10.45"/>
			</g>
		</g>
		<g>
			<path style="fill:#6ADB6A;" d="M1217.942,1046.106h342.69c3.82,0,6.917-3.097,6.917-6.917v-84.156
				c0-3.82-3.097-6.917-6.917-6.917h-342.69c-3.82,0-6.917,3.097-6.917,6.917v84.156
				C1211.025,1043.01,1214.121,1046.106,1217.942,1046.106z"/>
			<polygon style="fill:#6ADB6A;" points="1211.025,1031.855 1211.025,1064.421 1233.14,1044.978 			"/>
			<g>
				
					<rect x="1238.73" y="961.29" transform="matrix(-1 -1.224647e-16 1.224647e-16 -1 2778.5732 1933.0305)" style="fill:#FFFFFF;" width="301.113" height="10.45"/>
				
					<rect x="1238.73" y="981.688" transform="matrix(-1 -1.224647e-16 1.224647e-16 -1 2778.5732 1973.8253)" style="fill:#FFFFFF;" width="301.113" height="10.45"/>
				
					<rect x="1238.73" y="1002.085" transform="matrix(-1 -1.224647e-16 1.224647e-16 -1 2778.5732 2014.6201)" style="fill:#FFFFFF;" width="301.113" height="10.45"/>
				
					<rect x="1238.73" y="1022.482" transform="matrix(-1 -1.224647e-16 1.224647e-16 -1 2778.5732 2055.4148)" style="fill:#FFFFFF;" width="301.113" height="10.45"/>
			</g>
		</g>
		<path style="fill:#2EC6FC;" d="M1869.023,1569.386v51.543c0,2.25-1.825,4.105-4.105,4.105h-677.506
			c-2.281,0-4.105-1.855-4.105-4.105v-51.543H1869.023z"/>
		<rect x="1201.392" y="1576.003" style="fill:#FFFFFF;" width="486.266" height="42.413"/>
	</g>
	<g>
		<path style="fill:#E7888B;" d="M1906.021,1497.936c0,33.975-50.313,94.264-47.999,161.347
			c2.313,67.083,14.458,113.059-18.506,114.794c-32.963,1.735-179.564,0-179.564,0h-65.059c0,0-12.434-65.204,30.072-69.975
			c42.505-4.771,88.805,1.402,96.722-24.723c8.675-28.626,3.036-80.674,1.735-112.77c-1.301-32.096-13.446-97.589,28.192-122.745
			c41.638-25.156,90.475-17.647,121.01-3.47C1896.912,1451.672,1906.021,1468.153,1906.021,1497.936z"/>
		<path style="fill:#BBDBF3;" d="M1671.223,1983.776L1671.223,1983.776c2.575,0,4.662-2.088,4.662-4.663v-5.205
			c0-2.575-2.088-4.662-4.662-4.662l0,0c-2.575,0-4.663,2.088-4.663,4.662v5.205
			C1666.561,1981.689,1668.648,1983.776,1671.223,1983.776z"/>
		<polygon style="fill:#BBDBF3;" points="1721.541,1948.436 1671.223,1969.246 1721.541,1960.58 		"/>
		
			<rect x="1517.821" y="1648.819" transform="matrix(-1 -1.224647e-16 1.224647e-16 -1 3048.4199 3634.1516)" style="fill:#586773;" width="12.779" height="336.514"/>
		<polygon style="fill:#A06753;" points="1519.976,1951.933 1478.584,1952.407 1487.014,1890.212 1535.381,1906.922 		"/>
		<polygon style="fill:#322A28;" points="1521.386,1983.776 1501.85,1983.683 1500.656,1971.066 1489.956,1983.627 
			1443.866,1983.408 1478.584,1952.407 1519.976,1951.933 		"/>
		
			<line style="fill:none;stroke:#D1DDFF;stroke-width:2.5898;stroke-miterlimit:10;" x1="1490.164" y1="1960.425" x2="1471.736" y2="1960.28"/>
		
			<line style="fill:none;stroke:#D1DDFF;stroke-width:2.5898;stroke-miterlimit:10;" x1="1485.677" y1="1966.755" x2="1467.25" y2="1966.609"/>
		<path style="fill:#0775EF;" d="M1573.368,1662.302c21.884,7.855,33.257,31.963,25.402,53.847l-55.064,198.169l-67.853-10.552
			l41.264-204.289l0.016,0.003c0.23-3.927,0.991-7.886,2.388-11.776C1527.376,1665.82,1551.484,1654.447,1573.368,1662.302z"/>
		<path style="fill:#F9E181;" d="M1613.718,1637.44L1613.718,1637.44c12.206,7.492,28.323,3.636,35.815-8.57l56.318-91.75
			c7.492-12.206,3.636-28.323-8.57-35.815l0,0c-12.206-7.492-28.323-3.636-35.816,8.57l-56.318,91.75
			C1597.655,1613.831,1601.512,1629.948,1613.718,1637.44z"/>
		<path style="fill:#088CFF;" d="M1786.023,1669.817c0,0,7.589,8.624,10.607,15.656c3.019,7.033-33.02,3.154-33.02,3.154
			l3.928-33.784L1786.023,1669.817z"/>
		<path style="fill:#0775EF;" d="M1516.475,1703.728L1516.475,1703.728c0,24.152,19.761,43.913,43.913,43.913l168.698,0
			c24.152,0,43.913-19.761,43.913-43.913v0c0-24.152-19.761-43.913-43.913-43.913l-168.698,0
			C1536.236,1659.815,1516.475,1679.576,1516.475,1703.728z"/>
		<path style="fill:#322A28;" d="M1690.274,1428.283c0,0-11.145-22.686,3.466-22.03
			C1708.35,1406.908,1690.274,1428.283,1690.274,1428.283z"/>
		<path style="fill:#088CFF;" d="M1546.224,1725.327L1546.224,1725.327c2.286,24.044,23.828,41.846,47.871,39.56l167.941-15.965
			c24.044-2.286,41.846-23.828,39.56-47.871v0c-2.286-24.044-23.828-41.846-47.871-39.56l-167.941,15.965
			C1561.74,1679.742,1543.938,1701.284,1546.224,1725.327z"/>
		<path style="fill:#F9E181;" d="M1748.75,1486.817l45.572,21.462c0,0-10.132,116.492-11.18,129.325
			c-1.048,12.833,2.881,32.213,2.881,32.213h-109.21c0,0,1.31-62.855-6.024-80.402c-4.968-11.887-8.381-19.118-5.5-32.737
			c2.881-13.619,12.571-34.046,9.166-57.617l28.023-11.261L1748.75,1486.817z"/>
		<path style="fill:#A06753;" d="M1702.468,1434.821v52.988c0,0,0,0.647,0.129,1.683c0.544,4.325,3.341,15.436,17.741,15.28
			c13.156-0.155,22.35-9.815,26.261-14.892c1.425-1.813,2.15-3.056,2.15-3.056l-6.63-52.004H1702.468z"/>
		<polygon style="fill:#A06753;" points="1673.978,1951.933 1632.586,1952.407 1623.799,1924.343 1669.017,1920.903 		"/>
		<polygon style="fill:#824C3A;" points="1702.479,1487.8 1726.037,1457.721 1702.479,1453.184 		"/>
		<path style="fill:#A06753;" d="M1701.387,1466.952c9.381,3.057,22.385-0.667,31.588-10.331
			c9.202-9.664,29.877-45.844,2.281-62.696c-27.626-16.844-43.94,11.044-44.655,15.361c0,0-0.274,15.218-0.44,25.943
			c-0.063,2.728-0.104,5.153-0.132,6.979c0.009,0.295-0.02,0.568-0.019,0.832
			C1689.878,1451.442,1692.014,1463.926,1701.387,1466.952z"/>
		<path style="fill:#F9E181;" d="M1859.228,1639.571L1859.228,1639.571c11.691-8.274,14.486-24.608,6.212-36.299l-62.192-87.874
			c-8.274-11.691-24.608-14.486-36.299-6.212v0c-11.691,8.274-14.486,24.608-6.212,36.299l62.192,87.874
			C1831.203,1645.05,1847.537,1647.845,1859.228,1639.571z"/>
		<polygon style="fill:#322A28;" points="1675.388,1983.776 1655.852,1983.683 1654.658,1971.066 1643.958,1983.627 
			1597.868,1983.408 1632.586,1952.407 1673.978,1951.933 		"/>
		<path style="fill:#322A28;" d="M1688.526,1404.45c-0.404,5.932,2.949,14.253,20.807,13.598
			c17.858-0.655,20.97,8.028,19.168,15.236c0,0,3.768-4.032,2.785-9.061c0,0,6.39,7.333,3.768,14.832c0,0,4.565-7.197,7.361-1.896
			c2.796,5.3-0.922,9.491,2.739,21.485c0,0-1.797-11.886,4.454-18.213c6.252-6.327,12.723-66.617-33.232-51.861
			C1716.378,1388.57,1690.193,1379.958,1688.526,1404.45z"/>
		<path style="fill:#088CFF;" d="M1579.973,1680.073c22.898-4.037,44.733,11.252,48.771,34.15l52.107,211.397l-64.992,12.548
			l-66.281-197.911l0.016-0.005c-1.748-3.523-3.052-7.339-3.769-11.409C1541.786,1705.945,1557.075,1684.11,1579.973,1680.073z"/>
		
			<line style="fill:none;stroke:#D1DDFF;stroke-width:2.5898;stroke-miterlimit:10;" x1="1644.166" y1="1960.425" x2="1625.738" y2="1960.28"/>
		
			<line style="fill:none;stroke:#D1DDFF;stroke-width:2.5898;stroke-miterlimit:10;" x1="1639.679" y1="1966.755" x2="1621.252" y2="1966.609"/>
		<path style="fill:#A06753;" d="M1737.413,1438.106c-1.629,4.952-1.589,8.134,2.3,9.413c3.888,1.279,9.273-0.817,10.902-5.769
			c1.629-4.952-0.202-10.004-4.09-11.283C1742.636,1429.188,1739.042,1433.154,1737.413,1438.106z"/>
		
			<path style="fill:none;stroke:#724638;stroke-width:0.6475;stroke-linecap:round;stroke-linejoin:round;stroke-miterlimit:10;" d="
			M1747.268,1435.453c0,0-6.234-0.297-6.777,4.978c0,0,2.043-1.875,5.159-1.32"/>
		<path style="fill:#322A28;" d="M1714.373,1430.95c0.012,2.014-1.034,3.653-2.337,3.661c-1.303,0.008-2.369-1.619-2.381-3.633
			c-0.012-2.014,1.034-3.653,2.337-3.661S1714.36,1428.936,1714.373,1430.95z"/>
		<path style="fill:#322A28;" d="M1697.155,1429.491c0.012,2.014-1.034,3.653-2.337,3.661c-1.303,0.008-2.369-1.619-2.381-3.633
			c-0.012-2.014,1.034-3.653,2.337-3.661C1696.077,1425.85,1697.143,1427.476,1697.155,1429.491z"/>
		<path style="fill:#FFFFFF;" d="M1708.004,1454.339c-2.376,0.824-4.971-0.434-5.795-2.81l8.605-2.985
			C1711.638,1450.92,1710.38,1453.514,1708.004,1454.339z"/>
		<path style="fill:none;stroke:#2C3447;stroke-width:0.9612;stroke-miterlimit:10;" d="M1718.936,1426.876
			c0,0-4.073-4.995-8.775-3.151"/>
		<path style="fill:none;stroke:#2C3447;stroke-width:0.9612;stroke-miterlimit:10;" d="M1696.764,1422.906
			c0,0-2.94-0.53-6.049,2.669"/>
		<path style="fill:none;stroke:#2C3447;stroke-width:0.9612;stroke-miterlimit:10;" d="M1703.241,1429.743
			c0,0-0.171,9.981-6.02,11.237c0,0,1.873,1.684,4.212,2.368"/>
		<path style="fill:#A14C53;" d="M1711.187,1441.935c0.491,1.918,3.77,2.735,7.324,1.825c3.554-0.909,6.038-3.201,5.547-5.119
			c-0.491-1.918-3.77-2.735-7.324-1.825C1713.18,1437.726,1710.696,1440.018,1711.187,1441.935z"/>
		<path style="fill:#A14C53;" d="M1690.03,1442.208c2.137,0.082,3.851-0.589,4.279-1.889c0.558-1.697-1.241-3.817-4.147-5.091
			C1690.099,1437.957,1690.058,1440.382,1690.03,1442.208z"/>
		<path style="fill:#A06753;" d="M1651.901,1622.16c6.25-14.398,0.966-30.69-11.743-36.207l-115.869-32.942
			c-3.621-1.947-7.686-4.331-10.811-6.716c-7.265-5.543-28.774-18.275-30.585-15.164c-1.81,3.112,11.158,14.822,9.327,15.505
			c-1.831,0.683-13.35-5.686-18.046-8.792c-4.696-3.105-13.689-11.383-16.781-10.256c-3.092,1.128-2.661,5.956-2.661,5.956
			s-3.045-3.579-4.912-1.248c-1.867,2.332,1.526,9.061,1.526,9.061s-1.491-2.165-2.912,0.918
			c-1.421,3.083,7.063,11.359,7.063,11.359s-2.185-0.938-2.944,1.548c-0.759,2.486,11.588,12.125,22.337,16.003
			c9.595,3.461,33.309,9.153,38.292,10.336l104.249,56.786C1630.14,1643.823,1645.651,1636.557,1651.901,1622.16z"/>
		
			<line style="fill:none;stroke:#2C3447;stroke-width:1.3312;stroke-miterlimit:10;" x1="1785.267" y1="1598.176" x2="1769.809" y2="1565.823"/>
		<path style="fill:none;stroke:#FFFFFF;stroke-width:1.0964;stroke-miterlimit:10;" d="M1738.583,1449.17
			c0.016,2.117,1.745,3.82,3.862,3.805c2.117-0.016,3.82-1.745,3.805-3.862s-1.745-3.82-3.862-3.805
			S1738.568,1447.053,1738.583,1449.17z"/>
		<path style="fill:#A06753;" d="M1871.023,1614.961c0.631,15.683-10.179,28.969-24.022,29.526l-119.947-11.108
			c-4.08,0.508-26.382-1.681-32.208-5.632c-3.463-2.349-8.797-2.899-13.79-0.3c-5.655,2.943-10.549,4.968-12.392,3.186
			c-2.367-2.288,11.609-8.362,11.243-9.461c-0.369-1.106-7.681,2.777-11.217,4.583c-3.948,2.016-8.414,2.299-9.16,0.906
			c-1.866-3.487,6.246-8.376,6.246-8.376s-11.183,6.149-12.475,3.01c-0.749-1.818,4.414-5.753,8.65-8.003
			c2.893-1.536,13.615-5.499,13.102-6.927c-0.33-0.916-10.302,3.754-12.38,4.408c-3.983,1.253-10.084,1.189-9.962-0.476
			c0.19-2.592,22.589-13.7,35.982-10.874c12.917,2.726,33.078,4.048,38.152,4.744l117.863-16.709
			C1858.55,1586.903,1870.391,1599.278,1871.023,1614.961z"/>
		<path style="fill:none;stroke:#2C3447;stroke-width:1.3312;stroke-miterlimit:10;" d="M1671.166,1590.422
			c0,0-8.208-17.265-6.875-26.233c1.333-8.967,8.638-33.197,9.602-40.638"/>
		
			<ellipse transform="matrix(0.2662 -0.9639 0.9639 0.2662 -38.8059 2698.0212)" style="fill:#322A28;" cx="1752.735" cy="1374.499" rx="22.609" ry="16.486"/>
		<rect x="1749.3" y="1777.257" style="fill:#BBDBF3;" width="13.879" height="183.323"/>
		<rect x="1721.541" y="1948.436" style="fill:#BBDBF3;" width="69.397" height="12.144"/>
		<rect x="1736.144" y="1774.618" style="fill:#BBDBF3;" width="40.192" height="11.855"/>
		<path style="fill:#BBDBF3;" d="M1841.256,1983.776L1841.256,1983.776c-2.575,0-4.663-2.088-4.663-4.663v-5.205
			c0-2.575,2.088-4.662,4.663-4.662l0,0c2.575,0,4.663,2.088,4.663,4.662v5.205
			C1845.919,1981.689,1843.831,1983.776,1841.256,1983.776z"/>
		<polygon style="fill:#BBDBF3;" points="1790.938,1948.436 1841.256,1969.246 1790.938,1960.58 		"/>
		
			<rect x="1883.754" y="1648.819" transform="matrix(-1 -1.224647e-16 1.224647e-16 -1 3780.2866 3634.1516)" style="fill:#93ACBF;" width="12.779" height="336.514"/>
		<path style="fill:#E7888B;" d="M1860.48,1701.53c0,0-161.569-20.429-194.456,9.059c-28.941,25.949-6.072,63.488-6.072,63.488
			l159.612,0.541L1860.48,1701.53z"/>
		
			<rect x="1731.882" y="1648.819" transform="matrix(-1 -1.224647e-16 1.224647e-16 -1 3476.5427 3634.1516)" style="fill:#93ACBF;" width="12.779" height="336.514"/>
		
			<rect x="1365.948" y="1648.819" transform="matrix(-1 -1.224647e-16 1.224647e-16 -1 2744.6758 3634.1516)" style="fill:#586773;" width="12.779" height="336.514"/>
		<g>
			<path style="fill:#BBDBF3;" d="M1595.214,1604.168H1417.13c-3.544,0-6.481-2.747-6.718-6.283l-7.377-109.925
				c-0.261-3.887,2.822-7.184,6.718-7.184h178.084c3.544,0,6.481,2.747,6.718,6.282l7.377,109.925
				C1602.193,1600.871,1599.111,1604.168,1595.214,1604.168z"/>
			<polygon style="fill:#BBDBF3;" points="1600.63,1601.419 1595.65,1606.217 1587.012,1592.928 1599.433,1591.873 			"/>
			<polygon style="fill:#BBDBF3;" points="1405.566,1482.238 1401.167,1486.325 1410.409,1492.713 1416.497,1486.219 
				1409.597,1482.238 			"/>
			<path style="fill:#93ACBF;" d="M1591.218,1607.905h-178.084c-3.544,0-6.481-2.747-6.718-6.282l-7.377-109.925
				c-0.261-3.887,2.822-7.184,6.718-7.184h178.084c3.544,0,6.481,2.747,6.718,6.282l7.377,109.925
				C1598.197,1604.609,1595.114,1607.905,1591.218,1607.905z"/>
			<polygon style="fill:#93ACBF;" points="1518.875,1581.391 1513.548,1633.142 1470.711,1633.142 1478.992,1552.714 
				1516.252,1552.714 			"/>
			<polygon style="fill:#BBDBF3;" points="1507.985,1633.152 1465.123,1633.152 1473.403,1552.704 1516.266,1552.704 			"/>
			<path style="fill:#93ACBF;" d="M1545.976,1643.624h-94.979v-5.723c0-2.623,2.126-4.749,4.749-4.749h85.481
				c2.623,0,4.749,2.126,4.749,4.749V1643.624z"/>
			<path style="fill:#BBDBF3;" d="M1529.172,1643.624h-94.979v-5.723c0-2.623,2.126-4.749,4.749-4.749h85.481
				c2.623,0,4.749,2.126,4.749,4.749V1643.624z"/>
		</g>
		
			<rect x="1348.843" y="1643.624" transform="matrix(-1 -1.224647e-16 1.224647e-16 -1 3147.7922 3301.0811)" style="fill:#586773;" width="450.106" height="13.833"/>
		
			<rect x="1727.481" y="1643.624" transform="matrix(-1 -1.224647e-16 1.224647e-16 -1 3641.5764 3301.0811)" style="fill:#93ACBF;" width="186.615" height="13.833"/>
		<path style="fill:#FFFFFF;" d="M1566.002,1643.624h132.212v-4.266c0-1.832-1.485-3.318-3.318-3.318H1569.32
			c-1.832,0-3.318,1.485-3.318,3.318V1643.624z"/>
	</g>
	<path style="fill:#0775EF;" d="M1955.132,2023.315H380.208c-10.02,0-18.143-8.123-18.143-18.143v-3.967
		c0-10.02,8.123-18.143,18.143-18.143h1574.924c10.02,0,18.143,8.123,18.143,18.143v3.967
		C1973.275,2015.192,1965.152,2023.315,1955.132,2023.315z"/>
	<g>
		<polygon style="fill:#586773;" points="356.938,1425.949 386.436,1382.498 400.342,1451.507 378.64,1507.354 		"/>
		<path style="fill:#586773;" d="M778.372,1982.865H466.524c-7,0-13.697-5.645-14.958-12.609l-96.344-532.106
			c-1.274-7.037-0.267-14.212,6.771-14.212l308.989-43.8c7.038,0,13.759,5.705,15.012,12.742l102.809,577.377
			C790.042,1977.22,785.372,1982.865,778.372,1982.865z"/>
		<path style="fill:#93ACBF;" d="M814.29,1982.865H502.443c-7,0-13.698-5.645-14.958-12.609l-104.541-577.377
			c-1.274-7.037,3.398-12.742,10.436-12.742H706.9c7.038,0,13.759,5.705,15.012,12.742l102.808,577.377
			C825.961,1977.22,821.291,1982.865,814.29,1982.865z"/>
		<polygon style="fill:#E5F0F8;" points="701.238,1402.544 795.574,1931.746 502.806,1931.746 465.072,1723.119 583.36,1410.842 
			532.113,1410.842 448.538,1631.701 407.092,1402.544 		"/>
		<path style="fill:#93ACBF;" d="M597.3,1399.383c0.198,1.106,0.229,2.16,0.092,3.161c-0.187,1.897-0.913,3.583-2.016,4.927
			c-1.709,2.081-4.349,3.372-7.484,3.372h-64.474c-5.19,0-10.252-3.53-12.48-8.298c-0.496-1.001-0.844-2.055-1.043-3.161
			c-0.569-3.162,0.21-6.007,1.918-8.089c1.707-2.082,4.321-3.373,7.484-3.373h64.487
			C590.081,1387.921,596.172,1393.086,597.3,1399.383z"/>
		<polygon style="fill:#EEF4F8;" points="583.36,1410.842 465.072,1723.119 448.538,1631.701 532.113,1410.842 		"/>
		<polygon style="fill:#EEF4F8;" points="701.238,1402.544 701.605,1404.599 502.329,1929.11 470.183,1751.377 602.373,1402.544 		
			"/>
		<polygon style="fill:#EEF4F8;" points="745.389,1650.222 751.933,1686.931 658.592,1931.746 638.083,1931.746 		"/>
		<polygon style="fill:#EEF4F8;" points="753.951,1698.254 766.702,1769.78 704.882,1931.746 664.913,1931.746 		"/>
		<path style="fill:#586773;" d="M692.092,1971.855h-71.406c-8.166,0-16.043-6.646-17.505-14.771l0,0
			c-1.463-8.126,4.023-14.775,12.191-14.775h71.424c8.168,0,16.042,6.649,17.497,14.775l0,0
			C705.748,1965.209,700.258,1971.855,692.092,1971.855z"/>
		<g>
			<path style="fill:#BBDBF3;" d="M712.641,1657.742c10.94,62.12-30.362,112.739-92.306,112.739s-120.553-50.62-130.854-112.739
				c-10.242-61.766,31.197-111.58,92.504-111.58S701.764,1595.976,712.641,1657.742z"/>
			<path style="fill:#E5F0F8;" d="M705.63,1657.742c10.232,58.206-28.479,105.621-86.512,105.621s-112.956-47.415-122.626-105.621
				c-9.619-57.896,29.213-104.603,86.686-104.603S695.453,1599.846,705.63,1657.742z"/>
			<g>
				<path style="fill:#BBDBF3;" d="M606.142,1734.541c-1.205-9.545-4.719-31.362-6.957-44.474l-1.695-9.937
					c-1.981-11.609-3.304-18.145-5.163-26.574l-17.266-1.897l-1.26-7.42l30.158-12.698l3.53,2.111l4.264,28.544l4.778,27.871
					c2.248,13.113,6.196,34.929,8.255,44.474H606.142z M637.945,1726.975l1.302,7.566h-48.812l-1.285-7.566l22.205-4.239h4.873
					L637.945,1726.975z M577.34,1594.873c-1.374-8.063,3.877-13.391,11.728-13.391c7.851,0,14.924,5.328,16.308,13.391
					c1.35,7.867-3.865,13.404-11.726,13.404C585.789,1608.277,578.68,1602.741,577.34,1594.873z"/>
			</g>
		</g>
	</g>
	<g>
		<polygon style="fill:#2D628C;" points="520.36,1354.458 520.098,1314.911 566.501,1321.758 		"/>
		<path style="fill:#FDAE97;" d="M771.431,1166.863l4.187-12.272c0,0,7.541-11.731,9.791-16.273c1.269-2.56,5.394-9.097,6.461-9.908
			c0.844-0.642,3.3-0.397,3.517,0.618c0.282,1.319-1.797,8.623-2.556,11.5c-0.721,2.736-2.884,10.942-2.884,10.942
			s15.851-14.402,20.883-19.526c2.832-2.884,10.746-11.66,12.884-9.82c1.628,1.401-5.469,11.282-7.866,14.687
			c-2.203,3.129-8.724,12.581-8.724,12.581s11.058-11.5,14.744-15.333c2.682-2.789,9.631-12.109,12.079-10.117
			c2.424,1.972-5.087,10.655-7.269,13.833c-3.08,4.485-12.321,17.939-12.321,17.939s11.841-11.768,15.788-15.69
			c2.184-2.171,7.851-9.482,10.013-7.464c2.202,2.056-4.464,8.683-6.387,11.161c-3.294,4.247-13.178,16.988-13.178,16.988
			s8.789-8.271,11.719-11.028c1.252-1.178,5.093-4.577,6.211-3.314c1.523,1.719-3.32,6.69-4.76,8.533l-11.901,15.232
			c-0.963,1.232-2.064,2.344-3.279,3.309l-20.156,20.237L771.431,1166.863z"/>
		<path style="fill:#0775EF;" d="M614.999,1308.408l157.043,99.448c4.504,1.886,8.783,4.51,12.603,7.981
			c17.984,16.339,19.317,44.163,2.977,62.147s-44.163,19.317-62.147,2.977l-181.034-94.896L614.999,1308.408z"/>
		<path style="fill:#0775EF;" d="M798.861,1454.532c0.287-2.029,0.486-4.085,0.486-6.193c0-24.298-19.697-43.995-43.995-43.995
			c-24.298,0-43.995,19.697-43.995,43.995l2.602,196.452h73.209L798.861,1454.532z"/>
		<path style="fill:#088CFC;" d="M531.753,1385.213l98.36,117.652c17.363,20.768,48.561,23.555,69.33,6.192h0
			c20.768-17.363,23.555-48.561,6.192-69.33l-98.36-117.652c-17.363-20.768-48.561-23.555-69.33-6.192h0
			C517.176,1333.246,514.39,1364.444,531.753,1385.213z"/>
		<polygon style="fill:#E5F0F8;" points="612.242,1119.612 658.768,1140.562 652.354,1329.556 520.098,1331.604 500.055,1137.192 
			564.65,1116.157 		"/>
		<path style="fill:#FDAE97;" d="M612.229,1092.316v29.515c0,0-1.764,6.373-16.769,6.435c-14.974,0.031-30.814-9.9-30.814-9.9
			l4.641-64.537L612.229,1092.316z"/>
		<polygon style="fill:#E89780;" points="612.242,1117.783 581.589,1085.961 612.242,1085.559 		"/>
		<path style="fill:#FDAE97;" d="M624.792,1032.946c0,0,0,18.099,0,30.938v10.612c0,8.384-2.351,20.822-11.788,23.699
			c-9.405,2.877-22.368-1.052-31.402-10.859c-9.034-9.838-29.082-54.142-1.207-70.508
			C608.301,1000.461,624.142,1028.615,624.792,1032.946z"/>
		<path style="fill:#F9E181;" d="M687.898,1291.61c9.83,8.062,24.003,7.688,33.443-0.261l0,0l82.73-95.74l-11.36-11.97
			l-20.906-22.09l-2.404-2.575l-85.195,95.925C675.112,1266.005,676.793,1282.516,687.898,1291.61z"/>
		<path style="fill:#088CFC;" d="M717.277,1466.954c0-24.298-19.698-43.995-43.995-43.995c-24.298,0-37.632,10.132-42.933,34.364
			c-12.305,56.257-38.116,206.083-38.116,206.083h76.231l48.326-190.259C717.077,1471.118,717.277,1469.062,717.277,1466.954z"/>
		<path style="fill:#F9E181;" d="M718.494,1292.811L718.494,1292.811c-14.552,8.255-33.213,3.103-41.468-11.449l-54.879-96.742
			c-8.255-14.552-3.103-33.213,11.449-41.468h0c14.552-8.255,33.213-3.103,41.468,11.449l54.879,96.742
			C738.199,1265.895,733.046,1284.556,718.494,1292.811z"/>
		<path style="fill:#322A28;" d="M583.288,1015.292c0,0,33.73-15.561,41.509-5.341c7.779,10.22-5.18,13.788-5.18,13.788
			s16.088-1.9,15.462,8.946c-0.626,10.846-40.88-3.963-40.88-3.963s13.349,6.049,5.631,10.846c-7.717,4.797-16.542-1.46-16.542-1.46
			s-7.654,4.376-6.401,24.476c1.253,20.1-10.745,24.539-10.745,24.539s1.437-30.452-4.442-38.586
			C555.821,1040.403,564.452,1010.204,583.288,1015.292z"/>
		<g>
			<path style="fill:#FDAE97;" d="M578.778,1067.244c3.273,5.126,4.148,8.734,0.123,11.304c-4.024,2.57-10.716,1.758-13.99-3.368
				c-3.273-5.126-2.664-11.365,1.36-13.935C570.296,1058.676,575.505,1062.118,578.778,1067.244z"/>
			<path style="fill:none;stroke:#E89780;stroke-width:0.7413;stroke-miterlimit:10;" d="M568.272,1066.851
				c0,0,4.134-0.617,6.965,4.681c0,0-2.612-0.6-5.788,0"/>
		</g>
		<path style="fill:#2C3447;" d="M599.727,1056.49c0,1.945,1.02,3.521,2.278,3.521c1.258,0,2.278-1.577,2.278-3.521
			s-1.02-3.521-2.278-3.521C600.747,1052.969,599.727,1054.546,599.727,1056.49z"/>
		<path style="fill:none;stroke:#2C3447;stroke-width:0.9281;stroke-miterlimit:10;" d="M601.19,1078.578
			c0,0,3.384,6.589,11.942,5.043"/>
		<path style="fill:none;stroke:#2C3447;stroke-width:0.9281;stroke-miterlimit:10;" d="M609.402,1057.837l4.292,12.419
			c0.435,1.258-0.043,2.651-1.159,3.377l-3.498,2.276"/>
		<path style="fill:none;stroke:#2C3447;stroke-width:0.9281;stroke-miterlimit:10;" d="M596.14,1050.645
			c0,0,4.798-3.356,9.37-1.228"/>
		<path style="fill:#2C3447;" d="M623.251,1056.49c0,1.945-1.02,3.521-2.278,3.521c-1.258,0-2.278-1.577-2.278-3.521
			s1.02-3.521,2.278-3.521C622.232,1052.969,623.251,1054.546,623.251,1056.49z"/>
		<path style="fill:none;stroke:#2C3447;stroke-width:0.9281;stroke-miterlimit:10;" d="M625.365,1050.452
			c0,0-3.324-3.163-7.897-1.035"/>
		<path style="fill:#F9E181;" d="M471.371,1303.905L471.371,1303.905c-16.195-4.2-26.009-20.886-21.81-37.081l27.919-107.663
			c4.2-16.195,20.886-26.009,37.081-21.81h0c16.195,4.2,26.009,20.886,21.81,37.081l-27.919,107.663
			C504.252,1298.291,487.566,1308.105,471.371,1303.905z"/>
		<path style="fill:#E89780;" d="M603.348,1069.332c-0.598,1.787-3.964,2.271-7.516,1.081s-5.948-3.603-5.349-5.39
			c0.598-1.787,3.964-2.271,7.516-1.081C601.552,1065.132,603.946,1067.545,603.348,1069.332z"/>
		<path style="fill:#E89780;" d="M624.792,1063.884v6.899c-2.908,0.34-5.29-0.464-5.693-1.98
			C618.666,1067.009,621.203,1064.812,624.792,1063.884z"/>
		<polygon style="fill:#FDAE97;" points="722.747,1674.25 721.23,1644.791 780.685,1644.791 781.627,1674.25 		"/>
		<polygon style="fill:#E89780;" points="781.232,1661.917 721.23,1644.791 780.685,1644.791 		"/>
		<polygon style="fill:#FDAE97;" points="591.863,1692.865 596.725,1663.406 654.755,1663.406 647.371,1692.865 		"/>
		<polygon style="fill:#F74242;" points="603.665,1133.512 592.897,1133.512 591.954,1135.555 596.915,1139.25 601.15,1139.25 
			604.687,1134.927 		"/>
		<polygon style="fill:#E89780;" points="651.208,1677.559 596.725,1663.406 654.755,1663.406 		"/>
		<polygon style="fill:#FFFFFF;" points="564.83,1115.818 598.674,1128.267 592.504,1142.394 563.337,1118.922 		"/>
		<polygon style="fill:#FFFFFF;" points="612.229,1119.246 613.853,1122.557 605.08,1141.057 598.674,1128.267 		"/>
		<polygon style="fill:#F74242;" points="601.15,1139.25 617.184,1263.702 604.687,1279.815 588.438,1265.2 596.915,1139.25 		"/>
		
			<line style="fill:none;stroke:#2C3447;stroke-width:0.9281;stroke-miterlimit:10;" x1="530.164" y1="1200.604" x2="512.36" y2="1274.165"/>
		
			<line style="fill:none;stroke:#2C3447;stroke-width:0.9281;stroke-miterlimit:10;" x1="655.29" y1="1245.263" x2="656.806" y2="1200.604"/>
		<path style="fill:#403534;" d="M591.863,1692.865l-5.217,21.472h77.878l0,0c2.521-10.99-5.829-21.472-17.105-21.472h-0.048
			H591.863z"/>
		<path style="fill:#403534;" d="M722.747,1674.25v23.38h81.569l-0.1-1.928c-0.622-12.023-10.551-21.452-22.59-21.452l0,0H722.747z"
			/>
		
			<path style="fill:none;stroke:#FFFFFF;stroke-width:0.4939;stroke-linecap:round;stroke-linejoin:round;stroke-miterlimit:10;" d="
			M782.798,1678.9c0,0,1.776-7.769,6.159-5.66c4.384,2.109-5.882,5.937-5.882,5.937l6.104,4.217"/>
		
			<path style="fill:none;stroke:#FFFFFF;stroke-width:0.4939;stroke-linecap:round;stroke-linejoin:round;stroke-miterlimit:10;" d="
			M782.798,1678.9c0,0-1.776-7.769-6.159-5.66c-4.384,2.109,5.882,5.937,5.882,5.937l-6.104,4.217"/>
		
			<path style="fill:none;stroke:#FFFFFF;stroke-width:0.4939;stroke-linecap:round;stroke-linejoin:round;stroke-miterlimit:10;" d="
			M646.815,1698.393c0,0,1.776-7.769,6.159-5.66c4.384,2.109-5.882,5.937-5.882,5.937l6.104,4.217"/>
		
			<path style="fill:none;stroke:#FFFFFF;stroke-width:0.4939;stroke-linecap:round;stroke-linejoin:round;stroke-miterlimit:10;" d="
			M646.815,1698.393c0,0-1.776-7.769-6.159-5.66c-4.384,2.109,5.882,5.937,5.882,5.937l-6.104,4.217"/>
		<path style="fill:#F9E181;" d="M617.142,1121.873c0,0,3.183,33.283,8.336,83.544c5.153,50.261,4.815,128.709,21.048,143.763
			c0,0,16.724,1.245,50.584,11.225c0,0-9.469-31.827-21.065-49.846c-11.596-18.019-17.277-169.997-17.277-169.997L617.142,1121.873z
			"/>
		<polygon style="fill:#E5F0F8;" points="619.891,1149.991 623.821,1189.179 611.325,1178.53 612.229,1150.757 		"/>
		<path style="fill:#F9E181;" d="M553.135,1119.907c0,0,12.498,53.9,18.619,103.882c6.121,49.982,4.045,98.317,19.794,127.667
			c0,0-63.17,11.364-63.024,36.843c0,0-17.808-19.639-17.962-46.539c-0.154-26.9-10.507-204.568-10.507-204.568L553.135,1119.907z"
			/>
		<g>
			<polygon style="fill:#A5BBD6;" points="760.593,1403.497 617.442,1403.497 654.802,1296.301 797.952,1296.301 			"/>
			<g>
				<polygon style="fill:#89A5C7;" points="619.003,1398.293 572.194,1356.889 710.652,1356.889 762.154,1398.293 				"/>
				<polygon style="fill:#A5BBD6;" points="757.889,1401.125 614.739,1401.125 652.098,1293.929 795.248,1293.929 				"/>
				<polygon style="fill:#89A5C7;" points="795.248,1293.929 797.952,1296.301 654.802,1296.301 617.442,1403.497 614.739,1401.125 
					652.098,1293.929 				"/>
				<polygon style="fill:#586773;" points="572.194,1356.889 570.632,1362.092 617.442,1403.497 619.256,1398.293 				"/>
			</g>
			<path style="fill:#89A5C7;" d="M729.605,1351.119c0,3.88-7.106,7.025-15.871,7.025s-15.871-3.145-15.871-7.025
				c0-3.88,7.106-7.025,15.871-7.025S729.605,1347.239,729.605,1351.119z"/>
		</g>
		<path style="fill:#FDAE97;" d="M601.141,1324.273l-21.194,36.411l0.119,0.074c9.722,5.121,30.114,24.689,37.481,31.914
			c1.693,1.604,4.126,2.021,6.23,1.023l20.016-9.291c3.151-1.443,5.5-4.156,6.499-7.435l4.387-14.189
			c0.408-1.449-0.889-2.807-2.327-2.438l-11.38,3.187c-1.631,0.413-3.362-0.336-4.057-1.867l-6.472-13.426l18.441,10.881
			c1.054,0.601,2.418,0.352,3.163-0.667l1.016-1.455c0.745-1.02,0.584-2.438-0.386-3.262l-29.164-23.657l-21.393-5.082
			C602.121,1324.993,601.789,1324.732,601.141,1324.273z"/>
		<path style="fill:#F9E181;" d="M454.31,1262.489c-8.951,13.49-6.491,31.064,5.465,38.95l118.624,68.001l29.413-50.566
			l-109.958-68.035C485.897,1242.953,463.246,1248.935,454.31,1262.489z"/>
		<polyline style="fill:none;stroke:#322A28;stroke-width:1.2771;stroke-miterlimit:10;" points="578.623,1300.814 
			513.971,1260.812 528.003,1209.532 		"/>
	</g>
	<g>
		<polygon style="fill:#2EC6FC;" points="958.407,913.06 663.795,913.06 663.795,1003.328 663.795,1013.456 663.795,1038.496 
			692.531,1013.456 958.407,1013.456 		"/>
		<g>
			<polygon style="fill:#F9E181;" points="738.177,932.72 748.099,952.825 770.287,956.049 754.232,971.699 758.022,993.797 
				738.177,983.364 718.332,993.797 722.122,971.699 706.067,956.049 728.254,952.825 			"/>
			<polygon style="fill:#F9E181;" points="811.101,932.72 821.024,952.825 843.212,956.049 827.156,971.699 830.946,993.797 
				811.101,983.364 791.256,993.797 795.046,971.699 778.991,956.049 801.179,952.825 			"/>
			<polygon style="fill:#F9E181;" points="884.026,932.72 893.948,952.825 916.136,956.049 900.081,971.699 903.871,993.797 
				884.026,983.364 864.18,993.797 867.97,971.699 851.915,956.049 874.103,952.825 			"/>
		</g>
	</g>
	<g>
		
			<ellipse transform="matrix(0.7071 -0.7071 0.7071 0.7071 -156.6106 1653.4218)" style="fill:#40A87B;" cx="1917.551" cy="1015.757" rx="86.773" ry="86.772"/>
		
			<ellipse transform="matrix(0.7071 -0.7071 0.7071 0.7071 -153.2042 1661.6455)" style="fill:#6ADB6A;" cx="1929.181" cy="1015.757" rx="86.773" ry="86.772"/>
		<path style="fill:#FFFFFF;" d="M1974.858,1036.444c-3.033-3.959-13.47-12.874-20.074-12.082
			c-5.741,0.688-9.484,9.972-15.269,10.212c-3.842,0.159-11.793-3.483-17.545-11.023c0,0-12.318-13.25-11.503-19.677
			s11.374-7.458,11.718-16.199c0.184-4.676-6.938-16.916-12.75-20.974c-2.137-1.492-4.987-1.484-7.103,0.038
			c-5.352,3.847-16.361,13.774-15.025,29.606c1.757,20.821,20.114,37.826,20.114,37.826s18.102,20.398,34.25,23.618
			c17.616,3.513,27.452-3.788,32.373-9.837C1978.966,1041.901,1977.891,1040.403,1974.858,1036.444z"/>
	</g>
	<g>
		<g>
			<polygon style="fill:#F2BB16;" points="1160.196,1683.038 1077.129,1738.255 994.078,1683.038 			"/>
			<polygon style="fill:#F2BB16;" points="1160.196,1683.038 1160.196,1793.472 994.078,1793.472 994.078,1683.038 
				1077.129,1738.255 			"/>
			<polygon style="fill:#F2BB16;" points="994.078,1793.472 1077.129,1738.255 1160.196,1793.472 			"/>
		</g>
		<g>
			<polygon style="fill:#F9ECB8;" points="1166.545,1683.038 1083.478,1738.255 1000.427,1683.038 			"/>
			<polygon style="fill:#F9E181;" points="1166.545,1683.038 1166.545,1793.472 1000.427,1793.472 1000.427,1683.038 
				1083.478,1738.255 			"/>
			<polygon style="fill:#F9ECB8;" points="1000.427,1793.472 1083.478,1738.255 1166.545,1793.472 			"/>
		</g>
		<path style="fill:#40A87B;" d="M1179.685,1683.045c0,3.358-1.263,6.444-3.358,8.762c-2.398,2.686-5.9,4.365-9.786,4.365
			c-7.259,0-13.143-5.884-13.143-13.128c0-4.701,2.462-8.826,6.188-11.145c2.015-1.263,4.397-1.999,6.955-1.999
			C1173.801,1669.901,1179.685,1675.786,1179.685,1683.045z"/>
		<path style="fill:#6ADB6A;" d="M1179.685,1683.045c0,3.358-1.263,6.444-3.358,8.762c-2.015,1.247-4.397,1.983-6.956,1.983
			c-7.259,0-13.143-5.884-13.143-13.144c0-3.358,1.263-6.428,3.358-8.746c2.015-1.263,4.397-1.999,6.955-1.999
			C1173.801,1669.901,1179.685,1675.786,1179.685,1683.045z"/>
	</g>
</g>
</svg>
