<?xml version="1.0" encoding="utf-8"?>
<!-- Generator: Adobe Illustrator 27.5.0, SVG Export Plug-In . SVG Version: 6.00 Build 0)  -->
<svg version="1.1" xmlns="http://www.w3.org/2000/svg" xmlns:xlink="http://www.w3.org/1999/xlink" x="0px" y="0px"
	 viewBox="0 0 500 500" style="enable-background:new 0 0 500 500;" xml:space="preserve">
<g id="BACKGROUND">
	<rect style="fill:#00CFFF;" width="500" height="500"/>
	<path style="fill:#E8FBFF;" d="M168.488,187.094H11.811c0,0,16.638,0.924,18.949-16.638c2.311-17.563,22.647-24.803,37.436-14.481
		c14.789,10.322,23.571,4.93,32.352,0c8.781-4.93,19.411-1.695,26.806,9.397c7.395,11.092,13.222,11.873,21.26,10.168
		C158.782,173.383,161.555,186.632,168.488,187.094z"/>
	<path style="fill:#E8FBFF;" d="M297.964,59.992h156.677c0,0-16.638,0.924-18.949-16.638c-2.311-17.563-22.646-24.803-37.436-14.481
		c-14.79,10.322-23.571,4.93-32.352,0c-8.781-4.93-19.411-1.695-26.806,9.397c-7.395,11.092-13.222,11.873-21.26,10.168
		C307.67,46.281,304.896,59.53,297.964,59.992z"/>
	<path style="fill:#BAF1FF;" d="M279.5,90.079H57.475c0,0,23.578,1.31,26.853-23.578c3.275-24.888,32.092-35.148,53.05-20.521
		c20.958,14.627,33.402,6.986,45.846,0c12.444-6.986,27.508-2.402,37.987,13.317c10.479,15.719,18.737,16.825,30.127,14.409
		C265.747,70.649,269.676,89.424,279.5,90.079z"/>
	<rect y="297.299" style="fill:#FFFFFF;" width="500" height="202.701"/>
	<path style="fill:#DEDEDE;" d="M248.068,452.978c-0.187,3.51-40.682,4.203-90.448,1.548c-49.766-2.655-89.957-7.653-89.77-11.163
		c0.187-3.51,40.682-4.203,90.448-1.548C208.064,444.47,248.255,449.468,248.068,452.978z"/>
	<g>
		<path style="fill:#99BFC9;" d="M235.621,453.952L89.075,440.106l-30.984-10.052l0,0l32.319-4.071l146.546,13.845
			c5.308,0.502,8.505,4.01,8.138,7.894l0,0C244.726,451.606,240.929,454.453,235.621,453.952z"/>
		<path style="fill:#779AA3;" d="M235.997,449.974L89.451,436.129l-31.36-6.075l0,0l31.943-0.094l146.546,13.845
			c5.308,0.501,8.674,2.22,8.514,3.916l0,0C244.933,449.418,241.305,450.476,235.997,449.974z"/>
		<polygon style="fill:#DEDEDE;" points="89.075,440.106 58.091,430.054 58.091,430.054 90.409,425.983 		"/>
		<polygon style="fill:#003757;" points="72.97,428.18 58.091,430.054 72.355,434.682 		"/>
		
			<rect x="217.049" y="438.89" transform="matrix(0.9956 0.0941 -0.0941 0.9956 42.9555 -19.3458)" style="fill:#005C91;" width="19.282" height="14.186"/>
		
			<rect x="223.658" y="438.89" transform="matrix(0.9956 0.0941 -0.0941 0.9956 42.9555 -19.3458)" style="fill:#003757;" width="6.065" height="14.186"/>
	</g>
</g>
<g id="OBJECTS">
	<ellipse style="fill:#DEDEDE;" cx="73.513" cy="331.185" rx="55.76" ry="9.175"/>
	<ellipse style="fill:#DEDEDE;" cx="432.977" cy="327.22" rx="55.76" ry="9.175"/>
	<ellipse style="fill:#DEDEDE;" cx="408.02" cy="448.447" rx="46.621" ry="9.175"/>
	<path style="fill:#DEDEDE;" d="M397.367,425.983c0,3.998-16.468,7.238-36.782,7.238c-20.314,0-36.782-3.241-36.782-7.238
		c0-3.998,16.468-7.238,36.782-7.238C380.899,418.744,397.367,421.985,397.367,425.983z"/>
	<ellipse style="fill:#DEDEDE;" cx="93.009" cy="409.782" rx="46.621" ry="9.175"/>
	<ellipse style="fill:#DEDEDE;" cx="289.099" cy="439.996" rx="46.621" ry="9.175"/>
	<ellipse style="fill:#DEDEDE;" cx="262.029" cy="405.161" rx="138.904" ry="17.184"/>
	<g>
		<path style="fill:#133447;" d="M110.893,279.738c-0.019-5.745-1.182-11.219-3.273-16.209l10.073-4.223
			c-2.71-6.465-6.616-12.257-11.609-17.216l-7.697,7.751c-3.91-3.883-8.576-7.002-13.756-9.13l4.153-10.108
			c-6.425-2.641-13.23-3.979-20.226-3.979h-0.13l0.065,10.922c-5.758,0.009-11.246,1.169-16.248,3.26l-4.214-10.079
			c-6.469,2.705-12.264,6.605-17.227,11.592l7.742,7.704c-3.887,3.906-7.01,8.569-9.143,13.746L19.3,259.606
			c-2.653,6.441-3.998,13.264-3.998,20.276l0.003,0.26l10.021-0.173h0.898c0.012,5.735,1.166,11.201,3.244,16.187l-10.085,4.202
			c2.697,6.472,6.591,12.272,11.576,17.242l7.711-7.735c3.903,3.891,8.563,7.02,13.737,9.158l-4.173,10.099
			c6.454,2.667,13.292,4.019,20.326,4.019h0.519l0.517-0.049l-0.992-10.864v-0.007c5.736-0.006,11.202-1.156,16.189-3.229
			l4.194,10.089c6.475-2.691,12.278-6.58,17.25-11.556l-7.726-7.718c3.896-3.899,7.029-8.557,9.172-13.73l10.095,4.181
			c2.68-6.471,4.039-13.325,4.039-20.489L110.893,279.738z M68.559,300.134c-11.185,0-20.252-9.067-20.252-20.252
			c0-11.185,9.067-20.252,20.252-20.252s20.252,9.067,20.252,20.252C88.811,291.067,79.744,300.134,68.559,300.134z"/>
		<path style="fill:#1E5370;" d="M68.559,237.544c-23.382,0-42.337,18.955-42.337,42.338c0,23.382,18.955,42.338,42.337,42.338
			c23.382,0,42.338-18.955,42.338-42.338C110.896,256.5,91.941,237.544,68.559,237.544z M68.559,300.134
			c-11.185,0-20.252-9.067-20.252-20.252c0-11.185,9.067-20.252,20.252-20.252s20.252,9.067,20.252,20.252
			C88.811,291.067,79.744,300.134,68.559,300.134z"/>
		
			<ellipse transform="matrix(0.7071 -0.7071 0.7071 0.7071 -177.826 130.454)" style="fill:#133447;" cx="68.559" cy="279.882" rx="12.417" ry="12.417"/>
	</g>
	<g>
		<path style="fill:#003C5E;" d="M474.841,282.839c0.854-5.681,0.537-11.268-0.771-16.518l10.598-2.642
			c-1.696-6.802-4.676-13.121-8.857-18.781l-8.786,6.491c-3.275-4.432-7.412-8.225-12.208-11.115l5.642-9.359
			c-5.948-3.587-12.471-5.944-19.386-7.007l-0.128-0.02l-1.596,10.805c-5.693-0.867-11.293-0.554-16.555,0.752l-2.633-10.602
			c-6.805,1.69-13.126,4.664-18.789,8.839l6.481,8.791c-4.435,3.27-8.232,7.404-11.126,12.196l-9.354-5.65
			c-3.602,5.963-5.968,12.502-7.034,19.432l-0.036,0.258l9.93,1.352l0.888,0.137c-0.86,5.671-0.551,11.248,0.745,16.492
			l-10.606,2.62c1.682,6.807,4.649,13.131,8.82,18.801l8.797-6.473c3.266,4.439,7.397,8.24,12.186,11.139l-5.659,9.347
			c5.974,3.617,12.527,5.993,19.478,7.062l0.513,0.079l0.518,0.03l0.671-10.889l0.001-0.007c5.67,0.866,11.248,0.56,16.492-0.73
			l2.612,10.609c6.808-1.676,13.135-4.637,18.806-8.8l-6.463-8.803c4.443-3.262,8.248-7.389,11.153-12.176l9.342,5.667
			c3.633-5.988,6.018-12.556,7.106-19.637L474.841,282.839z M428.513,305.576c-16.032-2.466-27.03-17.461-24.565-33.494
			c2.466-16.032,17.461-27.03,33.494-24.565s27.03,17.461,24.565,33.494S444.545,308.041,428.513,305.576z"/>
		<path style="fill:#133447;" d="M439.413,234.701c-23.111-3.554-44.727,12.299-48.281,35.41
			c-3.554,23.111,12.299,44.727,35.41,48.281c23.111,3.554,44.727-12.299,48.281-35.41
			C478.377,259.871,462.524,238.255,439.413,234.701z M428.513,305.576c-16.032-2.466-27.03-17.461-24.565-33.494
			c2.466-16.032,17.461-27.03,33.494-24.565c16.032,2.466,27.03,17.461,24.565,33.494S444.545,308.041,428.513,305.576z"/>
	</g>
	<g>
		<polygon style="fill:#003757;" points="335.883,379.011 164.117,379.011 174.794,333.74 325.206,333.74 		"/>
		<path style="fill:#005C91;" d="M344.333,405.857H155.667c-8.82,0-16.037-7.216-16.037-16.037l0,0
			c0-8.82,7.217-16.037,16.037-16.037h188.666c8.82,0,16.037,7.217,16.037,16.037l0,0
			C360.37,398.64,353.153,405.857,344.333,405.857z"/>
		<path style="fill:#003757;" d="M344.333,392.507H155.667c-6.439,0-12.008-3.854-14.554-9.362
			c-0.942,2.037-1.482,4.294-1.482,6.675l0,0c0,8.82,7.216,16.037,16.037,16.037h188.666c8.82,0,16.037-7.216,16.037-16.037l0,0
			c0-2.382-0.54-4.638-1.482-6.675C356.342,388.653,350.772,392.507,344.333,392.507z"/>
		<path style="fill:#5498BF;" d="M274.818,382.021h-97.792c-1.137,0-2.067-0.93-2.067-2.067l0,0c0-1.137,0.93-2.067,2.067-2.067
			h97.792c1.137,0,2.067,0.93,2.067,2.067l0,0C276.885,381.091,275.955,382.021,274.818,382.021z"/>
		<path style="fill:#5498BF;" d="M322.974,382.021h-35.28c-1.137,0-2.067-0.93-2.067-2.067l0,0c0-1.137,0.93-2.067,2.067-2.067
			h35.28c1.137,0,2.067,0.93,2.067,2.067l0,0C325.041,381.091,324.111,382.021,322.974,382.021z"/>
		<path style="fill:#005C91;" d="M424.739,336.185H75.261c-4.526,0-8.229-3.703-8.229-8.229V119.819
			c0-4.526,3.703-8.229,8.229-8.229h349.478c4.526,0,8.229,3.703,8.229,8.229v208.138
			C432.968,332.482,429.265,336.185,424.739,336.185z"/>
		<path style="fill:#003C5E;" d="M419.224,306.175H80.776c-3.832,0-6.967-3.135-6.967-6.967V133.078
			c0-3.832,3.135-6.967,6.967-6.967h338.448c3.832,0,6.967,3.135,6.967,6.967v166.129
			C426.191,303.039,423.056,306.175,419.224,306.175z"/>
		<path style="fill:#BAF1FF;" d="M416.269,303.12H83.731c-3.733,0-6.787-3.054-6.787-6.787v-160.38c0-3.733,3.054-6.787,6.787-6.787
			h332.538c3.733,0,6.787,3.054,6.787,6.787v160.38C423.056,300.066,420.002,303.12,416.269,303.12z"/>
		<path style="fill:#99D0DE;" d="M99.039,303.094h301.923l8.889-173.83c-0.405-0.079-0.821-0.123-1.245-0.123H91.394
			c-0.424,0-0.839,0.044-1.245,0.123L99.039,303.094z"/>
		
			<ellipse transform="matrix(0.9021 -0.4314 0.4314 0.9021 -114.0744 139.2822)" style="fill:#E8FBFF;" cx="250" cy="321.11" rx="8.405" ry="8.405"/>
		<path style="fill:#003757;" d="M255.715,321.11c0,3.157-2.559,5.715-5.715,5.715c-3.157,0-5.715-2.559-5.715-5.715
			c0-3.157,2.559-5.715,5.715-5.715C253.157,315.394,255.715,317.953,255.715,321.11z"/>
		<rect x="99.067" y="78.615" style="fill:#FFFFFF;" width="301.866" height="224.505"/>
		<path style="fill:#005C91;" d="M271.632,235.989h-12.055c-2.862,0-5.204-2.342-5.204-5.204V218.73
			c0-2.862,2.342-5.204,5.204-5.204h12.055c2.862,0,5.204,2.342,5.204,5.204v12.055
			C276.836,233.647,274.495,235.989,271.632,235.989z"/>
		<path style="fill:#BAF1FF;" d="M308.681,235.989h-12.055c-2.862,0-5.204-2.342-5.204-5.204V218.73
			c0-2.862,2.342-5.204,5.204-5.204h12.055c2.862,0,5.204,2.342,5.204,5.204v12.055
			C313.885,233.647,311.543,235.989,308.681,235.989z"/>
		<path style="fill:#8BC9D9;" d="M382.779,235.989h-12.055c-2.862,0-5.204-2.342-5.204-5.204V218.73
			c0-2.862,2.342-5.204,5.204-5.204h12.055c2.862,0,5.204,2.342,5.204,5.204v12.055
			C387.983,233.647,385.641,235.989,382.779,235.989z"/>
		<path style="fill:#FF9CBD;" d="M345.73,235.989h-12.055c-2.862,0-5.204-2.342-5.204-5.204V218.73c0-2.862,2.342-5.204,5.204-5.204
			h12.055c2.862,0,5.204,2.342,5.204,5.204v12.055C350.934,233.647,348.592,235.989,345.73,235.989z"/>
		<polygon style="fill:#BAF1FF;" points="194.617,274.448 178.885,274.448 172.855,303.094 201.502,303.094 		"/>
		<rect x="112.342" y="216.143" style="fill:#BAF1FF;" width="33.631" height="86.951"/>
		<polygon style="fill:#BAF1FF;" points="175.622,303.094 141.991,303.094 153.483,256.323 169.038,256.323 		"/>
		<rect x="111.987" y="140.703" style="fill:#FF9CBD;" width="133.797" height="61.979"/>
		<circle style="fill:#FFFFFF;" cx="142.995" cy="171.693" r="19.174"/>
		<path style="fill:#005C91;" d="M141.572,180.65L141.572,180.65c-0.947,0.947-2.497,0.947-3.444,0l-6.941-6.941
			c-0.947-0.947-0.947-2.497,0-3.444l0,0c0.947-0.947,2.497-0.947,3.444,0l6.941,6.941
			C142.519,178.153,142.519,179.703,141.572,180.65z"/>
		<path style="fill:#005C91;" d="M138.232,180.524L138.232,180.524c-0.947-0.947-0.947-2.497,0-3.444l12.04-12.037
			c0.947-0.947,2.497-0.947,3.444,0l0,0c0.947,0.947,0.947,2.497,0,3.444l-12.04,12.037
			C140.728,181.471,139.179,181.471,138.232,180.524z"/>
		<rect x="254.385" y="140.703" style="fill:#BAF1FF;" width="133.797" height="61.979"/>
		<rect x="103.141" y="83.008" style="fill:#BAF1FF;" width="293.718" height="14.166"/>
		<rect x="167.118" y="87.125" style="fill:#8BC9D9;" width="165.764" height="5.931"/>
		<g>
			<g>
				<path style="fill:#FFFFFF;" d="M384.628,93.831L384.628,93.831c-0.255-0.255-0.255-0.671,0-0.926l6.556-6.556
					c0.255-0.255,0.671-0.255,0.926,0l0,0c0.255,0.255,0.255,0.671,0,0.926l-6.556,6.556
					C385.299,94.086,384.882,94.086,384.628,93.831z"/>
				<path style="fill:#FFFFFF;" d="M392.109,93.831L392.109,93.831c0.255-0.255,0.255-0.671,0-0.926l-6.556-6.556
					c-0.255-0.255-0.671-0.255-0.926,0l0,0c-0.255,0.255-0.255,0.671,0,0.926l6.556,6.556
					C391.438,94.086,391.855,94.086,392.109,93.831z"/>
			</g>
			<g>
				<path style="fill:#FFFFFF;" d="M375.346,86.673c1.884,0,3.417,1.533,3.417,3.417c0,1.884-1.533,3.417-3.417,3.417
					c-1.884,0-3.417-1.533-3.417-3.417C371.928,88.206,373.461,86.673,375.346,86.673 M375.346,85.673
					c-2.44,0-4.417,1.978-4.417,4.417s1.978,4.417,4.417,4.417c2.44,0,4.417-1.978,4.417-4.417S377.785,85.673,375.346,85.673
					L375.346,85.673z"/>
			</g>
			<g>
				<path style="fill:#FFFFFF;" d="M366.306,93.808h-7.966c-0.276,0-0.5-0.224-0.5-0.5c0-0.276,0.224-0.5,0.5-0.5h7.966
					c0.276,0,0.5,0.224,0.5,0.5C366.806,93.584,366.582,93.808,366.306,93.808z"/>
			</g>
		</g>
		<g>
			<g>
				<path style="fill:#FFFFFF;" d="M116.325,93.523h-7.965c-0.276,0-0.5-0.224-0.5-0.5c0-0.276,0.224-0.5,0.5-0.5h7.965
					c0.276,0,0.5,0.224,0.5,0.5C116.825,93.299,116.602,93.523,116.325,93.523z"/>
			</g>
		</g>
		<g>
			<g>
				<path style="fill:#FFFFFF;" d="M116.325,90.59h-7.965c-0.276,0-0.5-0.224-0.5-0.5c0-0.276,0.224-0.5,0.5-0.5h7.965
					c0.276,0,0.5,0.224,0.5,0.5C116.825,90.367,116.602,90.59,116.325,90.59z"/>
			</g>
		</g>
		<g>
			<g>
				<path style="fill:#FFFFFF;" d="M116.325,87.658h-7.965c-0.276,0-0.5-0.224-0.5-0.5c0-0.276,0.224-0.5,0.5-0.5h7.965
					c0.276,0,0.5,0.224,0.5,0.5C116.825,87.435,116.602,87.658,116.325,87.658z"/>
			</g>
		</g>
		<path style="fill:#FFFFFF;" d="M229.193,175.445h-56.106c-1.464,0-2.662-1.198-2.662-2.662l0,0c0-1.464,1.198-2.662,2.662-2.662
			h56.106c1.464,0,2.662,1.198,2.662,2.662l0,0C231.855,174.247,230.657,175.445,229.193,175.445z"/>
		<path style="fill:#FFFFFF;" d="M229.193,163.443h-56.106c-1.464,0-2.662-1.198-2.662-2.662l0,0c0-1.464,1.198-2.662,2.662-2.662
			h56.106c1.464,0,2.662,1.198,2.662,2.662l0,0C231.855,162.245,230.657,163.443,229.193,163.443z"/>
		<path style="fill:#FFFFFF;" d="M229.193,187.447h-56.106c-1.464,0-2.662-1.198-2.662-2.662l0,0c0-1.464,1.198-2.662,2.662-2.662
			h56.106c1.464,0,2.662,1.198,2.662,2.662l0,0C231.855,186.249,230.657,187.447,229.193,187.447z"/>
		<path style="opacity:0.15;" d="M176.731,260.862h-2.882v-0.169c0-0.978-0.801-1.779-1.779-1.779h-13.775
			c-0.979,0-1.779,0.801-1.779,1.779v2.025c0,0.978,0.801,1.779,1.779,1.779h13.775c0.978,0,1.779-0.801,1.779-1.779v-0.169h2.038v5
			h-10.705c-0.464,0-0.843,0.379-0.843,0.843v6.397c-1.038,0.355-1.795,1.332-1.795,2.487v4.045
			c-0.581,0.403-1.311,0.852-2.244,1.359c-1.612,0.875-2.285,1.857-2.543,2.676c-4.886,1.171-11.456,2.778-17.498,3.862
			c-7.115,1.305-13.436,1.928-15.058,2.109c-0.272,0.033-0.533,0.069-0.784,0.11c-0.326-0.373-0.687-0.711-1.12-0.968
			c0,0-5.435,1.032-9.552,1.681c-0.341,0.054-1.698,0.386-3.656,0.693c-0.078-0.676-0.118-1.252-0.132-1.736
			c1.541-0.51,2.849-1.505,3.726-3.065c3.889-6.918,2.449-13.268,0.178-17.575l0.002-0.003c0,0-2.699-11.395-15.682-7.916
			c-8.706,2.333-10.957,18.169-11.497,28.356c-0.29-0.162-0.588-0.332-0.897-0.517c-2.111-1.293-4.626-3.162-6.735-5.691
			c-2.154-2.49-3.863-5.634-4.966-8.844c-0.806-2.25-1.29-4.51-1.649-6.53c0.693-0.569,1.411-1.672,1.368-3.818
			c-0.083-4.092,0.567-5.185,1.095-5.907c0.528-0.722-1.2-1.798-2.351,0.969c-1.152,2.767-1.152,2.767-1.152,2.767
			s-1.552-6.1-3.609-7.865c-0.285-0.245-0.533-0.324-0.754-0.29v13.492c0.302,0.285,0.623,0.538,0.96,0.739
			c-0.226,2.29-0.243,4.981,0.227,7.857c0.292,2.028,0.876,4.116,1.636,6.169c0.77,2.054,1.829,4.026,3.023,5.835
			c2.39,3.646,5.489,6.436,8.11,8.318c2.646,1.87,4.813,2.913,5.713,3.308c0.384,0.17,0.752,0.31,1.111,0.436
			c-0.132,0.622-0.248,1.26-0.322,1.931c0,0,2.215,0.916,6.579,1.383c0,0,9.482,6.614,3.224,21.001
			c-1.558,3.582-2.871,7.127-4.007,10.537h29.751c-0.956-3.667-2.147-7.281-3.635-10.537c-5.155-11.278,1.637-13.502,1.801-21.27
			c0,0,3.079-0.183,4.98-1.871c0,0,0.15-0.932,0.22-2.289c1.928-0.229,8.527-1.334,15.681-3.538
			c6.152-1.867,12.649-4.568,17.178-7.095c0.739,0.45,1.801,0.681,3.283,0.621v2.685c0,1.451,1.187,2.638,2.638,2.638
			c1.451,0,2.638-1.187,2.638-2.638v-3.894c3.607-1.734,6.308-5.294,4.178-6.057c-1.03-0.369-2.632-0.314-4.178-0.121v-5.544
			c0-1.155-0.757-2.132-1.795-2.487v-5.554h10.705c0.464,0,0.843-0.379,0.843-0.843v-6.686
			C177.574,261.242,177.194,260.862,176.731,260.862z"/>
		<path style="opacity:0.15;" d="M397.473,138.509c-2.435,1.173-5.383,6.689-5.383,6.689s0,0-0.489-2.991
			c-0.49-2.993-2.442-2.402-2.09-1.561c0.352,0.841,0.737,2.074-0.296,6.027c-0.542,2.072-0.091,3.331,0.458,4.064
			c-0.822,1.866-1.824,3.932-3.14,5.902c-1.831,2.825-4.243,5.426-6.942,7.279c-2.474,1.766-5.155,2.885-7.433,3.601
			c-0.583-1.604-1.011-2.577-1.011-2.577c-5.739,4.911-12.196,5.831-17.22,5.564c0.393-2.558,0.443-4.538,0.34-6.018
			c0.56-0.231,1.117-0.483,1.667-0.776c0.605-0.322,1.161-0.678,1.695-1.048c3.235-0.925,5.721-3.967,7.4-7.228
			c2.702-5.246,2.577-12.768-3.164-16.988c-5.63-4.139-10.401-3.912-17.505-3.561c0,0-1.753,3.268,0.456,7.394
			c-3.799,3.231-7.801,9.032-5.982,17.522c0.737,3.441,3.647,5.45,7.331,5.914c-0.004,0.817-0.076,1.916-0.296,3.339
			c-0.219-0.063-0.381-0.109-0.464-0.123c-4.209-0.735-13.368-6.049-13.368-6.049c-1.113,0.634-2.16,1.697-3.106,2.935
			c-0.211-0.199-0.43-0.403-0.663-0.615c-1.558-1.63-3.239-3.979-4.469-6.883c-0.268-0.741-0.634-1.465-0.861-2.253
			c-0.216-0.798-0.433-1.602-0.649-2.404c-0.133-0.399-0.205-0.813-0.257-1.232l-0.194-1.249c-0.068-0.417-0.137-0.832-0.204-1.244
			c-0.083-0.412-0.138-0.825-0.143-1.241c-0.053-0.832-0.105-1.649-0.155-2.445c-0.064-0.799-0.138-1.582-0.093-2.335
			c0.009-0.582,0.01-1.143,0.008-1.691c0.789-0.437,1.683-1.404,1.966-3.545c0.541-4.098,1.368-5.065,2.015-5.684
			c0.647-0.62-0.946-2.025-2.54,0.517c-0.536,0.854-0.891,1.422-1.128,1.798c-0.466,0.743-0.466,0.743-0.466,0.743
			s-0.65-6.389-2.477-8.549c-1.829-2.162-4.945,3.676-4.196,8.399c0.47,2.962,1.241,4.736,2.198,5.718
			c-0.145,0.494-0.291,1.001-0.438,1.532c-0.252,0.786-0.38,1.642-0.508,2.53c-0.127,0.895-0.257,1.813-0.39,2.748
			c-0.08,0.468-0.108,0.951-0.104,1.444c-0.008,0.493-0.015,0.988-0.023,1.486c-0.004,0.502-0.007,1.006-0.011,1.511
			c-0.013,0.506-0.002,1.016,0.078,1.532c0.127,1.035,0.255,2.072,0.382,3.101c0.157,1.033,0.487,2.052,0.734,3.065
			c1.144,4.037,3.225,7.682,5.334,10.229c1.08,1.192,2.026,2.243,2.908,2.973c-0.281,0.685-0.44,1.12-0.44,1.12v0
			c1.63,1.578,3.594,2.775,5.524,3.673c0.772,0.359,1.538,0.671,2.275,0.94c0.737,0.27,1.445,0.497,2.1,0.687
			c0.983,0.286,1.848,0.489,2.515,0.628c0.445,0.093,0.802,0.157,1.048,0.198c0.246,0.041,0.38,0.059,0.38,0.059
			c0.159,4.288,0,8.457-0.345,12.352c-0.099,1.112-0.212,2.202-0.338,3.267c-0.063,0.532-0.129,1.058-0.197,1.576
			c-0.411,3.111-0.918,5.974-1.436,8.493c-0.086,0.42-0.173,0.83-0.26,1.23c-0.173,0.8-0.347,1.561-0.517,2.277
			c-0.052,0.218-0.102,0.423-0.153,0.632l-0.982-0.014l-0.132-8.199c-0.015-0.927-0.793-1.691-1.738-1.706
			c-0.945-0.015-1.699,0.725-1.684,1.653l0.367,22.306l0,0v0l1.416,86.059l0.2,12.163v0l0,0l0.214,13.014h49.192l-0.01-0.879v0l0,0
			l-0.4-36.278v0v0l-0.134-12.157l0,0c0,0,0,0,0,0l-0.134-12.19l0,0v0l-0.135-12.222v0l0,0l-0.135-12.256v0l0,0l-0.135-12.288v0l0,0
			l-0.272-24.677v0v0l-0.108-9.82c-0.01-0.922-0.776-1.682-1.711-1.696c-0.935-0.015-1.685,0.721-1.674,1.644l0.093,8.157
			l-5.317-0.077c-0.249-0.549-0.49-1.101-0.718-1.658c-0.619-1.507-1.165-3.038-1.646-4.567c-0.481-1.53-0.898-3.058-1.259-4.558
			c-2.409-10.019-2.323-18.813-2.323-18.813c0.285,0.012,0.572,0.013,0.859,0.004c0.861-0.028,1.725-0.147,2.557-0.319
			c2.493-0.517,4.693-1.516,5.637-1.983c0.315-0.156,0.49-0.252,0.49-0.252c-0.141-1.136-0.335-2.257-0.557-3.348
			c0.046-0.017,0.089-0.031,0.136-0.048c3.016-1.144,6.712-3.042,9.908-5.95c1.594-1.441,3.093-3.074,4.326-4.862
			c1.224-1.79,2.283-3.659,3.041-5.547c1.131-2.664,1.74-5.275,2.051-7.554c1.743-0.494,3.459-1.943,3.92-4.411
			C398.724,143.385,399.907,137.337,397.473,138.509z M361.542,256.541l-12.133,0.027c-0.096-2.932-0.214-6.037-0.318-9.174
			l11.161-0.028C360.694,250.51,361.12,253.623,361.542,256.541z M358.947,238.526c0.284,1.789,0.558,3.624,0.825,5.469
			l-10.786,0.028c-0.057-2.008-0.103-4.005-0.128-5.951c-0.018-1.076-0.027-2.131-0.032-3.168l9.553-0.027
			C358.572,236.065,358.763,237.283,358.947,238.526z M349.02,224.63c0.037-0.767,0.08-1.474,0.125-2.141l0.746-0.002
			c0.692,0.118,1.406,0.202,2.168,0.199c1.081-0.003,2.105-0.077,3.07-0.216l0.991-0.003c0.192,0.935,0.401,1.982,0.622,3.147
			c0.33,1.761,0.698,3.758,1.073,5.914l-8.981,0.026C348.858,229.005,348.92,226.652,349.02,224.63z M332.827,210.411l-0.004-0.205
			l0.058,0C332.862,210.275,332.845,210.343,332.827,210.411z M333.018,219.212l-0.112-5.164c1.552,0.536,3.096,0.995,4.624,1.374
			c-0.013,0.104-0.032,0.201-0.044,0.306c-0.016,0.133-0.032,0.293-0.048,0.465c-0.009,0.09-0.017,0.187-0.026,0.287
			c-0.005,0.059-0.01,0.122-0.015,0.184c-0.055,0.668-0.106,1.519-0.143,2.535L333.018,219.212z M333.288,231.6l-0.197-9.06
			l4.115-0.013c0.003,0.551,0.01,1.118,0.025,1.711c0.052,2.205,0.189,4.696,0.409,7.349L333.288,231.6z M333.361,234.949
			l4.593-0.013c0.127,1.211,0.27,2.444,0.43,3.691c0.225,1.789,0.485,3.605,0.771,5.422l-5.595,0.014L333.361,234.949z
			 M333.632,247.432l6.082-0.015c0.552,3.149,1.172,6.252,1.83,9.169l-7.713,0.017L333.632,247.432z M333.905,259.993l8.441-0.018
			c0.425,1.711,0.858,3.324,1.292,4.812c-0.54,0.52-1.04,1.251-1.44,2.304c-0.297,0.781-0.334,1.49-0.231,2.114l-7.862,0.015
			L333.905,259.993z M377.723,323.945l0.303,9.526l-42.524,0.003l-0.207-9.514L377.723,323.945z M377.612,320.445l-42.392,0.019
			l-0.206-9.457l42.296-0.03L377.612,320.445z M376.9,298.091l0.3,9.408l-42.261,0.034l-0.204-9.397L376.9,298.091z M376.79,294.635
			l-42.131,0.049l-0.203-9.34l42.036-0.06L376.79,294.635z M375.978,269.141l-4.19,0.008c-0.012-0.091-0.007-0.179-0.027-0.271
			c-0.096-0.443-0.255-0.894-0.501-1.331c-0.71-1.264-1.735-2.166-2.85-2.712c0.203-1.493,0.382-3.148,0.536-4.916l6.737-0.014
			L375.978,269.141z M375.576,256.51l-6.375,0.014c0.184-2.905,0.301-6.015,0.34-9.181l5.743-0.014L375.576,256.51z
			 M375.176,243.956l-5.624,0.014c-0.011-2.077-0.055-4.153-0.137-6.185c-0.031-0.993-0.074-1.971-0.123-2.938l5.594-0.016
			L375.176,243.956z M374.779,231.478l-5.692,0.017c-0.193-2.706-0.435-5.229-0.679-7.424c-0.065-0.573-0.131-1.115-0.198-1.642
			l6.28-0.02L374.779,231.478z M372.802,213.557c-0.807-1.111-1.544-2.28-2.228-3.484l3.522-0.012l0.287,9.016l-6.644,0.022
			c-0.06-0.384-0.118-0.732-0.173-1.058h0c-0.005-0.032-0.01-0.06-0.016-0.092c-0.049-0.291-0.096-0.555-0.14-0.795
			c-0.017-0.096-0.034-0.188-0.05-0.275c-0.015-0.079-0.029-0.156-0.043-0.229c-0.031-0.16-0.059-0.308-0.085-0.43
			c-0.065-0.321-0.136-0.629-0.211-0.928C370.653,214.417,372.802,213.557,372.802,213.557z M363.68,272.604l5.085-0.009
			c0.082,0,0.157-0.021,0.237-0.028l7.084-0.013l0.296,9.294l-42.001,0.064l-0.202-9.283l29.177-0.052
			C363.464,272.589,363.571,272.604,363.68,272.604z M362.047,259.933c0.28,1.821,0.561,3.526,0.845,5.06
			c-0.75,0.474-1.474,1.255-2.065,2.573c-0.255,0.569-0.352,1.104-0.362,1.603l-7.28,0.014c0.105-0.47,0.108-0.972-0.032-1.48
			c-0.12-0.437-0.303-0.877-0.572-1.297c-0.779-1.221-1.853-2.058-2.996-2.532c-0.013-1.234-0.04-2.546-0.076-3.915L362.047,259.933
			z"/>
		<path style="opacity:0.15;" d="M311.416,254.887l-11.878-4.161c-2.82-0.988-6.142,0.581-7.383,3.487l-5.223,12.239
			c-1.24,2.906,0.052,6.092,2.873,7.08l11.878,4.161c0.058,0.02,0.118,0.033,0.177,0.052c0.205,0.517,0.416,1.098,0.635,1.773
			c0.534,1.644,1.305,2.523,2.054,2.988c-0.494,2.326-0.953,5.035-1.616,7.87c-0.206,0.943-0.383,1.908-0.604,2.872
			c-0.241,0.957-0.485,1.923-0.729,2.891c-0.426,1.95-1.062,3.828-1.594,5.667c-0.946,2.821-1.932,5.453-2.959,7.553
			c-1.044-1.919-1.881-3.1-1.881-3.1c-6.158,6.222-10.793,9.279-14.194,10.726c0.208-1.347,0.313-2.612,0.359-3.7
			c1.675-0.759,3.369-1.874,5.003-3.41c2.673-2.512,4.456-5.642,5.523-8.857c0.209,0.113,0.448,0.187,0.741,0.182
			c2.819-0.046,6.5-7.425,3.472-8.656c-0.692-0.281-1.323-0.286-1.89-0.14c0.004-0.45,0-0.901-0.036-1.353
			c-0.689-8.719-5.402-12.57-15.328-11.098c-9.926,1.473-12.473,10.41-12.473,10.41c-0.049,0.176-0.076,0.349-0.119,0.525
			c-0.516-0.235-1.148-0.324-1.932-0.14c-3.343,0.786-2.023,8.514,0.721,8.949c0.472,0.075,0.875-0.053,1.226-0.3
			c-0.144,3.064,0.362,6.409,1.906,9.916c0.879,1.996,2.313,3.453,4.086,4.303c-0.046,1.126-0.171,2.46-0.44,3.763
			c-4.603-1.697-10.853-7.559-10.853-7.559c-0.017,0.01-0.033,0.022-0.05,0.032c-0.141-0.229-0.282-0.475-0.447-0.733
			c-0.245-0.403-0.53-0.829-0.764-1.34c-1.09-1.935-2.125-4.65-2.896-7.73c-0.166-0.78-0.435-1.542-0.54-2.368
			c-0.139-0.819-0.278-1.643-0.417-2.466c-0.158-0.823-0.177-1.681-0.281-2.514c-0.066-0.841-0.22-1.664-0.228-2.497
			c-0.036-0.832-0.071-1.648-0.105-2.444c-0.04-0.797-0.108-1.573-0.081-2.328c0.003-0.865-0.008-1.688-0.031-2.469
			c0.137-0.019,0.279-0.045,0.433-0.086c1.004-0.273,2.333-1.097,3.461-3.36c0.474-0.952,0.902-1.726,1.295-2.372l1.564,0.548
			c2.82,0.988,6.142-0.581,7.383-3.487l5.223-12.239c1.24-2.906-0.053-6.092-2.873-7.08l-11.878-4.161
			c-2.82-0.988-6.142,0.581-7.383,3.487l-5.223,12.239c-1.24,2.906,0.053,6.092,2.873,7.08l0.942,0.33
			c-0.044,0.178-0.096,0.355-0.13,0.532c-0.627,3.239-0.512,5.319,0.087,6.616c-0.433,1.222-0.879,2.641-1.329,4.206
			c-0.255,0.801-0.409,1.651-0.582,2.53c-0.164,0.885-0.333,1.794-0.505,2.72c-0.186,0.93-0.216,1.891-0.323,2.862
			c-0.069,0.972-0.213,1.959-0.203,2.95c0.003,0.996,0.006,1.993,0.009,2.983c-0.019,0.997,0.145,1.976,0.217,2.952
			c0.395,3.89,1.318,7.543,2.514,10.295c0.254,0.704,0.579,1.331,0.867,1.912c0.299,0.576,0.533,1.119,0.82,1.568
			c0.557,0.904,0.96,1.591,1.25,1.963c0.01,0.014,0.02,0.025,0.03,0.039c-1.028,1.77-1.614,3.094-1.614,3.094
			c3.658,8.46,9.376,10.551,9.376,10.551c-0.104,1.539-0.209,3.055-0.314,4.55h29.952c0.418-5.333,0.986-8.827,0.986-8.827
			c5.09,0.142,9.079-4.632,9.079-4.632c-0.011-0.496-0.045-0.99-0.092-1.482c0.001-0.001,0.001-0.001,0.002-0.002
			c0.436-0.461,0.95-1.291,1.713-2.394c0.394-0.551,0.686-1.183,1.08-1.871c0.376-0.69,0.802-1.44,1.123-2.246
			c1.554-3.223,2.68-7.271,3.55-11.499c1.453-7.57,1.52-15.653,0.981-21.206c1.36-1.098,2.219-3.353,2.134-7.632
			c-0.028-1.386-0.368-2.786-0.877-4.053l3.574-8.374C315.529,259.061,314.236,255.875,311.416,254.887z"/>
	</g>
	<g>
		<g>
			<g>
				<path style="fill:#0E2533;" d="M337.418,426.571c-0.927,0-1.679-0.752-1.679-1.679V200.517c0-0.927,0.752-1.679,1.679-1.679
					c0.927,0,1.679,0.751,1.679,1.679v224.376C339.097,425.819,338.345,426.571,337.418,426.571z"/>
			</g>
		</g>
		<g>
			<g>
				<path style="fill:#0E2533;" d="M383.321,426.571c-0.927,0-1.679-0.752-1.679-1.679V200.517c0-0.927,0.752-1.679,1.679-1.679
					c0.927,0,1.679,0.751,1.679,1.679v224.376C385,425.819,384.248,426.571,383.321,426.571z"/>
			</g>
		</g>
		<g>
			<g>
				<path style="fill:#0E2533;" d="M383.321,212.081h-45.903c-0.927,0-1.679-0.751-1.679-1.679c0-0.927,0.752-1.679,1.679-1.679
					h45.903c0.927,0,1.679,0.751,1.679,1.679C385,211.33,384.248,212.081,383.321,212.081z"/>
			</g>
			<g>
				<path style="fill:#0E2533;" d="M383.321,224.549h-45.903c-0.927,0-1.679-0.751-1.679-1.679c0-0.927,0.752-1.679,1.679-1.679
					h45.903c0.927,0,1.679,0.752,1.679,1.679C385,223.798,384.248,224.549,383.321,224.549z"/>
			</g>
			<g>
				<path style="fill:#0E2533;" d="M383.321,237.017h-45.903c-0.927,0-1.679-0.752-1.679-1.679c0-0.927,0.752-1.679,1.679-1.679
					h45.903c0.927,0,1.679,0.751,1.679,1.679C385,236.266,384.248,237.017,383.321,237.017z"/>
			</g>
			<g>
				<path style="fill:#0E2533;" d="M383.321,249.485h-45.903c-0.927,0-1.679-0.751-1.679-1.679c0-0.927,0.752-1.679,1.679-1.679
					h45.903c0.927,0,1.679,0.752,1.679,1.679C385,248.733,384.248,249.485,383.321,249.485z"/>
			</g>
			<g>
				<path style="fill:#0E2533;" d="M383.321,261.953h-45.903c-0.927,0-1.679-0.752-1.679-1.679c0-0.927,0.752-1.679,1.679-1.679
					h45.903c0.927,0,1.679,0.752,1.679,1.679C385,261.201,384.248,261.953,383.321,261.953z"/>
			</g>
			<g>
				<path style="fill:#0E2533;" d="M383.321,274.421h-45.903c-0.927,0-1.679-0.752-1.679-1.679c0-0.927,0.752-1.679,1.679-1.679
					h45.903c0.927,0,1.679,0.752,1.679,1.679C385,273.669,384.248,274.421,383.321,274.421z"/>
			</g>
			<g>
				<path style="fill:#0E2533;" d="M383.321,286.889h-45.903c-0.927,0-1.679-0.752-1.679-1.679c0-0.927,0.752-1.679,1.679-1.679
					h45.903c0.927,0,1.679,0.752,1.679,1.679C385,286.137,384.248,286.889,383.321,286.889z"/>
			</g>
			<g>
				<path style="fill:#0E2533;" d="M383.321,299.356h-45.903c-0.927,0-1.679-0.752-1.679-1.679c0-0.927,0.752-1.679,1.679-1.679
					h45.903c0.927,0,1.679,0.752,1.679,1.679C385,298.604,384.248,299.356,383.321,299.356z"/>
			</g>
			<g>
				<path style="fill:#0E2533;" d="M383.321,311.824h-45.903c-0.927,0-1.679-0.752-1.679-1.679c0-0.927,0.752-1.679,1.679-1.679
					h45.903c0.927,0,1.679,0.752,1.679,1.679C385,311.072,384.248,311.824,383.321,311.824z"/>
			</g>
			<g>
				<path style="fill:#0E2533;" d="M383.321,324.293h-45.903c-0.927,0-1.679-0.752-1.679-1.679c0-0.927,0.752-1.679,1.679-1.679
					h45.903c0.927,0,1.679,0.752,1.679,1.679C385,323.541,384.248,324.293,383.321,324.293z"/>
			</g>
			<g>
				<path style="fill:#0E2533;" d="M383.321,336.761h-45.903c-0.927,0-1.679-0.752-1.679-1.679c0-0.927,0.752-1.679,1.679-1.679
					h45.903c0.927,0,1.679,0.752,1.679,1.679C385,336.009,384.248,336.761,383.321,336.761z"/>
			</g>
			<g>
				<path style="fill:#0E2533;" d="M383.321,349.228h-45.903c-0.927,0-1.679-0.752-1.679-1.679c0-0.927,0.752-1.679,1.679-1.679
					h45.903c0.927,0,1.679,0.752,1.679,1.679C385,348.477,384.248,349.228,383.321,349.228z"/>
			</g>
			<g>
				<path style="fill:#0E2533;" d="M383.321,361.696h-45.903c-0.927,0-1.679-0.752-1.679-1.679c0-0.927,0.752-1.679,1.679-1.679
					h45.903c0.927,0,1.679,0.752,1.679,1.679C385,360.944,384.248,361.696,383.321,361.696z"/>
			</g>
			<g>
				<path style="fill:#0E2533;" d="M383.321,374.164h-45.903c-0.927,0-1.679-0.752-1.679-1.679c0-0.927,0.752-1.679,1.679-1.679
					h45.903c0.927,0,1.679,0.752,1.679,1.679C385,373.412,384.248,374.164,383.321,374.164z"/>
			</g>
			<g>
				<path style="fill:#0E2533;" d="M383.321,386.632h-45.903c-0.927,0-1.679-0.752-1.679-1.679c0-0.927,0.752-1.679,1.679-1.679
					h45.903c0.927,0,1.679,0.752,1.679,1.679C385,385.88,384.248,386.632,383.321,386.632z"/>
			</g>
			<g>
				<path style="fill:#0E2533;" d="M383.321,399.101h-45.903c-0.927,0-1.679-0.752-1.679-1.679c0-0.927,0.752-1.679,1.679-1.679
					h45.903c0.927,0,1.679,0.752,1.679,1.679C385,398.349,384.248,399.101,383.321,399.101z"/>
			</g>
			<g>
				<path style="fill:#0E2533;" d="M383.321,411.568h-45.903c-0.927,0-1.679-0.752-1.679-1.679c0-0.927,0.752-1.679,1.679-1.679
					h45.903c0.927,0,1.679,0.752,1.679,1.679C385,410.816,384.248,411.568,383.321,411.568z"/>
			</g>
		</g>
	</g>
	<g>
		<path style="fill:#FFBE8F;" d="M327.964,140.703c0.78-0.443,1.68-1.417,1.993-3.553c0.594-4.05,1.415-5.021,2.055-5.646
			c0.64-0.625-0.887-1.971-2.479,0.568c-0.535,0.854-0.891,1.42-1.127,1.796L327.964,140.703z"/>
		<rect x="111.987" y="107.108" style="fill:#8BC9D9;" width="276.026" height="26.369"/>
		<text transform="matrix(1 0 0 1 343.5296 120.2923)" style="fill:#005C91; font-family:'Comfortaa-Thin'; font-size:10.7099px;">SEARCH</text>
		<rect x="120.411" y="124.486" style="fill:#005C91;" width="259.178" height="1.251"/>
		<path style="fill:#FFBE8F;" d="M328.406,133.869c-0.466,0.743-0.466,0.743-0.466,0.743s-0.524-6.272-2.262-8.353
			c-1.738-2.08-4.864,3.729-4.219,8.357c0.805,5.777,2.848,6.916,5.201,6.455c0,0,0.604,0.029,1.303-0.368L328.406,133.869z"/>
		<g>
			<g>
				<g>
					<path style="fill:#005C91;" d="M341.666,122.428c-0.128,0-0.256-0.049-0.353-0.146l-3.268-3.267
						c-0.195-0.195-0.195-0.512,0-0.707c0.195-0.195,0.512-0.195,0.707,0l3.267,3.267c0.195,0.195,0.195,0.512,0,0.707
						C341.922,122.379,341.794,122.428,341.666,122.428z"/>
				</g>
				<g>
					<path style="fill:#005C91;" d="M335.275,112.121c0.913,0,1.771,0.355,2.416,1.001c1.332,1.332,1.332,3.5,0,4.833
						c-0.645,0.646-1.504,1.001-2.416,1.001c-0.913,0-1.771-0.355-2.416-1.001c-1.332-1.332-1.332-3.5,0-4.833
						C333.504,112.476,334.363,112.121,335.275,112.121 M335.275,111.121c-1.13,0-2.261,0.431-3.124,1.294
						c-1.725,1.725-1.725,4.522,0,6.247c0.863,0.863,1.993,1.294,3.124,1.294c1.13,0,2.261-0.431,3.123-1.294
						c1.725-1.725,1.725-4.522,0-6.247C337.536,111.552,336.406,111.121,335.275,111.121L335.275,111.121z"/>
				</g>
				<g>
					<path style="fill:#005C91;" d="M339.154,120.417c-0.256,0-0.512-0.098-0.707-0.293l-0.756-0.756
						c-0.391-0.391-0.391-1.023,0-1.414c0.391-0.391,1.023-0.391,1.414,0l0.756,0.756c0.391,0.391,0.391,1.023,0,1.414
						C339.666,120.319,339.41,120.417,339.154,120.417z"/>
				</g>
			</g>
		</g>
		<g>
			<g>
				<path style="fill:#FFBE8F;" d="M352.817,138.783c-4.107,2.829-9.878,9.143-7.952,18.917c1.214,6.162,9.485,7.55,16.715,3.539
					c7.23-4.011,9.346-11.623,8.438-16.853C369.111,139.156,359.403,134.246,352.817,138.783z"/>
				<g>
					<path style="fill:#FFBE8F;" d="M355.159,173.54c-0.286,0-0.576-0.031-0.866-0.095c-2.157-0.477-3.52-2.611-3.044-4.769
						c1.128-5.103,0.588-7.122,0.582-7.142c0.051,0.179,0.099,0.259,0.099,0.259l7.34-3.184c0.372,0.858,1.458,4.247-0.208,11.792
						C358.648,172.268,356.995,173.54,355.159,173.54z"/>
				</g>
				<path style="fill:#003C5E;" d="M352.715,142.689c0,0-2.887,4.499-3.945,6.111c0,0,1.936,1.469,3.254-0.237
					c1.317-1.706,2.262-4.921,4.945-4.877c1.785,0.029,1.531,1.907,0.751,3.421c-1.193,2.317-3.102,3.498-4.323,3.354
					c0,0-3.206,5.111,3.269,8.752c6.475,3.641,11.242-1.117,13.966-6.386c2.724-5.268,2.691-12.728-2.897-16.78
					c-5.468-3.965-10.144-3.63-17.098-3.119C350.638,132.928,348.088,137.617,352.715,142.689z"/>
			</g>
			<g>
				<path style="fill:#FFBE8F;" d="M395.967,145.386c-0.994,2.342-2.254,5.359-4.133,8.19c-1.839,2.853-4.252,5.495-6.94,7.397
					c-2.654,1.95-5.543,3.163-7.902,3.912c-2.378,0.726-4.22,1.023-4.972,1.151c-3.891,0.645-5.44,1.816-5.618,4.934
					c-0.082,1.538,0.427,2.697,1.62,3.4c1.185,0.694,3.051,0.944,5.564,0.5c0.968-0.168,3.322-0.662,6.339-1.844
					c2.995-1.199,6.672-3.166,9.866-6.133c1.593-1.47,3.094-3.131,4.333-4.941c1.23-1.812,2.297-3.699,3.066-5.598
					c1.613-3.776,2.213-7.437,2.374-10.182L395.967,145.386z"/>
			</g>
			<g>
				<path style="fill:#FFBE8F;" d="M324.372,137.511c-0.428,1.208-0.875,2.63-1.328,4.206c-0.258,0.781-0.398,1.627-0.538,2.505
					c-0.139,0.885-0.282,1.794-0.427,2.719c-0.086,0.464-0.122,0.941-0.127,1.427c-0.016,0.486-0.032,0.976-0.048,1.468
					c-0.012,0.495-0.025,0.993-0.037,1.492c-0.022,0.5-0.019,1.004,0.049,1.512c0.106,1.02,0.212,2.042,0.317,3.058
					c0.135,1.018,0.438,2.019,0.661,3.017c1.044,3.974,3.011,7.546,5.025,10.032c1.061,1.193,1.988,2.247,2.857,2.956
					c0.421,0.369,0.782,0.704,1.107,0.956c0.334,0.242,0.604,0.437,0.803,0.581c2.072,1.482,3.915,1.958,5.268,1.738
					c1.347-0.215,2.246-1.143,2.667-2.62c0.426-1.491,0.447-2.635-0.003-3.637c-0.442-0.991-1.366-1.807-2.756-2.809
					c-0.137-0.093-0.324-0.219-0.555-0.375c-0.227-0.161-0.474-0.382-0.775-0.613c-0.628-0.435-1.278-1.12-2.086-1.859
					c-1.495-1.585-3.097-3.88-4.249-6.731c-0.249-0.728-0.594-1.437-0.802-2.212c-0.197-0.785-0.395-1.575-0.593-2.364
					c-0.123-0.392-0.186-0.8-0.229-1.213l-0.168-1.23c-0.06-0.41-0.119-0.819-0.178-1.224c-0.073-0.405-0.12-0.812-0.118-1.223
					c-0.038-0.82-0.074-1.626-0.11-2.411c-0.049-0.788-0.107-1.558-0.052-2.302c0.047-1.488,0.058-2.872,0.027-4.092
					L324.372,137.511z"/>
			</g>
			<path style="fill:#005C91;" d="M345.513,215.771c0,0,3.97,8.986,13.084,8.986s14.533-4.585,13.053-14.203
				C371.65,210.554,352.839,207.345,345.513,215.771z"/>
			<g>
				<g>
					<path style="fill:#005C91;" d="M373.835,268.225c1.332-6.861,2.223-18.091,2.116-28.269c-0.002-5.084-0.288-9.905-0.605-13.753
						c-0.324-3.848-0.751-6.731-0.962-7.917c-1.081-6.127-3.953-8.48-8.04-7.097c-4.113,1.383-5.313,3.766-4.326,9.3
						c0.189,1.067,0.717,3.659,1.308,7.229c0.583,3.569,1.295,8.091,1.893,12.95c1.298,9.698,2.264,20.681,3.462,27.495
						L373.835,268.225z"/>
				</g>
			</g>
			<g>
				<g>
					<path style="fill:#005C91;" d="M354.891,269.01c0.298-7.188-0.12-18.672,0.013-28.823c0.047-5.075,0.237-9.805,0.518-13.482
						c0.279-3.683,0.652-6.278,0.799-7.308c0.374-2.693,0.354-4.355-0.292-5.436c-0.323-0.525-0.803-1.013-1.383-1.536
						c-0.295-0.277-0.563-0.629-0.853-0.991c-0.298-0.36-0.633-0.735-1.023-1.107c-0.39-0.373-0.784-0.692-1.2-0.935
						c-0.415-0.251-0.852-0.418-1.345-0.418c-1.019-0.004-2.018,0.414-2.923,1.181c-1.788,1.52-2.953,4.124-3.424,7.533
						c-0.191,1.328-0.472,4.49-0.463,8.586c0.003,4.1,0.274,9.156,0.846,14.439c1.111,10.575,3.403,22.064,5.622,28.988
						L354.891,269.01z"/>
				</g>
				<g>
					<path style="fill:#005C91;" d="M373.835,268.225c1.332-6.861,2.223-18.091,2.116-28.269c-0.002-5.084-0.288-9.905-0.605-13.753
						c-0.324-3.848-0.751-6.731-0.962-7.917c-1.081-6.127-3.953-8.48-8.04-7.097c-4.113,1.383-5.313,3.766-4.326,9.3
						c0.189,1.067,0.717,3.659,1.308,7.229c0.583,3.569,1.295,8.091,1.893,12.95c1.298,9.698,2.264,20.681,3.462,27.495
						L373.835,268.225z"/>
				</g>
				<path style="fill:#004973;" d="M374.671,220.124c-0.113-0.794-0.213-1.425-0.287-1.838c-0.492-2.79-1.359-4.788-2.54-6.016
					c-0.04-0.553-0.103-1.124-0.194-1.715c0,0-9.939-1.692-18.182,0.619c-0.242-0.279-0.499-0.563-0.797-0.848
					c-0.391-0.373-0.784-0.692-1.2-0.935c-0.415-0.251-0.852-0.418-1.345-0.418c-1.019-0.004-2.018,0.414-2.923,1.181
					c-1.788,1.52-2.953,4.123-3.424,7.533c-0.064,0.444-0.137,1.108-0.207,1.927C356.038,223.062,367.685,221.663,374.671,220.124z"
					/>
			</g>
			<path style="fill:#FF595F;" d="M351.169,166.638c1.081,0.171,14.432,5.107,25.377-4.476c0,0,2.936,6.864,3.757,14.251
				c0,0-4.957,2.838-9.457,2.722c0,0-0.499,22.525,9.352,36.48c0,0-20.521,7.935-42.136,0c0,0,6.064-17.222,5.651-36.748
				c0,0-8.437-0.978-13.45-5.901c0,0,3.495-9.458,7.907-12.073C338.169,160.892,347.052,165.989,351.169,166.638z"/>
			<path style="fill:#CC3F44;" d="M370.845,179.135c4.5,0.116,9.457-2.722,9.457-2.722s-6.002,2.329-11.504,0.714
				c0,0-1.249,26.92,11.398,38.487C370.347,201.66,370.845,179.135,370.845,179.135z"/>
			<path style="fill:#CC3F44;" d="M347.15,177.773c-12.11-0.969-16.889-4.808-16.889-4.808c5.014,4.923,13.45,5.901,13.45,5.901
				c0.413,19.526-5.651,36.748-5.651,36.748C346.893,203.724,347.15,177.773,347.15,177.773z"/>
			<path style="fill:#FFBE8F;" d="M396.057,148.503c0,0-2.532-0.953-1.471-4.907c1.06-3.953,0.691-5.17,0.352-5.998
				c-0.339-0.827,1.595-1.458,2.051,1.504c0.455,2.962,0.455,2.962,0.455,2.962s2.968-5.551,5.388-6.771
				c2.42-1.221,1.196,4.82,0.384,9.008C402.404,148.49,398.035,149.859,396.057,148.503z"/>
			<path style="fill:#003C5E;" d="M371.18,266.21c-1.464,0.11-3.465,0.408-4.874,3.276c-0.481,0.979-0.505,1.868-0.328,2.614
				c0.332,1.399,1.64,2.348,3.078,2.348h5.16c1.945,0,3.522-1.741,3.155-3.651c-0.084-0.437-0.231-0.88-0.467-1.311
				C375.648,267.187,373.274,266.053,371.18,266.21z"/>
			<path style="fill:#003C5E;" d="M352.041,265.41c-1.454,0.2-3.433,0.621-4.663,3.57c-0.42,1.007-0.389,1.896-0.166,2.629
				c0.418,1.376,1.782,2.243,3.217,2.154l5.15-0.319c1.941-0.12,3.407-1.955,2.924-3.839c-0.111-0.431-0.285-0.865-0.547-1.28
				C356.561,266.11,354.122,265.124,352.041,265.41z"/>
		</g>
	</g>
	<g>
		<g>
			<path style="fill:#FFBE8F;" d="M109.003,263.049c3.018,3.97,6.529,11.771,1.647,20.454c-3.078,5.475-11.368,4.21-16.985-1.858
				c-5.616-6.068-5.248-13.961-2.753-18.646C93.409,258.314,104.164,256.681,109.003,263.049z"/>
			<g>
				<path style="fill:#FFBE8F;" d="M103.722,296.514c-1.836,0-3.49-1.272-3.902-3.139c-1.667-7.545-0.581-10.933-0.209-11.792
					l7.34,3.184c0,0,0.048-0.08,0.099-0.26c-0.006,0.021-0.545,2.04,0.582,7.144c0.477,2.156-0.886,4.292-3.043,4.769
					C104.298,296.482,104.008,296.514,103.722,296.514z"/>
			</g>
		</g>
		<g>
			<path style="fill:#FFBE8F;" d="M65.321,262.274c-0.501,2.703-0.796,6.402-0.134,10.454c0.292,2.028,0.876,4.116,1.636,6.169
				c0.77,2.054,1.829,4.026,3.023,5.835c2.39,3.646,5.489,6.436,8.11,8.318c2.646,1.869,4.813,2.913,5.713,3.308
				c2.333,1.033,4.204,1.237,5.521,0.847c1.327-0.397,2.099-1.4,2.388-2.913c0.574-3.07-0.65-4.578-4.273-6.136
				c-0.7-0.305-2.417-1.035-4.552-2.309c-2.111-1.292-4.626-3.162-6.735-5.691c-2.154-2.491-3.864-5.634-4.966-8.844
				c-1.146-3.199-1.647-6.429-2.051-8.941L65.321,262.274z"/>
		</g>
		<g>
			<path style="fill:#FFBE8F;" d="M154.62,281.236c0.147-0.885,0.751-2.065,2.647-3.096c3.597-1.954,4.225-3.06,4.591-3.876
				c0.366-0.816,2.156,0.153,0.322,2.523c-0.617,0.797-1.026,1.326-1.298,1.677L154.62,281.236z"/>
			<path style="fill:#003757;" d="M162.15,277.186L162.15,277.186c-0.464,0-0.843-0.379-0.843-0.843v-12.491
				c0-0.464,0.38-0.843,0.843-0.843l0,0c0.464,0,0.843,0.379,0.843,0.843v12.491C162.993,276.807,162.614,277.186,162.15,277.186z"
				/>
			<path style="fill:#003757;" d="M161.307,263.853L161.307,263.853c0-0.464,0.38-0.843,0.843-0.843h11.548
				c0.464,0,0.843,0.379,0.843,0.843l0,0c0,0.464-0.38,0.843-0.843,0.843H162.15C161.686,264.696,161.307,264.316,161.307,263.853z"
				/>
			<path style="fill:#003757;" d="M173.698,256.323L173.698,256.323c0.464,0,0.843,0.38,0.843,0.843v6.686
				c0,0.464-0.38,0.843-0.843,0.843l0,0c-0.464,0-0.843-0.379-0.843-0.843v-6.686C172.855,256.703,173.235,256.323,173.698,256.323z
				"/>
			<path style="fill:#003757;" d="M174.542,257.167L174.542,257.167c0,0.464-0.38,0.843-0.843,0.843h-8.144
				c-0.464,0-0.843-0.379-0.843-0.843l0,0c0-0.464,0.379-0.843,0.843-0.843h8.144C174.162,256.323,174.542,256.703,174.542,257.167z
				"/>
			<path style="fill:#70C6DB;" d="M169.038,259.958h-13.775c-0.979,0-1.779-0.801-1.779-1.779v-2.025
				c0-0.978,0.801-1.779,1.779-1.779h13.775c0.978,0,1.779,0.801,1.779,1.779v2.025
				C170.817,259.158,170.016,259.958,169.038,259.958z"/>
			<path style="fill:#005C91;" d="M162.15,290.991L162.15,290.991c-1.451,0-2.638-1.187-2.638-2.638v-15.616
				c0-1.451,1.187-2.638,2.638-2.638l0,0c1.451,0,2.638,1.187,2.638,2.638v15.616C164.788,289.803,163.601,290.991,162.15,290.991z"
				/>
			<path style="fill:#FFBE8F;" d="M160.882,278.465c-0.537,0.693-0.537,0.693-0.537,0.693s6.068-1.671,8.62-0.757
				c2.552,0.914-1.823,5.851-6.39,6.842c-5.7,1.237-7.474-0.289-7.853-2.656c0,0-0.235-0.557-0.103-1.35L160.882,278.465z"/>
			<g>
				<path style="fill:#FFBE8F;" d="M157.159,280.238c-4.965,1.16-12.819,3.163-19.933,4.44c-7.115,1.305-13.436,1.928-15.058,2.109
					c-4.203,0.503-5.798,1.905-5.706,5.004c0.088,3.072,2.222,4.449,6.778,3.903c1.763-0.196,8.504-1.302,15.811-3.554
					c7.318-2.22,15.137-5.624,19.533-8.508L157.159,280.238z"/>
			</g>
		</g>
		<g>
			<path style="fill:#FFBE8F;" d="M115.823,407.131c1.097-3.306,2.161-7.771,2.786-12.629c0.653-4.86,1.032-10.126,1.175-15.092
				c0.278-9.934-0.288-18.688-0.516-20.951c-0.597-5.857-2.903-8.112-7.178-7.526c-4.287,0.587-5.894,3.148-5.32,8.776
				c0.22,2.176,1.337,10.563,2.265,20.053c0.46,4.744,0.846,9.753,1.135,14.395c0.314,4.651,0.374,8.887,0.559,12.189
				L115.823,407.131z"/>
		</g>
		<g>
			<path style="fill:#FFBE8F;" d="M71.402,388.149c1.744,0.437,3.858,0.745,6.23,0.659c2.366-0.087,4.974-0.6,7.534-1.624
				c2.559-1.024,5.048-2.555,7.243-4.467c1.096-0.958,2.124-2.009,3.05-3.15c0.471-0.564,0.913-1.153,1.328-1.765
				c0.106-0.155,0.211-0.294,0.317-0.462l0.312-0.549l0.606-1.108c1.377-2.838,2.006-5.275,2.6-7.581
				c0.525-2.272,0.925-4.368,1.191-6.2c0.556-3.674,0.783-6.377,0.847-7.494c0.312-5.777-1.701-8.261-6.008-8.26
				c-4.334-0.001-6.244,2.209-6.532,7.544c-0.058,1.03-0.131,3.545-0.345,6.854c-0.097,1.662-0.275,3.49-0.502,5.406
				c-0.253,1.856-0.604,3.893-1.078,5.362l-0.168,0.474l-0.076,0.246c-0.037,0.09-0.099,0.196-0.147,0.294
				c-0.194,0.406-0.41,0.808-0.652,1.203c-0.465,0.8-1.013,1.572-1.611,2.305c-1.203,1.462-2.619,2.759-4.156,3.794
				c-1.538,1.032-3.193,1.807-4.836,2.337c-1.645,0.527-3.264,0.824-4.726,1.044L71.402,388.149z"/>
		</g>
		<path style="fill:#FF595F;" d="M110.713,287.612c-1.081,0.171-12.356,3.14-20.724-0.768c0,0-4.711,4.495-5.532,11.883
			c0,0,2.215,0.916,6.579,1.383c0,0,9.482,6.614,3.224,21.001c-7.408,17.03-9.329,33.249-12.576,37.848c0,0,20.521,7.935,42.136,0
			c0,0-0.561-22.773-7.452-37.848c-5.155-11.278,1.637-13.502,1.801-21.27c0,0,3.079-0.183,4.98-1.871c0,0,1.527-9.423-2.885-12.039
			C120.265,285.93,114.829,286.962,110.713,287.612z"/>
		<path style="fill:#FFBE8F;" d="M68.167,265.377c0,0,2.686-0.319,2.604-4.411c-0.082-4.092,0.567-5.186,1.095-5.907
			c0.528-0.722-1.2-1.798-2.351,0.969c-1.152,2.767-1.152,2.767-1.152,2.767s-1.552-6.1-3.609-7.865
			c-2.057-1.765-2.315,4.393-2.53,8.654C62.009,263.844,65.923,266.22,68.167,265.377z"/>
		<path style="fill:#003757;" d="M110.598,403.659c0,0,4.635,0.962,6.297,0c0,0,2.274,1.224,5.772,0.962
			c3.498-0.262,5.859,0.194,5.422,2.24c-0.437,2.046-13.453,3.932-16.791,2.308c-1.798-0.875-0.7-5.947-0.7-5.947"/>
		<path style="fill:#003757;" d="M75.084,382.31c0,0-2.487,4.028-2.15,5.918c0,0-1.927,1.719-2.875,5.097s-2.183,5.441-3.957,4.332
			c-1.773-1.109,0.898-13.987,3.564-16.57c1.436-1.391,5.828,1.373,5.828,1.373"/>
		<path style="fill:#003C5E;" d="M110.83,265.926c0,0-8.508,10.301-10.387,30.629c0,0-10.079,2.562-16.912-1.538
			c0,0-1.367-33.529,11.616-37.008C108.13,254.531,110.83,265.926,110.83,265.926z"/>
		<path style="fill:#FFBE8F;" d="M109.668,270.098c0,0-1.537-3.609-4.441-2.413s0.044,8.029,2.67,8.029
			C110.522,275.714,109.668,270.098,109.668,270.098z"/>
	</g>
	<g>
		<g>
			<path style="fill:#FFBE8F;" d="M276.681,286.178c-3.543,4.407-6.691,13.141-1.424,23.134c3.32,6.3,11.684,7.267,18.237,0.562
				c6.553-6.705,6.379-17.807,3.695-23.195C294.504,281.293,282.362,279.11,276.681,286.178z"/>
			<g>
				<path style="fill:#FFBE8F;" d="M283.443,325.621c-0.458,0-0.923-0.07-1.382-0.217c-2.387-0.763-3.702-3.315-2.939-5.701
					c0.948-2.966,0.589-7.12,0.37-8.471c-0.399-2.468,1.273-4.8,3.741-5.205c2.469-0.406,4.796,1.257,5.208,3.724
					c0.119,0.712,1.109,7.12-0.679,12.714C287.146,324.392,285.363,325.621,283.443,325.621z"/>
			</g>
		</g>
		<g>
			<path style="fill:#FFBE8F;" d="M309.652,280.343c-0.485,2.718-0.698,6.264-1.252,10.032c-0.124,0.943-0.217,1.908-0.354,2.872
				c-0.159,0.957-0.319,1.923-0.479,2.892c-0.257,1.95-0.73,3.828-1.102,5.667c-0.897,3.606-1.884,6.918-3.03,9.184
				c-0.238,0.611-0.538,1.097-0.792,1.561c-0.265,0.449-0.458,0.92-0.703,1.234c-0.469,0.647-0.763,1.216-0.986,1.439
				c-1.024,1.426-1.522,2.265-1.599,3.312c-0.065,1.03,0.148,2.292,0.625,3.977c0.469,1.679,1.674,2.689,3.463,2.562
				c1.757-0.104,3.974-1.393,5.713-3.832c0.396-0.461,0.838-1.291,1.505-2.394c0.346-0.551,0.583-1.183,0.917-1.871
				c0.316-0.69,0.677-1.44,0.928-2.246c1.274-3.223,2.049-7.271,2.552-11.499c0.89-8.47-0.009-17.592-1.237-23.081L309.652,280.343z
				"/>
		</g>
		<path style="fill:#FFBE8F;" d="M260.347,282.878c0.98-0.273,2.238-1.097,3.169-3.361c1.766-4.292,2.937-5.134,3.812-5.646
			c0.875-0.512-0.434-2.412-2.883-0.056c-0.824,0.792-1.37,1.318-1.733,1.667L260.347,282.878z"/>
		<path style="fill:#BAF1FF;" d="M266.216,277.693l-12.239-4.161c-2.906-0.988-4.475-4.174-3.487-7.08l4.161-12.239
			c0.988-2.906,4.174-4.475,7.08-3.487l12.239,4.161c2.906,0.988,4.475,4.174,3.487,7.08l-4.161,12.239
			C272.308,277.112,269.122,278.681,266.216,277.693z"/>
		<path style="fill:#FFBE8F;" d="M262.712,275.481c-0.717,0.689-0.717,0.689-0.717,0.689s1.147-7.044-0.193-9.811
			c-1.34-2.766-6.375,2.766-6.938,8.034c-0.703,6.577,1.233,8.391,3.948,8.531c0,0,0.656,0.197,1.535-0.047L262.712,275.481z"/>
		<g>
			<path style="fill:#FFBE8F;" d="M310.188,282.878c-0.98-0.273-2.238-1.097-3.169-3.361c-1.766-4.292-2.937-5.134-3.812-5.646
				c-0.875-0.512,0.434-2.412,2.883-0.056c0.823,0.792,1.37,1.318,1.733,1.667L310.188,282.878z"/>
			<path style="fill:#FF9CBD;" d="M306.049,277.693l-12.239-4.161c-2.906-0.988-4.475-4.174-3.487-7.08l4.161-12.239
				c0.988-2.906,4.174-4.475,7.08-3.487l12.239,4.161c2.906,0.988,4.475,4.174,3.487,7.08l-4.161,12.239
				C312.141,277.112,308.955,278.681,306.049,277.693z"/>
			<path style="fill:#FFBE8F;" d="M307.824,275.481c0.717,0.689,0.717,0.689,0.717,0.689s-1.147-7.044,0.193-9.811
				c1.34-2.766,6.375,2.766,6.938,8.034c0.703,6.577-1.233,8.391-3.948,8.531c0,0-0.656,0.197-1.535-0.047L307.824,275.481z"/>
		</g>
		<g>
			<path style="fill:#FFBE8F;" d="M255.552,280.909c-0.336,1.244-0.668,2.7-0.99,4.307c-0.186,0.801-0.266,1.651-0.362,2.53
				c-0.087,0.885-0.177,1.794-0.268,2.719c-0.105,0.93-0.052,1.891-0.075,2.862c0.016,0.972-0.043,1.959,0.053,2.95
				c0.089,0.996,0.179,1.993,0.268,2.983c0.068,0.997,0.316,1.976,0.473,2.952c0.732,3.89,1.973,7.543,3.407,10.295
				c0.315,0.704,0.695,1.331,1.033,1.912c0.349,0.576,0.63,1.119,0.956,1.568c0.635,0.904,1.098,1.591,1.42,1.963
				c1.588,1.968,3.29,2.954,4.721,3.083c1.459,0.124,2.678-0.621,3.606-2.101c1.857-3.018,1.8-4.732-0.428-7.394
				c-0.223-0.25-0.563-0.734-1.06-1.338c-0.255-0.296-0.482-0.689-0.77-1.084c-0.28-0.403-0.602-0.829-0.88-1.34
				c-1.258-1.935-2.529-4.65-3.567-7.73c-0.233-0.78-0.568-1.542-0.745-2.368c-0.21-0.819-0.421-1.643-0.631-2.466
				c-0.23-0.822-0.323-1.681-0.499-2.514c-0.139-0.841-0.365-1.664-0.445-2.497c-0.108-0.832-0.214-1.648-0.317-2.444
				c-0.109-0.797-0.245-1.573-0.283-2.328c-0.126-1.505-0.279-2.9-0.46-4.123L255.552,280.909z"/>
		</g>
		<path style="fill:#FF595F;" d="M270.781,371.836c0,0,4.504,9.545,14.817,10.218c13.337,0.87,16.489-5.167,14.833-16.076
			C300.431,365.978,279.108,362.297,270.781,371.836z"/>
		<path style="fill:#003757;" d="M307.945,430.737c-1.66,0.121-3.93,0.454-5.534,3.703c-0.548,1.109-0.577,2.117-0.378,2.964
			c0.374,1.587,1.855,2.666,3.485,2.67l5.851,0.011c2.206,0.004,3.997-1.966,3.586-4.133c-0.094-0.495-0.26-0.999-0.526-1.488
			C313.009,431.855,310.32,430.563,307.945,430.737z"/>
		<g>
			<g>
				<path style="fill:#FF595F;" d="M310.901,432.574c0.315-7.986-0.579-20.79-1.951-32.239c-1.328-11.45-3.157-21.547-3.745-24.153
					c-1.497-6.735-4.444-9.107-9.174-7.842c-4.738,1.266-6.18,4.412-4.732,10.922c0.612,2.519,2.974,12.233,5.647,23.228
					c2.699,11.02,5.649,23.37,8.169,30.909L310.901,432.574z"/>
			</g>
		</g>
		<path style="fill:#003757;" d="M269.365,432.041c-1.659,0.144-3.923,0.509-5.482,3.78c-0.953,1.999-0.249,3.651,0.443,4.633
			c0.689,0.341,1.265,0.626,1.954,0.966l7.88-0.094c1.197-0.014,2.206-0.907,2.351-2.095c0.128-1.048,0.066-2.349-0.611-3.553
			C274.444,433.089,271.737,431.835,269.365,432.041z"/>
		<g>
			<g>
				<path style="fill:#FF595F;" d="M273.487,434.469c2.001-7.939,4.09-20.871,6.183-32.296c1.041-5.713,2.085-11.043,3.015-15.203
					c0.924-4.164,1.712-7.161,2.011-8.396c0.779-3.189,0.909-5.509,0.267-7.307c-0.636-1.787-2.062-3.065-4.37-3.901
					c-2.298-0.833-4.237-0.729-5.89,0.54c-1.642,1.264-2.968,3.702-3.848,7.308c-0.337,1.393-1.046,4.793-1.69,9.322
					c-0.652,4.531-1.224,10.186-1.6,16.158c-0.763,11.946-0.764,25.171,0.093,33.359L273.487,434.469z"/>
			</g>
		</g>
		<path style="fill:#BAF1FF;" d="M281.073,317.786c1.225,0.196,7.55,3.298,20.938-11.527c0,0,6.45,8.089,7.364,16.468
			c0,0-3.574,4.774-8.677,4.632c0,0-1.872,24.742,5.186,43.047c0,0-15.955,9.14-35.104,1.431c0,0,0.089-18.059-0.335-40.201
			c0,0-5.9-2.092-10.292-10.551c0,0,2.931-8.308,7.939-11.264C268.093,309.82,276.407,317.041,281.073,317.786z"/>
		<path style="fill:#FFBE8F;" d="M274.098,294.041c0,0-1.031-4.078-4.306-3.293c-3.275,0.786-1.284,8.514,1.498,8.949
			C274.072,300.132,274.098,294.041,274.098,294.041z"/>
		<path style="fill:#FFBE8F;" d="M297.005,295.209c0,0,1.585-3.897,4.72-2.666c3.135,1.231,0.095,8.609-2.721,8.656
			C296.189,301.246,297.005,295.209,297.005,295.209z"/>
		<path style="fill:#003C5E;" d="M271.809,290.363c0,0,1.771-8.938,11.569-10.41c9.798-1.473,14.845,2.379,16.291,11.098
			c1.446,8.719-4.56,17.408-13.97,16.96C276.29,307.563,270.057,299.428,271.809,290.363z"/>
	</g>
	<g>
		<rect x="375.633" y="398.775" style="fill:#005C91;" width="64.774" height="49.672"/>
		<polygon style="fill:#003C5E;" points="392.884,387.977 375.633,398.775 440.407,398.775 423.156,387.977 		"/>
		<rect x="392.884" y="387.977" style="fill:#133447;" width="30.272" height="10.798"/>
		<polygon style="fill:#00CFFF;" points="375.633,398.775 384.96,410.442 408.02,410.442 430.589,410.442 440.407,398.775 		"/>
		<polygon style="fill:#00CFFF;" points="423.156,387.977 440.407,393.376 453.905,402.603 440.407,398.775 		"/>
		<polygon style="fill:#00CFFF;" points="392.884,387.977 374.084,393.376 360.585,402.603 375.633,398.775 		"/>
	</g>
</g>
<g id="DESIGNED_BY_FREEPIK">
	<g id="XMLID_76_">
		<g id="XMLID_929_">
			<path id="XMLID_958_" style="fill:#B8B8B8;" d="M181.087,472.134c-0.246,0-0.435,0.085-0.567,0.255
				c-0.133,0.17-0.199,0.421-0.199,0.753v2.393c-0.304-0.332-0.617-0.579-0.937-0.739c-0.321-0.159-0.715-0.24-1.182-0.24
				c-0.807,0-1.458,0.283-1.953,0.849c-0.494,0.566-0.742,1.355-0.742,2.369c0,0.479,0.063,0.923,0.188,1.335
				c0.124,0.412,0.307,0.77,0.549,1.074c0.241,0.305,0.526,0.539,0.857,0.703c0.33,0.164,0.689,0.246,1.078,0.246
				c0.293,0,0.563-0.04,0.809-0.122c0.247-0.08,0.477-0.199,0.689-0.356c0.212-0.155,0.426-0.358,0.644-0.607v0.16
				c0,0.297,0.072,0.525,0.217,0.685c0.145,0.16,0.328,0.24,0.549,0.24c0.226,0,0.409-0.077,0.552-0.231
				c0.143-0.154,0.213-0.386,0.213-0.694v-7.147c0-0.305-0.066-0.534-0.199-0.69C181.52,472.212,181.332,472.134,181.087,472.134z
				 M180.021,478.975c-0.141,0.306-0.329,0.533-0.563,0.682c-0.236,0.148-0.496,0.223-0.781,0.223c-0.28,0-0.539-0.078-0.777-0.236
				c-0.237-0.154-0.424-0.387-0.561-0.695c-0.136-0.31-0.205-0.683-0.205-1.122c0-0.415,0.063-0.78,0.193-1.096
				c0.128-0.314,0.31-0.556,0.543-0.724c0.233-0.168,0.499-0.252,0.795-0.252c0.285,0,0.547,0.082,0.787,0.245
				c0.239,0.165,0.429,0.402,0.569,0.713c0.141,0.311,0.21,0.682,0.21,1.113C180.232,478.283,180.163,478.667,180.021,478.975z"/>
			<path id="XMLID_954_" style="fill:#B8B8B8;" d="M188.452,478.054c0.233-0.122,0.35-0.385,0.35-0.793
				c0-0.438-0.113-0.87-0.338-1.294c-0.225-0.423-0.564-0.769-1.019-1.035c-0.453-0.268-0.996-0.399-1.628-0.399
				c-0.487,0-0.93,0.077-1.33,0.233c-0.4,0.156-0.737,0.381-1.01,0.674c-0.272,0.293-0.48,0.643-0.623,1.054
				c-0.143,0.409-0.213,0.853-0.213,1.332c0,1.017,0.289,1.822,0.867,2.415c0.577,0.593,1.387,0.891,2.427,0.891
				c0.456,0,0.858-0.06,1.207-0.178c0.352-0.12,0.641-0.268,0.874-0.448c0.231-0.181,0.404-0.368,0.519-0.565
				c0.115-0.196,0.172-0.366,0.172-0.514c0-0.166-0.052-0.294-0.155-0.386c-0.103-0.09-0.237-0.137-0.403-0.137
				c-0.154,0-0.273,0.036-0.356,0.107c-0.203,0.19-0.366,0.34-0.492,0.451s-0.265,0.216-0.415,0.313
				c-0.15,0.098-0.305,0.167-0.466,0.214c-0.16,0.044-0.337,0.067-0.531,0.067c-0.289,0-0.553-0.07-0.792-0.213
				c-0.239-0.143-0.432-0.355-0.576-0.636c-0.144-0.281-0.219-0.605-0.222-0.974h3.168
				C187.89,478.234,188.219,478.174,188.452,478.054z M184.297,477.315c0.055-0.547,0.212-0.96,0.472-1.238
				c0.259-0.28,0.59-0.418,0.994-0.418c0.423,0,0.764,0.137,1.024,0.411c0.259,0.275,0.409,0.69,0.448,1.245H184.297z"/>
			<path id="XMLID_952_" style="fill:#B8B8B8;" d="M193.878,477.617c-0.319-0.17-0.729-0.316-1.231-0.439
				c-0.424-0.104-0.756-0.19-0.997-0.261c-0.242-0.07-0.434-0.161-0.576-0.27c-0.143-0.108-0.213-0.247-0.213-0.418
				c0-0.186,0.097-0.342,0.291-0.465c0.194-0.126,0.437-0.188,0.73-0.188c0.286,0,0.511,0.047,0.677,0.142
				c0.166,0.096,0.31,0.223,0.433,0.381c0.151,0.189,0.284,0.331,0.401,0.426c0.116,0.096,0.258,0.144,0.424,0.144
				c0.23,0,0.407-0.061,0.532-0.178c0.124-0.119,0.187-0.271,0.187-0.457c0-0.171-0.058-0.345-0.175-0.523
				c-0.116-0.178-0.286-0.34-0.51-0.485c-0.223-0.147-0.502-0.265-0.837-0.351c-0.333-0.088-0.71-0.131-1.13-0.131
				c-0.535,0-0.99,0.085-1.367,0.259c-0.378,0.172-0.665,0.402-0.859,0.69c-0.194,0.289-0.291,0.597-0.291,0.92
				c0,0.364,0.105,0.671,0.315,0.921c0.21,0.249,0.489,0.45,0.839,0.602c0.351,0.152,0.804,0.298,1.362,0.435
				c0.494,0.12,0.849,0.244,1.066,0.375c0.216,0.131,0.323,0.338,0.323,0.622c0,0.187-0.104,0.352-0.311,0.497
				c-0.208,0.144-0.474,0.216-0.798,0.216c-0.4,0-0.715-0.07-0.947-0.213c-0.232-0.144-0.431-0.357-0.597-0.647
				c-0.082-0.149-0.169-0.267-0.261-0.351c-0.091-0.082-0.221-0.124-0.39-0.124c-0.194,0-0.355,0.064-0.481,0.19
				c-0.128,0.126-0.191,0.278-0.191,0.456c0,0.27,0.099,0.537,0.296,0.805c0.198,0.267,0.505,0.489,0.92,0.667
				c0.415,0.179,0.914,0.268,1.495,0.268c0.609,0,1.127-0.082,1.552-0.246c0.425-0.164,0.747-0.405,0.964-0.725
				c0.218-0.318,0.326-0.701,0.326-1.148c0-0.297-0.081-0.56-0.246-0.792C194.438,477.988,194.196,477.787,193.878,477.617z"/>
			<path id="XMLID_950_" style="fill:#B8B8B8;" d="M196.486,474.543c-0.238,0-0.431,0.081-0.579,0.243
				c-0.149,0.162-0.222,0.404-0.222,0.724v4.636c0,0.316,0.073,0.56,0.222,0.73c0.148,0.17,0.341,0.255,0.579,0.255
				c0.238,0,0.433-0.083,0.588-0.249c0.154-0.166,0.232-0.412,0.232-0.736v-4.683c0-0.288-0.078-0.515-0.232-0.677
				C196.919,474.624,196.724,474.543,196.486,474.543z"/>
			<path id="XMLID_949_" style="fill:#B8B8B8;" d="M196.504,472.204c-0.217,0-0.409,0.073-0.573,0.223
				c-0.165,0.149-0.246,0.337-0.246,0.567c0,0.254,0.08,0.449,0.24,0.588c0.16,0.138,0.353,0.208,0.579,0.208
				c0.217,0,0.405-0.071,0.563-0.212c0.158-0.14,0.238-0.335,0.238-0.584c0-0.258-0.081-0.453-0.244-0.588
				C196.9,472.272,196.714,472.204,196.504,472.204z"/>
			<path id="XMLID_945_" style="fill:#B8B8B8;" d="M203.626,474.543c-0.217,0-0.396,0.077-0.535,0.231
				c-0.139,0.154-0.208,0.372-0.208,0.652v0.221c-0.289-0.376-0.602-0.651-0.938-0.829c-0.337-0.175-0.734-0.264-1.193-0.264
				c-0.384,0-0.736,0.068-1.056,0.204c-0.321,0.138-0.604,0.34-0.849,0.609c-0.245,0.268-0.433,0.599-0.566,0.991
				c-0.133,0.392-0.199,0.831-0.199,1.317c0,0.653,0.108,1.228,0.327,1.728c0.217,0.498,0.529,0.886,0.934,1.163
				c0.406,0.276,0.88,0.415,1.422,0.415c0.45,0,0.839-0.091,1.166-0.272c0.327-0.182,0.614-0.447,0.864-0.797
				c-0.008,0.531-0.02,0.916-0.036,1.155c-0.016,0.24-0.07,0.465-0.164,0.674c-0.093,0.209-0.255,0.373-0.486,0.489
				c-0.232,0.117-0.557,0.176-0.977,0.176c-0.205,0-0.387-0.02-0.545-0.057c-0.159-0.038-0.294-0.095-0.406-0.171
				c-0.112-0.078-0.216-0.171-0.309-0.28c-0.093-0.108-0.183-0.217-0.27-0.323c-0.178-0.21-0.386-0.315-0.624-0.315
				c-0.189,0-0.352,0.062-0.486,0.188c-0.135,0.123-0.202,0.284-0.202,0.482c0,0.262,0.119,0.516,0.356,0.764
				c0.238,0.247,0.576,0.448,1.014,0.605c0.439,0.155,0.938,0.233,1.496,0.233c0.609,0,1.119-0.061,1.528-0.184
				c0.409-0.122,0.741-0.311,0.994-0.563c0.253-0.254,0.438-0.574,0.551-0.961c0.115-0.389,0.173-0.852,0.173-1.39v-4.706
				c0-0.384-0.051-0.678-0.155-0.882C204.146,474.646,203.938,474.543,203.626,474.543z M202.6,478.908
				c-0.151,0.291-0.346,0.508-0.586,0.653c-0.239,0.144-0.493,0.217-0.762,0.217c-0.455,0-0.826-0.168-1.113-0.505
				c-0.287-0.336-0.431-0.834-0.431-1.49c0-0.648,0.139-1.149,0.419-1.501c0.279-0.352,0.649-0.528,1.113-0.528
				c0.475,0,0.858,0.184,1.148,0.553c0.291,0.367,0.437,0.882,0.437,1.542C202.825,478.265,202.749,478.617,202.6,478.908z"/>
			<path id="XMLID_944_" style="fill:#B8B8B8;" d="M210.978,475.61c-0.165-0.339-0.418-0.602-0.753-0.788
				c-0.337-0.187-0.718-0.279-1.146-0.279c-0.439,0-0.828,0.088-1.166,0.264c-0.338,0.177-0.65,0.452-0.935,0.828v-0.195
				c0-0.193-0.034-0.358-0.104-0.493c-0.069-0.134-0.162-0.234-0.276-0.302c-0.114-0.068-0.244-0.102-0.387-0.102
				c-0.233,0-0.416,0.076-0.552,0.229c-0.134,0.152-0.201,0.383-0.201,0.691v4.683c0,0.316,0.076,0.56,0.226,0.73
				c0.15,0.17,0.342,0.255,0.576,0.255c0.241,0,0.438-0.082,0.59-0.246c0.152-0.164,0.228-0.411,0.228-0.739v-2.03
				c0-0.66,0.04-1.11,0.119-1.353c0.11-0.3,0.284-0.537,0.522-0.71c0.237-0.172,0.5-0.258,0.788-0.258
				c0.444,0,0.74,0.143,0.888,0.425c0.148,0.282,0.223,0.691,0.223,1.226v2.7c0,0.316,0.074,0.56,0.226,0.73
				c0.15,0.17,0.346,0.255,0.587,0.255c0.238,0,0.431-0.083,0.578-0.249c0.149-0.166,0.224-0.412,0.224-0.736v-3.016
				c0-0.357-0.017-0.648-0.048-0.878C211.155,476.023,211.085,475.809,210.978,475.61z"/>
			<path id="XMLID_939_" style="fill:#B8B8B8;" d="M217.821,478.054c0.233-0.122,0.35-0.385,0.35-0.793
				c0-0.438-0.113-0.87-0.338-1.294c-0.226-0.423-0.565-0.769-1.019-1.035c-0.453-0.268-0.996-0.399-1.628-0.399
				c-0.487,0-0.93,0.077-1.33,0.233c-0.4,0.156-0.736,0.381-1.009,0.674c-0.273,0.293-0.481,0.643-0.624,1.054
				c-0.142,0.409-0.213,0.853-0.213,1.332c0,1.017,0.289,1.822,0.866,2.415c0.578,0.593,1.387,0.891,2.428,0.891
				c0.455,0,0.858-0.06,1.208-0.178c0.351-0.12,0.64-0.268,0.872-0.448c0.232-0.181,0.405-0.368,0.52-0.565
				c0.114-0.196,0.172-0.366,0.172-0.514c0-0.166-0.051-0.294-0.154-0.386c-0.103-0.09-0.238-0.137-0.404-0.137
				c-0.154,0-0.273,0.036-0.356,0.107c-0.201,0.19-0.366,0.34-0.492,0.451c-0.128,0.111-0.266,0.216-0.415,0.313
				c-0.151,0.098-0.307,0.167-0.466,0.214c-0.161,0.044-0.338,0.067-0.532,0.067c-0.288,0-0.553-0.07-0.792-0.213
				c-0.239-0.143-0.431-0.355-0.575-0.636c-0.145-0.281-0.219-0.605-0.223-0.974h3.169
				C217.26,478.234,217.588,478.174,217.821,478.054z M213.666,477.315c0.056-0.547,0.212-0.96,0.471-1.238
				c0.259-0.28,0.591-0.418,0.995-0.418c0.423,0,0.765,0.137,1.024,0.411c0.259,0.275,0.409,0.69,0.448,1.245H213.666z"/>
			<path id="XMLID_936_" style="fill:#B8B8B8;" d="M224.206,472.134c-0.245,0-0.434,0.085-0.567,0.255
				c-0.132,0.17-0.199,0.421-0.199,0.753v2.393c-0.304-0.332-0.617-0.579-0.938-0.739c-0.32-0.159-0.714-0.24-1.181-0.24
				c-0.808,0-1.458,0.283-1.953,0.849c-0.495,0.566-0.741,1.355-0.741,2.369c0,0.479,0.062,0.923,0.187,1.335
				c0.125,0.412,0.308,0.77,0.549,1.074c0.241,0.305,0.527,0.539,0.857,0.703c0.33,0.164,0.689,0.246,1.077,0.246
				c0.293,0,0.563-0.04,0.81-0.122c0.248-0.08,0.476-0.199,0.689-0.356c0.211-0.155,0.426-0.358,0.643-0.607v0.16
				c0,0.297,0.072,0.525,0.217,0.685c0.145,0.16,0.328,0.24,0.549,0.24c0.226,0,0.41-0.077,0.552-0.231
				c0.143-0.154,0.213-0.386,0.213-0.694v-7.147c0-0.305-0.065-0.534-0.199-0.69C224.641,472.212,224.452,472.134,224.206,472.134z
				 M223.141,478.975c-0.14,0.306-0.328,0.533-0.564,0.682c-0.235,0.148-0.495,0.223-0.781,0.223c-0.281,0-0.54-0.078-0.776-0.236
				c-0.238-0.154-0.425-0.387-0.562-0.695c-0.137-0.31-0.205-0.683-0.205-1.122c0-0.415,0.064-0.78,0.193-1.096
				c0.129-0.314,0.31-0.556,0.543-0.724c0.233-0.168,0.499-0.252,0.795-0.252c0.285,0,0.547,0.082,0.787,0.245
				c0.239,0.165,0.43,0.402,0.57,0.713c0.14,0.311,0.21,0.682,0.21,1.113C223.352,478.283,223.281,478.667,223.141,478.975z"/>
			<path id="XMLID_933_" style="fill:#B8B8B8;" d="M233.586,474.938c-0.406-0.255-0.877-0.383-1.415-0.383
				c-0.467,0-0.859,0.084-1.175,0.252c-0.317,0.168-0.627,0.411-0.932,0.728v-2.476c0-0.297-0.068-0.524-0.202-0.686
				c-0.135-0.159-0.326-0.239-0.576-0.239c-0.237,0-0.423,0.084-0.555,0.252c-0.133,0.168-0.198,0.416-0.198,0.744v7.075
				c0,0.305,0.068,0.535,0.205,0.692c0.136,0.156,0.319,0.233,0.549,0.233c0.226,0,0.412-0.077,0.558-0.233
				c0.146-0.157,0.22-0.388,0.22-0.692v-0.16c0.178,0.205,0.322,0.36,0.43,0.463c0.109,0.103,0.241,0.203,0.395,0.3
				c0.154,0.098,0.341,0.175,0.561,0.234c0.22,0.06,0.454,0.089,0.704,0.089c0.407,0,0.781-0.082,1.119-0.246
				c0.338-0.164,0.626-0.397,0.864-0.698c0.237-0.3,0.418-0.655,0.543-1.064c0.124-0.41,0.187-0.859,0.187-1.35
				c0-0.665-0.112-1.241-0.336-1.725C234.305,475.564,233.991,475.193,233.586,474.938z M232.796,479.348
				c-0.295,0.354-0.646,0.531-1.053,0.531c-0.479,0-0.866-0.174-1.161-0.521c-0.295-0.346-0.442-0.841-0.442-1.486
				c0-0.44,0.069-0.818,0.207-1.136c0.138-0.319,0.328-0.563,0.57-0.73c0.24-0.168,0.516-0.252,0.825-0.252
				c0.3,0,0.563,0.084,0.789,0.252c0.225,0.168,0.399,0.406,0.521,0.716c0.123,0.308,0.184,0.677,0.184,1.103
				C233.238,478.486,233.09,478.993,232.796,479.348z"/>
			<path id="XMLID_931_" style="fill:#B8B8B8;" d="M240.529,474.641c-0.112-0.065-0.23-0.098-0.353-0.098
				c-0.171,0-0.302,0.029-0.395,0.09c-0.093,0.058-0.181,0.173-0.264,0.344c-0.083,0.17-0.176,0.406-0.279,0.705l-1.3,3.71
				l-1.371-3.988c-0.091-0.277-0.195-0.489-0.314-0.638c-0.119-0.148-0.295-0.223-0.529-0.223c-0.135,0-0.264,0.035-0.389,0.107
				c-0.124,0.07-0.222,0.166-0.294,0.285c-0.071,0.117-0.107,0.246-0.107,0.385c0,0.131,0.062,0.341,0.184,0.629l1.995,5.022
				l-0.148,0.362c-0.111,0.265-0.208,0.466-0.294,0.601c-0.085,0.139-0.181,0.234-0.288,0.289c-0.107,0.056-0.254,0.084-0.44,0.084
				c-0.075,0-0.163-0.013-0.266-0.036c-0.083-0.024-0.168-0.036-0.256-0.036c-0.221,0-0.388,0.051-0.501,0.151
				c-0.113,0.101-0.169,0.245-0.169,0.431c0,0.272,0.119,0.461,0.356,0.564c0.237,0.103,0.593,0.153,1.068,0.153
				c0.487,0,0.873-0.073,1.161-0.223c0.287-0.147,0.517-0.361,0.691-0.638c0.174-0.277,0.353-0.659,0.535-1.146l2.113-5.531
				c0.051-0.143,0.095-0.283,0.13-0.421c0.037-0.14,0.061-0.246,0.078-0.321c0-0.123-0.032-0.239-0.093-0.35
				C240.729,474.794,240.642,474.706,240.529,474.641z"/>
		</g>
		<g id="XMLID_365_">
			<g id="XMLID_380_">
				<path id="XMLID_928_" style="fill:#B8B8B8;" d="M262.93,472.129c-0.533,0-0.954,0.068-1.26,0.204
					c-0.308,0.137-0.527,0.354-0.654,0.652c-0.13,0.301-0.191,0.702-0.191,1.211v0.487h-0.387c-0.543,0-0.815,0.191-0.815,0.582
					c0,0.174,0.065,0.315,0.196,0.423c0.132,0.111,0.316,0.164,0.559,0.164h0.446v4.294c0,0.318,0.074,0.563,0.228,0.729
					c0.154,0.17,0.344,0.254,0.573,0.254c0.243,0,0.438-0.084,0.589-0.254c0.155-0.167,0.23-0.411,0.23-0.729v-4.294h0.396
					c0.291,0,0.517-0.035,0.681-0.107c0.166-0.071,0.245-0.24,0.245-0.503c0-0.373-0.307-0.559-0.926-0.559h-0.396v-0.387
					c0-0.321,0.043-0.567,0.122-0.739c0.087-0.172,0.273-0.26,0.565-0.26c0.108,0,0.241,0.014,0.39,0.034
					c0.155,0.026,0.268,0.038,0.33,0.038c0.134,0,0.252-0.055,0.348-0.16c0.102-0.107,0.15-0.235,0.15-0.385
					C264.35,472.358,263.879,472.129,262.93,472.129z"/>
				<path id="XMLID_926_" style="fill:#B8B8B8;" d="M268.089,474.795c-0.32-0.171-0.648-0.255-0.99-0.255
					c-0.342,0-0.61,0.084-0.818,0.255c-0.202,0.171-0.4,0.421-0.592,0.755c-0.015-0.334-0.08-0.584-0.199-0.755
					c-0.119-0.171-0.313-0.255-0.583-0.255c-0.525,0-0.788,0.364-0.788,1.093v4.514c0,0.323,0.078,0.568,0.226,0.732
					c0.149,0.169,0.34,0.251,0.579,0.251c0.236,0,0.432-0.081,0.586-0.247c0.15-0.163,0.233-0.41,0.233-0.736v-1.356
					c0-0.486,0.014-0.899,0.045-1.238c0.033-0.337,0.09-0.631,0.17-0.878c0.084-0.243,0.201-0.425,0.353-0.554
					c0.149-0.122,0.345-0.186,0.582-0.186c0.172,0,0.374,0.036,0.602,0.108c0.227,0.073,0.371,0.112,0.434,0.112
					c0.157,0,0.304-0.064,0.44-0.194c0.135-0.126,0.204-0.292,0.204-0.488C268.571,475.192,268.411,474.966,268.089,474.795z"/>
				<path id="XMLID_922_" style="fill:#B8B8B8;" d="M274.176,478.052c0.233-0.122,0.351-0.385,0.351-0.791
					c0-0.44-0.112-0.87-0.339-1.296c-0.222-0.423-0.565-0.77-1.018-1.033c-0.453-0.27-0.997-0.403-1.629-0.403
					c-0.488,0-0.931,0.078-1.329,0.232c-0.402,0.157-0.735,0.381-1.008,0.675c-0.275,0.295-0.484,0.644-0.624,1.055
					c-0.145,0.41-0.218,0.854-0.218,1.333c0,1.017,0.293,1.823,0.87,2.418c0.576,0.593,1.385,0.889,2.429,0.889
					c0.453,0,0.857-0.061,1.207-0.179c0.349-0.117,0.64-0.269,0.874-0.446c0.232-0.182,0.404-0.368,0.522-0.566
					c0.111-0.194,0.167-0.365,0.167-0.512c0-0.167-0.048-0.294-0.152-0.386c-0.104-0.093-0.237-0.139-0.405-0.139
					c-0.152,0-0.271,0.038-0.355,0.108c-0.202,0.189-0.367,0.34-0.493,0.449c-0.128,0.113-0.264,0.218-0.415,0.313
					c-0.15,0.097-0.307,0.17-0.466,0.213c-0.16,0.048-0.336,0.069-0.531,0.069c-0.29,0-0.552-0.07-0.792-0.212
					c-0.24-0.145-0.431-0.357-0.578-0.636c-0.145-0.28-0.216-0.606-0.222-0.974h3.171
					C273.615,478.233,273.942,478.173,274.176,478.052z M270.02,477.313c0.055-0.546,0.213-0.957,0.472-1.236
					c0.26-0.28,0.592-0.418,0.995-0.418c0.426,0,0.764,0.136,1.024,0.412c0.261,0.273,0.407,0.688,0.446,1.242H270.02z"/>
				<path id="XMLID_919_" style="fill:#B8B8B8;" d="M280.916,478.052c0.232-0.122,0.352-0.385,0.352-0.791
					c0-0.44-0.116-0.87-0.341-1.296c-0.222-0.423-0.564-0.77-1.013-1.033c-0.46-0.27-1.003-0.403-1.634-0.403
					c-0.486,0-0.932,0.078-1.33,0.232c-0.4,0.157-0.736,0.381-1.009,0.675c-0.273,0.295-0.48,0.644-0.622,1.055
					c-0.145,0.41-0.218,0.854-0.218,1.333c0,1.017,0.291,1.823,0.868,2.418c0.58,0.593,1.387,0.889,2.43,0.889
					c0.453,0,0.859-0.061,1.208-0.179c0.348-0.117,0.641-0.269,0.872-0.446c0.234-0.182,0.408-0.368,0.518-0.566
					c0.116-0.194,0.171-0.365,0.171-0.512c0-0.167-0.047-0.294-0.15-0.386c-0.104-0.093-0.238-0.139-0.406-0.139
					c-0.151,0-0.27,0.038-0.355,0.108c-0.202,0.189-0.367,0.34-0.492,0.449c-0.127,0.113-0.264,0.218-0.415,0.313
					c-0.152,0.097-0.307,0.17-0.469,0.213c-0.157,0.048-0.335,0.069-0.527,0.069c-0.291,0-0.556-0.07-0.795-0.212
					c-0.238-0.145-0.431-0.357-0.575-0.636c-0.144-0.28-0.218-0.606-0.222-0.974h3.17
					C280.354,478.233,280.682,478.173,280.916,478.052z M276.762,477.313c0.053-0.546,0.211-0.957,0.47-1.236
					c0.261-0.28,0.592-0.418,0.995-0.418c0.425,0,0.764,0.136,1.026,0.412c0.257,0.273,0.407,0.688,0.446,1.242H276.762z"/>
				<path id="XMLID_390_" style="fill:#B8B8B8;" d="M286.927,474.938c-0.42-0.257-0.883-0.387-1.379-0.387
					c-0.415,0-0.79,0.09-1.114,0.268c-0.331,0.176-0.648,0.452-0.952,0.827v-0.194c0-0.297-0.071-0.52-0.218-0.678
					c-0.144-0.155-0.329-0.233-0.56-0.233c-0.233,0-0.419,0.078-0.554,0.228c-0.133,0.154-0.199,0.382-0.199,0.691v6.995
					c0,0.354,0.051,0.62,0.145,0.807c0.102,0.183,0.301,0.274,0.607,0.274c0.517,0,0.777-0.358,0.777-1.068v-2.434
					c0.286,0.358,0.586,0.635,0.9,0.817c0.314,0.187,0.704,0.279,1.166,0.279c0.385,0,0.741-0.076,1.079-0.228
					c0.334-0.152,0.622-0.372,0.868-0.653c0.245-0.283,0.44-0.632,0.58-1.05c0.14-0.418,0.21-0.878,0.21-1.376
					c0-0.677-0.122-1.261-0.366-1.758C287.676,475.571,287.346,475.195,286.927,474.938z M286.45,478.94
					c-0.137,0.313-0.32,0.546-0.552,0.704c-0.229,0.153-0.48,0.233-0.748,0.233c-0.454,0-0.828-0.179-1.133-0.536
					c-0.307-0.358-0.46-0.862-0.46-1.504c0-0.687,0.155-1.204,0.462-1.558c0.307-0.35,0.685-0.527,1.131-0.527
					c0.281,0,0.54,0.083,0.77,0.247c0.229,0.163,0.411,0.398,0.542,0.705c0.13,0.306,0.196,0.674,0.196,1.101
					C286.658,478.248,286.589,478.627,286.45,478.94z"/>
				<path id="XMLID_389_" style="fill:#B8B8B8;" d="M289.9,474.54c-0.238,0-0.428,0.079-0.58,0.244
					c-0.146,0.163-0.222,0.403-0.222,0.722v4.642c0,0.313,0.076,0.555,0.222,0.729c0.152,0.17,0.342,0.254,0.58,0.254
					s0.432-0.082,0.588-0.251c0.154-0.164,0.231-0.409,0.231-0.731v-4.688c0-0.286-0.077-0.512-0.231-0.675
					C290.332,474.619,290.139,474.54,289.9,474.54z"/>
				<path id="XMLID_388_" style="fill:#B8B8B8;" d="M289.917,472.199c-0.217,0-0.407,0.076-0.571,0.223
					c-0.166,0.149-0.247,0.339-0.247,0.568c0,0.253,0.08,0.447,0.242,0.586c0.158,0.138,0.35,0.209,0.576,0.209
					c0.22,0,0.408-0.071,0.566-0.21c0.157-0.14,0.236-0.335,0.236-0.585c0-0.257-0.082-0.454-0.244-0.591
					C290.314,472.267,290.13,472.199,289.917,472.199z"/>
				<path id="XMLID_387_" style="fill:#B8B8B8;" d="M297.258,479.569l-1.662-2.614l0.861-0.788c0.438-0.395,0.658-0.714,0.658-0.951
					c0-0.192-0.068-0.354-0.2-0.483c-0.138-0.128-0.306-0.192-0.509-0.192c-0.169,0-0.313,0.043-0.432,0.13
					c-0.121,0.086-0.29,0.251-0.517,0.486l-1.822,1.913v-3.933c0-0.329-0.074-0.581-0.221-0.751
					c-0.147-0.171-0.344-0.257-0.593-0.257c-0.256,0-0.457,0.093-0.596,0.283c-0.136,0.188-0.207,0.462-0.207,0.82v6.914
					c0,0.323,0.073,0.568,0.215,0.732c0.141,0.169,0.339,0.251,0.588,0.251c0.213,0,0.405-0.084,0.566-0.254
					c0.164-0.167,0.247-0.406,0.247-0.719v-1.29l0.88-0.83l1.428,2.352c0.182,0.278,0.329,0.472,0.435,0.58
					c0.107,0.109,0.261,0.16,0.459,0.16c0.226,0,0.412-0.073,0.553-0.222c0.142-0.15,0.214-0.351,0.214-0.609
					c0-0.089-0.029-0.189-0.082-0.288C297.47,479.909,297.379,479.765,297.258,479.569z"/>
				<path id="XMLID_386_" style="fill:#B8B8B8;" d="M299.45,479.343c-0.251,0-0.459,0.087-0.63,0.262
					c-0.171,0.173-0.257,0.381-0.257,0.622c0,0.287,0.091,0.51,0.269,0.665c0.179,0.159,0.389,0.238,0.633,0.238
					c0.237,0,0.444-0.079,0.624-0.241c0.175-0.157,0.264-0.38,0.264-0.662c0-0.243-0.089-0.454-0.264-0.626
					C299.909,479.43,299.698,479.343,299.45,479.343z"/>
				<path id="XMLID_385_" style="fill:#B8B8B8;" d="M306.835,478.416c-0.166,0-0.308,0.055-0.422,0.156
					c-0.113,0.104-0.219,0.245-0.318,0.427c-0.177,0.31-0.381,0.538-0.616,0.69c-0.23,0.149-0.509,0.225-0.834,0.225
					c-0.24,0-0.463-0.045-0.666-0.141c-0.201-0.094-0.372-0.229-0.516-0.409c-0.144-0.18-0.252-0.398-0.325-0.652
					c-0.075-0.256-0.114-0.537-0.114-0.842c0-0.646,0.147-1.161,0.44-1.533c0.293-0.375,0.682-0.561,1.158-0.561
					c0.333,0,0.606,0.075,0.82,0.227c0.219,0.147,0.425,0.376,0.623,0.674c0.108,0.158,0.209,0.27,0.299,0.339
					c0.09,0.069,0.201,0.104,0.338,0.104c0.202,0,0.377-0.068,0.524-0.203c0.143-0.135,0.214-0.3,0.214-0.491
					c0-0.192-0.062-0.397-0.192-0.617c-0.127-0.218-0.315-0.424-0.556-0.62c-0.245-0.192-0.54-0.352-0.891-0.474
					c-0.353-0.124-0.736-0.185-1.156-0.185c-0.674,0-1.26,0.139-1.747,0.419c-0.485,0.278-0.858,0.673-1.113,1.183
					c-0.259,0.511-0.387,1.098-0.387,1.765c0,0.982,0.281,1.765,0.841,2.35c0.563,0.582,1.345,0.876,2.349,0.876
					c0.469,0,0.894-0.065,1.269-0.191c0.377-0.126,0.688-0.295,0.935-0.503c0.248-0.207,0.434-0.425,0.553-0.655
					c0.122-0.23,0.183-0.446,0.183-0.647c0-0.169-0.066-0.331-0.198-0.481C307.198,478.493,307.033,478.416,306.835,478.416z"/>
				<path id="XMLID_382_" style="fill:#B8B8B8;" d="M313.646,475.453c-0.288-0.291-0.628-0.518-1.026-0.675
					c-0.4-0.16-0.847-0.238-1.336-0.238c-0.482,0-0.924,0.078-1.326,0.233c-0.398,0.158-0.737,0.38-1.02,0.669
					c-0.281,0.288-0.498,0.637-0.648,1.045c-0.146,0.408-0.225,0.857-0.225,1.349c0,0.485,0.076,0.93,0.22,1.332
					c0.151,0.401,0.369,0.75,0.657,1.048c0.284,0.292,0.626,0.521,1.016,0.676c0.393,0.159,0.835,0.239,1.326,0.239
					c0.492,0,0.937-0.08,1.336-0.234c0.394-0.157,0.735-0.382,1.02-0.675c0.286-0.291,0.502-0.642,0.656-1.05
					c0.145-0.408,0.222-0.854,0.222-1.336c0-0.488-0.075-0.932-0.221-1.339C314.148,476.096,313.933,475.749,313.646,475.453z
					 M312.455,479.368c-0.29,0.373-0.682,0.558-1.171,0.558c-0.324,0-0.604-0.086-0.846-0.253c-0.24-0.168-0.424-0.409-0.554-0.729
					c-0.129-0.316-0.193-0.685-0.193-1.108c0-0.428,0.066-0.803,0.197-1.124c0.13-0.321,0.314-0.564,0.556-0.728
					c0.242-0.163,0.522-0.245,0.84-0.245c0.489,0,0.881,0.182,1.171,0.555c0.289,0.367,0.436,0.881,0.436,1.542
					C312.891,478.486,312.744,478.999,312.455,479.368z"/>
				<path id="XMLID_381_" style="fill:#B8B8B8;" d="M323.569,474.814c-0.32-0.173-0.705-0.263-1.146-0.263
					c-0.38,0-0.726,0.081-1.038,0.241c-0.314,0.161-0.607,0.408-0.882,0.738c-0.191-0.326-0.431-0.572-0.725-0.735
					c-0.292-0.162-0.642-0.244-1.048-0.244c-0.395,0-0.748,0.079-1.07,0.241c-0.319,0.156-0.62,0.403-0.903,0.738v-0.153
					c0-0.261-0.073-0.466-0.221-0.616c-0.15-0.145-0.335-0.221-0.558-0.221c-0.226,0-0.412,0.078-0.556,0.238
					c-0.14,0.157-0.21,0.389-0.21,0.694v4.636c0,0.337,0.078,0.592,0.235,0.765c0.156,0.171,0.358,0.258,0.604,0.258
					c0.248,0,0.447-0.087,0.603-0.258c0.149-0.173,0.227-0.428,0.227-0.765v-2.189c0-0.683,0.086-1.206,0.253-1.566
					c0.169-0.369,0.517-0.55,1.048-0.55c0.264,0,0.459,0.071,0.582,0.22c0.121,0.142,0.197,0.33,0.226,0.552
					c0.027,0.226,0.04,0.544,0.04,0.952v2.581c0,0.342,0.078,0.594,0.232,0.768c0.148,0.17,0.35,0.255,0.595,0.255
					c0.254,0,0.454-0.085,0.61-0.255c0.156-0.174,0.23-0.426,0.23-0.768v-2.153c0-0.694,0.063-1.178,0.178-1.452
					c0.109-0.209,0.259-0.383,0.451-0.508c0.191-0.125,0.395-0.191,0.608-0.191c0.264,0,0.463,0.071,0.596,0.215
					c0.128,0.142,0.209,0.318,0.238,0.528c0.029,0.21,0.044,0.486,0.044,0.837v2.725c0,0.337,0.078,0.592,0.234,0.765
					c0.157,0.171,0.356,0.258,0.604,0.258c0.252,0,0.458-0.085,0.611-0.255c0.154-0.174,0.229-0.426,0.229-0.768v-3.163
					c0-0.629-0.068-1.091-0.206-1.386C324.128,475.237,323.889,474.987,323.569,474.814z"/>
			</g>
			<g id="XMLID_366_">
				<path id="XMLID_379_" style="fill:#B8B8B8;" d="M245.273,477.443c-0.001-0.003-0.001-0.006-0.001-0.011
					C245.272,477.438,245.272,477.44,245.273,477.443z"/>
				<path id="XMLID_378_" style="fill:#B8B8B8;" d="M245.355,477.961c0.001,0,0.001,0,0.001,0c-0.03-0.146-0.055-0.294-0.073-0.438
					C245.301,477.669,245.326,477.816,245.355,477.961z"/>
				<path id="XMLID_377_" style="fill:#B8B8B8;" d="M245.891,479.466c-0.003-0.007-0.006-0.014-0.01-0.021
					C245.885,479.452,245.888,479.459,245.891,479.466z"/>
				<path id="XMLID_376_" style="fill:#B8B8B8;" d="M245.84,479.365c-0.014-0.027-0.027-0.056-0.04-0.083
					C245.812,479.311,245.826,479.338,245.84,479.365z"/>
				<path id="XMLID_375_" style="fill:#B8B8B8;" d="M245.505,478.541c0.08,0.25,0.175,0.492,0.286,0.724
					c-0.113-0.236-0.206-0.478-0.284-0.724H245.505z"/>
				<path id="XMLID_374_" style="fill:#B8B8B8;" d="M250.736,470.682l-0.076-0.26c0.299-0.063,0.523-0.329,0.523-0.647
					c0-0.363-0.296-0.659-0.66-0.659c-0.365,0-0.66,0.296-0.66,0.659c0,0.317,0.225,0.584,0.522,0.647l0.084,0.289
					c-1.021,0.141-1.834,0.539-1.834,0.539l0.144,0.44c0.617-0.206,1.153-0.331,1.64-0.383c0.476-0.051,0.833-0.073,1.126-0.073
					c0.313,0,0.545,0.025,0.81,0.069l0.075-0.476C252.43,470.828,251.697,470.603,250.736,470.682z"/>
				<path id="XMLID_373_" style="fill:#B8B8B8;" d="M245.453,473.189c-0.017,0.023-0.497,0.465-0.876,1.279
					c-0.016-0.025-0.035-0.051-0.056-0.074c-0.114-0.124-0.272-0.188-0.474-0.184c-0.003,0-0.006,0-0.01,0
					c-0.124,0-0.21-0.042-0.266-0.093c0.056-0.07,0.089-0.16,0.089-0.258c0-0.23-0.188-0.419-0.419-0.419
					c-0.23,0-0.417,0.189-0.417,0.419c0,0.231,0.188,0.417,0.417,0.417c0.037,0,0.071-0.005,0.105-0.012
					c0.102,0.113,0.266,0.214,0.504,0.209c0.124-0.002,0.214,0.03,0.273,0.097c0.07,0.075,0.093,0.185,0.1,0.267
					c-0.001,0.002-0.001,0.004-0.002,0.004c-0.272,0.743-0.194,1.668-0.194,1.668l0.661,0.025c0.014-0.336,0.061-0.925,0.232-1.393
					c0.329-0.906,0.741-1.472,0.757-1.496l0.004-0.005c0.024-0.031,0.047-0.06,0.071-0.089l-0.196-0.142L245.453,473.189z"/>
				<path id="XMLID_372_" style="fill:#B8B8B8;" d="M257.294,471.787c-0.23,0-0.419,0.186-0.419,0.417
					c0,0.037,0.006,0.071,0.016,0.104c-0.115,0.104-0.215,0.267-0.211,0.506c0.002,0.123-0.03,0.213-0.097,0.273
					c-0.053,0.047-0.119,0.071-0.185,0.087c-0.492-0.689-1.098-1.109-1.098-1.109l-0.474,0.509c0.358,0.326,0.725,0.734,1.08,1.244
					c0.246,0.352,0.499,0.806,0.71,1.258l0.64-0.304c0,0-0.292-0.722-0.703-1.369c0.071-0.025,0.143-0.063,0.206-0.12
					c0.126-0.113,0.188-0.272,0.184-0.474c-0.001-0.13,0.041-0.218,0.093-0.275c0.071,0.054,0.16,0.089,0.258,0.089
					c0.232,0,0.418-0.188,0.418-0.419C257.712,471.974,257.525,471.787,257.294,471.787z"/>
				<path id="XMLID_371_" style="fill:#B8B8B8;" d="M255.633,477.537c-0.88,0.429-2.33,0.996-4.236,1.262
					c-0.749,0.104-1.475,0.143-2.143,0.143c-0.869,0-1.638-0.064-2.227-0.14c-0.672-0.084-1.198-0.188-1.52-0.261
					c0.078,0.245,0.171,0.487,0.284,0.724c0.002,0.006,0.005,0.013,0.008,0.018c0.013,0.027,0.027,0.056,0.04,0.083
					c0.014,0.027,0.027,0.055,0.041,0.079c0.004,0.008,0.007,0.015,0.01,0.021c0.19,0.357,0.417,0.684,0.676,0.968
					c0.899,0.984,1.816,1.139,1.825,1.141l0.015,0.002l0.013,0.005c0.009,0.003,0.821,0.265,2.057,0.265
					c1.215,0,2.409-0.244,3.545-0.729c0.842-0.431,1.639-1.085,2.033-1.668c0.306-0.452,0.526-0.934,0.656-1.434
					c0.069-0.266,0.124-0.692,0.092-1.141C256.555,477.042,256.163,477.279,255.633,477.537z"/>
				<path id="XMLID_367_" style="fill:#B8B8B8;" d="M252.322,471.655c-0.265-0.044-0.477-0.068-0.777-0.068
					c-0.279,0-0.626,0.022-1.088,0.07c-0.465,0.049-0.982,0.171-1.583,0.373c-0.842,0.282-1.604,0.725-2.204,1.28l-0.02,0.019
					c-0.089,0.081-0.275,0.254-0.488,0.525c-0.025,0.037-0.408,0.578-0.709,1.408c-0.226,0.621-0.216,1.526-0.216,1.537v0.001
					c0,0.212,0.013,0.423,0.036,0.632c0,0.005,0,0.008,0.001,0.011c0.003,0.027,0.007,0.053,0.01,0.08
					c0.019,0.144,0.043,0.291,0.074,0.438c0.438,0.112,3.048,0.721,5.967,0.314c1.829-0.254,3.218-0.795,4.061-1.204
					c0.701-0.34,1.151-0.647,1.325-0.773c-0.173-0.643-0.651-1.65-1.089-2.278C254.367,472.228,253.016,471.77,252.322,471.655z
					 M248.679,476.914c-0.972,0-1.759-0.787-1.759-1.76c0-0.972,0.788-1.76,1.759-1.76c0.973,0,1.761,0.788,1.761,1.76
					C250.439,476.127,249.651,476.914,248.679,476.914z M253.828,475.617c-0.601,0-1.088-0.489-1.088-1.09
					c0-0.603,0.487-1.09,1.088-1.09s1.09,0.487,1.09,1.09C254.918,475.128,254.429,475.617,253.828,475.617z"/>
			</g>
		</g>
	</g>
</g>
</svg>
